<?xml version="1.0" encoding="utf-8"?>
<!-- Generator: Adobe Illustrator 24.0.2, SVG Export Plug-In . SVG Version: 6.00 Build 0)  -->
<svg version="1.1" id="icon" xmlns="http://www.w3.org/2000/svg" xmlns:xlink="http://www.w3.org/1999/xlink" x="0px" y="0px"
	 width="725px" height="725px" viewBox="0 0 725 725" style="enable-background:new 0 0 725 725;" xml:space="preserve">
<style type="text/css">
	.st0{fill:#FFFFFF;}
</style>
<title>help-desk</title>
<path class="st0" d="M723.6,266.3L666.4,73.7c-4.5-15.2-18.7-25.5-34.7-25L308.5,58.8c-13.5,0.4-25.8,7.5-33.1,18.7l-24.7,38.4
	L160,94.2c-21.7-5.2-44.5,5.5-54.2,25.6L4.8,328.5c-9.5,19.5-4.6,42.9,11.9,57.1l34,29.3L17,466.9c-9.9,15.3-13.3,33.7-9.5,51.7
	c3.8,17.9,14.4,33.2,29.9,43.3c11.2,7.2,24,11,37.1,11c3.2,0,6.7-0.3,10.4-0.8l2-0.3l0.5,1.9c4.5,16.1,14.8,30,28.8,39.1
	c11.1,7.2,23.9,11,37.2,11c3.1,0,6.4-0.3,10.3-0.8l2-0.3l0.5,1.9c4.4,16,14.6,29.9,28.8,39.1c11.1,7.2,23.9,11,37.2,11
	c23.6,0,45.2-11.7,57.8-31.4l10.9-16.9l58.9,39.1c11.1,7.2,23.9,11,37.1,11c4.9,0,9.8-0.5,14.5-1.6c18-3.6,33.4-14.1,43.5-29.7l0,0
	c6.7-10.4,10.5-22.5,10.9-35l0.1-2.1l2.1-0.1c3.1-0.2,6.4-0.6,10.4-1.4l0.1,0c17.9-3.8,33.2-14.4,43.3-29.9
	c6.8-10.6,10.6-22.7,10.9-35l0.1-2.1l2.1-0.1c3.1-0.2,6.5-0.6,10.4-1.4l0.1,0c18-3.8,33.4-14.4,43.3-29.9
	c6.7-10.4,10.5-22.5,10.9-35.1l0.1-2.1l2.1-0.1c21.8-1.3,41.9-12.9,53.9-31.2c9.9-15.3,13.3-33.7,9.5-51.8
	c-2.8-12.8-8.9-24.3-17.7-33.3l-1.8-1.9l65.3-48.3C722.6,295.7,727.7,280.4,723.6,266.3z M472.1,402.9l72.6,46.9
	c7,4.5,11.2,12,11.5,20.5c0.2,3.4-0.5,6.9-1.9,10.1c-3.3,7.9-9.9,13.4-18,15.1c-6.6,1.4-13.3,0.2-19-3.5l-72.6-46.9l-23.6,36.6
	l56.6,36.6c5.6,3.6,9.5,9.3,10.9,15.9c1.4,6.6,0.2,13.3-3.4,18.9c-3.7,5.7-9.3,9.6-15.8,11c-6.6,1.4-13.3,0.2-19-3.5l-61.6-39.9
	l-23.6,36.6L411,587c5.5,3.5,9.3,8.9,10.7,15.3c1.5,6.6,0.3,13.4-3.4,19.1c-3.7,5.7-9.3,9.6-15.8,11l-0.1,0
	c-1.6,0.4-3.3,0.6-5.3,0.6c-4.7,0-9.4-1.4-13.5-3.9L324.7,590l13.5-21c9.9-15.3,13.3-33.7,9.5-51.7c-3.8-18-14.4-33.4-29.9-43.3
	c-14-9-30.9-12.6-47.5-10.2l-2,0.3l-0.5-1.9c-4.6-16.2-14.8-30.1-28.8-39.1c-14-9-30.9-12.6-47.5-10.2l-2,0.3l-0.5-1.9
	c-4.4-16-14.6-29.9-28.8-39.1c-25.5-16.5-59.4-14.1-82.5,6l-1.5,1.3l-33.7-29.1l104-214.7l79.1,19l-38.9,60.5
	c-9.9,15.3-13.3,33.7-9.5,51.7c3.8,18,14.4,33.4,29.9,43.3c11.5,7.4,24.4,11,37.2,11c22.5,0,44.6-11,57.7-31.2l50.8-77.1
	l258.6,168.3c5.6,3.6,9.5,9.3,10.9,15.8c1.4,6.6,0.2,13.3-3.5,19c-3.7,5.7-9.3,9.6-15.8,11c-6.6,1.4-13.3,0.2-19-3.5l-88.5-57.2
	L472.1,402.9z M53.6,490.5l48.1-74.5c4.6-7.2,12.5-11.4,21.2-11.4c4.8,0,9.5,1.4,13.6,4c5.7,3.7,9.6,9.3,11,15.8
	c1.4,6.6,0.2,13.3-3.5,19l-48.1,74.5l0,0c-4.6,7.2-12.5,11.4-21.2,11.4c-4.8,0-9.5-1.4-13.6-4c-5.7-3.7-9.6-9.3-11-15.8
	C48.7,503,50,496.2,53.6,490.5z M132.4,541.4l48.1-74.5c4.6-7.2,12.5-11.4,21.2-11.4c4.8,0,9.5,1.4,13.6,4
	c5.6,3.6,9.5,9.3,10.9,15.9c1.4,6.6,0.2,13.3-3.4,18.9l-48.1,74.5l0,0c-4.6,7.2-12.5,11.4-21.2,11.4c-4.8,0-9.5-1.4-13.6-4
	c-5.6-3.6-9.5-9.3-11-15.8C127.6,553.9,128.8,547.1,132.4,541.4z M211.2,592.5l48.1-74.5c3.7-5.7,9.3-9.6,15.8-11
	c1.8-0.4,3.5-0.6,5.3-0.6c4.8,0,9.5,1.4,13.7,4c5.6,3.6,9.5,9.3,11,15.8c1.4,6.6,0.2,13.3-3.5,19l-48.1,74.4
	c-3.6,5.6-9.3,9.5-15.9,11c-1.5,0.4-3.3,0.6-5.3,0.6c-4.8,0-9.5-1.4-13.6-4c-5.6-3.6-9.6-9.4-11-15.8
	C206.4,604.9,207.6,598.2,211.2,592.5z M607.4,326.5l-267-173.9l-74.8,113.6c-3.6,5.6-9.2,9.5-15.8,10.9c-6.6,1.4-13.3,0.2-19-3.5
	c-5.6-3.6-9.5-9.3-11-15.8c-1.4-6.6-0.2-13.3,3.5-19l87.9-136.5l315.2-10.1L680,272.8L607.4,326.5z"/>
<title>help-desk</title>
<title>help-desk</title>
</svg>
