<?xml version="1.0" encoding="utf-8"?>
<!-- Generator: Adobe Illustrator 24.0.2, SVG Export Plug-In . SVG Version: 6.00 Build 0)  -->
<svg version="1.1" id="icon" xmlns="http://www.w3.org/2000/svg" xmlns:xlink="http://www.w3.org/1999/xlink" x="0px" y="0px"
	 width="725px" height="725px" viewBox="0 0 725 725" style="enable-background:new 0 0 725 725;" xml:space="preserve">
<style type="text/css">
	.st0{fill:#FFFFFF;}
</style>
<title>help-desk</title>
<title>help-desk</title>
<title>help-desk</title>
<title>help-desk</title>
<title>help-desk</title>
<g>
	<path class="st0" d="M461.7,173.5L461.7,173.5c-12,12-18.6,28-18.6,44.9c0,17,6.6,32.9,18.6,44.9c24.7,24.7,64.9,24.8,89.7,0.1
		l0.2-0.2c12-12,18.6-28,18.6-44.9s-6.6-32.9-18.6-44.9C526.7,148.7,486.4,148.7,461.7,173.5z"/>
	<path class="st0" d="M724.9,360.5L724.9,360.5l-24-312.3c-1-13-11.1-23.1-24.1-24.1L364.5,0.1c-0.7-0.1-1.3-0.1-2-0.1
		c-6.9,0-13.6,2.7-18.5,7.7L7.7,344c-10.2,10.2-10.2,26.8,0,37L344,717.2c5,5,11.5,7.8,18.5,7.8c6.9,0,13.5-2.7,18.5-7.7L717.3,381
		C722.7,375.6,725.4,368.2,724.9,360.5z M362.5,661.9L63.2,362.6L372.5,53.3l277.9,21.4l21.4,277.9L362.5,661.9z"/>
</g>
</svg>
