<?xml version="1.0" encoding="utf-8"?>
<!-- Generator: Adobe Illustrator 24.0.2, SVG Export Plug-In . SVG Version: 6.00 Build 0)  -->
<svg version="1.1" id="icon" xmlns="http://www.w3.org/2000/svg" xmlns:xlink="http://www.w3.org/1999/xlink" x="0px" y="0px"
	 width="725px" height="725px" viewBox="0 0 725 725" style="enable-background:new 0 0 725 725;" xml:space="preserve">
<style type="text/css">
	.st0{fill:#FFFFFF;}
</style>
<title>help-desk</title>
<g>
	<path class="st0" d="M674.1,461.8l-68,0.1l-20.3-63l-0.6-1.9c-5-15.5-17.3-27.7-32.8-32.6c-12.9-4.1-26.7-3-38.8,3.2
		c-12.1,6.2-21.1,16.7-25.2,29.6l-20.9,64.7l-65.4-0.1c-17.3-0.9-33.6,6.9-43.9,20.9c-8,11.1-11.2,24.5-9,37.9
		c2.1,13.5,9.4,25.3,20.5,33.3l55,39.9l-21.2,64.5c-0.2,0.6-0.5,1.4-0.6,2.3l-0.1,0.2c-4,14.7-1,30.9,7.9,43.3
		c8,10.9,19.7,18.1,33.2,20.3c13.4,2.1,26.8-1.1,37.8-9.1l55-40.1l52.8,38.5c9.1,7.4,20.5,11.5,32,11.5c5.2,0,10.6-0.9,15.9-2.6
		c12.9-4.2,23.5-13.2,29.6-25.3c6.1-12.2,7.2-26,3-38.8l-21.1-64.6l55-39.9l0.2-0.2c0.1-0.1,0.2-0.2,0.3-0.2c0.4-0.3,1-0.7,1.5-1.3
		l0.1-0.1c11.8-9.6,18.9-24.3,18.9-39.5C725,484.6,702.2,461.8,674.1,461.8z M446,672l0.1-0.4c0-0.1,0.1-0.2,0.1-0.3
		c0.1-0.4,0.2-0.7,0.3-1.1l0-0.2L472,592c3.1-9.2-0.2-19.2-8-24.9l-68.1-49.3c-1.4-1.1-2.3-2.5-2.6-4.2c-0.3-1.7,0.1-3.4,1.2-5
		c1.3-1.7,3.4-2.7,5.8-2.6l0.7,0.2l82.8,0.3c9.5,0,18.2-6.4,21.2-15.6l25.9-80.2c0.5-1.6,1.6-2.9,3.2-3.7c1.5-0.8,3.2-0.9,4.8-0.4
		c2.9,1,3.9,3.1,4.2,4l0.1,0.4l0.1,0.2l25.7,79.7c2.9,9.4,11.4,15.6,21.2,15.6l84.2-0.3c3.5,0,6.3,2.8,6.4,6.2
		c-0.1,2.3-1.1,4.1-2.8,5.3c-0.4,0.2-0.8,0.6-1.3,1L609.8,567c-7.9,5.6-11.2,15.7-8.1,24.9l26.1,79.9c0.6,1.8,0.4,3.5-0.3,5
		c-0.8,1.5-2,2.6-3.6,3.1c-0.7,0.2-1.4,0.3-2.1,0.3c-2.4,0-4-1.4-4-1.4l-0.3-0.3l-0.2-0.2l-0.1,0c-0.3-0.2-0.5-0.4-0.8-0.6
		l-66.3-48.4c-3.9-2.8-8.3-4.3-13.1-4.3c-4.7,0-9.2,1.5-13.1,4.3l-68.1,49.7c-1.3,1-2.9,1.3-4.7,1.1c-1.7-0.3-3.2-1.2-4.2-2.6
		C445.1,675.2,445.7,672.7,446,672z"/>
	<path class="st0" d="M424.4,412.2c6.6-0.3,12.7-3.2,17.1-8.1c4.4-4.9,6.7-11.2,6.3-17.9c-0.4-6.6-3.2-12.7-8.1-17.2
		c-28.3-25.5-68.4-40.8-107.3-40.8h-2.6c-10.5,0-19.9,6.8-23.3,16.9c-3.7,10.7-19.5,22-41.6,22c-22.1,0-38-11.4-41.6-22.1
		c-3.4-10.1-12.8-16.9-23.3-16.9h-2.6c-66.3,0-128.5,41.8-141.5,95.2l-55,226.5c-0.4,1.4-0.6,2.7-0.7,3.8l0,0.1
		c-0.4,3-0.1,6,0.6,8.9c0.6,2.5,1.7,4.9,3.1,7.1c3,4.7,7.5,8.3,12.8,10l2.3,0.7l0.4,0.1c0.3,0.1,0.6,0.2,1,0.2
		c0.8,0.2,1.8,0.5,2.8,0.6c0.7,0.3,1.4,0.4,2.2,0.4h282.4c13.6,0,24.7-11.1,24.7-24.7c0-13.6-11.1-24.7-24.7-24.7H56l47.8-196.8
		c6.7-27.5,42.9-52.5,81.7-56.8c16.4,23.4,46.4,37.8,79.4,37.8c0.2,0,0.4,0,0.6,0c32.1,0,62.6-14.7,78.8-37.8
		c23.4,2.5,46,12.3,62.4,27.2C411.6,410.2,417.8,412.5,424.4,412.2z"/>
	<path class="st0" d="M267.8,295.9c81.6,0,148-66.4,148-148S349.4,0,267.8,0c-81.6,0-148,66.4-148,148S186.3,295.9,267.8,295.9z
		 M169.2,148c0-54.4,44.3-98.7,98.7-98.7s98.7,44.3,98.7,98.7s-44.3,98.7-98.7,98.7S169.2,202.4,169.2,148z"/>
</g>
<title>help-desk</title>
</svg>
