<?xml version="1.0" encoding="utf-8"?>
<!-- Generator: Adobe Illustrator 24.0.2, SVG Export Plug-In . SVG Version: 6.00 Build 0)  -->
<svg version="1.1" id="icon" xmlns="http://www.w3.org/2000/svg" xmlns:xlink="http://www.w3.org/1999/xlink" x="0px" y="0px"
	 width="725px" height="725px" viewBox="0 0 725 725" style="enable-background:new 0 0 725 725;" xml:space="preserve">
<style type="text/css">
	.st0{fill:#FFFFFF;}
</style>
<title>help-desk</title>
<g>
	<path class="st0" d="M226.6,294.2c-12.6,0-22.9,10.3-22.9,22.9s10.3,22.9,22.9,22.9h113.2c12.6,0,22.9-10.3,22.9-22.9
		s-10.3-22.9-22.9-22.9H226.6z"/>
	<path class="st0" d="M679.5,22.6h-294C385.3,10.1,375,0,362.5,0s-22.8,10.1-22.9,22.6h-294C20.4,22.6,0,43.1,0,68.2v407.6
		c0,25.1,20.4,45.5,45.5,45.5h294v35.5L210.5,685.9c-8.9,8.9-8.9,23.4,0,32.4c8.9,8.9,23.4,8.9,32.3,0l119.7-119.6l119.7,119.6
		c4.4,4.3,10.1,6.7,16.2,6.7c6.1,0,11.8-2.4,16.2-6.7c8.9-8.9,8.9-23.4,0-32.3L385.4,556.8v-58.4c0-12.6-10.3-22.9-22.9-22.9H45.8
		v-407h633.3v407H430.4c-12.6,0-22.9,10.3-22.9,22.9s10.3,22.9,22.9,22.9h249.1c25.1,0,45.5-20.4,45.5-45.5V68.2
		C725,43.1,704.6,22.6,679.5,22.6z"/>
	<path class="st0" d="M521.3,226.6c0-12.6-10.3-22.9-22.9-22.9H226.6c-12.6,0-22.9,10.3-22.9,22.9c0,12.6,10.3,22.9,22.9,22.9h271.7
		C511,249.6,521.3,239.3,521.3,226.6z"/>
</g>
<title>help-desk</title>
<title>help-desk</title>
</svg>
