<?xml version="1.0" encoding="utf-8"?>
<!-- Generator: Adobe Illustrator 24.0.2, SVG Export Plug-In . SVG Version: 6.00 Build 0)  -->
<svg version="1.1" id="icon" xmlns="http://www.w3.org/2000/svg" xmlns:xlink="http://www.w3.org/1999/xlink" x="0px" y="0px"
	 width="725px" height="725px" viewBox="0 0 725 725" style="enable-background:new 0 0 725 725;" xml:space="preserve">
<style type="text/css">
	.st0{fill:#FFFFFF;}
</style>
<title>help-desk</title>
<g>
	<path class="st0" d="M362.6,402.6c63.4,0,114.9-51.7,114.9-115.2c-0.1-63.5-51.6-115.2-114.9-115.2c-63.5,0-115.2,51.7-115.2,115.2
		C247.5,351,299.1,402.6,362.6,402.6z M362.6,217.8c18.8,0,36.3,7.2,49.2,20.2c12.9,13,20,30.5,20,49.2
		c-0.1,39.1-30.5,69.7-69.2,69.7c-18.8,0-36.3-7.2-49.3-20.2c-13-13-20.2-30.6-20.2-49.3c0-18.8,7.2-36.3,20.2-49.3
		C326.3,225,343.9,217.8,362.6,217.8z"/>
	<path class="st0" d="M587.4,661.2c0-0.2-0.1-0.4-0.1-0.6l-0.2-1c-24.1-105.5-116.4-179.1-224.4-179.1
		c-106.5,0-201,75.3-224.7,179.1l-0.2,0.7c-1.6,5.8-0.7,12.1,2.3,17.2c3,5.2,7.9,9,13.8,10.6c2,0.5,4,0.8,6,0.8c4,0,7.9-1,11.3-3
		c5.2-3,9-7.9,10.6-13.8l0.1-0.4c0-0.2,0.1-0.4,0.1-0.6c0.1-0.2,0.1-0.5,0.2-0.8l0.2-0.8c9.4-40.8,32.4-77.5,64.9-103.4
		c32.6-25.9,73.6-40.2,115.3-40.2c41.8,0,82.7,14.3,115.1,40.2c32.5,25.9,55.5,62.6,64.8,103.4l0.2,0.8c1.1,5.9,4.5,11.1,9.5,14.5
		c5.1,3.5,11.1,4.8,17.1,3.6c5.9-1,11.1-4.2,14.5-9.2c3.6-5,4.9-11.1,3.8-17.3C587.5,661.8,587.5,661.5,587.4,661.2z"/>
	<path class="st0" d="M119.2,266.4c63.5,0,115.2-51.7,115.2-115.2C234.4,87.7,182.7,36,119.2,36C55.8,36,4.3,87.7,4.3,151.2
		C4.3,214.7,55.8,266.4,119.2,266.4z M119.2,81.7c18.8,0,36.3,7.2,49.3,20.2c13,13,20.2,30.6,20.2,49.3c0,18.7-7.2,36.2-20.2,49.3
		c-13,13-30.6,20.2-49.3,20.2c-38.8,0-69.2-30.5-69.2-69.5C49.9,112.2,80.4,81.7,119.2,81.7z"/>
	<path class="st0" d="M186.7,402.7c5.6,2.2,11.7,2.1,17.3-0.2c5.5-2.4,9.9-6.7,12.2-12.2l0.1-0.2c2.2-5.7,2.2-11.9-0.2-17.5
		c-2.3-5.5-6.6-9.8-12.1-12.2c-0.3-0.2-0.9-0.4-1.6-0.6c-26.8-10.4-54.8-15.6-83.3-15.6c-37.2,0.2-74.2,9.4-107.1,26.6
		c-11.1,5.8-15.4,19.6-9.6,30.7c2.8,5.5,7.6,9.5,13.5,11.2c2.2,0.7,4.4,1,6.7,1c3.6,0,7.3-0.9,10.7-2.6
		c26.4-13.9,56.1-21.3,85.9-21.3c23.1,0,45.7,4.2,67,12.6L186.7,402.7z"/>
	<path class="st0" d="M609.9,266.4c63.4,0,114.9-51.7,114.9-115.2C724.8,87.7,673.3,36,609.9,36c-63.5,0-115.2,51.7-115.2,115.2
		C494.8,214.7,546.4,266.4,609.9,266.4z M609.9,81.7c38.8,0,69.2,30.5,69.2,69.5c0,39-30.4,69.5-69.2,69.5
		c-18.8,0-36.3-7.2-49.3-20.2c-13-13-20.2-30.6-20.2-49.3s7.2-36.3,20.2-49.3S591.2,81.7,609.9,81.7z"/>
	<path class="st0" d="M712.4,368.5L712.4,368.5c-31.8-15.8-67.2-24.1-102.5-24.1c-27.6,0-54.8,4.9-80.6,14.5
		c-5.8,2.1-10.3,6.4-12.9,12c-2.5,5.5-2.7,11.7-0.5,17.3c2.1,5.7,6.4,10.2,12,12.8c5.6,2.5,11.8,2.8,17.5,0.6
		c20.7-7.8,42.4-11.7,64.6-11.7c28.3,0,56.7,6.7,82.2,19.4c3.3,1.6,6.7,2.4,10.2,2.4c2.4,0,4.9-0.4,7.2-1.2
		c5.8-2,10.5-6.1,13.1-11.4C728.2,387.8,723.6,374.1,712.4,368.5z"/>
</g>
<title>help-desk</title>
</svg>
