<?xml version="1.0" encoding="utf-8"?>
<!-- Generator: Adobe Illustrator 24.0.2, SVG Export Plug-In . SVG Version: 6.00 Build 0)  -->
<svg version="1.1" id="icon" xmlns="http://www.w3.org/2000/svg" xmlns:xlink="http://www.w3.org/1999/xlink" x="0px" y="0px"
	 width="725px" height="725px" viewBox="0 0 725 725" style="enable-background:new 0 0 725 725;" xml:space="preserve">
<style type="text/css">
	.st0{fill:#FFFFFF;}
</style>
<title>help-desk</title>
<g>
	<path class="st0" d="M632.9,2H92.1C41.3,2,0,43.4,0,94.2v362c0,50.8,41.3,92.1,92.1,92.1h540.7c50.8,0,92.1-41.3,92.1-92.1v-362
		C725,43.4,683.7,2,632.9,2z M43.5,294.9H100l0,0.3c8.4-0.2,16-5.3,19.4-13l0.3-0.7l20.5-36.9l59.8,125.9c3.5,7.4,10.9,12,18.9,11.6
		h0.3c8.2-0.2,15.8-4.7,19.9-11.9l0.1-0.2l92.8-197.2L384,281.4l0.1,0.1c3.9,7.4,11.4,12.6,19.8,13.4h0.3h60.9
		c12,0,21.8-9.8,21.8-21.8c0-12-9.8-21.8-21.8-21.8H418l-66.4-140.1c-2.6-5.1-6.9-9.1-12.4-11c-5.4-1.9-11.4-1.6-16.6,1
		c-4.4,2.1-7.9,5.6-10.1,10.1L219.6,309l-60.5-127.2l-0.2-0.3c-4.1-7.1-11.7-11.7-19.8-11.9h-0.2c-8.1-0.3-15.5,4.3-19,11.6
		l-34.2,70.3H43.5V94.1c0-26.2,20.8-47.6,46.7-48.6v0.1h542.7c26.8,0,48.6,21.8,48.6,48.6V456c0,26.8-21.8,48.6-48.6,48.6H92.1
		c-26.8,0-48.6-21.8-48.6-48.6V294.9z"/>
	<path class="st0" d="M511.7,428.6H580c12,0,21.8-9.8,21.8-21.8c0-12-9.8-21.8-21.8-21.8h-68.2c-12,0-21.8,9.8-21.8,21.8
		C490,418.9,499.8,428.6,511.7,428.6z"/>
	<path class="st0" d="M584.3,675.5H140.9c-13.1,0-23.7,10.6-23.7,23.7s10.6,23.7,23.7,23.7h443.4c13.1,0,23.7-10.6,23.7-23.7
		S597.4,675.5,584.3,675.5z"/>
</g>
</svg>
