<?xml version="1.0" encoding="utf-8"?>
<!-- Generator: Adobe Illustrator 24.0.2, SVG Export Plug-In . SVG Version: 6.00 Build 0)  -->
<svg version="1.1" id="icon" xmlns="http://www.w3.org/2000/svg" xmlns:xlink="http://www.w3.org/1999/xlink" x="0px" y="0px"
	 width="725px" height="725px" viewBox="0 0 725 725" style="enable-background:new 0 0 725 725;" xml:space="preserve">
<style type="text/css">
	.st0{fill:#FFFFFF;}
</style>
<title>help-desk</title>
<title>help-desk</title>
<title>help-desk</title>
<g>
	<path class="st0" d="M718.2,281.5l-81.4-72.6V90.5c0-7.9-4.6-15.1-11.8-18.4L479.5,4.6c-6.2-2.9-13.3-2.4-19.1,1.1l-63.5,39
		L362,65.4L264.7,5.7c-5.8-3.6-13-4-19.1-1.1L100,72.1c-7.1,3.3-11.8,10.5-11.8,18.4v118.4L6.8,281.5c-4.3,3.8-6.8,9.4-6.8,15.1
		v133.9c0,6.1,2.7,11.8,7.4,15.6l78.7,65.1v124.3c0,8,4.7,15.3,12,18.5l149.3,66.4c2.6,1.2,5.4,1.8,8.2,1.8c3.8,0,7.6-1.1,10.8-3.1
		l95.3-59.8l25.3,14.9l71.6,44.9c3.2,2,7,3.1,10.8,3.1c2.9,0,5.6-0.6,8.2-1.8l149.3-66.4c7.3-3.3,12-10.5,12-18.5V511.3l78.7-65.1
		c4.7-3.9,7.4-9.6,7.4-15.6V296.6C725,290.8,722.5,285.3,718.2,281.5z M603,233.1l81.4,72.6V421l-78.7,65.1
		c-4.7,3.9-7.4,9.6-7.4,15.6v120.7L471,679.1l-53.9-33.8l-36.9-23.1l0,0l4-521.9l12.1-7.6L472.3,46l124,57.5V218
		C596.2,223.8,598.7,229.3,603,233.1z M119.3,486.1L40.6,421V305.7l81.4-72.6c4.3-3.8,6.8-9.4,6.8-15.1V103.4l124-57.5l90.9,55.8
		l-4,523.6L254,679.1l-127.4-56.7V501.7C126.7,495.6,124,489.9,119.3,486.1z"/>
	<path class="st0" d="M244.6,470.6v49.3L191,573.5c-3.8,3.8-5.9,8.9-5.9,14.3c0,5.4,2.1,10.5,5.9,14.3c3.8,3.8,8.9,5.9,14.3,5.9
		c5.4,0,10.5-2.1,14.3-5.9l59.6-59.6c3.8-3.8,5.9-8.9,5.9-14.3v-66.1c0-5.4-2.1-10.5-5.9-14.3l-66-66v-52.9l59.4-59.4
		c3.8-3.8,5.9-8.9,5.9-14.3v-63.8c0-5.3-2-10.3-5.7-14.1l-52.1-54.2c-3.8-3.9-8.8-6.1-14.2-6.2c-5.4-0.1-10.6,1.9-14.5,5.7
		c-3.9,3.8-6.1,8.8-6.2,14.2c-0.1,5.4,1.9,10.6,5.7,14.5l46.4,48.3v47.2l-59.4,59.4c-3.8,3.8-5.9,8.9-5.9,14.3v69.7
		c0,5.4,2.1,10.5,5.9,14.3L244.6,470.6z"/>
	<path class="st0" d="M483.9,246.8v-47.2l46.4-48.3c3.8-3.9,5.8-9,5.7-14.5c-0.1-5.4-2.3-10.5-6.2-14.2c-3.9-3.8-9-5.7-14.5-5.7
		c-5.4,0.1-10.5,2.3-14.2,6.2L449,177.4c-3.6,3.8-5.7,8.8-5.7,14.1v63.8c0,5.4,2.1,10.5,5.9,14.3l59.4,59.4v52.9l-66,66
		c-3.8,3.8-5.9,8.9-5.9,14.3v66.1c0,5.4,2.1,10.5,5.9,14.3l59.6,59.6c3.8,3.8,8.9,5.9,14.3,5.9s10.5-2.1,14.3-5.9
		c7.9-7.9,7.9-20.8,0-28.7l-53.7-53.7v-49.3l66-66c3.8-3.8,5.9-8.9,5.9-14.3v-69.7c0-5.4-2.1-10.5-5.9-14.3L483.9,246.8z"/>
</g>
</svg>
