<?xml version="1.0" encoding="utf-8"?>
<!-- Generator: Adobe Illustrator 24.0.2, SVG Export Plug-In . SVG Version: 6.00 Build 0)  -->
<svg version="1.1" id="icon" xmlns="http://www.w3.org/2000/svg" xmlns:xlink="http://www.w3.org/1999/xlink" x="0px" y="0px"
	 width="725px" height="725px" viewBox="0 0 725 725" style="enable-background:new 0 0 725 725;" xml:space="preserve">
<style type="text/css">
	.st0{fill:#FFFFFF;}
</style>
<title>help-desk</title>
<title>help-desk</title>
<title>help-desk</title>
<g>
	<path class="st0" d="M574.4,463.4H408.9l-3.3,0.2c-10.5,1.5-18.4,10.7-18.4,21.3c0,11.9,9.7,21.5,21.5,21.5h165.6l3.3-0.2
		c10.5-1.5,18.4-10.7,18.4-21.3C596,473.1,586.3,463.4,574.4,463.4z"/>
	<path class="st0" d="M574.4,330.3H408.9l-3.3,0.2c-10.5,1.5-18.4,10.7-18.4,21.3c0,11.9,9.7,21.5,21.5,21.5h165.6l3.3-0.2
		c10.5-1.5,18.4-10.7,18.4-21.3C596,340,586.3,330.3,574.4,330.3z"/>
	<path class="st0" d="M574.4,198.1H408.9l-3.3,0.2c-10.5,1.5-18.4,10.7-18.4,21.3c0,11.9,9.7,21.5,21.5,21.5h165.6l3.3-0.2
		c10.5-1.5,18.4-10.7,18.4-21.3C596,207.7,586.3,198.1,574.4,198.1z"/>
	<path class="st0" d="M279.6,376.4h-129c-11.9,0-21.5,9.7-21.5,21.5v17.9l0.3,3.5c6.8,45.8,50.4,55.4,85.8,55.4
		c35.4,0,79-9.6,85.8-55.4l0.3-3.6v-17.9C301.1,386,291.4,376.4,279.6,376.4z"/>
	<path class="st0" d="M648.2,19.7H76.8C34.5,19.7,0,54.1,0,96.5v532c0,42.4,34.5,76.8,76.8,76.8h571.3c42.4,0,76.8-34.5,76.8-76.8
		v-532C725,54.1,690.5,19.7,648.2,19.7z M681.9,628.5c0,18.6-15.1,33.7-33.7,33.7H76.8c-18.6,0-33.7-15.1-33.7-33.7v-532
		c0-18.6,15.1-33.7,33.7-33.7h571.3c18.6,0,33.7,15.1,33.7,33.7V628.5z"/>
	<circle class="st0" cx="215.1" cy="278.2" r="49.2"/>
</g>
<title>help-desk</title>
<title>help-desk</title>
</svg>
