<?xml version="1.0" encoding="utf-8"?>
<!-- Generator: Adobe Illustrator 24.0.2, SVG Export Plug-In . SVG Version: 6.00 Build 0)  -->
<svg version="1.1" id="icon" xmlns="http://www.w3.org/2000/svg" xmlns:xlink="http://www.w3.org/1999/xlink" x="0px" y="0px"
	 width="725px" height="725px" viewBox="0 0 725 725" style="enable-background:new 0 0 725 725;" xml:space="preserve">
<style type="text/css">
	.st0{fill:#FFFFFF;}
</style>
<title>help-desk</title>
<title>help-desk</title>
<title>help-desk</title>
<title>help-desk</title>
<title>help-desk</title>
<path class="st0" d="M725,362.5c0-48.9-9.6-96.4-28.5-141.1c-10.8-25.5-24.5-49.8-40.8-72.1c7.9-12.4,12.1-26.7,12.1-41.4
	c0-42.5-34.6-77-77-77c-17.5,0-34.5,6-48.2,17c-12.6-7.2-25.7-13.7-39-19.3C458.9,9.6,411.4,0,362.5,0s-96.4,9.6-141.1,28.5
	c-8,3.4-16.1,7.1-24,11.2c-13.9-11.6-31.3-18-49.4-18c-42.5,0-77,34.6-77,77c0,12.7,3.2,25.2,9.2,36.4
	c-21.1,26.2-38.5,55.2-51.6,86.2C9.6,266.1,0,313.6,0,362.5s9.6,96.4,28.5,141.1c12.9,30.6,30,59.2,50.7,85
	c-5.4,10.7-8.2,22.6-8.2,34.5c0,42.5,34.6,77,77,77c17,0,33.7-5.7,47.1-16.1c8.7,4.5,17.5,8.7,26.3,12.4
	c44.7,18.9,92.2,28.5,141.1,28.5s96.4-9.6,141.1-28.5c14.7-6.2,29.2-13.5,43-21.7c13,9.1,28.2,13.9,44.1,13.9c42.5,0,77-34.6,77-77
	c0-13.5-3.6-26.8-10.3-38.5c15.5-21.6,28.6-45.1,39-69.6C715.4,458.9,725,411.4,725,362.5z M553.4,611.7c0-20.6,16.8-37.4,37.4-37.4
	c5.4,0,10.6,1.1,15.5,3.4c11.1,5.1,19.1,15.3,21.2,27.4c0.4,2.2,0.6,4.4,0.6,6.6c0,20.6-16.8,37.4-37.4,37.4c-3.3,0-6.6-0.4-9.8-1.3
	c-11.8-3.2-21.3-12-25.4-23.5C554.1,620.2,553.4,616,553.4,611.7z M590.8,534.7c-10.5,0-20.7,2.1-30.3,6.2l-37.6-42.7
	c33-37.9,51.1-86.2,51.1-136.4c0-29-5.9-57.1-17.5-83.4c-10.9-24.8-26.4-47-46-66l39.3-39.3c12.3,7.7,26.4,11.8,40.9,11.8
	c12.3,0,24.5-3,35.3-8.6c38.7,54.7,59.2,119,59.2,186.1c0,65.4-19.5,128.4-56.5,182.2C617.2,538.2,604.1,534.7,590.8,534.7z
	 M148,546.2c-14.9,0-29.3,4.3-41.8,12.4c-43.5-56.8-66.5-124.5-66.5-196c0-72.5,23.5-140.9,68.1-198.1c12.1,7.5,26,11.4,40.2,11.4
	c15.2,0,29.8-4.4,42.4-12.7l40.8,40.8c-46.4,39.7-73,97.1-73,158c0,29.5,6.1,58,18.1,84.8c11.3,25.2,27.2,47.6,47.4,66.6l-42.5,40.6
	C170.8,548.7,159.6,546.2,148,546.2z M185.4,98.8c0,20.6-16.8,37.4-37.4,37.4c-5.5,0-10.8-1.2-15.7-3.5c-11-5.1-18.8-15.3-21-27.1
	c-0.4-2.3-0.6-4.5-0.6-6.7c0-20.6,16.8-37.4,37.4-37.4c4.8,0,9.5,0.9,14,2.7c11.2,4.6,19.6,14.3,22.3,26.1
	C185,93,185.4,95.9,185.4,98.8z M500,408.9c-7,3.1-14.6,6-22.7,8.6c2.5-18.2,3.8-37.1,3.8-56.2c0-19.1-1.3-38-3.8-56.2
	c8.1,2.6,15.7,5.5,22.7,8.5c19.9,8.8,34.5,19.2,42.4,30.2c0.6,5.8,0.8,11.7,0.8,17.5c0,5.8-0.3,11.7-0.8,17.5
	C534.5,389.7,519.9,400.1,500,408.9L500,408.9z M449.4,361.2c0,22.4-1.9,44.1-5.6,64.8c-24.4,4.8-50.6,7.3-77.9,7.3
	c-27.3,0-53.5-2.4-77.9-7.3c-3.7-20.6-5.6-42.4-5.6-64.8c0-22.3,1.9-44.1,5.6-64.8c24.4-4.8,50.6-7.3,77.9-7.3s53.4,2.4,77.9,7.3
	C447.5,317.1,449.4,338.9,449.4,361.2z M365.9,257.4c-24,0-47.4,1.8-69.8,5.4c3.9-12.7,8.5-24.4,13.8-35
	c9.9-19.9,21.9-34.6,34.6-42.6c14.2-1.7,28.7-1.7,42.9,0c12.7,8,24.7,22.8,34.6,42.6c5.3,10.5,9.9,22.3,13.8,35
	C413.3,259.2,389.9,257.4,365.9,257.4z M435.7,459.7c-3.9,12.7-8.5,24.4-13.8,35c-9.9,19.9-21.9,34.6-34.6,42.6
	c-14.2,1.7-28.6,1.7-42.9,0c-12.7-8-24.7-22.8-34.6-42.6c-5.3-10.6-9.9-22.3-13.8-35c22.4,3.6,45.8,5.4,69.8,5.4
	C389.9,465.1,413.4,463.3,435.7,459.7z M254.4,305c-2.5,18.2-3.8,37-3.8,56.2s1.3,38,3.8,56.2c-8.1-2.6-15.7-5.5-22.7-8.6
	c-19.9-8.8-34.5-19.2-42.4-30.2c-0.6-5.8-0.8-11.6-0.8-17.5c0-5.8,0.3-11.7,0.8-17.5c7.9-11,22.5-21.4,42.4-30.2
	C238.8,310.5,246.4,307.6,254.4,305z M512.9,284.5L512.9,284.5c-12.7-5.6-26.9-10.5-42.2-14.5c-6.3-25.7-15.4-49-26.6-68
	c38.3,18.9,69,51.5,85.4,90.8C524.3,289.9,518.7,287.1,512.9,284.5z M287.7,202c-11.2,19-20.3,42.3-26.6,68
	c-15.3,4-29.4,8.8-42.2,14.5c-5.9,2.6-11.5,5.4-16.7,8.3C218.7,253.5,249.4,220.9,287.7,202z M218.9,438
	c12.7,5.6,26.9,10.5,42.2,14.5c6.3,25.7,15.4,49,26.6,68c-38.3-18.9-69-51.5-85.4-90.8C207.4,432.6,213,435.4,218.9,438z
	 M444.1,520.5c11.2-19,20.3-42.3,26.6-68c15.3-4,29.5-8.9,42.2-14.5c5.9-2.6,11.5-5.4,16.7-8.3C513.1,469,482.4,501.6,444.1,520.5z
	 M479.3,187.6c-33.7-22-72.8-33.6-113.2-33.6c-35.7,0-70.9,9.2-101.9,26.7l-47.4-47.4c5.4-10.7,8.2-22.6,8.2-34.6
	c0-8.9-1.5-17.7-4.6-26.1c44.5-21.9,92.2-33,142-33c54.7,0,108.7,14,156.4,40.5c-3.4,8.9-5.2,18.2-5.2,27.7
	c0,12.6,3.1,25.1,9.1,36.2L479.3,187.6z M255.4,537.7c33.1,20.9,71.4,32,110.7,32c46.9,0,91.1-15.3,127.9-44.1l35.2,39.9
	c-10.1,13.4-15.5,29.4-15.5,46.2c0,11.2,2.4,22,7,32.1c-48.1,27.2-102.8,41.5-158.2,41.5c-50.2,0-98.3-11.3-143-33.4
	c3.7-9.1,5.5-18.8,5.5-28.7c0-15.6-4.7-30.7-13.5-43.5L255.4,537.7z M626.6,118.6c-3.4,11.5-12.3,20.7-23.6,24.6
	c-3.9,1.4-8,2-12.2,2c-20.6,0-37.4-16.8-37.4-37.4c0-2.8,0.3-5.5,0.9-8.3c2.7-11.7,10.9-21.5,22-26.2c4.6-1.9,9.5-2.9,14.5-2.9
	c20.6,0,37.4,16.8,37.4,37.4C628.1,111.5,627.6,115.1,626.6,118.6z M110.9,619c1.4-12.2,8.7-22.9,19.5-28.7
	c5.4-2.9,11.5-4.4,17.6-4.4c20.6,0,37.4,16.8,37.4,37.4c0,3.7-0.6,7.4-1.7,11c-3.6,11.7-12.8,20.9-24.5,24.6
	c-3.6,1.1-7.4,1.7-11.2,1.7c-20.6,0-37.4-16.8-37.4-37.4C110.7,621.8,110.7,620.4,110.9,619z"/>
</svg>
