<?xml version="1.0" encoding="utf-8"?>
<!-- Generator: Adobe Illustrator 24.0.2, SVG Export Plug-In . SVG Version: 6.00 Build 0)  -->
<svg version="1.1" id="icon" xmlns="http://www.w3.org/2000/svg" xmlns:xlink="http://www.w3.org/1999/xlink" x="0px" y="0px"
	 width="725px" height="725px" viewBox="0 0 725 725" style="enable-background:new 0 0 725 725;" xml:space="preserve">
<style type="text/css">
	.st0{fill:#FFFFFF;}
</style>
<title>help-desk</title>
<title>help-desk</title>
<title>help-desk</title>
<title>help-desk</title>
<title>help-desk</title>
<path class="st0" d="M718.5,184L718.5,184c-5.8-11.3-14.8-20.3-26.1-26.1c-12.8-6.5-25.9-6.5-49.8-6.5h-66.2
	c10.5-15.9,16-34.5,16-53.9c0-26-10-50.4-28-68.8C546.6,10.5,521.7,0,496.4,0C445.3,0,402,30.1,371.2,87.1c-3,5.6-6,11.5-8.7,17.6
	c-2.8-6.1-5.7-12-8.7-17.6C323,30.1,279.7,0,228.6,0c-25.4,0-50.2,10.5-68.1,28.7c-18.1,18.4-28,42.8-28,68.8c0,19.5,5.5,38,16,53.9
	H82.3c-23.9,0-37,0-49.8,6.5c-11.3,5.8-20.3,14.8-26.1,26.1C0,196.7,0,209.9,0,233.8v68.1c0,23.9,0,37,6.5,49.8
	c5.8,11.3,14.8,20.3,26.1,26.1c11.5,5.9,23.6,6.4,43.2,6.5v197.8c0,45.8,0,68.8,10.6,89.7c9.4,18.5,24.1,33.2,42.6,42.6
	c20.9,10.6,43.9,10.6,89.7,10.6h287.7c45.8,0,68.8,0,89.7-10.6c18.5-9.4,33.2-24.1,42.6-42.6c10.6-20.9,10.6-43.9,10.6-89.7V384.3
	c19.6-0.1,31.6-0.6,43.2-6.5c11.3-5.8,20.3-14.8,26.1-26.1c6.5-12.8,6.5-25.9,6.5-49.8v-68.1C725,209.9,725,196.7,718.5,184z
	 M176.1,97.5c0-14.3,5.7-28.2,15.5-38.3c9.9-10.1,23.1-15.7,37-15.7c27.4,0,51.7,13.9,72.2,41.2c16.2,21.7,26.8,47.6,33.1,66.7
	H228.6c-14,0-27.1-5.6-37-15.7C181.7,125.7,176.1,111.8,176.1,97.5z M605.7,384.3v197.8c0,38.9,0,58.4-5.9,69.9
	c-5.2,10.2-13.4,18.4-23.6,23.6c-11.5,5.9-31,5.9-69.9,5.9H377.2c4.4-4,7.1-9.7,7.1-16.1V384.3H605.7z M119.3,384.3h221.5v281.1
	c0,6.4,2.7,12.1,7.1,16.1H218.6c-38.9,0-58.4,0-69.9-5.9c-10.2-5.2-18.4-13.4-23.6-23.6c-5.9-11.5-5.9-31-5.9-69.9V384.3z
	 M43.5,301.9v-68.1c0-14.8,0-26.6,1.8-30c1.6-3,4-5.5,7-7c3.4-1.8,15.2-1.8,30-1.8h258.4v145.7H82.3c-14.8,0-26.6,0-30-1.8
	c-3-1.6-5.5-4-7-7C43.5,328.5,43.5,316.8,43.5,301.9z M391.1,151.4c6.3-19.1,16.9-45,33.1-66.7c20.5-27.3,44.7-41.2,72.2-41.2
	c14,0,27.1,5.6,37,15.7c9.9,10.1,15.5,24,15.5,38.3c0,14.3-5.7,28.2-15.5,38.3c-9.9,10.1-23.1,15.7-37,15.7H391.1z M681.5,233.8
	v68.1c0,14.8,0,26.6-1.8,30c-1.6,3-4,5.5-7,7c-3.4,1.8-15.2,1.8-30,1.8H384.3V195h258.4c14.8,0,26.6,0,30,1.8c3,1.6,5.5,4,7,7
	C681.5,207.2,681.5,218.9,681.5,233.8z"/>
</svg>
