<?xml version="1.0" encoding="utf-8"?>
<!-- Generator: Adobe Illustrator 24.0.2, SVG Export Plug-In . SVG Version: 6.00 Build 0)  -->
<svg version="1.1" id="Слой_1" xmlns="http://www.w3.org/2000/svg" xmlns:xlink="http://www.w3.org/1999/xlink" x="0px" y="0px"
	 width="683.3px" height="800px" viewBox="0 0 683.3 800" style="enable-background:new 0 0 683.3 800;" xml:space="preserve">
<style type="text/css">
	.st0{fill-rule:evenodd;clip-rule:evenodd;fill:#232323;}
</style>
<title>Apple-color</title>
<desc>Created with Sketch.</desc>
<g id="Icons">
	<g id="Color-" transform="translate(-204.000000, -560.000000)">
		<path id="Apple" class="st0" d="M656.9,689.9c26.1-33.7,45.9-81.3,38.7-129.9c-42.6,3-92.5,30.2-121.6,65.8
			c-26.5,32.2-48.3,80.2-39.8,126.7C580.9,753.9,629,726,656.9,689.9L656.9,689.9z M887.3,1147c-18.7,41.6-27.6,60.2-51.7,97
			c-33.5,51.4-80.8,115.4-139.4,115.9c-52,0.6-65.5-34.1-136.1-33.7c-70.7,0.4-85.4,34.3-137.5,33.8
			c-58.6-0.5-103.4-58.3-136.9-109.7c-93.8-143.7-103.7-312.3-45.8-402c41.1-63.7,106-100.9,167-100.9c62,0,101.1,34.2,152.5,34.2
			c49.8,0,80.2-34.3,152-34.3c54.3,0,111.9,29.8,152.9,81.1C729.9,902.4,751.6,1095.4,887.3,1147L887.3,1147z"/>
	</g>
</g>
</svg>
