<?xml version="1.0" encoding="utf-8"?>
<!-- Generator: Adobe Illustrator 24.0.2, SVG Export Plug-In . SVG Version: 6.00 Build 0)  -->
<svg version="1.1" id="Слой_1" xmlns="http://www.w3.org/2000/svg" xmlns:xlink="http://www.w3.org/1999/xlink" x="0px" y="0px"
	 width="466.7px" height="400px" viewBox="0 0 466.7 400" style="enable-background:new 0 0 466.7 400;" xml:space="preserve">
<style type="text/css">
	.st0{fill:#343A40;}
</style>
<path class="st0" d="M266.7,400c-8.5,0-17.1-3.3-23.6-9.8c-13-13-13-34.1,0-47.1l109.8-109.8H33.3C14.9,233.3,0,218.4,0,200
	s14.9-33.3,33.3-33.3h319.5L243.1,56.9c-13-13-13-34.1,0-47.1s34.1-13,47.1,0l166.7,166.7c3.5,3.5,6,7.5,7.6,11.8
	c1.1,2.9,1.8,6.1,2,9.3l0,0l0,0c0.1,0.8,0.1,1.6,0.1,2.3c0,0.8,0,1.6-0.1,2.3l0,0l0,0c-0.2,3.3-0.9,6.4-2,9.3
	c-1.6,4.3-4.2,8.3-7.6,11.8L290.2,390.2C283.7,396.7,275.2,400,266.7,400z"/>
</svg>
