<?xml version="1.0" encoding="utf-8"?>
<!-- Generator: Adobe Illustrator 24.0.2, SVG Export Plug-In . SVG Version: 6.00 Build 0)  -->
<svg version="1.1" id="Слой_1" xmlns="http://www.w3.org/2000/svg" xmlns:xlink="http://www.w3.org/1999/xlink" x="0px" y="0px"
	 width="466.7px" height="400px" viewBox="0 0 466.7 400" style="enable-background:new 0 0 466.7 400;" xml:space="preserve">
<style type="text/css">
	.st0{fill:#343A40;}
</style>
<path class="st0" d="M200,0c8.5,0,17.1,3.3,23.6,9.8c13,13,13,34.1,0,47.1L113.8,166.7h319.5c18.4,0,33.3,14.9,33.3,33.3
	s-14.9,33.3-33.3,33.3H113.8l109.8,109.8c13,13,13,34.1,0,47.1s-34.1,13-47.1,0L9.8,223.6c-3.5-3.5-6-7.5-7.6-11.8
	c-1.1-2.9-1.8-6.1-2-9.3l0,0l0,0C0,201.6,0,200.8,0,200s0-1.6,0.1-2.3l0,0l0,0c0.2-3.3,0.9-6.4,2-9.3c1.6-4.3,4.2-8.3,7.6-11.8
	L176.4,9.8C182.9,3.3,191.5,0,200,0z"/>
</svg>
