<svg width="16" height="16" viewBox="0 0 16 16" fill="none" xmlns="http://www.w3.org/2000/svg">
<path d="M15.8074 7.14573C15.7552 7.08845 15.6813 7.05552 15.6038 7.05552H15.0611C15.0611 7.05552 13.1827 3.48184 13.0856 3.29645C12.9814 3.09767 12.8238 2.92366 12.588 2.92366C11.4404 2.92366 10.3696 2.67881 9.57262 2.23415C9.175 2.0123 8.87519 1.75279 8.69201 1.48002V0.691762C8.69201 0.309702 8.38231 0 8.00025 0C7.61819 0 7.30848 0.309702 7.30848 0.691762V1.48002C7.12531 1.75279 6.8255 2.0123 6.42787 2.23415C5.63089 2.67878 4.56001 2.92366 3.41248 2.92366C3.17669 2.92366 3.03468 3.06827 2.91486 3.29645C2.63473 3.82994 0.939399 7.05552 0.939399 7.05552H0.396746C0.3192 7.05552 0.245216 7.08821 0.192988 7.14552C0.14076 7.20287 0.115165 7.27951 0.122255 7.35675C0.274235 9.00681 1.66215 10.2989 3.35188 10.2989C5.04162 10.2989 6.42953 9.00681 6.58151 7.35675C6.5886 7.27958 6.56287 7.203 6.51068 7.14573C6.45848 7.08845 6.38453 7.05552 6.30702 7.05552H5.76433L4.12524 3.93284C5.4023 3.83042 6.51704 3.45583 7.30852 2.90554V14.2706H4.17314C3.69559 14.2706 3.30844 14.6577 3.30844 15.1353C3.30844 15.6129 3.69559 16 4.17314 16H11.6944C12.172 16 12.5591 15.6129 12.5591 15.1353C12.5591 14.6577 12.172 14.2706 11.6944 14.2706H8.69204V2.90554C9.48352 3.45583 10.5983 3.83046 11.8753 3.93284L10.2362 7.05552H9.69351C9.61596 7.05552 9.54198 7.08821 9.48975 7.14552C9.43752 7.20287 9.41192 7.27951 9.41905 7.35675C9.571 9.00681 10.9589 10.2989 12.6487 10.2989C14.3384 10.2989 15.7263 9.00681 15.8783 7.35675C15.8854 7.27958 15.8596 7.20304 15.8074 7.14573ZM4.59242 7.05552H2.11131L3.35185 4.69212L4.59242 7.05552ZM11.4081 7.05552L12.6486 4.69208L13.8892 7.05552H11.4081Z" fill="#A4A4A6"/>
</svg>
