<?xml version="1.0" encoding="utf-8"?>
<!-- Generator: Adobe Illustrator 24.0.2, SVG Export Plug-In . SVG Version: 6.00 Build 0)  -->
<svg version="1.1" id="Слой_1" xmlns="http://www.w3.org/2000/svg" xmlns:xlink="http://www.w3.org/1999/xlink" x="0px" y="0px"
	 width="100px" height="104px" viewBox="0 0 100 104" style="enable-background:new 0 0 100 104;" xml:space="preserve">
<style type="text/css">
	.st0{fill:#343A40;}
</style>
<path class="st0" d="M65.6,104H34.4c-2.9,0-5.2-2.3-5.2-5.2s2.3-5.2,5.2-5.2h31.2c2.9,0,5.2,2.3,5.2,5.2S68.5,104,65.6,104z
	 M83.3,83.2H16.7c-3.4,0-5.8,0-7.6-0.1c-2.3-0.1-4.3-0.3-6-1.5c-2-1.5-2.9-3.2-3.1-5.6c-0.2-1.8,0.5-3.4,2-6.1
	c1-1.8,2.4-4.1,4.4-7.3l0.2-0.4c4.6-7.5,6.9-16.9,6.9-27.9c0-4.6,1-9,2.8-13.3c1.9-4.2,4.5-7.9,8-11.1c3.4-3.2,7.4-5.6,11.8-7.4
	C40.6,0.9,45.2,0,50,0s9.4,0.9,13.8,2.6s8.4,4.2,11.8,7.4s6.1,6.9,8,11.1s2.8,8.7,2.8,13.3c0,11,2.3,20.4,6.9,27.9l0.2,0.4
	c2,3.2,3.4,5.6,4.4,7.4c1.5,2.6,2.2,4.2,2,6.1l0,0c-0.2,2.5-1.1,4.2-3.1,5.6c-1.6,1.2-3.7,1.4-6,1.5C89.1,83.2,86.6,83.2,83.3,83.2z
	 M89.8,76.8L89.8,76.8L89.8,76.8z M12.4,72.8c1.3,0,2.8,0,4.3,0h66.5c1.5,0,3,0,4.3,0c-0.8-1.4-1.8-3-2.9-4.8l-0.2-0.4
	C78.8,58.5,76,47.3,76,34.3c0-6.3-2.7-12.3-7.5-16.8S56.9,10.4,50,10.4S36.3,13,31.5,17.5S24,28,24,34.3c0,13-2.8,24.2-8.4,33.3
	L15.3,68C14.3,69.8,13.3,71.4,12.4,72.8z"/>
</svg>
