<?xml version="1.0" encoding="utf-8"?>
<!-- Generator: Adobe Illustrator 24.0.2, SVG Export Plug-In . SVG Version: 6.00 Build 0)  -->
<svg version="1.1" id="Слой_1" xmlns="http://www.w3.org/2000/svg" xmlns:xlink="http://www.w3.org/1999/xlink" x="0px" y="0px"
	 width="100px" height="101.8px" viewBox="0 0 100 101.8" style="enable-background:new 0 0 100 101.8;" xml:space="preserve">
<style type="text/css">
	.st0{fill:#343A40;}
	.st1{fill:#28A745;}
</style>
<g>
	<g>
		<path class="st0" d="M59.8,92.3H31.3c-2.6,0-4.7,2.1-4.7,4.7s2.1,4.7,4.7,4.7h28.4c2.6,0,4.7-2.1,4.7-4.7
			C64.5,94.5,62.4,92.3,59.8,92.3z"/>
		<path class="st0" d="M78.8,41c-3.5-0.8-6.8-2.3-9.6-4.4c0,0.6,0.1,1.1,0.1,1.7c0,11.8,2.6,22,7.7,30.4c1,1.7,2,3.3,2.8,4.7
			c-1.2,0-2.5,0-3.9,0H15.3c-1.4,0-2.7,0-3.9,0c0.8-1.4,1.8-3,2.9-4.7c5.1-8.3,7.7-18.5,7.7-30.4c0-5.8,2.4-11.2,6.8-15.3
			s10.6-6.5,16.9-6.5c4.7,0,9.4,1.3,13.3,3.7c-0.3-1.6-0.5-3.2-0.5-4.9c0-1.9,0.2-3.8,0.6-5.6c-0.3-0.1-0.5-0.2-0.8-0.3
			c-4-1.6-8.2-2.3-12.6-2.3C41.2,7.1,37,7.9,33,9.4c-4,1.6-7.6,3.8-10.7,6.7s-5.6,6.3-7.3,10.1s-2.6,7.9-2.6,12.1
			c0,10-2.1,18.6-6.3,25.4C0.8,72.5-0.2,74.1,0,76.4c0.2,2.2,1.1,3.8,2.9,5.1c1.5,1.1,3.3,1.3,5.4,1.3c1.7,0.1,3.9,0.1,7,0.1h60.6
			c3.1,0,5.3,0,7-0.1c2.1-0.1,3.9-0.2,5.4-1.3c1.8-1.3,2.7-2.9,2.9-5.1c0.2-2.3-0.8-3.9-6.1-12.6C81.2,57.5,79.1,49.9,78.8,41z"/>
	</g>
	<circle class="st1" cx="84.6" cy="15.4" r="15.4"/>
</g>
</svg>
