<?xml version="1.0" encoding="utf-8"?>
<!-- Generator: Adobe Illustrator 24.0.2, SVG Export Plug-In . SVG Version: 6.00 Build 0)  -->
<svg version="1.1" id="Слой_1" xmlns="http://www.w3.org/2000/svg" xmlns:xlink="http://www.w3.org/1999/xlink" x="0px" y="0px"
	 width="657.3px" height="666.7px" viewBox="0 0 657.3 666.7" style="enable-background:new 0 0 657.3 666.7;" xml:space="preserve"
	>
<style type="text/css">
	.st0{fill:#E29E05;}
	.st1{fill:#C67305;}
	.st2{fill:#F5BB00;}
	.st3{fill:#DDB926;}
	.st4{fill:#F4CC08;}
	.st5{fill:#FFE67D;}
	.st6{fill:#FFC628;}
	.st7{fill:#FFFA87;}
	.st8{opacity:0.62;fill:#FFE98F;}
</style>
<g>
	<g>
		<path class="st0" d="M27.7,498.7c-8.2-12-14.8-24.9-19.1-38.8c-18.2-59.3-8.2-129.4,52.9-208c80.8-104,225-180.2,343.4-192.9
			c84-9,156.4,13.8,191.4,62.8l0.5-0.4l28.1,43.1c23.5,35.2,34.4,66.3,32,109.2c-8.4,150.5-200.6,326.2-419.6,335.4
			c-39.6,1.7-74.6-4.3-103.4-15c-26.4-9.9-49.5-26.5-68.3-47.2C50.8,530.8,37.7,513.3,27.7,498.7z"/>
		<path class="st0" d="M25,309.1l259.5,295.6c-15.5,2.3-31.2,4-47.1,4.6c-39.6,1.7-74.6-4.3-103.4-15c-26.4-9.9-49.5-26.5-68.3-47.2
			c-14.9-16.3-28-33.8-38-48.4c-8.2-12-14.8-24.9-19.1-38.8C-5.1,415.4-2.8,364.8,25,309.1z"/>
		<path class="st1" d="M404.9,59.1c84-9,156.4,13.8,191.4,62.8l0.5-0.4l28.1,43.1c23.5,35.2,34.4,66.3,32,109.2
			c-4.2,75-54.1,156.4-130.3,220.2l-388.1-319C217.9,111.8,318.2,68.3,404.9,59.1z"/>
		<path class="st2" d="M138.5,175.1l388.1,319c-33.8,28.3-72.8,53.2-115.3,72.5L85.8,223.8C101.9,206.6,119.6,190.2,138.5,175.1z"/>
		<path class="st2" d="M57.6,257.2c1.3-1.7,2.5-3.5,3.9-5.2c7.5-9.7,15.8-19,24.3-28.1l325.6,342.8c-29.9,13.6-61.5,24.5-94.2,31.9
			c-10.8,2.4-21.7,4.5-32.7,6.2L25,309.1C33.4,292.3,44.3,274.9,57.6,257.2z"/>
	</g>
	<path class="st3" d="M61.5,252c80.7-104.1,225-180.2,343.4-192.9C527.7,45.9,625.8,100.6,618.2,206
		c-10.7,147.1-210.6,324.4-428.4,332.5C-14.5,546.1-48.2,393.5,61.5,252z"/>
	<path class="st4" d="M61.5,252c80.7-104.1,225-180.2,343.4-192.9C527.7,45.9,625.8,100.6,618.2,206
		c-10.7,147.1-210.6,324.4-428.4,332.5C-14.5,546.1-48.2,393.5,61.5,252z"/>
	<path class="st1" d="M572.4,223.4C552.8,335.5,398.9,458,240.2,466.6c-152.3,8.3-195.9-96-121.4-205.4
		c59.7-87.8,181.8-155.4,285.2-166C510.1,84.4,588,134.8,572.4,223.4z"/>
	<path class="st5" d="M544.4,245.2C520.3,363.9,357.5,493.8,194.1,502C37.5,509.9-1.5,398.3,80.2,282.8
		c65.1-92.1,192.1-162.4,297.5-173C485.9,98.9,563.4,152,544.4,245.2z"/>
	<path class="st4" d="M556.3,236.5C534,353,374.2,480.4,212,488.9C56.5,497,15.6,387.8,94.7,274.3
		c63.2-90.6,188.6-160.1,293.5-170.6C496,92.8,573.9,144.9,556.3,236.5z"/>
	<g>
		<g id="XMLID_868_">
			<polygon id="XMLID_869_" class="st1" points="195.3,345.9 210.7,366.1 169.1,401.8 152.4,379.9 			"/>
		</g>
		<g id="XMLID_866_">
			<polygon id="XMLID_867_" class="st6" points="152.4,379.9 169.1,401.8 153.2,384.5 136.5,362.5 			"/>
		</g>
		<path id="XMLID_11_" class="st1" d="M356.3,326.2c0.9-3.6,1.2-7.5,0.7-11.2l-21.6-28c2.3,15-8.6,29.5-18.3,39.7
			c-13.8,14.6-31.2,28-49.5,36.5c-12.2,6.3-27.7,10.8-41.5,7.9l21.6,28c22.2,4.7,45.9-8.7,63.4-20.9
			C328.8,365.8,350.8,348.4,356.3,326.2z"/>
		<g id="XMLID_675_">
			<polygon id="XMLID_676_" class="st1" points="469.3,178.4 491.3,207.5 445.2,244 423.2,214.9 			"/>
		</g>
		<g id="XMLID_5_">
			<polygon id="XMLID_84_" class="st1" points="441.6,147.8 463.6,176.9 417.5,213.4 395.5,184.3 			"/>
		</g>
		<g id="XMLID_673_">
			<polygon id="XMLID_674_" class="st1" points="226.1,371 247.7,399.1 200.3,436.6 178.7,408.6 			"/>
		</g>
		<g id="XMLID_671_">
			<polygon id="XMLID_672_" class="st6" points="178.7,408.6 200.3,436.6 184.4,419.3 162.8,391.2 			"/>
		</g>
		<path id="XMLID_18_" class="st1" d="M444.8,249.5c0.3-1.8,0.6-3.7,0.6-5.5l-22.1-29.1c-0.3,21.2-20.3,39.1-35.6,51
			c-14.4,11.1-33.4,22.4-52.3,21l22.1,29.1c18.3,1.4,36.8-9.4,50.9-20C423.4,284.7,441,269,444.8,249.5z"/>
		<g id="XMLID_503_">
			<g>
				<path id="XMLID_33_" class="st7" d="M335.4,286.9c2.1,13.8-7.4,33.1-36.2,56c-29.8,23.6-55.6,31.9-73.1,28.2l-47.4,37.5
					l-15.9-17.4l42.9-34l-10.4-11.4l-42.9,34l-15.9-17.4l42.9-34l-8.5-9.3l207.5-164.3l8.5,9.3l40.2-31.8l15.9,17.4l-40.2,31.8
					l10.4,11.4l40.2-31.8l15.9,17.4l-46.1,36.5c-0.2,13.8-10.2,30.9-34.2,49.9C368.9,280.7,349.4,288,335.4,286.9z M241.4,328.2
					c7.5,8.1,18.5,13,43-6.4c25-19.8,20.5-30.9,12.6-39.4l-16.6-18.1L224,309.1L241.4,328.2L241.4,328.2z M360.1,201.3l-48.7,38.6
					l15.8,17.3c6.4,6.9,16.3,11.8,37.4-4.8c21-16.6,18-26.4,11.4-33.7L360.1,201.3L360.1,201.3z"/>
			</g>
		</g>
		<g id="XMLID_501_">
			<path id="XMLID_502_" class="st1" d="M364.6,252.3c21-16.6,18-26.4,11.4-33.7l-15.8-17.3l-48.7,38.6l15.8,17.3
				C333.6,264.1,343.5,268.9,364.6,252.3z"/>
		</g>
		<g id="XMLID_186_">
			<path id="XMLID_187_" class="st1" d="M297.1,282.5c7.8,8.5,12.4,19.6-12.6,39.4c-24.5,19.4-35.5,14.5-43,6.4L224,309.1l56.5-44.8
				L297.1,282.5z"/>
		</g>
	</g>
	<path class="st8" d="M618.3,206c0.2-2.1,0.2-4.2,0.3-6.2L102,207.3c-14.6,14.2-28.3,29.1-40.3,44.6c-22,28.4-38.1,57.1-48.3,85
		l577.9-42.2C606.7,265,616.2,234.9,618.3,206z"/>
</g>
</svg>
