<?xml version="1.0" encoding="utf-8"?>
<!-- Generator: Adobe Illustrator 24.0.2, SVG Export Plug-In . SVG Version: 6.00 Build 0)  -->
<svg version="1.1" id="Layer_1" xmlns="http://www.w3.org/2000/svg" xmlns:xlink="http://www.w3.org/1999/xlink" x="0px" y="0px"
	 width="732.7px" height="800px" viewBox="0 0 732.7 800" style="enable-background:new 0 0 732.7 800;" xml:space="preserve">
<style type="text/css">
	.st0{fill:#343A40;}
</style>
<g>
	<g>
		<path class="st0" d="M531.8,800H201.3c-0.4,0-0.8,0-1.2,0c-51.9-2.4-100.7-24.4-137.6-61.8C26,701.1,4.3,651.8,1.3,599.3
			c-4.6-42.3,2.8-84.8,21.2-123C66.3,381,127,296.6,202.8,225.5c0.9-0.9,1.9-1.7,3-2.4c13.2-9.1,27.9-15.8,43.2-19.7L234.8,170
			c-31.9-74.3-38.1-119.6-20.1-146.8C220.3,14.5,234,0,261.3,0h210.4c20.3,0,36.8,8.2,46.7,23.2c18,27.4,11.8,72.7-20.2,146.9
			l-14.3,33.3c15.4,3.9,30.1,10.6,43.2,19.7c1.1,0.7,2.1,1.5,3,2.4c75.7,71.1,136.3,155.4,180.1,250.6c18.4,38.2,25.7,80.7,21.2,123
			c-2.9,52.5-24.6,101.8-61,138.9c-36.8,37.5-85.6,59.5-137.5,62C532.6,800,532.2,800,531.8,800z M201.9,747.7h329.2
			c80.2-4.2,143.8-69.4,148.2-152.1c0-0.5,0.1-1,0.1-1.5c3.6-32.8-2-65.8-16.3-95.4c-0.1-0.2-0.2-0.3-0.2-0.5
			c-40.6-88.5-96.8-166.9-167-233.1c-14.4-9.5-31.5-14.2-48.6-13.4c-9,0.5-17.6-3.8-22.8-11.2c-5.2-7.4-6.1-17-2.6-25.3l28.2-65.8
			c30.9-71.6,26.2-93,24.8-96.8c-0.6-0.1-1.6-0.3-3.2-0.3H261.3c-1.6,0-2.6,0.1-3.2,0.3c-0.8,2.4-2.9,11.6,2.8,34.8
			c4.1,16.9,11.3,37.1,22,62l24.3,56.9l3.9,9c3.6,8.3,2.6,17.9-2.5,25.3c-5.2,7.4-13.8,11.7-22.8,11.2c-17-0.8-34.2,3.9-48.6,13.4
			C166.9,331.4,110.7,409.9,70,498.5c-0.1,0.2-0.1,0.3-0.2,0.5c-14.4,29.4-20,62.4-16.4,95.2c0.1,0.5,0.1,1,0.1,1.5
			C57.9,678.4,121.7,743.6,201.9,747.7z M475.7,52.8L475.7,52.8L475.7,52.8z"/>
	</g>
	<path class="st0" d="M363.2,275.9c-14.2,0-28.3-1-42.2-3.1C201.5,255,136.6,166.7,133.9,163c-8.5-11.7-5.8-28.1,5.9-36.5
		s28-5.8,36.5,5.9c0.2,0.3,14.2,19.2,40.3,39.6c34.3,26.8,72.2,43.3,112.8,49.3c77.3,11.3,161-16.9,249-83.8
		c11.5-8.7,27.9-6.5,36.7,5c8.7,11.5,6.5,27.9-5,36.7C525.3,243.4,442.5,275.9,363.2,275.9z"/>
	<path class="st0" d="M441.7,509.1L441.7,509.1c-7.2-9.6-15.8-16.4-25.5-20.5l-0.2-0.1c-10.7-4.7-24.1-8.9-39.9-12.4
		c-13.5-3.1-23-6-29.2-8.7l-0.3-0.1c-8.7-4.3-13.5-11.5-13.5-20.3c0-9.6,4.9-25.7,37.4-25.7c17.2,0,35.4,4.9,54,14.5
		c0.4,0.2,0.7,0.1,0.8,0.1c0.3-0.1,0.3-0.3,0.4-0.4l15.4-44.7c0.1-0.2,0.1-0.3,0-0.4c-12.5-7.3-27.3-12.4-44-15
		c-3.5-0.6-6.7-2-9.2-4.1v-34.8c0-11.9-9.6-21.5-21.5-21.5s-21.5,9.6-21.5,21.5v38.1c0,0.1,0,0.2,0,0.3c-1.3,0.7-2.8,1.2-4.3,1.6
		c-18.5,4.4-33,12.8-43.3,25c-11.6,13.9-17.2,30.3-17.2,50c0,16.7,3.5,29.9,10.5,39.3c7.2,9.5,15.7,16.5,25.2,20.8
		c10.6,4.5,24.1,8.8,40.1,12.9c13.6,3.4,23.3,6.5,29.5,9.6c9,4.3,13.9,11.6,13.9,20.7c0,8-4,14.7-11.2,18.9l-0.4,0.2
		c-5.8,3-14,4.4-25.9,4.4c-12.6,0-26-2.3-39.6-6.8l-0.2-0.1c-9-3.2-17.6-7-25.5-11.5c-0.5-0.3-0.9-0.2-1.1-0.1
		c-0.3,0.1-0.4,0.3-0.4,0.4l-16.5,44.9c0,0.1-0.1,0.2-0.1,0.3c7.4,4.6,16.3,8.7,26.5,12.2c10.7,3.5,21.9,6,33.3,7.3
		c2,0.2,3.8,0.7,5.6,1.5v36c0,11.9,9.6,21.5,21.5,21.5s21.5-9.6,21.5-21.5v-35.6c2.2-2.1,5-3.7,8.1-4.5
		c17.3-4.9,30.9-13.4,40.6-25.4c11.3-14,16.7-29.9,16.7-48.7C452.4,531.3,448.8,518.3,441.7,509.1z"/>
</g>
</svg>
