<?xml version="1.0" encoding="utf-8"?>
<!-- Generator: Adobe Illustrator 24.0.2, SVG Export Plug-In . SVG Version: 6.00 Build 0)  -->
<svg version="1.1" id="Слой_1" xmlns="http://www.w3.org/2000/svg" xmlns:xlink="http://www.w3.org/1999/xlink" x="0px" y="0px"
	 width="20px" height="20px" viewBox="0 0 20 20" style="enable-background:new 0 0 20 20;" xml:space="preserve">
<style type="text/css">
	.st0{fill:#E9ECEF;}
</style>
<g>
	<path class="st0" d="M17,8h-6V5.8c1.2-0.4,2-1.5,2-2.8c0-1.7-1.3-3-3-3S7,1.3,7,3c0,1.3,0.8,2.4,2,2.8V8H3c-1.7,0-3,1.3-3,3v6
		c0,1.7,1.3,3,3,3h14c1.7,0,3-1.3,3-3v-6C20,9.3,18.7,8,17,8z M10,2c0.6,0,1,0.4,1,1s-0.4,1-1,1S9,3.6,9,3S9.4,2,10,2z M18,17
		c0,0.6-0.4,1-1,1H3c-0.6,0-1-0.4-1-1v-6c0-0.6,0.4-1,1-1h14c0.6,0,1,0.4,1,1V17z"/>
	<path class="st0" d="M6.7,13.3c-0.1-0.1-0.2-0.2-0.3-0.2C6,12.9,5.6,13,5.3,13.3c-0.1,0.1-0.2,0.2-0.2,0.3C5,13.7,5,13.9,5,14
		c0,0.3,0.1,0.5,0.3,0.7C5.5,14.9,5.7,15,6,15s0.5-0.1,0.7-0.3C6.9,14.5,7,14.3,7,14c0-0.1,0-0.3-0.1-0.4
		C6.9,13.5,6.8,13.4,6.7,13.3z"/>
	<path class="st0" d="M14.7,13.3c0,0-0.1-0.1-0.2-0.1c-0.1,0-0.1-0.1-0.2-0.1c-0.1,0-0.1,0-0.2-0.1c-0.3-0.1-0.7,0-0.9,0.3
		c-0.1,0.1-0.2,0.2-0.2,0.3s-0.1,0.3-0.1,0.4c0,0.3,0.1,0.5,0.3,0.7s0.4,0.3,0.7,0.3s0.5-0.1,0.7-0.3s0.3-0.4,0.3-0.7
		c0-0.1,0-0.3-0.1-0.4C14.9,13.5,14.8,13.4,14.7,13.3z"/>
</g>
</svg>
