<?xml version="1.0" encoding="utf-8"?>
<!-- Generator: Adobe Illustrator 24.0.2, SVG Export Plug-In . SVG Version: 6.00 Build 0)  -->
<svg version="1.1" id="Layer_1" xmlns="http://www.w3.org/2000/svg" xmlns:xlink="http://www.w3.org/1999/xlink" x="0px" y="0px"
	 width="800px" height="800px" viewBox="0 0 800 800" style="enable-background:new 0 0 800 800;" xml:space="preserve">
<style type="text/css">
	.st0{fill:#FFFFFF;}
	.st1{fill:#FFA829;}
</style>
<g>
	<rect x="135" y="118" class="st0" width="503" height="560"/>
	<g id="BTC_2_">
		<path class="st1" d="M478.8,431.2c-9.2-4.6-29.8-10.8-54.2-12.5c-24.5-1.6-55.8,0-55.8,0v105.9c0,0,32.8,0.7,54.7-0.9
			c21.9-1.6,44.5-7.2,55.8-13.4c11.3-6.2,24.9-15.9,24.9-40.1C504.1,446,488,435.9,478.8,431.2z"/>
		<path class="st1" d="M409.8,369.6c18-0.7,37.2-4.8,51-12.5c13.8-7.6,21.7-19.6,21.2-37.6c-0.5-18-12.5-33.2-32.8-39.5
			c-20.3-6.2-33.9-6.7-49.4-6.9c-15.5-0.2-31.1,1.2-31.1,1.2v95.3C368.7,369.6,391.8,370.3,409.8,369.6z"/>
		<path class="st1" d="M400.1,0C179.1,0,0,179.1,0,400.1c0,221,179.1,400.1,400.1,400.1S800.2,621,800.2,400.1
			C800.2,179.1,621,0,400.1,0z M563,553.1c-29.8,20.8-61.6,24.5-75.7,26.3c-6.9,0.9-18.8,1.9-31.6,2.6v80.2h-49.4v-78.9
			c-9.2,0-22.4,0-37.6,0v78.9h-49.4v-78.9c-48.9,0-97.1,0-97.1,0l10.1-59.3c0,0,19.6,0,29.5,0c9.9,0,14.1-0.9,18.2-4.8
			c4.2-3.9,5.1-9.9,5.1-14.8c0-4.8,0-191.5,0-204.3c0-12.8-1-16.3-6.9-22.8c-5.9-6.6-19.7-7.5-27.5-7.5c-7.8,0-28.5,0-28.5,0v-51.3
			c0,0,46.7,0,97.1,0v-79.1h49.4v79.1c13.7,0,26.6,0,37.6,0v-79.1h49.4v80.1c36.8,2.3,64.2,9.3,88.1,27c30.9,22.8,29.3,62.5,28.6,72
			c-0.7,9.5-4.8,27.7-13.2,39.5c-8.3,11.8-28.6,23.5-28.6,23.5s24,5.1,40.8,17.8c16.8,12.7,29.3,35.1,28.6,67.8
			C599.4,499.8,592.7,532.3,563,553.1z"/>
	</g>
</g>
</svg>
