<?xml version="1.0" encoding="utf-8"?>
<!-- Generator: Adobe Illustrator 24.0.2, SVG Export Plug-In . SVG Version: 6.00 Build 0)  -->
<svg version="1.1" id="Layer_1" xmlns="http://www.w3.org/2000/svg" xmlns:xlink="http://www.w3.org/1999/xlink" x="0px" y="0px"
	 width="526.6px" height="526.6px" viewBox="0 0 526.6 526.6" style="enable-background:new 0 0 526.6 526.6;" xml:space="preserve"
	>
<style type="text/css">
	.st0{fill:#121921;}
</style>
<title></title>
<path class="st0" d="M513.8,450.8L326.3,263.3L513.8,75.8c8.4-8.5,12.9-19.8,12.7-31.7c-0.1-11.9-4.9-23-13.4-31.3
	C504.8,4.5,493.7,0,482,0c-11.7,0-22.8,4.5-31.2,12.8L263.3,200.3L75.8,12.8C58.3-4.4,30-4.1,12.8,13.4C4.5,21.8,0,32.9,0,44.6
	c0,11.7,4.5,22.8,12.8,31.2l187.5,187.5L12.8,450.8C4.4,459.3-0.1,470.6,0,482.5c0.1,11.9,4.9,23,13.4,31.3
	c8.4,8.2,19.5,12.7,31.2,12.7c11.7,0,22.8-4.5,31.2-12.8l187.5-187.5l187.5,187.5c8.4,8.2,19.5,12.8,31.2,12.8c0.2,0,0.3,0,0.5,0
	c11.9-0.1,23-4.9,31.3-13.4c8.2-8.4,12.7-19.5,12.7-31.2S522.1,459.2,513.8,450.8z"/>
</svg>
