<?xml version="1.0" encoding="utf-8"?>
<!-- Generator: Adobe Illustrator 24.0.2, SVG Export Plug-In . SVG Version: 6.00 Build 0)  -->
<svg version="1.1" id="Слой_1" xmlns="http://www.w3.org/2000/svg" xmlns:xlink="http://www.w3.org/1999/xlink" x="0px" y="0px"
	 width="26px" height="16.9px" viewBox="0 0 26 16.9" style="enable-background:new 0 0 26 16.9;" xml:space="preserve">
<style type="text/css">
	.st0{fill:#007BFF;}
	.st1{fill:#121921;}
	.st2{fill:#FFFFFF;}
</style>
<g>
	<path class="st0" d="M0,2c0-1.1,0.9-2,2.3-2h21.4C24.9,0,26,0.9,26,2v12.9c0,1.1-0.9,2-2.3,2H2.3c-1.1,0-2.3-0.9-2.3-2L0,2L0,2z"/>
	<path class="st1" d="M0,3.1h26v3.1H0V3.1z"/>
	<path class="st2" d="M18.3,12.9c0-0.6,0.6-1.1,1.1-1.1h3.1c0.6,0,1.1,0.6,1.1,1.1V14c0,0.6-0.6,1.1-1.1,1.1h-3.1
		c-0.6,0-1.1-0.6-1.1-1.1V12.9z"/>
</g>
</svg>
