<?xml version="1.0" encoding="utf-8"?>
<!-- Generator: Adobe Illustrator 24.0.2, SVG Export Plug-In . SVG Version: 6.00 Build 0)  -->
<svg version="1.1" id="Слой_1" xmlns="http://www.w3.org/2000/svg" xmlns:xlink="http://www.w3.org/1999/xlink" x="0px" y="0px"
	 width="700px" height="676.8px" viewBox="0 0 700 676.8" style="enable-background:new 0 0 700 676.8;" xml:space="preserve">
<style type="text/css">
	.st0{fill:#DFE1E3;}
	.st1{fill:#C0C3ED;}
	.st2{fill:#FFFFFF;}
</style>
<g>
	<path class="st0" d="M663,580.7c20.4,0,37-16.6,37-37v-96.3c0-20.4-16.6-37-37-37c20.4,0,37-16.6,37-37v-96.3c0-20.4-16.6-37-37-37
		c20.4,0,37-16.6,37-37v-96.3c0-20.4-16.6-37-37-37H274.2c-20.4,0-37,16.6-37,37v96.3c0,20.4,16.6,37,37,37c-20.4,0-37,16.6-37,37
		v96.3c0,20.4,16.6,37,37,37c-20.4,0-37,16.6-37,37v96.3c0,20.4,16.6,37,37,37"/>
	<path class="st1" d="M700,447.5v96.3c0,20.4-16.6,37-37,37H274.2c-20.4,0-37-16.6-37-37v-37h74h157.4H626
		c37.9,0,69.2-28.5,73.5-65.3C699.8,443.4,700,445.4,700,447.5z"/>
	<path class="st1" d="M699.5,100.8c-4.3,36.8-35.6,65.3-73.5,65.3H311.3c-37.9,0-69.2-28.5-73.5-65.3c-0.3,2-0.5,4-0.5,6v96.3
		c0,20.4,16.6,37,37,37H663c20.4,0,37-16.6,37-37v-96.3C700,104.8,699.8,102.8,699.5,100.8z"/>
	<path class="st1" d="M626,338.7H311.3c-37.9,0-69.2-28.5-73.5-65.3c-0.3,2-0.5,4-0.5,6v96.3c0,20.4,16.6,37,37,37H663
		c20.4,0,37-16.6,37-37v-96.3c0-2.1-0.2-4.1-0.5-6C695.1,310.2,663.9,338.7,626,338.7z"/>
	<path class="st2" d="M462.8,470v-0.5c0,0,0,0,0,0v-96.3c0-0.2,0-0.5,0-0.7c0-0.2,0-0.3,0-0.5c-0.5-16.2-11.5-29.8-26.4-34.2h-410h0
		c-14.9,4.5-25.8,18-26.4,34.2c0,0.2,0,0.3,0,0.5c0,0.2,0,0.5,0,0.7v0.5v95.8v0.5c0,19,14.4,34.7,32.8,36.8c-18,2-32,16.9-32.8,35.2
		c0,0.5,0,1,0,1.5c0,0,0,0,0,0v0v96.3v0c0,20.4,16.6,37,37,37h388.7c10.8,0,20.6-4.7,27.3-12.1c6-6.6,9.7-15.3,9.7-25v-96.3
		c0-0.1,0-0.1,0-0.2c0-0.5,0-0.9,0-1.4c-0.8-18.3-14.8-33.2-32.8-35.2C448.4,504.7,462.8,489,462.8,470z"/>
	<g>
		<path class="st0" d="M0,373.2v96.3c0,20.4,16.6,37,37,37c-20.4,0-37,16.6-37,37v96.3c0,20.4,16.6,37,37,37h388.7
			c20.4,0,37-16.6,37-37v-96.3c0-20.4-16.6-37-37-37c20.4,0,37-16.6,37-37v-96.3c0-16.8-11.1-30.9-26.4-35.5h-410h0
			C11.1,342.3,0,356.5,0,373.2z"/>
		<path class="st1" d="M388.7,432.9H74c-37.9,0-69.2-28.5-73.5-65.3c-0.3,2-0.5,4-0.5,6V470c0,20.4,16.6,37,37,37h388.7
			c20.4,0,37-16.6,37-37v-96.3c0-2.1-0.2-4.1-0.5-6C457.9,404.4,426.7,432.9,388.7,432.9z"/>
		<path class="st1" d="M388.7,602.8H74c-37.9,0-69.2-28.5-73.5-65.3c-0.3,2-0.5,4-0.5,6v96.3c0,20.4,16.6,37,37,37h388.7
			c20.4,0,37-16.6,37-37v-96.3c0-2.1-0.2-4.1-0.5-6C457.9,574.3,426.7,602.8,388.7,602.8z"/>
	</g>
</g>
</svg>
