<?xml version="1.0" encoding="utf-8"?>
<!-- Generator: Adobe Illustrator 24.0.2, SVG Export Plug-In . SVG Version: 6.00 Build 0)  -->
<svg version="1.1" id="Слой_1" xmlns="http://www.w3.org/2000/svg" xmlns:xlink="http://www.w3.org/1999/xlink" x="0px" y="0px"
	 width="666.7px" height="533.3px" viewBox="0 0 666.7 533.3" style="enable-background:new 0 0 666.7 533.3;" xml:space="preserve"
	>
<style type="text/css">
	.st0{fill:#E9ECEF;}
</style>
<path class="st0" d="M333.3,533.3c-84.7,0-164.8-14.9-225.7-41.9C38.2,460.6,0,416.3,0,366.7V183.3C0,130,37.7,81.7,106.3,47.5
	C167.5,16.9,248.1,0,333.3,0s165.8,16.9,227,47.5c68.5,34.3,106.3,82.5,106.3,135.9v183.3c0,49.6-38.2,93.9-107.7,124.7
	C498.2,518.4,418,533.3,333.3,533.3z M366.7,365.8v100c35.4-1.8,69.2-6.5,100-13.8V352C435.2,359.3,401.5,364,366.7,365.8z M200,452
	c30.8,7.3,64.6,12,100,13.8v-100c-34.8-1.8-68.5-6.5-100-13.8V452z M533.3,331.3v98.5c41.2-18.6,66.7-42.7,66.7-63.2v-71.2
	c-11.8,8.5-25,16.5-39.6,23.8C551.7,323.5,542.7,327.6,533.3,331.3z M66.7,295.4v71.2c0,20.5,25.5,44.6,66.7,63.2v-98.5
	c-9.4-3.8-18.4-7.8-27-12.1C91.7,311.9,78.4,303.9,66.7,295.4z M333.3,300c56,0,109.1-8,154.2-22.8c1.2-0.5,2.5-0.9,3.8-1.3
	c14-4.8,27.1-10.2,39.3-16.3c44.1-22.1,69.4-49.9,69.4-76.3c0-26.4-25.3-54.2-69.4-76.3C478.4,81,408.4,66.7,333.3,66.7
	S188.2,81,136.1,107.1c-44.1,22.1-69.4,49.9-69.4,76.3c0,26.4,25.3,54.2,69.4,76.3c12.2,6.1,25.3,11.5,39.3,16.3
	c1.3,0.3,2.6,0.8,3.8,1.3C224.2,292,277.4,300,333.3,300z"/>
</svg>
