<?xml version="1.0" encoding="utf-8"?>
<!-- Generator: Adobe Illustrator 24.0.2, SVG Export Plug-In . SVG Version: 6.00 Build 0)  -->
<svg version="1.1" id="Layer_1" xmlns="http://www.w3.org/2000/svg" xmlns:xlink="http://www.w3.org/1999/xlink" x="0px" y="0px"
	 width="800px" height="800px" viewBox="0 0 800 800" style="enable-background:new 0 0 800 800;" xml:space="preserve">
<style type="text/css">
	.st0{fill:#343A40;}
</style>
<g>
	<g>
		<path class="st0" d="M293.6,213.9c-44,0-79.8,35.8-79.8,79.8s35.8,79.8,79.8,79.8s79.8-35.8,79.8-79.8
			C373.4,249.7,337.6,213.9,293.6,213.9z M293.7,320.2c-14.7,0-26.6-11.9-26.6-26.6S279,267,293.7,267s26.6,11.9,26.6,26.6
			C320.2,308.3,308.3,320.2,293.7,320.2z"/>
	</g>
</g>
<g>
	<g>
		<path class="st0" d="M506.4,426.6c-44,0-79.8,35.8-79.8,79.8s35.8,79.8,79.8,79.8s79.8-35.8,79.8-79.8
			C586.1,462.4,550.3,426.6,506.4,426.6z M506.4,532.9c-14.7,0-26.6-11.9-26.6-26.6c0-14.7,11.9-26.6,26.6-26.6
			c14.7,0,26.6,11.9,26.6,26.6C532.9,521,521,532.9,506.4,532.9z"/>
	</g>
</g>
<g>
	<g>
		<path class="st0" d="M531.6,268.4c-10.4-10.4-27.2-10.4-37.6,0L268.4,494c-10.4,10.4-10.4,27.2,0,37.6c5.2,5.2,12,7.8,18.8,7.8
			s13.6-2.6,18.8-7.8L531.6,306C542,295.6,542,278.8,531.6,268.4z"/>
	</g>
</g>
<g>
	<g>
		<path class="st0" d="M400,0C179.4,0,0,179.4,0,400c0,81.4,24.1,159.1,70,225.8l-67,134c-5,10.1-3.5,22.2,3.9,30.7
			c5.4,6.2,13.1,9.5,20.9,9.5c3,0,6-0.5,8.9-1.5l160.2-54.1C258.3,780.8,328.2,800,400,800c220.6,0,400-179.4,400-400S620.6,0,400,0
			z M400,744.5c-65.7,0-129.6-18.6-184.8-53.9c-4.5-2.9-9.7-4.4-14.9-4.4c-3,0-6,0.5-8.9,1.5L82.8,724.3l44.4-88.7
			c4.7-9.4,3.7-20.7-2.6-29.1c-45.1-60-69-131.4-69-206.5C55.5,210.1,210.1,55.5,400,55.5S744.5,210.1,744.5,400
			S589.9,744.5,400,744.5z"/>
	</g>
</g>
</svg>
