<?xml version="1.0" encoding="utf-8"?>
<!-- Generator: Adobe Illustrator 24.0.2, SVG Export Plug-In . SVG Version: 6.00 Build 0)  -->
<svg version="1.1" id="Слой_1" xmlns="http://www.w3.org/2000/svg" xmlns:xlink="http://www.w3.org/1999/xlink" x="0px" y="0px"
	 width="69.6px" height="98px" viewBox="0 0 69.6 98" style="enable-background:new 0 0 69.6 98;" xml:space="preserve">
<style type="text/css">
	.st0{fill:#343A40;}
</style>
<path class="st0" d="M34.6,0c3.9,0,7,3.1,7,7v67.1L57.7,58c2.7-2.7,7.2-2.7,9.9,0c2.7,2.7,2.7,7.2,0,9.9l-28,28l0,0l0,0l0,0l0,0l0,0
	l0,0l0,0c-0.6,0.6-1.4,1.1-2.1,1.4l0,0l0,0c-0.8,0.4-1.8,0.6-2.7,0.6c-1,0-1.9-0.2-2.7-0.6l0,0l0,0c-0.8-0.3-1.5-0.8-2.1-1.4l0,0
	l0,0l0,0l0,0l0,0l0,0l0,0l0,0l-28-28c-2.7-2.7-2.7-7.2,0-9.9s7.2-2.7,9.9,0L28,74.1V7C27.6,3.1,30.7,0,34.6,0z"/>
</svg>
