<?xml version="1.0" encoding="utf-8"?>
<!-- Generator: Adobe Illustrator 24.0.2, SVG Export Plug-In . SVG Version: 6.00 Build 0)  -->
<svg version="1.1" id="Слой_1" xmlns="http://www.w3.org/2000/svg" xmlns:xlink="http://www.w3.org/1999/xlink" x="0px" y="0px"
	 width="20px" height="11.4px" viewBox="0 0 20 11.4" style="enable-background:new 0 0 20 11.4;" xml:space="preserve">
<style type="text/css">
	.st0{fill:#E9ECEF;}
</style>
<g>
	<path class="st0" d="M9.6,5.7c0.3,0,0.5-0.1,0.8-0.3L14,1.8c0.4-0.4,0.4-1.1,0-1.5c-0.4-0.4-1.1-0.4-1.5,0L8.9,3.9
		C8.5,4.3,8.5,5,8.9,5.4C9.1,5.6,9.4,5.7,9.6,5.7z"/>
	<path class="st0" d="M1.8,6C1.4,5.6,0.7,5.6,0.3,6c-0.4,0.4-0.4,1.1,0,1.5l3.6,3.6c0.2,0.2,0.5,0.3,0.8,0.3c0.3,0,0.5-0.1,0.8-0.3
		c0.4-0.4,0.4-1.1,0-1.5L1.8,6z"/>
	<path class="st0" d="M19.7,0.3c-0.4-0.4-1.1-0.4-1.5,0.1l-7.8,8.5L7.5,6C7.1,5.6,6.4,5.6,6,6C5.6,6.4,5.6,7.1,6,7.5l3.6,3.6
		c0.2,0.2,0.5,0.3,0.8,0.3c0,0,0,0,0,0c0.3,0,0.6-0.1,0.8-0.3l8.6-9.3C20.1,1.4,20.1,0.7,19.7,0.3z"/>
</g>
</svg>
