<?xml version="1.0" encoding="utf-8"?>
<!-- Generator: Adobe Illustrator 24.0.2, SVG Export Plug-In . SVG Version: 6.00 Build 0)  -->
<svg version="1.1" id="Слой_1" xmlns="http://www.w3.org/2000/svg" xmlns:xlink="http://www.w3.org/1999/xlink" x="0px" y="0px"
	 width="101.2px" height="101.2px" viewBox="0 0 101.2 101.2" style="enable-background:new 0 0 101.2 101.2;" xml:space="preserve"
	>
<style type="text/css">
	.st0{fill:#343A40;}
</style>
<g>
	<path class="st0" d="M50.5,0c-0.9,0-1.7,0-2.6,0.1C22.4,1.4,1.4,22.4,0.1,48c-0.7,14.3,4.7,28.3,14.8,38.4s24.1,15.5,38.4,14.8
		c25.6-1.3,46.6-22.3,47.9-47.9C101.9,39,96.5,25,86.4,14.9C76.9,5.3,64,0,50.5,0z M50.6,92C27.8,92,9.2,73.4,9.2,50.6
		S27.8,9.2,50.6,9.2S92,27.8,92,50.6S73.4,92,50.6,92z"/>
	<path class="st0" d="M65.9,56.2H26.3l23.9,23.9V65.5H66c2.5,0,4.6-2.1,4.6-4.6S68.5,56.2,65.9,56.2z"/>
	<path class="st0" d="M51.1,21.2v14.6H35.3c-2.5,0-4.6,2.1-4.6,4.6s2.1,4.6,4.6,4.6H75L51.1,21.2z"/>
</g>
</svg>
