<?xml version="1.0" encoding="utf-8"?>
<!-- Generator: Adobe Illustrator 24.0.2, SVG Export Plug-In . SVG Version: 6.00 Build 0)  -->
<svg version="1.1" id="Слой_1" xmlns="http://www.w3.org/2000/svg" xmlns:xlink="http://www.w3.org/1999/xlink" x="0px" y="0px"
	 width="783.7px" height="800px" viewBox="0 0 783.7 800" style="enable-background:new 0 0 783.7 800;" xml:space="preserve">
<style type="text/css">
	.st0{fill-rule:evenodd;clip-rule:evenodd;fill:#FBBC05;}
	.st1{fill-rule:evenodd;clip-rule:evenodd;fill:#EB4335;}
	.st2{fill-rule:evenodd;clip-rule:evenodd;fill:#34A853;}
	.st3{fill-rule:evenodd;clip-rule:evenodd;fill:#4285F4;}
</style>
<title>Google-color</title>
<desc>Created with Sketch.</desc>
<g id="Icons">
	<g id="Color-" transform="translate(-401.000000, -860.000000)">
		<g id="Google" transform="translate(401.000000, 860.000000)">
			<path id="Fill-1" class="st0" d="M164,400c0-26,4.3-50.9,12-74.3l-134.9-103C14.8,276,0,336.2,0,400
				c0,63.8,14.8,123.9,41.1,177.2L175.9,474C168.3,450.7,164,425.9,164,400"/>
			<path id="Fill-2" class="st1" d="M400.9,163.4c56.5,0,107.5,20,147.6,52.8L665.2,99.7C594.1,37.8,503-0.4,400.9-0.4
				c-158.4,0-294.6,90.6-359.8,223l134.9,103C207.1,231.3,295.8,163.4,400.9,163.4"/>
			<path id="Fill-3" class="st2" d="M400.9,636.6c-105.2,0-193.8-67.9-224.9-162.3l-134.9,103c65.2,132.4,201.4,223,359.8,223
				c97.8,0,191.2-34.7,261.2-99.8l-128.1-99C498,624.3,452.4,636.6,400.9,636.6"/>
			<path id="Fill-4" class="st3" d="M783.7,400c0-23.7-3.6-49.1-9.1-72.8H400.9v154.7H616c-10.8,52.7-40,93.3-81.9,119.7l128.1,99
				C735.8,632.3,783.7,530.5,783.7,400"/>
		</g>
	</g>
</g>
</svg>
