<?xml version="1.0" encoding="utf-8"?>
<!-- Generator: Adobe Illustrator 24.0.2, SVG Export Plug-In . SVG Version: 6.00 Build 0)  -->
<svg version="1.1" id="Слой_1" xmlns="http://www.w3.org/2000/svg" xmlns:xlink="http://www.w3.org/1999/xlink" x="0px" y="0px"
	 width="938.5px" height="645.5px" viewBox="0 0 938.5 645.5" style="enable-background:new 0 0 938.5 645.5;" xml:space="preserve"
	>
<style type="text/css">
	.st0{fill:#262C30;}
	.st1{fill:#171C1E;}
	.st2{fill:#F7D4CD;}
	.st3{fill:#007BFF;}
	.st4{fill:#121921;}
	.st5{fill:url(#SVGID_1_);}
	.st6{fill:url(#SVGID_2_);}
	.st7{fill:#33C14D;}
	.st8{fill:url(#SVGID_3_);}
</style>
<g>
	<path class="st0" d="M199.2,290.1L841,257c61.1-2.5,108.1,53.2,95.5,113l-22.6,106.7c-9.2,43.3-47.4,74.3-91.6,74.3H295.7
		c-31.9,0-62.2,15-80.5,41.1c-5.6,8-10,16.9-12.4,26.7c-1,3.8-6,4.6-8,1.2c-6.3-10.7-16.1-28.7-23.9-48.7
		c-4.7-12.2-16.4-20.4-29.5-20.4l0,0c-20.6,0-37.1-17.1-36.4-37.7l4.4-132.7C111,331.6,150.2,292.1,199.2,290.1z"/>
	<path class="st1" d="M197.5,581.7c-2.6-5.6-5.2-11.6-7.6-17.7c-7.9-20.3-26.9-33.4-48.6-33.4c-4.4,0-8.5-1.7-11.5-4.9
		c-3-3.1-4.6-7.3-4.5-11.7l4.4-132.7c1.3-38.1,32.1-69.2,70.2-70.7l641.8-33.2c1,0,2.1-0.1,3.1-0.1c22.1,0,42.8,9.9,56.8,27.1
		s19.3,39.6,14.7,61.3l-22.6,106.7c-7.1,33.6-37.3,58.1-71.7,58.1H295.7c-39.1,0-75.5,18.6-97.2,49.8
		C198.1,580.8,197.8,581.2,197.5,581.7z"/>
	<g>
		<path class="st2" d="M487.4,471.8c3.9-7.9-1.6-17.4-10.4-17.5c-0.4,0-0.9,0-1.3,0c-14.7,0.5-29.6-1.7-35.1-5.5
			c-1.8-1.2-4.4-0.9-5.6,1c-1.5,2.5-0.3,6.6,13.6,12.7c0,0-30.8,12-55.6,0.2c-24.2-11.5,10.8,49.4,84.3,20.2
			c3.7-1.5,6.7-4.3,8.5-7.9L487.4,471.8z"/>
		<path class="st3" d="M700.2,290.4c-26.2,40.8-111.8,161-215.3,170.4l-6.7,18.8c0,0,130.8,25.5,222.7-61.8
			c-3.1,24.8-4.6,45.8,0.2,60.6c2.6,8,8.9,14.2,17,16.6c82.6,24.5,147.1-4.2,147.1-4.2l7.9-203c-51.4-19.5-117-16.1-147.6-13
			C715.2,275.9,705.8,281.7,700.2,290.4z"/>
		<path class="st2" d="M727.3,230.2c0,0,12.4,30.1,15.5,53.7c0.9,6.9,6.3,12.4,13.2,13.6c14.8,2.5,39.3,3.8,54.3-9.8
			c3.3-3,4.4-7.8,2.9-12c-6.1-17.2-38.1-88.9-55.5-99.9L727.3,230.2z"/>
		<g>
			<path class="st2" d="M853.4,451.4c0,0.1,0,0.3,0,0.4c0.3,37.4-50.4,41-50.4,41s-14.5-24.1-33.1-24.9s-44.4,29.5-44.4,29.5
				l41.2,6.6c0,0,78.6,47.2,132.5-8.9C889.8,460.3,867.1,452.6,853.4,451.4z"/>
			<path class="st3" d="M873.1,287.9c-51.1,18.1-43.7,58.2-43.7,58.2s23.6,67.8,24,105.3c13.7,1.3,36.4,8.9,45.9,43.8
				c1.3-1.3,2.5-2.7,3.8-4.1C967.6,416.4,873.1,287.9,873.1,287.9z"/>
			<path class="st4" d="M853.4,453.4c-1.1,0-2-0.9-2-2c-0.3-29.2-14.9-77.1-21.1-96.3c-0.3-1,0.2-2.2,1.3-2.5s2.2,0.2,2.5,1.3
				c6.3,19.4,21,67.8,21.3,97.5C855.4,452.5,854.5,453.4,853.4,453.4L853.4,453.4z"/>
		</g>
		<g>
			<path class="st2" d="M671.5,154.4c0,1.5,33.4,94.7,33.4,94.7l52.8-20.2l-18.6-93C739.2,135.8,671.5,129.3,671.5,154.4z"/>
			<path class="st0" d="M729.9,158.5l13.6,48.2c0.2,0.6,0.3,1.2,0.3,1.9c0,3.9-1,17.5-14.7,15.6c-12.5-1.7-23.9-3-31.2,0.4
				c-3.3,1.5-4.8,5.3-3.6,8.7c3,8.5,10.2,27.4,19,42.9c1.8,3.1,5.7,4.4,9,2.9c9.9-4.5,30.6-14.6,45.3-26.6c2-1.6,3-4.2,2.5-6.7
				c-2.3-12.3-9.2-49.8-9.5-60.6c-0.3-10.1,11-17.8,16-20.7c1.6-0.9,2.8-2.5,3.2-4.3c1.6-6.5,2.9-21.2-15.9-24.4
				c-3.9-0.7-6.5-4.4-5.7-8.3c1.6-7.8,1.1-19.2-13.7-23.4c-15-4.3-24.4,4.7-29.2,11.7c-1.9,2.8-5.6,3.7-8.7,2.3
				c-1.8-0.8-3.9-0.8-6.2,1.1c-3.1,2.6-7.8,1.8-10.1-1.5c-4.4-6.4-12.3-12.9-25.8-8.5c-23.9,7.7-22.7,35.2-14,50.2
				s34.1,5.1,46.2-4.8c9.1-7.5,23.1-3,29.2-0.4C727.9,154.8,729.3,156.4,729.9,158.5z"/>
			<path class="st2" d="M762.6,203.1c0,0-11.5-27-2.1-35.4c9.3-8.4,22.4-5.5,21.9,15.4C781.9,209,762.6,203.1,762.6,203.1z"/>
		</g>
	</g>
</g>
<radialGradient id="SVGID_1_" cx="969.2598" cy="-346.9979" r="53.0641" fx="968.3372" fy="-326.3301" gradientTransform="matrix(0.95 0.3121 -0.2265 0.6893 -623.672 493.664)" gradientUnits="userSpaceOnUse">
	<stop  offset="1.629098e-02" style="stop-color:#007BFF"/>
	<stop  offset="0.7507" style="stop-color:#007BFF;stop-opacity:0"/>
</radialGradient>
<path class="st5" d="M403.9,589.5l16-53.5c2.9-9.8,0-20.1-7.5-27c-7.6-6.8-18.1-8.7-27.5-4.9l-59.2,24.2
	c-9.3,3.8-15.3,13.2-14.6,23.2c0.2,3.5,1.2,6.9,2.8,9.8c3,5.5,8.2,9.8,14.4,11.5l3.9,1.1l0.7,8.9c0.3,3.3,1.2,6.5,2.7,9.2
	c2.8,5.2,7.6,9.3,13.5,11.2c5.4,1.7,11,1.4,16-0.6c5.5,3.9,12.6,5.6,19.5,4.2C393.8,605.1,401.2,598.5,403.9,589.5z"/>
<radialGradient id="SVGID_2_" cx="693.3107" cy="-368.1168" r="53.0641" fx="692.3881" fy="-347.4489" gradientTransform="matrix(0.6812 0.7321 -0.5312 0.4942 -549.4485 130.667)" gradientUnits="userSpaceOnUse">
	<stop  offset="1.629098e-02" style="stop-color:#007BFF"/>
	<stop  offset="0.7507" style="stop-color:#007BFF;stop-opacity:0"/>
</radialGradient>
<path class="st6" d="M127.3,498.4l39.9-39.1c7.3-7.1,9.7-17.6,6.5-27.3c-3.3-9.6-11.7-16.4-21.8-17.6L88.3,407
	c-10-1.2-19.7,4.2-24,13.2c-1.5,3.2-2.2,6.6-2.3,10c0,6.3,2.4,12.5,7.1,17.1l2.9,2.8l-3.7,8.2c-1.3,3-2,6.3-2.1,9.4
	c0,5.9,2.2,11.8,6.4,16.3c3.9,4.1,9,6.6,14.3,7.2c3,6.1,8.3,11,15,13.1C110.9,507.1,120.6,504.9,127.3,498.4z"/>
<g>
	<g>
		<g>
			<path class="st3" d="M359.4,566l16.3,19.1c2.8,3.3,8.2,2.1,9.3-2.1l15.3-56.9c1.4-5.4-4-10-9.1-7.8l-61.8,27.3
				c-3.3,1.5-2.9,6.3,0.6,7.1l16.6,4.1c2.4,0.6,4.9,0,6.9-1.5l38-30.9l-31.9,33.3C357.4,560.1,357.3,563.6,359.4,566z"/>
			<path class="st3" d="M349.1,563l13,15.1l-4.2,5.2c-2.1,2.6-6.3,1.4-6.7-1.9L349.1,563z"/>
		</g>
	</g>
	<path class="st3" d="M330.5,645.7l-0.3-1.2c2.2-0.5,4.1-1.4,5.8-2.7l0.3-0.2l0.8,0.9l-0.3,0.3C335,644.2,332.8,645.2,330.5,645.7z
		 M317.4,644c-0.7-0.3-1.5-0.7-2.2-1.1l0.6-1c0.7,0.4,1.4,0.8,2.1,1.1L317.4,644z M338.9,640.8L338,640c2.6-3,4.3-7.1,4.5-11.6
		l1.2,0.1C343.4,633.3,341.7,637.7,338.9,640.8z M309.6,638.3c-1.3-1.4-2.4-2.9-3.2-4.5c-1.2-2.3-2.1-4.7-2.6-7.3l1.2-0.3
		c0.6,2.5,1.4,4.9,2.5,7c0.8,1.5,1.8,3,3,4.3L309.6,638.3z M303.3,624c-0.2-1.7-0.4-3.5-0.4-5.3c0-0.6,0-1.3,0-1.9l1.2,0.1
		c0,0.6,0,1.2,0,1.9c0,1.8,0.1,3.5,0.4,5.1L303.3,624z M341.9,621.6L341.9,621.6c-0.2-0.8-0.4-1.5-0.7-2.2l1.1-0.4
		c0.3,0.7,0.5,1.5,0.7,2.3L341.9,621.6z M334.8,608.3c-1.4-1.7-3-3.4-4.8-5.1l0.8-0.9c1.8,1.7,3.5,3.5,4.9,5.2L334.8,608.3z
		 M306.4,604.1l-1.1-0.3c0.2-0.8,0.5-1.5,0.7-2.3l1.1,0.4C306.9,602.6,306.7,603.4,306.4,604.1z M328.2,601.5
		c-3.2-2.8-6.7-5.5-10.4-7.8l0.6-1c3.7,2.4,7.3,5,10.5,7.9L328.2,601.5z M309.7,595.3l-1.1-0.5c0.7-1.7,1.5-3.3,2.4-4.9
		c-0.5-0.2-0.9-0.5-1.4-0.7l0.5-1.1c0.5,0.2,0.9,0.5,1.4,0.7c1-1.9,2.1-3.8,3.3-5.6l1,0.6C313.5,587.5,311.4,591.4,309.7,595.3z
		 M247.6,585.1l-0.4-1.1c1.9-0.6,3.8-1.2,5.7-1.7l0.3,1.2C251.3,583.9,249.4,584.5,247.6,585.1z M297.5,584.6
		c-2.2-0.7-4.6-1.3-6.9-1.8l0.2-1.2c2.3,0.5,4.7,1.1,7,1.8L297.5,584.6z M288.3,582.4c-4.3-0.8-8.6-1.2-12.9-1.4v-1.2
		c4.4,0.1,8.8,0.6,13.1,1.4L288.3,582.4z M317.1,581.9l-1-0.7c1.3-2,2.7-3.9,4.2-5.8l0.9,0.7C319.8,578,318.4,579.9,317.1,581.9z
		 M266,581.3l-0.1-1.2c0.8-0.1,1.6-0.1,2.4-0.2l0.1,1.2C267.6,581.1,266.8,581.2,266,581.3z M330,566.5l-0.8-0.9
		c0.6-0.6,1.2-1.1,1.8-1.6l0.8,0.9C331.1,565.4,330.5,566,330,566.5z M337.1,560.4l-0.7-0.9c3.5-2.7,7.2-5.1,10.9-7.3l0.6,1
		C344.2,555.3,340.6,557.7,337.1,560.4z M350,552l-0.6-1.1c2.1-1.1,4.3-2.2,6.5-3.1l0.5,1.1C354.2,549.9,352.1,550.9,350,552z"/>
</g>
<g>
	<path class="st3" d="M105.6,468.2l8.3,22.3c1.4,3.9,6.6,4.5,9,1.2l32.2-45.6c3-4.3-0.3-10.2-5.5-9.9l-63.9,4
		c-3.4,0.2-4.6,4.6-1.8,6.5l13.4,9c1.9,1.3,4.4,1.6,6.6,0.9l43.8-15L108.5,461C105.8,462.3,104.5,465.4,105.6,468.2z"/>
	<path class="st3" d="M97.5,462.1l6.6,17.7l-5.4,3.2c-2.7,1.6-6-0.8-5.3-3.9L97.5,462.1z"/>
</g>
<path class="st3" d="M56.3,530.2l-0.1-2.1c1.2,0,2.5-0.2,3.7-0.6H60l0.6,2h-0.1C59.2,530,57.7,530.2,56.3,530.2z M44.2,525.7
	c-4.5-3.7-7.6-9.2-8.3-14.6c-0.2-1.2-0.2-2.4-0.2-3.5c0-1,0.1-2,0.2-3.1l2.1,0.2c-0.1,0.9-0.2,1.9-0.2,2.8c0,1.1,0.1,2.2,0.2,3.3
	c0.6,5,3.5,9.9,7.6,13.3L44.2,525.7z M73.6,510.8l-2.1-0.1c0-0.5,0-1.1,0-1.6c0-3.2-0.6-6.7-1.8-10.3l2-0.6
	c1.3,3.8,1.9,7.5,1.9,10.9C73.7,509.7,73.6,510.2,73.6,510.8z M38.6,500.8l-2-0.5c0.9-3.8,2.6-7.8,5-11.7l1.8,1.1
	C41.1,493.4,39.5,497.1,38.6,500.8z M68.4,495c-0.5-1.2-1.1-2.5-1.7-3.7c-2.7-5.4-6.2-10.5-10.3-15.2l1.6-1.4
	c4.2,4.8,7.7,10.1,10.5,15.6c0.7,1.3,1.3,2.6,1.8,3.8L68.4,495z M58.1,472.8l-1.3-1.6c1.1-0.9,2.2-1.8,3.3-2.6l1.3,1.6
	C60.2,471.1,59.1,471.9,58.1,472.8z M47.6,467.5c-1-0.9-2.1-1.7-3.2-2.6l1.3-1.7c1.1,0.8,2.2,1.7,3.3,2.6L47.6,467.5z M71.5,463.4
	l-1-1.8c6.7-3.8,13.9-6.7,21.4-8.6l0.5,2C85.1,456.9,78.1,459.7,71.5,463.4z M96.4,454.1l-0.4-2c4.1-0.8,8.3-1.4,12.5-1.6l0.1,2.1
	C104.5,452.8,100.4,453.3,96.4,454.1z M24.8,454.1c-3.8-1.5-7.8-2.6-11.8-3.5l0.4-2c4.1,0.9,8.1,2,12.1,3.6L24.8,454.1z M9,449.9
	c-3-0.5-6-0.7-9-0.8V447c3.1,0.1,6.2,0.4,9.3,0.8L9,449.9z"/>
<path class="st7" d="M458,357.9l-254.7,18c-5.5,0.2-10.2-4-10.4-9.6l0,0c-0.2-5.5,4-10.2,9.6-10.4l254.7-18c5.5-0.2,10.2,4,10.4,9.6
	l0,0C467.8,353,463.5,357.6,458,357.9z"/>
<path class="st7" d="M268.9,427l-58.3,2.9c-5.5-0.4-9.6-5.2-9.2-10.7l0,0c0.4-5.5,5.2-9.6,10.7-9.2l58.3-2.9
	c5.5,0.4,9.6,5.2,9.2,10.7l0,0C279.2,423.4,274.4,427.5,268.9,427z"/>
<path class="st7" d="M433.4,414.2l-87.9,5.7c-5.5,0.3-10.2-4-10.5-9.5l0,0c-0.3-5.5,4-10.2,9.5-10.5l87.9-5.7
	c5.5-0.3,10.2,4,10.5,9.5l0,0C443.2,409.3,438.9,414,433.4,414.2z"/>
<g>
	<g>
		<path class="st3" d="M576.6,58l-7,17c-1.2,2.9,1.4,6,4.5,5.4l42.2-9.1c4-0.9,5.2-5.9,2-8.5l-38.4-31.2c-2.1-1.7-5,0.2-4.4,2.8
			l2.9,12.2c0.4,1.8,1.6,3.2,3.3,4L614.5,65L582,55.4C579.8,54.8,577.4,55.9,576.6,58z"/>
		<path class="st3" d="M575.1,50.3l-5.5,13.5l-4.8-1c-2.4-0.5-3-3.6-1-5L575.1,50.3z"/>
	</g>
	<path class="st3" d="M563.4,347.4l-5.9-5.8l1.3-1.3l5.9,5.8L563.4,347.4z M555,339l-7.7-7.6l1.3-1.3l7.7,7.6L555,339z M533,317.4
		l-2.6-2.5l1.3-1.3l2.6,2.5L533,317.4z M522.7,307.2l-14.2-14l1.3-1.3l14.2,14L522.7,307.2z M505.9,290.6c-2.6-2.5-5.2-5.1-7.7-7.7
		l1.3-1.3c2.6,2.6,5.1,5.1,7.7,7.7L505.9,290.6z M484.5,268.5c-0.8-0.9-1.6-1.8-2.4-2.7l1.4-1.2c0.8,0.9,1.6,1.8,2.4,2.7
		L484.5,268.5z M475.1,257.3c-3.3-4.2-6.2-8.3-8.8-12.5c-0.9-1.4-1.7-2.8-2.5-4.1l1.6-0.9c0.8,1.4,1.6,2.7,2.5,4.1
		c2.6,4.1,5.4,8.1,8.7,12.3L475.1,257.3z M462.1,237.6c-1.8-3.3-3.3-6.6-4.7-9.9l1.7-0.7c1.4,3.2,2.9,6.5,4.6,9.7L462.1,237.6z
		 M451.6,208.4c-0.2-1.2-0.4-2.4-0.6-3.6l1.8-0.2c0.2,1.2,0.4,2.4,0.6,3.5L451.6,208.4z M452.1,193.8h-1.8c0-2.7,0.2-5.4,0.5-8
		c0.5-4,1.4-8,2.7-11.9l1.7,0.6c-1.2,3.8-2.1,7.7-2.6,11.5C452.3,188.6,452.1,191.2,452.1,193.8z M531.5,183.6l-0.1-1.8
		c1.2-0.1,2.4-0.2,3.5-0.4l0.3,1.8C534,183.4,532.8,183.5,531.5,183.6z M520.5,182.8c-6.5-1.1-13-3.1-19.2-6l0.8-1.6
		c6,2.8,12.3,4.8,18.7,5.9L520.5,182.8z M498,175.2c-3.2-1.7-6.4-3.6-9.4-5.8l1.1-1.5c2.9,2.1,6,4,9.1,5.6L498,175.2z M552,172.3
		l-1.5-0.9c1.8-2.9,3-6.3,3.4-9.8l1.8,0.2C555.2,165.5,553.9,169.2,552,172.3z M456.4,171.2l-1.7-0.7c1.3-3.4,2.9-6.7,4.8-9.9
		l1.6,0.9C459.3,164.6,457.7,167.9,456.4,171.2z M554.1,158c0-1.8-0.2-3.6-0.6-5.3c-1-4.4-3.3-8.6-6.4-12.2l1.4-1.2
		c3.4,3.9,5.7,8.4,6.8,13c0.4,1.8,0.7,3.7,0.7,5.7H554.1z M473.8,155.8c-0.8-0.9-1.6-1.9-2.3-2.8l1.4-1.1c0.7,0.9,1.5,1.9,2.3,2.8
		L473.8,155.8z M473.4,146.2l-1.2-1.3c0.9-0.8,1.8-1.7,2.7-2.5l1.2,1.4C475.1,144.6,474.2,145.4,473.4,146.2z M465.3,143.9
		c-3.5-5.9-6.1-12.1-7.9-18.5l1.7-0.5c1.7,6.2,4.3,12.3,7.7,18.1L465.3,143.9z M484.7,137.5l-0.9-1.5c5.9-3.6,12.1-6.2,18.5-7.9
		l0.4,1.8C496.5,131.4,490.4,134,484.7,137.5z M538.9,133.7c-1-0.6-2-1.2-3.1-1.7l0.8-1.6c1.1,0.5,2.2,1.1,3.3,1.8L538.9,133.7z
		 M506.2,129.1l-0.3-1.8c3.7-0.7,7.4-1.1,11-1.1v1.8C513.4,128.1,509.8,128.4,506.2,129.1z M456.5,121.8c-0.5-2.1-0.9-4.2-1.1-6.3
		c-0.2-1.5-0.4-3-0.5-4.5l1.8-0.1c0.1,1.5,0.3,2.9,0.4,4.4c0.3,2.1,0.7,4.1,1.1,6.2L456.5,121.8z M458.7,91.4l-1.7-0.5
		c0.4-1.2,0.8-2.4,1.3-3.5l1.7,0.7C459.4,89.2,459,90.3,458.7,91.4z M465.2,79l-1.4-1.1c3.8-4.8,8.9-9,15.5-12.9l0.9,1.6
		C473.8,70.3,468.9,74.4,465.2,79z M483.4,64.8l-0.9-1.6c1.2-0.6,2.4-1.3,3.7-1.9c2-1,4.1-1.9,6.2-2.8l0.7,1.7
		c-2,0.9-4.1,1.8-6.1,2.7C485.8,63.6,484.5,64.2,483.4,64.8z M511.9,53.9l-0.4-1.8c1.2-0.3,2.4-0.6,3.6-0.8l0.4,1.8
		C514.2,53.4,513.1,53.7,511.9,53.9z M526,51.2l-0.2-1.8c6.6-0.9,13.4-1.3,20-1.2V50C539.2,49.9,532.6,50.3,526,51.2z M560.1,51
		c-3.5-0.4-7.2-0.7-10.8-0.9l0.1-1.8c3.6,0.2,7.3,0.5,10.9,0.9L560.1,51z"/>
</g>
<path class="st4" d="M682.7,438.6c-0.5,0-1.1-0.2-1.5-0.6c-0.8-0.8-0.7-2.1,0.1-2.8c0.2-0.2,19.6-18.6,24-32.8
	c0.3-1.1,1.4-1.6,2.5-1.3c1.1,0.3,1.6,1.4,1.3,2.5c-4.7,15.2-24.2,33.7-25,34.5C683.7,438.4,683.2,438.6,682.7,438.6z"/>
<radialGradient id="SVGID_3_" cx="518.5043" cy="-647.4229" r="53.0641" fx="517.5817" fy="-626.7551" gradientTransform="matrix(0.1632 0.9866 -0.7158 0.1184 37.981 -370.8896)" gradientUnits="userSpaceOnUse">
	<stop  offset="1.629098e-02" style="stop-color:#007BFF"/>
	<stop  offset="0.7507" style="stop-color:#007BFF;stop-opacity:0"/>
</radialGradient>
<path class="st8" d="M570.2,104l54.9-10.6c10-2,17.8-9.3,20.5-19.1c2.5-9.9-0.7-20.1-8.4-26.7L588.2,6.3c-7.7-6.5-18.7-7.4-27.3-2.2
	c-3,1.8-5.5,4.2-7.4,7.1c-3.5,5.2-4.9,11.8-3.5,18.1l0.8,3.9l-7.6,4.8c-2.8,1.8-5.2,4.1-6.9,6.7c-3.3,4.9-4.7,11.1-3.7,17.2
	c0.9,5.6,3.8,10.4,8,13.9c-0.9,6.7,0.9,13.7,5.3,19.2C551.7,102.3,561,105.8,570.2,104z"/>
</svg>
