<?xml version="1.0" encoding="utf-8"?>
<!-- Generator: Adobe Illustrator 24.0.2, SVG Export Plug-In . SVG Version: 6.00 Build 0)  -->
<svg version="1.1" id="Слой_1" xmlns="http://www.w3.org/2000/svg" xmlns:xlink="http://www.w3.org/1999/xlink" x="0px" y="0px"
	 width="2883.9px" height="1936.3px" viewBox="0 0 2883.9 1936.3" style="enable-background:new 0 0 2883.9 1936.3;"
	 xml:space="preserve">
<style type="text/css">
	.st0{fill:#E1E3E5;}
	.st1{fill:url(#SVGID_1_);}
	.st2{fill:#7BEF8C;}
	.st3{fill:#33C14D;}
	.st4{fill:#6BF7C9;}
	.st5{fill:#267031;}
	.st6{fill:#006842;}
	.st7{fill:#343A40;}
	.st8{fill:#007BFF;}
	.st9{fill:#E6E7E8;}
	.st10{fill:#FFC107;}
	.st11{fill:#12A2B8;}
	.st12{fill:#F5F5F5;}
	.st13{fill:url(#SVGID_2_);}
	.st14{fill:#FFD77D;}
	.st15{fill:#A07302;}
	.st16{fill:none;stroke:#007BFF;stroke-miterlimit:10;}
	.st17{opacity:0.2;fill:#12A2B8;}
	.st18{fill:url(#SVGID_3_);}
	.st19{fill:url(#SVGID_4_);}
</style>
<path class="st0" d="M2019.4,530.3C1855.4,252,1842,107.6,1523.6,22.8c-174.2-46.3-363.1-17-532.8,41.5
	C573.4,208.1,236.6,534,103.5,922.5C29.7,1138,23,1390.6,171.3,1571.2c128,156,344.1,227.6,551.6,273.7
	c276.7,61.3,561.7,92.2,846.5,91.4c304.8-0.8,621-41.5,876.6-192.8s435.3-434.9,373-706.9c-36.4-158.8-169.1-308.5-345.5-330.5
	C2413.8,698.4,2117.7,697,2019.4,530.3z"/>
<g>
	<g>
		
			<radialGradient id="SVGID_1_" cx="429.745" cy="942.7073" r="458.7116" gradientTransform="matrix(0.9038 -0.428 -0.2374 -0.5012 349.8715 1962.2256)" gradientUnits="userSpaceOnUse">
			<stop  offset="1.629066e-02" style="stop-color:#28A745"/>
			<stop  offset="1" style="stop-color:#28A745;stop-opacity:0"/>
		</radialGradient>
		<polygon class="st1" points="791.9,871.2 0,1273.4 237.2,1740.4 1029.1,1338.4 		"/>
		<g>
			<g>
				
					<rect x="146.6" y="1105" transform="matrix(0.8916 -0.4528 0.4528 0.8916 -528.7017 372.924)" class="st2" width="736.1" height="371.6"/>
				
					<rect x="168.2" y="1122" transform="matrix(0.8916 -0.4528 0.4528 0.8916 -528.7388 372.95)" class="st3" width="693" height="337.9"/>
			</g>
			<g>
				<g>
					<path class="st2" d="M140.5,1339.6l-21.6-42.1l42.1-21.6l1,2c11.2,22.3,2.5,49.2-19.8,60.4L140.5,1339.6z"/>
					<path class="st2" d="M318.3,1584.9l-42.1,21.6l-21.6-42.1l2-1c22.3-11.2,49.2-2.5,60.4,19.8L318.3,1584.9z"/>
				</g>
				<g>
					<path class="st4" d="M888.5,1242.2l21.6,42.1l-42.1,21.6l-1-2c-11.2-22.3-2.5-49.2,19.8-60.4L888.5,1242.2z"/>
					<path class="st4" d="M711,996.7l42.1-21.6l21.6,42.1l-2,1c-22.3,11.2-49.2,2.5-60.4-19.8L711,996.7z"/>
				</g>
			</g>
			<g>
				
					<ellipse transform="matrix(0.8916 -0.4528 0.4528 0.8916 -528.6445 372.8952)" class="st2" cx="514.6" cy="1290.7" rx="115.9" ry="156.2"/>
				<g>
					<path class="st5" d="M308.9,1380c-9.1,1.5-17.8,3.3-23.8,3c-4.3-0.3-7.4-1.8-8.9-5.1c-1.8-3.3-1.5-7.1,1.3-10.7
						c2.3-3,6.1-5.6,12.2-8.4c2.5-1,5.1-1.8,7.6-2.5c8.6-2.3,18.5-3,29.4-1.8l-2.5-29.7c-12.7-1.8-27.1,0.3-40.3,4.6l-9.6-19.5
						l-20.5,10.4l9.6,18.5c-23.6,15-28.4,36-19,54.5c12.2,24.9,35.8,23.3,56.1,20c8.9-1.5,17.2-3.3,23.6-3.3c5.6,0,9.9,1.3,11.9,5.3
						c1.8,3.8,1.3,7.9-3.3,11.7c-2.5,2.3-6.1,4.3-10.9,6.3c-3,1.3-6.3,2.3-9.6,3.3c-11.4,3-24.1,3.3-34.7,1.3l1.8,29.9
						c12.7,2.8,29.9,1.3,46.7-4.1l10.9,20.5l20.5-10.4l-10.7-19.5c25.1-15,30.2-36.8,21.1-55.5
						C354.3,1373.6,329.5,1376.4,308.9,1380z"/>
				</g>
				<g>
					<path class="st6" d="M722.6,1170c-9.1,1.5-17.8,3.3-23.8,3c-4.3-0.3-7.4-1.8-8.9-5.1c-1.8-3.3-1.5-7.1,1.3-10.7
						c2.3-3,6.1-5.6,12.2-8.4c2.5-1,5.1-1.8,7.6-2.5c8.6-2.3,18.5-3,29.4-1.8l-2.5-29.7c-12.7-1.8-27.1,0.3-40.3,4.6l-9.6-19.5
						l-20.5,10.4l9.6,18.5c-23.6,15-28.4,36-19,54.5c12.2,24.9,35.8,23.3,56.1,20c8.9-1.5,17.2-3.3,23.6-3.3c5.6,0,9.9,1.3,11.9,5.3
						c1.8,3.8,1.3,7.9-3.3,11.7c-2.5,2.3-6.1,4.3-10.9,6.3c-3,1.3-6.3,2.3-9.6,3.3c-11.4,3-24.1,3.3-34.7,1.3l1.8,29.9
						c12.7,2.8,29.9,1.3,46.7-4.1l10.9,20.5l20.5-10.4l-10.7-19.5c25.1-15,30.2-36.8,21.1-55.5C768,1163.6,743.2,1166.2,722.6,1170z
						"/>
				</g>
			</g>
		</g>
	</g>
	<g>
		<g>
			<g>
				<path class="st7" d="M2762.9,1545.7c0,38.5-31.2,69.7-69.7,69.7h-845.9c-38.5,0-69.7-31.2-69.7-69.7v-501.5
					c0-38.5,31.2-69.7,69.7-69.7h845.9c38.5,0,69.7,31.2,69.7,69.7V1545.7z"/>
			</g>
		</g>
		<path class="st8" d="M2150.9,1113.2h-278.9c-14,0-25.4-11.4-25.4-25.4v-28.2c0-14,11.4-25.4,25.4-25.4h278.9
			c14,0,25.4,11.4,25.4,25.4v28.2C2176.2,1101.8,2164.9,1113.2,2150.9,1113.2z"/>
		<path class="st9" d="M2156.5,1450.8h-290.2c-10.9,0-19.7-8.8-19.7-19.7v0c0-10.9,8.8-19.7,19.7-19.7h290.2
			c10.9,0,19.7,8.8,19.7,19.7v0C2176.2,1441.9,2167.4,1450.8,2156.5,1450.8z"/>
		<path class="st9" d="M2273,1516.9h-406.6c-10.9,0-19.8-8.8-19.8-19.8v0c0-10.9,8.8-19.8,19.8-19.8H2273c10.9,0,19.8,8.8,19.8,19.8
			v0C2292.7,1508.1,2283.9,1516.9,2273,1516.9z"/>
		<path class="st9" d="M2701.4,1089.5c0,39.8-32.3,72.1-72.2,72.1c-39.8,0-72.1-32.3-72.1-72.1c0-39.8,32.3-72.1,72.1-72.1
			C2669.1,1017.4,2701.4,1049.7,2701.4,1089.5z"/>
		<path class="st10" d="M2678.1,1381.8c0,23.1-18.7,41.8-41.8,41.8H2528c-23.1,0-41.8-18.7-41.8-41.8v-108.3
			c0-23.1,18.7-41.8,41.8-41.8h108.3c23.1,0,41.8,18.7,41.8,41.8V1381.8z"/>
		<g>
			<path class="st11" d="M2671,1516.9L2671,1516.9c-3.9,0-7.1-3.2-7.1-7.1v-36.1c0-3.9,3.2-7.1,7.1-7.1l0,0c3.9,0,7.1,3.2,7.1,7.1
				v36.1C2678.1,1513.7,2674.9,1516.9,2671,1516.9z"/>
			<path class="st11" d="M2636.3,1516.9L2636.3,1516.9c-3.9,0-7.1-3.2-7.1-7.1v-36c0-3.9,3.2-7.1,7.1-7.1l0,0c3.9,0,7.1,3.2,7.1,7.1
				v36C2643.5,1513.7,2640.3,1516.9,2636.3,1516.9z"/>
			<path class="st11" d="M2601.7,1516.9L2601.7,1516.9c-3.9,0-7.1-3.2-7.1-7.1v-36.1c0-3.9,3.2-7.1,7.1-7.1l0,0
				c3.9,0,7.1,3.2,7.1,7.1v36.1C2608.8,1513.7,2605.7,1516.9,2601.7,1516.9z"/>
			<path class="st11" d="M2567.1,1516.9L2567.1,1516.9c-3.9,0-7.1-3.2-7.1-7.1v-36.1c0-3.9,3.2-7.1,7.1-7.1l0,0
				c3.9,0,7.1,3.2,7.1,7.1v36.1C2574.2,1513.7,2571,1516.9,2567.1,1516.9z"/>
			<path class="st11" d="M2532.4,1516.9L2532.4,1516.9c-3.9,0-7.1-3.2-7.1-7.1v-36.1c0-3.9,3.2-7.1,7.1-7.1l0,0
				c3.9,0,7.1,3.2,7.1,7.1v36.1C2539.6,1513.7,2536.4,1516.9,2532.4,1516.9z"/>
			<path class="st11" d="M2497.8,1516.9L2497.8,1516.9c-3.9,0-7.1-3.2-7.1-7.1v-36.1c0-3.9,3.2-7.1,7.1-7.1l0,0
				c3.9,0,7.1,3.2,7.1,7.1v36.1C2504.9,1513.7,2501.7,1516.9,2497.8,1516.9z"/>
			<path class="st11" d="M2463.2,1516.9L2463.2,1516.9c-3.9,0-7.1-3.2-7.1-7.1v-36.1c0-3.9,3.2-7.1,7.1-7.1l0,0
				c3.9,0,7.1,3.2,7.1,7.1v36.1C2470.3,1513.7,2467.1,1516.9,2463.2,1516.9z"/>
			<path class="st11" d="M2428.5,1516.9L2428.5,1516.9c-3.9,0-7.1-3.2-7.1-7.1v-36.1c0-3.9,3.2-7.1,7.1-7.1l0,0
				c3.9,0,7.1,3.2,7.1,7.1v36.1C2435.6,1513.7,2432.5,1516.9,2428.5,1516.9z"/>
			<path class="st11" d="M2393.9,1516.9L2393.9,1516.9c-3.9,0-7.1-3.2-7.1-7.1v-36.1c0-3.9,3.2-7.1,7.1-7.1l0,0
				c3.9,0,7.1,3.2,7.1,7.1v36.1C2401,1513.7,2397.8,1516.9,2393.9,1516.9z"/>
			<path class="st11" d="M2359.2,1516.9L2359.2,1516.9c-3.9,0-7.1-3.2-7.1-7.1v-36c0-3.9,3.2-7.1,7.1-7.1l0,0c3.9,0,7.1,3.2,7.1,7.1
				v36C2366.4,1513.7,2363.2,1516.9,2359.2,1516.9z"/>
		</g>
	</g>
	<g>
		<g>
			<g>
				<g>
					<g>
						<g>
							<g>
								<g>
									<g>
										<g>
											<g>
												<g>
													<g>
														<g>
															<g>
																<path class="st12" d="M1451.6,1839l-594.3,95.7c-71.5,11.6-139.1-40.2-151.2-115.3L453.3,254.1
																	c-12.1-75.1,36-145.5,107.6-156.8l594.3-95.7c71.5-11.6,139.1,40.2,151.2,115.3l252.6,1565.4
																	C1571.1,1757.4,1522.9,1827.5,1451.6,1839z"/>
															</g>
														</g>
													</g>
												</g>
											</g>
										</g>
									</g>
								</g>
								<g>
									<g>
										<g>
											<g>
												<g>
													<g>
														<g>
															<g>
																<path class="st7" d="M1163.5,56.9l-115.1,18.6c-15.5,2.5-25.7,18.3-22.9,35.2l3.6,22.1c2.7,16.8-7.5,32.7-22.9,35.2
																	l-224.5,36c-15.5,2.5-30.1-9.3-32.8-26.1l-3.6-22.1c-2.7-16.8-17.4-28.6-32.8-26.1l-40.6,6.6l-100.8,16.3
																	c-50,8.1-83.7,57.2-75.2,109.9l246.5,1527.9c8.5,52.5,56,88.7,106,80.6l592.9-95.5c50-8.1,83.7-57.2,75.2-109.9
																	L1269.7,137.5C1261,85.1,1213.5,48.9,1163.5,56.9z"/>
															</g>
														</g>
													</g>
												</g>
											</g>
										</g>
									</g>
								</g>
							</g>
						</g>
					</g>
				</g>
			</g>
		</g>
	</g>
	
		<radialGradient id="SVGID_2_" cx="947.7518" cy="931.2079" r="327.9572" gradientTransform="matrix(1 0 0 -1 0 1590)" gradientUnits="userSpaceOnUse">
		<stop  offset="1.629066e-02" style="stop-color:#FBB03B;stop-opacity:0.9"/>
		<stop  offset="6.589614e-02" style="stop-color:#FBB138;stop-opacity:0.8546"/>
		<stop  offset="1" style="stop-color:#FFC107;stop-opacity:0"/>
	</radialGradient>
	<path class="st13" d="M1180.1,427.4c-61.8-62-144.2-96.1-231.9-96.3c-0.1,0-0.3,0-0.4,0c-87.5,0-169.8,33.9-231.7,95.6
		c-62.2,62-96.4,144.2-96.5,231.7s33.9,169.9,95.9,231.9c62,62,144.3,96.1,231.9,96.3c0.1,0,0.3,0,0.4,0c19.2,0,38.3-1.7,57.1-5
		c75-13.2,143.6-52.5,193.2-110.7c50.2-59,77.9-134.2,77.9-211.6C1276.1,571.7,1242.1,489.3,1180.1,427.4z"/>
	<g>
		<g>
			<g>
				<g>
					<g>
						<g>
							<g>
								<g>
									<path class="st10" d="M1180.1,625.2c18.5,129.3-71.4,249-200.9,267.6c-14,2-28,2.7-41.6,2.3
										c-112.6-3.6-209.9-87.5-226.4-202.7c-18.5-129.3,71.4-249,201-267.5C1041.5,406.2,1161.6,495.9,1180.1,625.2z"/>
								</g>
							</g>
						</g>
					</g>
					<g>
						<g>
							<g>
								<g>
									<path class="st14" d="M1124.7,635.6c14.1,98.5-54.4,189.7-153.2,203.9s-190.1-54.2-204.2-152.7
										c-14.1-98.5,54.4-189.7,153.2-203.9S1110.6,537.1,1124.7,635.6z"/>
								</g>
							</g>
						</g>
					</g>
				</g>
			</g>
		</g>
	</g>
	<path class="st15" d="M1000.6,655.4c10.4-15.1,11.7-36.3,2.6-54.2c-8.7-17.1-24.7-26.6-43.6-26l-2.4-16.4l-28.2,4.1l2.3,15.7
		l-10.3,1.5l-2.3-15.7l-28.2,4.1l2.3,15.7l-22.2,3.2l24.8,170l23.8-3.5l2.3,15.7l28.2-4.1l-2.3-15.7l8.7-1.3l2.3,15.7l28.2-4.1
		l-2.3-16c18.3-4.9,30.8-18.4,34.3-37.4C1022.1,686.9,1014.8,666.9,1000.6,655.4z M909.1,654l-6.1-41.9l54.2-7.7l0,0
		c14.2-2.1,21.2,7.9,23,17.1c1.8,9.7-2.3,21.5-15.1,24.3L909.1,654z M973.6,716.7l-54.2,7.9l-6.1-41.9l56-8.1
		c13-1,20.3,9.1,21.4,18.9C991.7,703,987.9,714.6,973.6,716.7z"/>
	<path class="st16" d="M1569.1,906.6c-51.5-76.5-138-79.9-138-79.9c-97.2-4.7-159.3,53.6-181.3,91.9l47.5,9.1
		c13.3-24.3,72.9-60.8,125.1-55.9c64.2,6.1,96.2,36.8,110.3,56.6l-25,15l81.9,20.6l7.1-73.8L1569.1,906.6z"/>
	<path class="st8" d="M1569.1,882.6c-51.5-76.5-138-79.9-138-79.9c-97.2-4.7-159.3,53.6-181.3,91.9l47.5,9.1
		c13.3-24.3,72.9-60.8,125.1-55.9c64.2,6.1,96.2,36.8,110.3,56.6l-25,15l81.9,20.6l7.1-73.8L1569.1,882.6z"/>
	<path class="st16" d="M1907.4,1252.6l-46.1,3.8c-6.1,25.8-51.5,74.7-100.8,83.6c-60.8,11-98.1-9.1-116.2-23.8l19.2-20.2l-80.7,2.1
		l12.5,69.7l21-22.2c67.2,57.3,147.7,38.2,147.7,38.2C1854.7,1363.1,1896.9,1293.5,1907.4,1252.6z"/>
	<path class="st8" d="M1900.1,1274.1l-46.1,3.8c-6.1,25.8-51.5,74.7-100.8,83.6c-60.8,11-98.1-9.1-116.2-23.8l19.2-20.2l-80.7,2.1
		l12.5,69.7l21-22.2c67.2,57.3,147.7,38.2,147.7,38.2C1847.4,1384.6,1889.6,1315.1,1900.1,1274.1z"/>
	<path class="st8" d="M996.4,1380.7l-109.7,17.7c-23.5,3.8-45.7-12.2-49.5-35.7l0,0c-3.8-23.5,12.2-45.7,35.8-49.5l109.7-17.7
		c23.5-3.8,45.7,12.2,49.5,35.8v0C1036,1354.8,1020,1376.9,996.4,1380.7z"/>
	<path class="st3" d="M1280.2,1335l-109.7,17.6c-23.5,3.8-45.7-12.2-49.5-35.8v0c-3.8-23.5,12.2-45.7,35.8-49.5l109.7-17.7
		c23.5-3.8,45.7,12.2,49.5,35.8l0,0C1319.7,1309.1,1303.7,1331.3,1280.2,1335z"/>
	<path class="st17" d="M1298.4,1198.7l-486,78.2c-16.3,2.6-31.7-8.5-34.3-24.8l-16.3-101.4c-2.6-16.3,8.5-31.7,24.8-34.3l486-78.2
		c16.3-2.6,31.7,8.5,34.3,24.8l16.3,101.4C1325.8,1180.7,1314.7,1196.1,1298.4,1198.7z"/>
	<path class="st17" d="M1318.7,1429.7l-438.8,70.6c-11,1.8-21.3-5.7-23.1-16.7v0c-1.8-11,5.7-21.3,16.7-23.1l438.8-70.6
		c11-1.8,21.4,5.7,23.1,16.7l0,0C1337.2,1417.6,1329.7,1427.9,1318.7,1429.7z"/>
	<path class="st17" d="M1333.1,1519.3L894.3,1590c-11,1.8-21.3-5.7-23.1-16.7l0,0c-1.8-11,5.7-21.3,16.7-23.1l438.8-70.6
		c11-1.8,21.3,5.7,23.1,16.7l0,0C1351.6,1507.2,1344.1,1517.5,1333.1,1519.3z"/>
	<path class="st17" d="M1347.5,1608.9l-438.8,70.6c-11,1.8-21.3-5.7-23.1-16.7v0c-1.8-11,5.7-21.3,16.7-23.1l438.8-70.6
		c11-1.8,21.3,5.7,23.1,16.7l0,0C1366,1596.8,1358.5,1607.1,1347.5,1608.9z"/>
	<g>
		
			<radialGradient id="SVGID_3_" cx="4256.5835" cy="-1580.4681" r="281.4694" gradientTransform="matrix(0.8658 0.5005 0.2775 -0.4802 -799.9476 -1414.2032)" gradientUnits="userSpaceOnUse">
			<stop  offset="1.629066e-02" style="stop-color:#28A745"/>
			<stop  offset="1" style="stop-color:#28A745;stop-opacity:0"/>
		</radialGradient>
		<polygon class="st18" points="2762.9,1463.5 2283.7,1203.9 2130.6,1486.5 2609.7,1746.1 		"/>
		<g>
			<g>
				
					<rect x="2353.6" y="1236.1" transform="matrix(0.4763 -0.8793 0.8793 0.4763 -55.121 3032.5217)" class="st2" width="329.6" height="652.9"/>
				
					<rect x="2368.5" y="1255.3" transform="matrix(0.4763 -0.8793 0.8793 0.4763 -55.2092 3032.5171)" class="st3" width="299.7" height="614.6"/>
			</g>
			<g>
				<g>
					<path class="st2" d="M2294.2,1314.1l19.9-37l37,19.9l-1,1.8c-10.7,19.4-34.6,26.7-54,16L2294.2,1314.1z"/>
					<path class="st2" d="M2204.8,1567.5l-37-19.9l19.9-37l1.8,1c19.4,10.7,26.7,34.6,16,54L2204.8,1567.5z"/>
				</g>
				<g>
					<path class="st2" d="M2742.3,1811l-19.9,37l-37-19.9l1-1.8c10.7-19.4,34.6-26.7,54-16L2742.3,1811z"/>
					<path class="st2" d="M2832,1557.6l37,19.9l-19.9,37l-1.8-1c-19.4-10.7-26.7-34.6-16-54L2832,1557.6z"/>
				</g>
			</g>
			<g>
				
					<ellipse transform="matrix(0.4763 -0.8793 0.8793 0.4763 -54.9987 3032.5464)" class="st2" cx="2518.5" cy="1562.4" rx="138.6" ry="102.8"/>
				<g>
					<path class="st5" d="M2349.6,1457.4c-5.7-5.9-11.4-11.3-14.2-15.9c-2-3.3-2.4-6.3-0.8-9c1.5-3,4.4-4.7,8.4-4.4
						c3.4,0.1,7.1,1.6,12.2,4.7c2,1.3,3.9,2.8,5.7,4.3c6,5.1,11.6,12,16.1,20.6l20.4-16.8c-5.1-10.2-13.9-19.7-23.7-27.1l9.4-16.9
						l-17.9-9.8l-8.7,16.4c-22.8-9.7-40.6-2.6-49.4,13.6c-12,21.4,1,37.9,13.6,51c5.6,5.7,11.1,10.9,14.3,15.6
						c2.8,4.1,4.1,7.9,2.1,11.4c-1.9,3.2-5.1,4.9-10.2,3.5c-2.9-0.7-6.2-2.3-10.1-4.8c-2.5-1.6-4.9-3.5-7.3-5.4
						c-8-6.8-14.6-15.9-18.4-24.7l-20.9,16.4c4.4,10.7,14.2,22.5,26.5,32l-9.5,18.3l17.9,9.8l8.9-17.6c23.6,10.8,42.1,3.5,51.2-12.6
						C2377.1,1487.3,2362.6,1470.6,2349.6,1457.4z"/>
				</g>
				<g>
					<path class="st5" d="M2711.4,1653.5c-5.7-5.9-11.4-11.3-14.2-15.9c-2-3.3-2.4-6.3-0.8-9c1.5-3,4.4-4.7,8.4-4.4
						c3.4,0.1,7.1,1.6,12.2,4.7c2,1.3,3.9,2.8,5.7,4.3c6,5.1,11.6,12,16.1,20.6l20.4-16.8c-5.1-10.2-13.9-19.7-23.7-27.1l9.4-16.9
						l-17.9-9.8l-8.7,16.4c-22.8-9.7-40.6-2.6-49.4,13.6c-12,21.4,1,37.9,13.6,51c5.6,5.7,11.1,10.9,14.3,15.6
						c2.8,4.1,4.1,7.9,2.1,11.4c-1.9,3.2-5.1,4.9-10.2,3.5c-2.9-0.7-6.2-2.3-10.1-4.8c-2.5-1.6-4.9-3.5-7.3-5.4
						c-8-6.8-14.6-15.9-18.4-24.7l-20.9,16.4c4.4,10.7,14.2,22.5,26.5,32l-9.5,18.3l17.9,9.8l8.9-17.6c23.6,10.8,42.1,3.5,51.2-12.6
						C2738.9,1683.4,2724.6,1666.5,2711.4,1653.5z"/>
				</g>
			</g>
		</g>
	</g>
	<g>
		
			<radialGradient id="SVGID_4_" cx="1808.1411" cy="1302.5725" r="353.839" gradientTransform="matrix(0.9919 -0.1273 -7.060234e-02 -0.55 172.7823 1505.3444)" gradientUnits="userSpaceOnUse">
			<stop  offset="1.629066e-02" style="stop-color:#28A745"/>
			<stop  offset="1" style="stop-color:#28A745;stop-opacity:0"/>
		</radialGradient>
		<polygon class="st19" points="2181.5,306.2 1504.7,412.2 1567.1,811.3 2243.9,705.5 		"/>
		<g>
			<g>
				
					<rect x="1594.2" y="404.6" transform="matrix(0.988 -0.1547 0.1547 0.988 -62.1538 297.118)" class="st2" width="567.7" height="286.6"/>
				
					<rect x="1610.8" y="417.5" transform="matrix(0.988 -0.1547 0.1547 0.988 -62.1379 297.1139)" class="st3" width="534.4" height="260.6"/>
			</g>
			<g>
				<g>
					<path class="st2" d="M1592.1,494.4l-5.7-36l36-5.7l0.2,1.8c2.9,19-10,36.8-29,39.7L1592.1,494.4z"/>
					<path class="st2" d="M1663.9,716.6l-36,5.7l-5.9-36l1.8-0.2c19-2.9,36.8,10,39.7,29L1663.9,716.6z"/>
				</g>
				<g>
					<path class="st2" d="M2163.9,601.4l5.7,36l-36,5.7l-0.2-1.8c-2.9-19,10-36.8,29-39.7L2163.9,601.4z"/>
					<path class="st2" d="M2092.1,379l36-5.7l5.7,36l-1.8,0.2c-19,2.9-36.8-10-39.7-29L2092.1,379z"/>
				</g>
			</g>
			<g>
				
					<ellipse transform="matrix(0.988 -0.1547 0.1547 0.988 -62.1387 297.1157)" class="st2" cx="1878" cy="547.8" rx="89.4" ry="120.5"/>
				<g>
					<path class="st5" d="M1706,564c-7-1-13.7-1.8-18.2-3.5c-3.1-1.2-4.9-2.9-5.3-5.7c-0.4-2.9,0.6-5.5,3.3-7.6
						c2.3-1.6,5.9-2.7,11-3.1c2.2-0.2,4.1-0.2,6.3-0.2c6.8,0.4,14.3,2.3,22.1,5.7l5.3-22.5c-8.8-4.3-19.8-6.3-30.7-6.3l-2.3-16.6
						l-17.6,2.7l2.7,15.8c-20.7,5.3-29.3,19.6-27,35.4c3.1,21.1,20.7,25.6,36.4,28c6.8,1,13.5,1.8,18.2,3.3c4.1,1.4,6.8,3.3,7.4,6.8
						c0.4,3.3-1,5.9-5.3,7.8c-2.3,1-5.5,1.8-9.4,2c-2.5,0.2-5.1,0.2-7.8,0c-9-0.6-18.4-3.3-25.8-7.4l-5.9,22.3
						c8.6,5.1,21.7,8,35.2,8.2l2.9,17.6l17.6-2.7l-3.1-16.8c22.1-5.1,30.9-19.8,28.8-35.6C1740.8,570.3,1721.8,566.4,1706,564z"/>
				</g>
				<g>
					<path class="st5" d="M2059.3,508.7c-7-1-13.7-1.8-18.2-3.5c-3.1-1.2-4.9-2.9-5.3-5.7c-0.4-2.9,0.6-5.5,3.3-7.6
						c2.3-1.6,5.9-2.7,11-3.1c2.2-0.2,4.1-0.2,6.3-0.2c6.8,0.4,14.3,2.3,22.1,5.7l5.3-22.5c-8.8-4.3-19.8-6.3-30.7-6.3l-2.3-16.6
						l-17.6,2.7l2.7,15.8c-20.7,5.3-29.3,19.6-27,35.4c3.1,21.1,20.7,25.6,36.4,28c6.8,1,13.5,1.8,18.2,3.3c4.1,1.4,6.8,3.3,7.4,6.8
						c0.4,3.3-1,5.9-5.3,7.8c-2.3,1-5.5,1.8-9.4,2c-2.5,0.2-5.1,0.2-7.8,0c-9-0.6-18.4-3.3-25.8-7.4l-5.9,22.3
						c8.6,5.1,21.7,8,35.2,8.2l2.9,17.6l17.6-2.7l-3.1-16.8c22.1-5.1,30.9-19.8,28.8-35.6C2094.1,514.9,2075.3,511,2059.3,508.7z"/>
				</g>
			</g>
		</g>
	</g>
</g>
</svg>
