<?xml version="1.0" encoding="utf-8"?>
<!-- Generator: Adobe Illustrator 24.0.2, SVG Export Plug-In . SVG Version: 6.00 Build 0)  -->
<svg version="1.1" id="Слой_1" xmlns="http://www.w3.org/2000/svg" xmlns:xlink="http://www.w3.org/1999/xlink" x="0px" y="0px"
	 width="1367.7px" height="1382.1px" viewBox="0 0 1367.7 1382.1" style="enable-background:new 0 0 1367.7 1382.1;"
	 xml:space="preserve">
<style type="text/css">
	.st0{fill:#EDEDED;}
	.st1{opacity:0.5;}
	.st2{fill:#FFFFFF;}
	.st3{opacity:0.5;fill:#FFFFFF;enable-background:new    ;}
	.st4{opacity:0.15;}
	.st5{fill:#FFC107;}
	.st6{fill:url(#SVGID_1_);}
	.st7{fill:url(#SVGID_2_);}
	.st8{fill:url(#SVGID_3_);}
	.st9{fill:url(#SVGID_4_);}
	.st10{fill:url(#SVGID_5_);}
	.st11{fill:url(#SVGID_6_);}
	.st12{fill:#33C14D;}
	.st13{fill:url(#SVGID_7_);}
	.st14{fill:#D9ECF4;}
	.st15{fill:#262C30;}
	.st16{fill:#263238;}
	.st17{fill:#007BFF;}
	.st18{fill:#18232D;}
	.st19{fill:#F7D4CD;}
	.st20{fill:#121921;}
	.st21{fill:#FCFCFC;}
	.st22{fill:#F7F7F7;}
</style>
<path class="st0" d="M48.4,467.9C176.6,138.5,538.9-13.3,827.2,0.9c78.8,3.9,237.1,11.7,364.3,124.2
	c244.3,216.1,223.3,685.5,5.8,968.6c-28,36.4-222.2,281-537.3,288.2c-230.6,5.3-396.8-119.6-417.1-135.1
	c-25.6-19.7-81.9-66.5-133.9-142.2C-13.1,927-31.7,673.8,48.4,467.9z"/>
<g class="st1">
	<g>
		<path class="st2" d="M239.5,851.2C123,851.2,28.3,756.4,28.3,640c0-116.5,94.8-211.2,211.2-211.2c116.5,0,211.2,94.8,211.2,211.2
			C450.8,756.4,356,851.2,239.5,851.2z M239.5,438c-111.3,0-201.9,90.6-201.9,201.9s90.6,201.9,201.9,201.9s201.9-90.6,201.9-201.9
			S350.8,438,239.5,438z"/>
	</g>
	<g>
		<path class="st2" d="M239.5,825.9c-102.6,0-186-83.4-186-186s83.4-186,186-186s186,83.4,186,186S342.1,825.9,239.5,825.9z
			 M239.5,463.3c-97.4,0-176.6,79.2-176.6,176.6s79.2,176.7,176.6,176.7S416.1,737.4,416.1,640S336.9,463.3,239.5,463.3z"/>
	</g>
	<g>
		<g>
			<path class="st2" d="M264,779.5h-53.2v-42.7c-2.9-1.7-5.6-3.6-8.3-5.6l-2.7,14.7h-54v-84.3H204v4.7c0,20.4,20.8,24.5,33.2,25.2
				c6.5,0,17.8-1.4,17.8-10.6c0-5.1-14-10.1-27.5-14.9c-29.3-10.4-73.7-26.2-73.7-73.8c0-40.3,27.9-61.4,56.9-65.2v-26.6h53.2v34.2
				c3.6,2,6.8,4.3,9.6,6.9l1.6-10.9h54.2v82.2H272v-4.7c0-18.1-11.7-29.9-29.9-29.9c-5.5,0-13.7,3.6-13.7,11.2
				c0,8.9,15.6,14.7,33.7,21.5c30,11.2,71.2,26.6,71.2,71.6c0,44.9-35,62.8-69.4,64.9L264,779.5L264,779.5z M220.1,770.1h34.5v-32
				l4.6-0.1c15.2-0.3,64.8-5.2,64.8-55.7c0-38.5-34.6-51.4-65.1-62.8c-21.3-8-39.8-14.8-39.8-30.2c0-12.7,12-20.5,23-20.5
				c21.9,0,37,13.7,39,34.5h38.8v-63.5h-36.7l-3.8,26.6l-6.8-11.5c-3.3-5.6-8.5-10.1-15.4-13.4l-2.7-1.3v-30.6H220v25.8l-4.3,0.3
				c-19.5,1.4-52.6,14.9-52.6,56.3c0,41,37.4,54.3,67.4,65c18.8,6.7,33.7,12,33.7,23.7c0,12.5-10.2,19.9-27.4,19.9
				c-24.5-1.3-39.8-12.3-42-29.9H155v65.6h36.9l4.2-23l6.2,5.5c5,4.4,10,7.9,15.4,10.9l2.4,1.3L220.1,770.1L220.1,770.1z"/>
		</g>
	</g>
</g>
<path class="st3" d="M1129.6,636.3h-43.5v-46.8h-25v46.8h-43.5v-46.8h-60.1V531h21.9V374h-21.9v-58.1h60.1v-46.8h43.5v46.8h25v-46.8
	h43.5v48.4c58.4,7.6,70.9,40.8,70.9,67.8c0,30.1-7.9,46.5-29.3,58c26.9,11.5,42.1,34.6,42.1,64.9c0,50.5-25.9,75.5-83.7,80.5V636.3z
	 M1095.5,626.9h24.8v-47.1l4.4-0.3c55.6-3.8,79.3-25.1,79.3-71.5c0-40.8-29.1-54.9-46.5-59.8l-13.3-3.7l12.9-5.1
	c25.8-10.3,34.1-23.5,34.1-54.3c0-34.5-22.4-54.3-66.7-58.9l-4.2-0.4v-47.4h-24.8v46.8h-43.8v-46.8h-24.8v46.8h-60.1v39.4h21.9
	v175.7h-21.9v39.8h60.1v46.8h24.8v-46.8h43.8L1095.5,626.9L1095.5,626.9z M1092.6,540.3h-34.9v-75.1h33.8c22.1,0,36.4,14.9,36.4,38
	C1127.9,527.2,1109.7,540.3,1092.6,540.3z M1067,530.9h25.5c12.9,0,26-9.6,26-27.8c0-17.9-10.1-28.6-27.1-28.6H1067V530.9z
	 M1085.4,431.7h-27.7v-66.1h28.5c1.9,0,3.8,0.2,5.5,0.5c14.8,2.4,24.1,14.6,24.1,31.8c0,13.1-2.5,30.9-24.4,33.5
	C1089.6,431.6,1087.6,431.7,1085.4,431.7z M1067,422.4h18.4c1.8,0,3.4-0.1,4.8-0.3c11.7-1.4,16.2-8.2,16.2-24.2
	c0-12.4-6.1-20.9-16.4-22.6c-1.2-0.2-2.5-0.3-3.9-0.3H1067V422.4z"/>
<g class="st4">
	<path class="st5" d="M1224.5,1013.3c-8,0-16.1-0.6-24-1.9c-49.9-7.8-95.3-40.6-118.3-85.6c-14.8-28.9-20.9-62.1-26.8-94.1
		c-8.4-45.7-16.3-88.9-47.5-119.2c-29.7-28.7-75.1-40.4-143-36.7c-8.5,0.5-17.1,1.1-25.8,1.7c-43.7,3.1-88.9,6.3-130.6-9
		c-49.9-18.2-93-63.6-121.5-127.9c-15.1-34.2-25.5-70.7-35.5-106c-5.9-20.9-12.1-42.4-19.1-63.3c-23.1-68.2-53.7-115.3-93.6-144
		c-67-48-169-39.8-227.4,18.3l-6.6-6.6c61.5-61.2,169-69.9,239.5-19.3c41.6,29.8,73.3,78.4,97,148.6c7.1,21,13.3,42.7,19.2,63.7
		c9.9,35,20.2,71.1,35.1,104.7c27.4,61.9,68.6,105.5,116.1,122.9c39.8,14.5,84,11.4,126.7,8.4c8.7-0.6,17.3-1.2,25.9-1.7
		c44.4-2.4,108.4-1,150,39.3c33.4,32.4,42,79.1,50.2,124.2c5.8,31.4,11.7,63.9,25.9,91.5c21.8,42.3,64.5,73.2,111.5,80.6
		s97.1-8.9,130.8-42.6l6.6,6.6C1309.3,996.3,1266.9,1013.3,1224.5,1013.3z"/>
</g>
<radialGradient id="SVGID_1_" cx="1147.988" cy="44.4101" r="35.3124" gradientTransform="matrix(1 0 0 1 0 948)" gradientUnits="userSpaceOnUse">
	<stop  offset="1.629066e-02" style="stop-color:#FBB03B;stop-opacity:0.9"/>
	<stop  offset="0.1228" style="stop-color:#FCB332;stop-opacity:0.8026"/>
	<stop  offset="0.4437" style="stop-color:#FEBB1A;stop-opacity:0.5089"/>
	<stop  offset="0.7438" style="stop-color:#FFBF0C;stop-opacity:0.2344"/>
	<stop  offset="1" style="stop-color:#FFC107;stop-opacity:0"/>
</radialGradient>
<path class="st6" d="M1146.6,956.9c-10.1,0-19.1,3.9-25.4,11.1c-5.4,6.1-8.3,14.2-8.3,22.8c0,18.3,13.6,37.1,36.4,37.1
	c10.1,0,19.1-3.9,25.4-11.1c5.4-6.1,8.3-14.2,8.3-22.8C1183.1,975.8,1169.4,956.9,1146.6,956.9z"/>
<radialGradient id="SVGID_2_" cx="806.7379" cy="-569.9399" r="133.6779" gradientTransform="matrix(1 0 0 1 0 948)" gradientUnits="userSpaceOnUse">
	<stop  offset="1.024209e-02" style="stop-color:#FBB03B;stop-opacity:0"/>
	<stop  offset="0.5191" style="stop-color:#FBB03B;stop-opacity:0.4"/>
	<stop  offset="0.5502" style="stop-color:#FCB42E;stop-opacity:0.3741"/>
	<stop  offset="0.6062" style="stop-color:#FDBA1C;stop-opacity:0.3275"/>
	<stop  offset="0.6748" style="stop-color:#FEBE10;stop-opacity:0.2705"/>
	<stop  offset="0.7683" style="stop-color:#FFC009;stop-opacity:0.1927"/>
	<stop  offset="1" style="stop-color:#FFC107;stop-opacity:0"/>
</radialGradient>
<path class="st7" d="M801.6,243.5c-38.3,0-72.5,14.9-96.2,42c-20.3,23.2-31.5,53.9-31.5,86.5c0,69.1,51.6,140.6,137.9,140.6
	c38.3,0,72.5-14.9,96.2-42c20.3-23.2,31.5-53.9,31.5-86.5C939.5,315,887.9,243.5,801.6,243.5z"/>
<radialGradient id="SVGID_3_" cx="1006.2274" cy="-621.0399" r="99.1714" gradientTransform="matrix(1 0 0 1 0 948)" gradientUnits="userSpaceOnUse">
	<stop  offset="1.024209e-02" style="stop-color:#FBB03B;stop-opacity:0"/>
	<stop  offset="0.5191" style="stop-color:#FBB03B;stop-opacity:0.4"/>
	<stop  offset="0.5502" style="stop-color:#FCB42E;stop-opacity:0.3741"/>
	<stop  offset="0.6062" style="stop-color:#FDBA1C;stop-opacity:0.3275"/>
	<stop  offset="0.6748" style="stop-color:#FEBE10;stop-opacity:0.2705"/>
	<stop  offset="0.7683" style="stop-color:#FFC009;stop-opacity:0.1927"/>
	<stop  offset="1" style="stop-color:#FFC107;stop-opacity:0"/>
</radialGradient>
<path class="st8" d="M1002.4,227.1c-28.4,0-53.8,11.1-71.3,31.2c-15.1,17.2-23.3,40-23.3,64.2c0,51.2,38.3,104.4,102.3,104.4
	c28.4,0,53.8-11.1,71.3-31.2c15.1-17.2,23.3-40,23.3-64.2C1104.8,280.1,1066.5,227.1,1002.4,227.1z"/>
<radialGradient id="SVGID_4_" cx="1060.688" cy="-119.4899" r="35.2759" gradientTransform="matrix(1 0 0 1 0 948)" gradientUnits="userSpaceOnUse">
	<stop  offset="1.629066e-02" style="stop-color:#FBB03B;stop-opacity:0.9"/>
	<stop  offset="0.1228" style="stop-color:#FCB332;stop-opacity:0.8026"/>
	<stop  offset="0.4437" style="stop-color:#FEBB1A;stop-opacity:0.5089"/>
	<stop  offset="0.7438" style="stop-color:#FFBF0C;stop-opacity:0.2344"/>
	<stop  offset="1" style="stop-color:#FFC107;stop-opacity:0"/>
</radialGradient>
<path class="st9" d="M1059.3,793c-10.1,0-19.1,3.9-25.4,11.1c-5.4,6.1-8.3,14.2-8.3,22.8c0,18.3,13.6,37.1,36.4,37.1
	c10.1,0,19.1-3.9,25.4-11.1c5.4-6.1,8.3-14.2,8.3-22.8C1095.8,811.9,1082.1,793,1059.3,793z"/>
<radialGradient id="SVGID_5_" cx="914.6878" cy="-267.5899" r="35.2757" gradientTransform="matrix(1 0 0 1 0 948)" gradientUnits="userSpaceOnUse">
	<stop  offset="1.629066e-02" style="stop-color:#FBB03B;stop-opacity:0.9"/>
	<stop  offset="0.1228" style="stop-color:#FCB332;stop-opacity:0.8026"/>
	<stop  offset="0.4437" style="stop-color:#FEBB1A;stop-opacity:0.5089"/>
	<stop  offset="0.7438" style="stop-color:#FFBF0C;stop-opacity:0.2344"/>
	<stop  offset="1" style="stop-color:#FFC107;stop-opacity:0"/>
</radialGradient>
<path class="st10" d="M913.3,644.9c-10.1,0-19.1,3.9-25.4,11.1c-5.4,6.1-8.3,14.2-8.3,22.8c0,18.3,13.6,37.1,36.4,37.1
	c10.1,0,19.1-3.9,25.4-11.1c5.4-6.1,8.3-14.2,8.3-22.8C949.7,663.8,936.1,644.9,913.3,644.9z"/>
<g>
	
		<radialGradient id="SVGID_6_" cx="1092.6063" cy="-4399.1035" r="250.5543" fx="842.1428" fy="-4392.3599" gradientTransform="matrix(0.5609 0.1035 -0.6597 0.2701 -2673.0063 1231.0865)" gradientUnits="userSpaceOnUse">
		<stop  offset="0" style="stop-color:#33C14D"/>
		<stop  offset="1" style="stop-color:#33C14D;stop-opacity:0"/>
	</radialGradient>
	<path class="st11" d="M1160.3,91.2c-8.9-7.4-20.8-8.8-30.8-4.6c-2.5-2.5-5.5-4.9-9.1-7c-5.1-2.9-10.8-4.4-16.5-4.3l-2.5-2.5
		l-2.1,2.9c-1.2,0.2-2.4,0.5-3.6,0.8c-12.9,3.6-19.5,13.4-24.4,22.2c-10.9-3.7-33.2-10.1-53.6,7c-5.4,4.5-9.9,10.2-14,16.1
		c-5.9-15.5-13.3-29.9-28.5-35.8c-8.7-3.4-18-3.2-26.5,0.4c-0.3-1.7-0.5-3.5-0.8-5.2c-0.1-0.9-0.2-1.8-0.4-2.7v-0.1
		c-1.6-12-4-30.2-17.7-43.5c-12.4-12.1-30-13.7-45.9-4.2c-30.3,18.1-37.6,64.8-46,118.8c-2.8,17.7-5.4,34.3-8.6,47.8
		c-0.5,2.2-1.1,4.3-1.6,6.3c-2.5-5.9-5.2-11.7-8.5-17c-13.1-21.8-29.9-28.4-41.6-30.2c-12.4-1.8-31.6,0-52.6,19.2
		c-3.4,3.1-6.6,6.5-9.5,9.6c-0.7,0.8-1.6,1.7-2.5,2.7c-1.7-1.3-3.6-2.7-5.5-4.1c-11.5-8.1-23.3-11-35-8.6c-7.8,1.6-18.7,6.4-26.9,20
		c-1.1,1.8-2.1,3.5-3.1,5.2c-10.1-1.7-19.7-0.5-28.8,3.8c-8.5,4-15.2,10-21.8,16.6c-18-16.7-37.6-17.6-51.3-16.6
		c-8,0.6-15.3,4.2-20.5,10.3c-5.3,6.1-7.8,13.8-7.3,21.8c0.6,8,4.2,15.3,10.3,20.6c6.1,5.2,13.8,7.8,21.8,7.2
		c5.5-0.4,5.6-0.3,7.9,2.6c10.5,12.8,22.8,19.6,36.6,20.1c14.4,0.6,27.8-5.7,40.8-19.2c1.2-1.2,3.8-3.9,6.1-6.2
		c14.3,5.4,28.9,2.8,40.6-7.3c3.9-3.3,7-7.2,9.8-11.1c7.6,4.9,17.1,9.3,28.5,9.1c20.2-0.4,33.9-14.9,43.9-25.6
		c2.3-2.5,4.5-4.8,6.3-6.4c0.9-0.9,1.8-1.6,2.6-2.1c2.5,4.3,5.4,11.3,8.1,18.1c6.8,16.7,13.9,34,28.1,44c7,4.9,15,7.5,23.2,7.5
		c4.8,0,9.6-0.9,14.2-2.6c14.2-5.4,25.6-18.3,34.9-39.5c5.8-13.3,9.5-27,11.2-33.9c3.8-15.8,6.6-33.7,9.5-52.6
		c0.7-4.5,1.4-9.1,2.2-13.7c1.2,3.6,2.6,7.3,4.5,11c4.2,8.1,9.9,14.1,17.1,17.8c8.6,4.5,18.3,5.1,27.3,1.9c3.5-1.3,6.6-3,9.4-5.1
		c4.3,10.1,9.5,19.1,17.5,25.5c8.9,7.2,19.8,10.1,30.6,8.1c20.4-3.7,31.3-21.9,40.8-38c1.8-3,4.2-7.1,6.4-10.4
		c0.1,0,0.2,0.1,0.3,0.1c3.3,1.1,7.4,2.5,11.9,3.5c15.8,3.5,31.3-0.3,43.6-10.8c0.8,0.3,1.5,0.6,2.3,0.9
		c18.8,6.7,38.5,0.7,52.7-16.2C1174.7,120.7,1173,101.8,1160.3,91.2z"/>
	<path class="st12" d="M827.6,262.4c-3,0-6-1-8.8-3c-8.2-5.8-13.6-19-19.3-33c-3.2-7.8-6.5-15.9-10-21.8
		c-4.9-8.1-10.5-12.7-16.7-13.6c-8.9-1.3-17.9,4.9-24,10.4c-2.4,2.2-5,4.9-7.6,7.7c-8.1,8.6-16.6,17.5-26.2,17.7
		c-8.1,0.1-15.8-5.7-22.6-11c-1.7-1.3-3.3-2.6-4.9-3.7c-3.3-2.3-5.8-3.3-7.6-2.9c-1.4,0.3-2.8,1.6-4.1,3.8c-1.1,1.9-2.2,3.8-3.3,5.6
		c-7.1,12.3-14.5,25-28.6,18.5c-12.1-5.6-16.1-3-31.4,12.9c-7.9,8.2-14.9,11.9-21.9,11.6c-6.4-0.3-12.4-3.9-18.2-11
		c-8.8-10.8-17.7-12.5-29-11.7c-2.8,0.2-5.1-1.9-5.3-4.6c-0.2-2.8,1.9-5.1,4.6-5.3c12.2-0.9,25.3,0.4,37.5,15.3
		c3.9,4.8,7.5,7.2,10.9,7.4c3.9,0.2,8.5-2.6,14.3-8.6c14-14.5,23.2-24.1,42.8-15c5.1,2.4,7.8-0.7,15.7-14.4c1.1-1.8,2.2-3.8,3.4-5.7
		c2.8-4.7,6.4-7.5,10.6-8.4c4.7-1,9.7,0.5,15.4,4.5c1.7,1.2,3.5,2.6,5.2,3.9c5.5,4.2,11.7,9,16.3,8.9c5.5-0.1,12.8-7.8,19.2-14.6
		c2.7-2.8,5.5-5.8,8.2-8.2c10.9-9.9,22-14.4,32.1-12.9c9.3,1.4,17.3,7.5,23.8,18.3c4,6.6,7.4,15,10.7,23.2c4.9,12,10,24.5,15.8,28.5
		c1.7,1.2,3.2,1.4,4.9,0.8c8.2-3.1,18.2-23.2,24.4-48.9c3.5-14.5,6.2-31.6,9-49.8c7.1-45.8,13.9-89.1,34.1-101.2
		c7.7-4.6,12.7-2.2,15.6,0.6c7.5,7.3,9.1,19.3,10.4,28.9c0.1,1.1,0.3,2.1,0.4,3.1c1.9,13,4.2,26.1,6.9,38.9c1.3,6.1,2.5,11.5,5,16.3
		c0.7,1.3,1.2,2.1,1.8,2.5c1.3-1,3.3-4.4,5.8-10.3c0.4-1,0.8-1.9,1.1-2.6c0.4-0.9,0.9-1.9,1.4-3c2.6-5.9,5.9-13.3,12.3-16.7
		c2.8-1.5,5.8-1.7,8.7-0.6c7.9,3.1,12.5,16.2,17.8,31.4c4,11.4,8.5,24.3,13.3,28.2c1.4,1.1,2.2,1,2.5,0.9
		c4.7-0.8,11.5-12.3,16.9-21.4c5.4-9,10.9-18.3,17.1-23.6c10.6-8.9,22-5,31.1-1.9c2.8,1,5.5,1.9,8.1,2.5c5.2,1.1,9.6,0,13.6-3.5
		c1.1-0.9,3.3-5,4.7-7.7c4.1-7.6,6.9-12.4,11.2-13.6c1.8-0.5,3.7-0.3,5.3,0.6c3.5,2,6.1,5.5,8.7,8.8c2.2,2.8,4.6,6,6.6,6.7
		c4.7,1.7,9.4-0.2,14-5.7c1.8-2.1,4.9-2.4,7-0.6c2.1,1.8,2.4,4.9,0.6,7c-7.3,8.8-16.2,11.9-25,8.7c-4.8-1.7-8-6-11.2-10.1
		c-1.3-1.7-2.7-3.5-4-4.8c-1.4,2-3.2,5.3-4.4,7.6c-2.4,4.5-4.5,8.4-6.9,10.5c-6.4,5.6-14.1,7.6-22.4,5.8c-3.1-0.7-6.2-1.8-9.2-2.8
		c-9.3-3.2-15.4-4.9-21.4,0.1c-4.9,4.1-10,12.7-15,21c-7.5,12.6-14.6,24.5-23.8,26.1c-2.6,0.5-6.4,0.3-10.5-3
		c-7-5.7-11.6-18.8-16.4-32.6c-2.4-6.9-4.7-13.5-7.1-18.5c-3-6.2-4.7-6.9-4.9-7c0,0-0.1,0-0.3,0.1c-3.4,1.8-5.9,7.5-7.9,12
		c-0.5,1.1-1,2.2-1.5,3.2c-0.3,0.6-0.6,1.3-1,2.2c-2.3,5.5-5.9,13.8-11.9,16c-2.5,0.9-5,0.7-7.4-0.5c-3.3-1.7-5.2-4.8-6.3-7
		c-3.1-5.9-4.5-12.3-5.9-18.8c-2.8-13.1-5.1-26.4-7-39.6c-0.1-1-0.3-2.1-0.4-3.2c-1.1-8.1-2.4-18.2-7.4-23.1
		c-0.4-0.3-0.8-0.8-3.5,0.8C886,70.1,879,115,872.8,154.6c-2.9,18.4-5.6,35.8-9.2,50.6c-2.8,11.4-13.1,49.3-30.6,55.9
		C831.2,262.1,829.4,262.4,827.6,262.4z"/>
</g>
<radialGradient id="SVGID_7_" cx="373.3878" cy="-756.3899" r="35.2757" gradientTransform="matrix(1 0 0 1 0 948)" gradientUnits="userSpaceOnUse">
	<stop  offset="1.629066e-02" style="stop-color:#FBB03B;stop-opacity:0.9"/>
	<stop  offset="0.3666" style="stop-color:#FDB822;stop-opacity:0.5795"/>
	<stop  offset="0.7449" style="stop-color:#FEBF0E;stop-opacity:0.2334"/>
	<stop  offset="1" style="stop-color:#FFC107;stop-opacity:0"/>
</radialGradient>
<path class="st13" d="M372,156.1c-10.1,0-19.1,3.9-25.4,11.1c-5.4,6.1-8.3,14.2-8.3,22.8c0,18.3,13.6,37.1,36.4,37.1
	c10.1,0,19.1-3.9,25.4-11.1c5.4-6.1,8.3-14.2,8.3-22.8C408.4,175,394.8,156.1,372,156.1z"/>
<g>
	<path class="st12" d="M363.8,784.7h438.2c11.1,0,21.5-6.4,26.4-16.5l113.9-232.9c4.1-8.4,12.2-13.8,21.4-14.5
		c9.3-0.7,18.1,3.5,23.3,11.3l71.3,104.6c1.6,2.4,4.4,3.7,7.2,3.5c2.9-0.3,5.4-1.9,6.6-4.5l106-222.3l0.8-1.6l-66-29.2
		c-2.2-1-3.6-3.1-3.7-5.5c-0.1-2.5,1.2-4.6,3.4-5.7l119.2-59.8c0.1-1.3,0.2-2.7,0.3-3.9l-121.1,60.7c-3.3,1.7-5.4,5.1-5.3,8.8
		c0.1,3.8,2.3,7,5.7,8.6l62.9,27.9L1069,634.5c-0.7,1.5-2.1,2.5-3.8,2.6c-1.6,0.1-3.2-0.6-4.1-2l-71.3-104.6
		c-6-8.7-15.9-13.5-26.4-12.8c-10.5,0.8-19.6,6.9-24.3,16.4L825.3,766.7c-4.3,8.8-13.5,14.6-23.3,14.6H363.8
		c-7.9,0-15.3,3.1-20.8,8.6l-233,232.9c0.7,0.9,1.4,1.9,2.1,2.8l233.3-233.3C350.3,787.4,356.8,784.7,363.8,784.7z"/>
</g>
<g>
	<path class="st5" d="M372.3,177.5c-20.1,0-17.2,31.1,2.7,31.1C395,208.6,392.2,177.5,372.3,177.5z"/>
</g>
<g>
	<path class="st5" d="M1059,810.5c-20.1,0-17.2,31.1,2.7,31.1C1081.7,841.5,1078.9,810.5,1059,810.5z"/>
</g>
<g>
	<path class="st5" d="M1147.4,978.7c-20.1,0-17.2,31.1,2.7,31.1C1170.2,1009.8,1167.4,978.7,1147.4,978.7z"/>
</g>
<g>
	<path class="st5" d="M915,661.3c-20.1,0-17.2,31.1,2.7,31.1C937.8,692.4,935,661.3,915,661.3z"/>
</g>
<g>
	<path class="st14" d="M596,541.7c-20.1,0-17.2,31.1,2.7,31.1C618.7,572.8,615.9,541.7,596,541.7z"/>
</g>
<g>
	<path class="st3" d="M597.3,1286c-90.6,0-164.4-73.7-164.4-164.4c0-90.6,73.7-164.4,164.4-164.4c90.6,0,164.4,73.7,164.4,164.4
		C761.7,1212.3,687.9,1286,597.3,1286z M597.3,964.6c-86.6,0-157.1,70.5-157.1,157.1s70.5,157.1,157.1,157.1s157.1-70.5,157.1-157.1
		C754.4,1035,683.9,964.6,597.3,964.6z"/>
	<path class="st3" d="M597.3,1266.4c-79.8,0-144.7-64.9-144.7-144.7c0-79.8,64.9-144.7,144.7-144.7S742,1041.9,742,1121.7
		S677.1,1266.4,597.3,1266.4z M597.3,984.2c-75.8,0-137.4,61.7-137.4,137.4c0,75.8,61.7,137.4,137.4,137.4
		c75.8,0,137.4-61.7,137.4-137.4C734.8,1045.9,673.1,984.2,597.3,984.2z"/>
	<g class="st1">
		<g>
			<path class="st2" d="M616.3,1230.3h-41.4V1197c-2.2-1.3-4.4-2.8-6.5-4.4l-2.1,11.5h-42v-65.6h45.3v3.6
				c0,15.9,16.2,19.1,25.8,19.6c5.1,0,13.8-1.1,13.8-8.2c0-4-10.9-7.8-21.4-11.6c-22.8-8.1-57.3-20.4-57.3-57.4
				c0-31.3,21.7-47.8,44.3-50.7v-20.7h41.4v26.6c2.8,1.5,5.3,3.3,7.5,5.3l1.2-8.5h42.3v63.9h-44.6v-3.6c0-14.1-9.1-23.2-23.2-23.2
				c-4.3,0-10.6,2.8-10.6,8.7c0,6.9,12.1,11.5,26.2,16.7c23.4,8.7,55.4,20.7,55.4,55.7c0,34.9-27.3,48.9-54,50.5v25.1H616.3z
				 M582.2,1223h26.9v-24.9l3.6-0.1c11.8-0.2,50.4-4,50.4-43.3c0-29.9-26.9-40-50.7-48.9c-16.6-6.2-30.9-11.5-30.9-23.5
				c0-9.9,9.3-16,17.9-16c17,0,28.8,10.7,30.3,26.9h30.2v-49.4h-28.6l-3,20.7l-5.3-8.9c-2.6-4.3-6.6-7.9-12-10.4l-2.1-1v-23.8h-26.7
				v20.1l-3.4,0.2c-15.2,1.1-40.9,11.6-40.9,43.8c0,31.9,29.1,42.2,52.5,50.6c14.6,5.2,26.2,9.3,26.2,18.4c0,9.7-8,15.5-21.3,15.5
				c-19.1-1-30.9-9.6-32.7-23.2h-31v51.1h28.7l3.3-17.9l4.8,4.3c3.9,3.4,7.8,6.2,11.9,8.5l1.9,1V1223z"/>
		</g>
	</g>
</g>
<path class="st12" d="M1341.1,543.8l-70-31l-157.5,330.6c-9.5,20.1-37.3,22.2-49.8,3.8L989,737.3c-2.9-4.2-9.2-3.7-11.3,0.8
	L882.8,932c-4.8,9.9-14.9,16.1-25.9,16.1H383.4c-7.7,0-15,3-20.3,8.5l-140.3,138.9c-11.2,11.2-29.4,11.2-40.7,0l-18.6-18.6
	c-11.2-11.2-11.2-29.4,0-40.8l164.8-163.5c5.4-5.4,12.8-8.5,20.3-8.5h455.9c11,0,21.1-6.2,25.9-16.1l118.5-242.3
	c9.7-19.9,37.2-21.9,49.7-3.6l74.1,108.8c2.9,4.2,9.2,3.7,11.3-0.9l110.3-231.3l-67.1-29.7c-6.3-2.9-6.6-11.8-0.4-14.9l163.6-82.1
	c3.7-1.8,8,0.1,9.1,3.9l52.7,177.9C1354.3,540.7,1347.5,546.7,1341.1,543.8z"/>
<g>
	<path class="st15" d="M859.6,1201.3c-1.7-0.3-3.3-0.6-4.8-1c-21.3-5.5-4.5-17.5-4.5-17.5l-65-296c0,0,27.8-38.3-7.4-66
		c-38.9-30.7-145.5-49.9-149.7-50.7c4.7,1.5,125.3,39.4,147.1,73.6c2.5,4,4.2,11.5,5.2,21.7v0.1c7.6,79.5-26.6,321.2-26.6,321.2
		c2.9,5.5-1.3,11-1.3,11c9.7,13.2,2.6,20,2.6,20c-2.6,0.6-5.3,1.1-8,1.5c-24.8,4.1-52.5,3.5-65.6,2.8c-4.9-0.2-7.7-0.5-7.7-0.5
		c-10-7.4,0-14.8,0-14.8l-15.8-295.1c-7.4-10.7,0-16.2,0-16.2s-140.8-10-209.6-23.9s-62.8-79.6-62.8-79.6l116.4-47.2
		c8.2,2.6,13,4,13,4l2-4.6c0,0,26.5,10.7,48-7c0,0,30.3,19.4,38.3,17.9c3.8-0.7-0.8-9.5-6.7-18.5c1,0.9,20.6,20,24.4,9.8
		c0.9-2.4-0.1-5.6-2.2-9c0.1-0.4,0.3-0.9,0.6-1.5h7.5h20.2h11.2h7.2c0,0,220.4,19.4,236.6,108.6c7.6,42.2,19.4,329.4,19.4,329.4
		s11.3,7.7,0,11.6c0,0,13,10.6,5,14.8c0,0-1,0.1-2.8,0.3C913.7,1201.6,879.3,1204.5,859.6,1201.3z"/>
	<path class="st16" d="M777.9,820.9c35.2,27.8,7.4,66,7.4,66l-4.7-21.3v-0.1c-1-10.2-2.7-17.7-5.2-21.7
		c-21.9-34.2-142.5-72.2-147.2-73.6C632.5,770.9,739.1,790.2,777.9,820.9z"/>
	<path class="st16" d="M704.7,852.2c-14,9.9-26.9,21.3-38.4,33.9c-1.5,1.7,1.2,3.9,2.7,2.2c11.3-12.5,24-23.6,37.7-33.3
		C708.5,853.7,706.5,850.9,704.7,852.2z"/>
	<path class="st16" d="M676.6,850.6c-5.1,9.3-10.6,18.4-16.4,27.2c-1.2,1.9,1.4,4.1,2.7,2.2c6-9.1,11.6-18.5,16.9-28
		C680.8,850.1,677.7,848.7,676.6,850.6z"/>
	<path class="st16" d="M689.8,894.6c-0.3-0.8-1.4-1.4-2.2-1l-15.5,7.8c-0.8,0.4-1.4,1.3-1,2.2c0.3,0.8,1.4,1.4,2.2,1
		c5.2-2.6,10.3-5.2,15.5-7.8C689.6,896.4,690.2,895.6,689.8,894.6z"/>
	<path class="st17" d="M980.6,1249.4c28.8,0.8,56.4,19.8,47.7,35.8c-8.7,16-60.2,23.6-60.2,23.6l-105.7-53.4l-2.9-54.1
		c19.7,3.2,54.1,0.2,64-0.7l0.1,1.1L980.6,1249.4z"/>
	<path class="st17" d="M809.2,1274.8c30.3,0.9,59.4,20.8,50.2,37.7c-9.1,16.8-63.4,24.8-63.4,24.8l-111.3-56.2l-3.2-58.9
		c13.2,0.7,40.8,1.3,65.6-2.8l2,5.3L809.2,1274.8z"/>
	<path class="st18" d="M841.2,1299.1c-3.3-5.8-8.4-10.5-14.3-13.5c-2-1-3.5,2.2-1.5,3.2c5.5,2.7,10,7,13,12.3
		c0.5,0.8,1.7,0.9,2.4,0.4C841.6,1300.9,841.7,1299.9,841.2,1299.1z"/>
	<path class="st18" d="M841.8,1306.6c-1,0.1-1.6,0.9-1.6,1.9c0,0.2,0,0.3,0,0.5c0,0.1,0,0.3,0,0.3c0,0.3-0.1,0.6-0.1,1
		c-0.1,0.4-0.1,0.7-0.2,1.1c0,0.1-0.1,0.3-0.1,0.4c0,0,0,0.2-0.1,0.3c-0.2,0.7-0.5,1.3-0.8,1.9c-0.1,0.3-0.3,0.6-0.5,0.9
		c0,0.1-0.1,0.1-0.1,0.2l0,0c-0.1,0.2-0.2,0.3-0.3,0.5c-0.5,0.7-0.6,1.9,0.2,2.5c0.7,0.5,1.9,0.6,2.5-0.2c2-2.8,3.1-6.1,3.1-9.5
		C843.7,1307.3,842.7,1306.5,841.8,1306.6z"/>
	<path class="st18" d="M1010.5,1270.9c-2.1-4.5-5.7-8.1-10.2-10.1c-0.8-0.4-1.9-0.1-2.3,0.8c-0.4,0.8-0.1,1.9,0.8,2.3
		c0.5,0.2,1,0.5,1.5,0.7c0.2,0.1,0.5,0.3,0.7,0.4l0.2,0.1c0.1,0,0.1,0.1,0.2,0.1c0.9,0.6,1.7,1.3,2.5,2c0.2,0.2,0.4,0.4,0.6,0.6l0,0
		l0,0c0.1,0.1,0.2,0.2,0.3,0.3c0.3,0.4,0.7,0.8,1,1.2c0.3,0.4,0.6,0.9,0.9,1.3c0.1,0.1,0.1,0.2,0.2,0.4c0,0,0.2,0.5,0.1,0.1
		c0.1,0.3,0.3,0.5,0.4,0.8c0.4,0.8,1.3,1.4,2.2,1C1010.3,1272.8,1011,1271.8,1010.5,1270.9z"/>
	<path class="st18" d="M1011.3,1279.6c-0.1-0.4-0.5-0.8-0.9-1c-0.8-0.4-1.9-0.1-2.3,0.8c-0.2,0.6-0.5,1.1-0.8,1.6
		c-0.5,0.8-1.2,1.6-1.9,2.3l0.1-0.1c-0.3,0.3-0.6,0.6-0.7,1.1c-0.1,0.4,0,1,0.3,1.3s0.7,0.6,1.1,0.7c0.4,0.1,1,0,1.3-0.3
		c1.6-1.4,2.9-3.1,3.8-5.1C1011.4,1280.5,1011.4,1280,1011.3,1279.6z"/>
	<path class="st18" d="M970.8,1299c-25.8-13.6-51.7-27.1-77.5-40.7l-22.3-11.7c-2-1-3.5,2.1-1.5,3.2c25.8,13.6,51.7,27.1,77.5,40.7
		l22.3,11.7C971.3,1303.2,972.8,1300.1,970.8,1299z"/>
	<path class="st18" d="M802.2,1324.4c-28.7-14.2-57.2-28.7-85.5-43.5c-8-4.2-16-8.4-24-12.6c-2-1-3.5,2.1-1.5,3.2
		c28.3,14.9,56.7,29.6,85.3,44c8.1,4.1,16.2,8.1,24.3,12.1C802.7,1328.5,804.2,1325.4,802.2,1324.4z"/>
	<path class="st16" d="M737.1,1188.5c-17.2,3.5-34.5,7.2-51.7,11.1c-2.2,0.5-1.9,4,0.3,3.5c17.2-3.8,34.4-7.5,51.7-11.1
		C739.6,1191.5,739.3,1188,737.1,1188.5z"/>
	<path class="st16" d="M737.7,1200.2c-11.6,1.5-23.2,2.9-34.8,4.4c-2.2,0.3-1.9,3.8,0.3,3.5c11.6-1.5,23.2-2.9,34.8-4.4
		C740.2,1203.4,739.9,1199.9,737.7,1200.2z"/>
	<path class="st16" d="M909.5,1167.4c-16,3.1-32.2,5.7-48.4,7.7c-2.2,0.3-1.9,3.7,0.3,3.5c16.2-2,32.3-4.6,48.4-7.7
		C912,1170.4,911.7,1167,909.5,1167.4z"/>
	<path class="st16" d="M906.9,1179c-10.7,1.9-21.4,3.1-32.3,3.6c-2.2,0.1-1.9,3.6,0.3,3.5c10.8-0.4,21.6-1.6,32.3-3.6
		C909.4,1182.1,909.1,1178.6,906.9,1179z"/>
</g>
<g>
	<g>
		<g>
			<path class="st5" d="M795.1,445.7c-37.4,0-67.9-30.5-67.9-67.9c0-37.4,30.5-67.9,67.9-67.9c37.4,0,67.9,30.5,67.9,67.9
				C863,415.3,832.6,445.7,795.1,445.7z M795.1,318.9c-32.5,0-58.9,26.4-58.9,58.9c0,32.5,26.4,58.9,58.9,58.9s58.9-26.4,58.9-58.9
				C854,345.3,827.6,318.9,795.1,318.9z"/>
		</g>
		<path class="st5" d="M840.2,446.3c5.7-3.7,10.8-8.2,15.4-13.1c4.6-5,8.5-10.5,11.7-16.5s5.7-12.3,7.3-18.8
			c1.6-6.6,2.5-13.3,2.5-20.1c0-6.8-0.9-13.5-2.5-20.1s-4.1-12.9-7.3-18.8s-7.2-11.5-11.7-16.5c-4.6-5-9.7-9.4-15.4-13.1l5-7.6
			c6.3,4.1,12,9.1,17.1,14.6c5,5.6,9.4,11.7,13,18.3c3.5,6.6,6.3,13.7,8.1,20.9c1.8,7.3,2.7,14.8,2.7,22.3s-1,15-2.8,22.3
			s-4.6,14.3-8.1,20.9c-3.6,6.6-8,12.7-13,18.3c-5.1,5.5-10.8,10.5-17.1,14.6L840.2,446.3z M824.8,301.3c3.9,1.5,7.7,3.3,11.4,5.5
			l4.6-7.9c-4-2.4-8.3-4.4-12.6-6.1L824.8,301.3z M807,296.6c4.2,0.6,8.3,1.5,12.3,2.8l2.7-8.7c-4.5-1.4-9.1-2.4-13.7-3.1L807,296.6
			z M795.1,295.7l3.8,0.1c1.3,0.1,2.5,0.2,3.8,0.3l0.8-9c-1.4-0.1-2.8-0.2-4.2-0.3l-4.2-0.1L795.1,295.7L795.1,295.7z M802.7,459.5
			c-1.3,0.1-2.5,0.2-3.8,0.3l-3.8,0.1v9.1l4.2-0.1c1.4-0.1,2.8-0.2,4.2-0.3L802.7,459.5z M819,456.3c-4,1.2-8.2,2.1-12.3,2.7l1.3,9
			c4.6-0.7,9.2-1.7,13.7-3L819,456.3z M835.9,449c-3.6,2.1-7.5,3.9-11.4,5.4l3.3,8.5c4.4-1.6,8.6-3.7,12.7-6L835.9,449z"/>
	</g>
</g>
<g>
	<g>
		<path class="st5" d="M1006,365.9c-21.6,0-39.2-17.6-39.2-39.2c0-21.6,17.6-39.2,39.2-39.2c21.6,0,39.2,17.6,39.2,39.2
			C1045.2,348.3,1027.7,365.9,1006,365.9z M1006,294.5c-17.8,0-32.2,14.4-32.2,32.2c0,17.8,14.4,32.2,32.2,32.2s32.2-14.4,32.2-32.2
			C1038.2,309,1023.8,294.5,1006,294.5z"/>
		<path class="st5" d="M972.4,358.3c4.3,4.5,9.5,8.2,15.2,10.7s12,3.8,18.2,3.8c6.3,0,12.5-1.2,18.2-3.7c5.7-2.4,11-6.1,15.3-10.6
			s7.7-9.9,9.9-15.8c2.2-5.8,3.2-12.1,2.8-18.4c-0.3-6.2-1.9-12.4-4.6-18s-6.7-10.6-11.4-14.7l3.3-3.9c5.3,4.5,9.6,10.1,12.6,16.3
			c3.1,6.2,4.8,13.1,5.1,20c0.3,6.9-0.7,13.9-3.2,20.4c-2.4,6.5-6.2,12.5-11,17.5s-10.6,9.1-17,11.8c-6.4,2.7-13.3,4.1-20.3,4.1
			c-6.9,0-13.9-1.5-20.2-4.2c-6.4-2.8-12.1-6.8-16.9-11.9L972.4,358.3z M1022.2,283.5c3.6,1.4,7.1,3.2,10.3,5.5l2.9-4.2
			c-3.5-2.5-7.4-4.5-11.4-6.1L1022.2,283.5z M1005.5,280.6c3.9,0,7.8,0.4,11.6,1.4l1.2-5c-4.2-1-8.5-1.6-12.9-1.5L1005.5,280.6z
			 M994.6,282c2.3-0.6,4.6-1,7-1.2l-0.5-5.1c-2.6,0.2-5.2,0.7-7.7,1.3L994.6,282z M959.9,324.4c0.1-2.4,0.4-4.7,0.9-7l-5-1
			c-0.5,2.6-0.9,5.2-1,7.8L959.9,324.4z M961.7,339.7c-1.1-3.7-1.7-7.6-1.8-11.5l-5.1,0.2c0.1,4.3,0.8,8.6,2,12.8L961.7,339.7z
			 M969.3,354.8c-2.4-3.1-4.3-6.5-5.9-10.1l-4.7,2c1.7,4,3.9,7.8,6.5,11.2L969.3,354.8z"/>
	</g>
</g>
<path class="st15" d="M586.5,322.5c-11.9-4.2-32.7-9.2-51,0.1c-29.2,14.7-39.2-16.2-39.3-21.1c0-0.4,0-0.4,0-0.5l0.4-1.8l2.1-18.3
	c0.7-6.2-6.3-10.5-11.4-6.8c-0.2,0.2-0.4,0.3-0.6,0.4c-2.1,1.2-3.4,3.3-3.6,5.7c-1.7,15.3-7.6,40.2-10.8,53.7
	c-0.8,3.2,0.9,6.4,4.1,8.3c24.2,14.7,54.7,43.3,71,48.7c5.4,1.8,13.1,2.2,16-1.7c14.1-19.5,25.6-43.2,30.5-53.8
	C595.7,331.1,591.8,324.4,586.5,322.5z"/>
<g>
	<path class="st17" d="M594.2,474.9c36,56,40.4,165.9,182.5,178.8l9.1,25.8c0,0-66.5,90-192.6-29.9c4.2,34,6.3,62.9-0.2,83.2
		c-3.5,11-12.3,19.5-23.3,22.8c-113.4,33.6-201.9-5.7-201.9-5.7l-10.9-278.5c70.5-26.7,160.5-22.1,202.5-17.9
		C573.6,455,586.4,462.9,594.2,474.9z"/>
	<path class="st19" d="M556.9,392.3c0,0-17,41.3-21.3,73.7c-1.3,9.5-8.6,17-18.1,18.6c-20.3,3.4-54,5.3-74.5-13.4
		c-4.5-4.1-6.1-10.7-4-16.5c8.4-23.6,52.3-122,76.2-137L556.9,392.3z"/>
	<g>
		<path class="st19" d="M383.9,695.8c0,0.2,0,0.4,0,0.5c-0.4,51.4,69.1,56.3,69.1,56.3s19.9-33,45.4-34.1
			c25.5-1.1,60.9,40.4,60.9,40.4l-56.6,9.1c0,0-107.9,64.7-181.8-12.2C333.9,708,365.1,697.5,383.9,695.8z"/>
		<path class="st17" d="M356.9,471.5c70.1,24.9,59.9,79.9,59.9,79.9s-32.3,93-32.9,144.4c-18.8,1.7-50,12.2-63,60
			c-1.8-1.8-3.5-3.7-5.2-5.7C227.3,647.8,356.9,471.5,356.9,471.5z"/>
		<path class="st20" d="M383.9,698.5c1.5,0,2.7-1.2,2.7-2.7c0.4-40.1,20.4-105.8,29-132.2c0.5-1.4-0.3-3-1.8-3.4
			c-1.4-0.5-3,0.3-3.4,1.8c-8.6,26.6-28.8,93-29.2,133.8C381.2,697.3,382.4,698.5,383.9,698.5C383.9,698.5,383.9,698.5,383.9,698.5z
			"/>
	</g>
	<g>
		<path class="st19" d="M633.5,288.2c0,2.1-45.9,129.9-45.9,129.9l-72.5-27.8l25.5-127.7C540.7,262.8,633.5,253.8,633.5,288.2z"/>
		<path class="st15" d="M553.4,293.9L534.7,360c-0.2,0.8-0.4,1.7-0.4,2.6c0,5.4,1.3,24,20.2,21.4c17.2-2.3,32.9-4.1,42.8,0.6
			c4.5,2.1,6.6,7.3,4.9,11.9c-4.2,11.6-14.1,37.6-26.1,58.9c-2.4,4.3-7.8,6-12.3,3.9c-13.6-6.2-41.9-20.1-62.1-36.5
			c-2.7-2.2-4-5.7-3.4-9.2c3.2-16.9,12.6-68.4,13.1-83.1c0.4-13.8-15.1-24.4-22-28.4c-2.2-1.3-3.8-3.4-4.4-6
			c-2.1-8.9-4-29.1,21.8-33.5c5.4-0.9,8.9-6.1,7.8-11.4c-2.2-10.7-1.5-26.3,18.8-32.1c20.6-5.9,33.5,6.5,40.1,16
			c2.7,3.8,7.6,5.1,11.9,3.2c2.4-1.1,5.4-1.1,8.5,1.5c4.2,3.6,10.7,2.5,13.8-2.1c6-8.8,16.9-17.6,35.3-11.7
			c32.7,10.6,31.2,48.3,19.2,68.8c-12,20.5-46.8,7-63.3-6.6c-12.5-10.3-31.6-4.2-40.1-0.6C556.1,288.8,554.2,291.1,553.4,293.9z"/>
		<path class="st19" d="M508.6,355.1c0,0,15.7-37.1,2.9-48.6c-12.8-11.5-30.7-7.6-30.1,21.1C482.1,363.2,508.6,355.1,508.6,355.1z"
			/>
	</g>
</g>
<g>
	<path class="st21" d="M494.2,766.5h267.5c2.7,0,5.2-1.8,6-4.4l58.9-187c1.3-4-1.7-8.2-6-8.2h-209c-2.7,0-5.2,1.8-6,4.4L550,749.5
		c-0.8,2.6-3.2,4.4-6,4.4h-49.8c-4.3,0-7.3,4.1-6,8.2l0,0C489,764.8,491.4,766.5,494.2,766.5z"/>
	<path class="st22" d="M815.4,578.9l-215,187.6h165.9l57.4-182.2C825.2,579.4,819.3,575.5,815.4,578.9z"/>
	<path class="st20" d="M769.1,751.2H552.3c-2.4,0-2,3.5,0.3,3.5h216.8C771.8,754.7,771.5,751.2,769.1,751.2z"/>
</g>
</svg>
