<?xml version="1.0" encoding="utf-8"?>
<!-- Generator: Adobe Illustrator 24.0.2, SVG Export Plug-In . SVG Version: 6.00 Build 0)  -->
<svg version="1.1" id="Слой_1" xmlns="http://www.w3.org/2000/svg" xmlns:xlink="http://www.w3.org/1999/xlink" x="0px" y="0px"
	 width="1487.3px" height="890.5px" viewBox="0 0 1487.3 890.5" style="enable-background:new 0 0 1487.3 890.5;"
	 xml:space="preserve">
<style type="text/css">
	.st0{fill:#262C30;}
	.st1{fill:#007BFF;}
	.st2{fill:#E1E3E5;}
	.st3{fill:#343A40;}
	.st4{fill:url(#SVGID_1_);}
	.st5{fill:#33C14D;}
	.st6{fill:#E7F2F0;}
	.st7{fill:#121921;}
	.st8{fill:#FFC107;}
	.st9{fill:#A07302;}
	.st10{fill:#F7D4CD;}
	.st11{opacity:0.2;}
	.st12{fill:#A0A0A0;}
	.st13{fill:#BDD0FB;}
	.st14{fill:#FCFCFC;}
	.st15{opacity:0.4;}
	.st16{fill:#91B3FA;}
	.st17{fill:#7D97F4;}
	.st18{fill:url(#SVGID_2_);}
</style>
<g>
	<g>
		<g>
			<g>
				<path class="st0" d="M1113.6,729.4V590.8H834.1v138.6c0,36-24,65.2-53.5,65.2h-11.3v17.9h409.1v-17.9h-11.3
					C1137.6,794.6,1113.6,765.4,1113.6,729.4z"/>
			</g>
			<g>
				<path class="st1" d="M1176.1,812.4H771.6c-4.9,0-8.9-4-8.9-8.9l0,0c0-4.9,4-8.9,8.9-8.9h404.5c4.9,0,8.9,4,8.9,8.9l0,0
					C1185.1,808.4,1181.1,812.4,1176.1,812.4z"/>
			</g>
		</g>
		<g>
			<path class="st2" d="M1450,675.9L504.8,665c-20.2-0.2-36.5-16.7-36.5-36.9V51.2c0-20.2,16.2-36.6,36.4-36.9L1437.6,0
				c20.3-0.3,37.1,15.9,37.5,36.2l12.2,602C1487.7,659,1470.8,676.1,1450,675.9z"/>
		</g>
		<g>
			<path class="st0" d="M1419.5,561.5H523.2c-10.1,0-18.2-8.2-18.2-18.2V76.3c0-10.1,8.2-18.2,18.2-18.2h896.4
				c10.1,0,18.2,8.2,18.2,18.2v466.9C1437.8,553.3,1429.6,561.5,1419.5,561.5z"/>
		</g>
	</g>
	<g>
		<path class="st3" d="M562,96.5v432.3c0,9.2,7.5,16.7,16.7,16.7h810c9.2,0,16.7-7.5,16.7-16.7V96.5c0-9.2-7.5-16.7-16.7-16.7h-810
			C569.5,79.8,562,87.3,562,96.5z"/>
	</g>
	<g>
		<path class="st0" d="M1041.7,327.6h226.8c6.5,0,11.8-5.3,11.8-11.8V184.9c0-6.5-5.3-11.8-11.8-11.8h-226.8
			c-6.5,0-11.8,5.3-11.8,11.8v130.9C1029.9,322.3,1035.2,327.6,1041.7,327.6z"/>
	</g>
	
		<radialGradient id="SVGID_1_" cx="1234.1443" cy="216.2289" r="153.1483" gradientTransform="matrix(1 0 0 0.7409 0 56.0249)" gradientUnits="userSpaceOnUse">
		<stop  offset="1.629055e-02" style="stop-color:#33C14D"/>
		<stop  offset="1" style="stop-color:#33C14D;stop-opacity:0"/>
	</radialGradient>
	<path class="st4" d="M1347.5,88.9h-226.8c-34.1,0-61.8,27.7-61.8,61.8v130.9c0,34.1,27.7,61.8,61.8,61.8h226.8
		c34.1,0,61.8-27.7,61.8-61.8V150.8C1409.4,116.7,1381.6,88.9,1347.5,88.9z"/>
	<g>
		<path class="st5" d="M1092,285.1h226.8c6.5,0,11.8-5.3,11.8-11.8V142.3c0-6.5-5.3-11.8-11.8-11.8H1092c-6.5,0-11.8,5.3-11.8,11.8
			v130.9C1080.2,279.8,1085.5,285.1,1092,285.1z"/>
	</g>
	<g>
		<g>
			<path class="st0" d="M562,504v24.8c0,9.2,7.5,16.7,16.7,16.7h810c9.2,0,16.7-7.5,16.7-16.7v-16.5
				C1307.2,510.8,753.5,505.7,562,504z"/>
		</g>
		<g>
			<g>
				<g>
					
						<rect x="984.6" y="162.3" transform="matrix(5.596638e-03 -1 1 5.596638e-03 455.588 1511.6742)" class="st6" width="6.5" height="729"/>
				</g>
			</g>
			<polygon class="st7" points="986.2,522.5 985.1,522.5 986.2,531 1352.3,533 1353.3,533 1353.4,524.6 			"/>
			<g>
				<path class="st7" d="M998.7,526.8c0-6-4.9-10.9-10.9-10.9c-6,0-10.9,4.9-10.9,10.9c0,6,4.9,10.9,10.9,10.9
					C993.9,537.6,998.7,532.8,998.7,526.8z"/>
			</g>
		</g>
	</g>
	<g>
		<g>
			<path class="st7" d="M1376.4,104.4c0-4.4-3.6-8-8-8c-4.4,0-8,3.6-8,8c0,4.4,3.6,8,8,8C1372.8,112.5,1376.4,108.9,1376.4,104.4z"
				/>
		</g>
		<g>
			<path class="st7" d="M1347.3,104.4c0-4.4-3.6-8-8-8c-4.4,0-8,3.6-8,8c0,4.4,3.6,8,8,8C1343.7,112.5,1347.3,108.9,1347.3,104.4z"
				/>
		</g>
		<g>
			<path class="st7" d="M1317.5,104.4c0-4.4-3.6-8-8-8c-4.4,0-8,3.6-8,8c0,4.4,3.6,8,8,8C1314,112.5,1317.5,108.9,1317.5,104.4z"/>
		</g>
	</g>
	<g>
		<g>
			<path class="st2" d="M1213.7,182.4h-110c-2.4,0-6.1-2.5-6.5-4.9c-0.7-4.9,4-6.3,6.5-6.3l110,2.4c2.4,0,4.4,2,4.4,4.4l0,0
				C1218.1,180.4,1216.2,182.4,1213.7,182.4z"/>
		</g>
		<g>
			<path class="st2" d="M1185.2,161.7h-83c-1.8,0-4.6-2-4.9-4c-0.5-4,3-5.1,4.9-5.1l83,2c1.8,0,3.3,1.6,3.3,3.5l0,0
				C1188.5,160.1,1187,161.7,1185.2,161.7z"/>
		</g>
		<g>
			<path class="st2" d="M1185.2,203.2h-83c-1.8,0-4.6-2-4.9-4c-0.5-4,3-5.1,4.9-5.1l83,2c1.8,0,3.3,1.6,3.3,3.5l0,0
				C1188.5,201.6,1187,203.2,1185.2,203.2z"/>
		</g>
		<g>
			<path class="st2" d="M1198.4,243.7h99c2.2,0,5.5-2.3,5.8-4.4c0.6-4.4-3.6-5.7-5.8-5.7l-99,2.2c-2.2,0-4,1.8-4,4l0,0
				C1194.5,241.9,1196.3,243.7,1198.4,243.7z"/>
		</g>
		<g>
			<path class="st2" d="M1224.1,262.4h74.7c1.6,0,4.2-1.8,4.4-3.6c0.4-3.6-2.7-4.6-4.4-4.6l-74.7,1.8c-1.6,0-3,1.4-3,3.2l0,0
				C1221.1,261,1222.5,262.4,1224.1,262.4z"/>
		</g>
		<g>
			<path class="st2" d="M1299.3,213.1l-57.1,3.1c-4.6,0.2-8.3-3.5-8-8.1l3.5-53.4c0.3-4.2,3.9-7.3,8-7.1l52,3c3.9,0.2,7,3.4,7.2,7.3
				l1.6,47.3C1306.6,209.4,1303.4,212.9,1299.3,213.1z"/>
		</g>
		<g>
			<path class="st2" d="M1176.8,261.7l-24.5,1.3c-2,0.1-3.6-1.5-3.4-3.5l1.5-22.9c0.1-1.8,1.7-3.2,3.4-3l22.3,1.3
				c1.7,0.1,3,1.5,3.1,3.2l0.7,20.3C1180,260.1,1178.6,261.6,1176.8,261.7z"/>
		</g>
		<g>
			<path class="st2" d="M1133.4,261.7l-24.5,1.3c-2,0.1-3.6-1.5-3.4-3.5l1.5-22.9c0.1-1.8,1.7-3.2,3.4-3l22.3,1.3
				c1.7,0.1,3,1.5,3.1,3.2l0.7,20.3C1136.5,260.1,1135.1,261.6,1133.4,261.7z"/>
		</g>
	</g>
	<g>
		<g>
			<path class="st8" d="M1295,480.3h70.8c8.1,0,14.7-6.6,14.7-14.7v-97.2c0-8.1-6.6-14.7-14.7-14.7H1295c-8.1,0-14.7,6.6-14.7,14.7
				v97.2C1280.3,473.7,1286.9,480.3,1295,480.3z"/>
		</g>
		<g>
			<path class="st9" d="M1299.2,396.7h61.6c1.4,0,3.4-1.4,3.6-2.8c0.4-2.8-2.3-3.5-3.6-3.5l-61.6,1.4c-1.4,0-2.5,1.1-2.5,2.5l0,0
				C1296.8,395.5,1297.9,396.7,1299.2,396.7z"/>
		</g>
		<g>
			<path class="st9" d="M1315.2,385.1h46.5c1,0,2.6-1.1,2.7-2.2c0.3-2.2-1.7-2.8-2.7-2.8l-46.5,1.1c-1,0-1.9,0.9-1.9,2l0,0
				C1313.4,384.2,1314.2,385.1,1315.2,385.1z"/>
		</g>
		<g>
			<path class="st9" d="M1315.2,408.3h46.5c1,0,2.6-1.1,2.7-2.2c0.3-2.2-1.7-2.8-2.7-2.8l-46.5,1.1c-1,0-1.9,0.9-1.9,2l0,0
				C1313.4,407.4,1314.2,408.3,1315.2,408.3z"/>
		</g>
		<g>
			<path class="st9" d="M1299.2,443.1h61.6c1.4,0,3.4-1.4,3.6-2.8c0.4-2.8-2.3-3.5-3.6-3.5l-61.6,1.4c-1.4,0-2.5,1.1-2.5,2.5l0,0
				C1296.8,442,1297.9,443.1,1299.2,443.1z"/>
		</g>
		<g>
			<path class="st9" d="M1315.2,431.5h46.5c1,0,2.6-1.1,2.7-2.2c0.3-2.2-1.7-2.8-2.7-2.8l-46.5,1.1c-1,0-1.9,0.9-1.9,2l0,0
				C1313.4,430.6,1314.2,431.5,1315.2,431.5z"/>
		</g>
		<g>
			<path class="st9" d="M1315.2,454.8h46.5c1,0,2.6-1.1,2.7-2.2c0.3-2.2-1.7-2.8-2.7-2.8l-46.5,1.1c-1,0-1.9,0.9-1.9,2l0,0
				C1313.4,453.9,1314.2,454.8,1315.2,454.8z"/>
		</g>
	</g>
	<g>
		<g>
			<path class="st1" d="M562,492.2v13.7c0,8.4,6.8,15.3,15.3,15.3h485.1c1.1-0.3,2.1-0.6,3.2-1c-34.5-33.5-101-86.2-191.8-103.9
				c-6.7-1.3-13.5-2.5-20.4-3.4c-6.1-0.8-12.3-1.4-18.7-1.9c-0.3,0-0.7-0.1-1-0.1c-19.3-1.3-38.6-0.6-57.6,1.4
				c-3.9,0.4-7.7,0.9-11.5,1.4c-5.7,0.7-11.2,1.5-16.6,2.4C657.1,430.6,599,461.1,562,492.2z"/>
		</g>
		<g>
			<path class="st10" d="M1183.6,404.6c-5.6-6.1-33.9-5.5-55.8-0.8c0-1.2,0-2.4-0.1-3.7c-2.3-27.1-7.7-64.4-21.3-62.1
				c-9.3,1.5-6.5,91.5-6.5,91.5c-0.1,2.4-0.1,5-0.1,7.7c-10.7-16.5-33.8-31-38.8-23.6c-5.4,8.1,13.6,28.3,22.1,48.8
				c8.5,20.5,45.2,43,45.4,53l68.5,4.4C1196.5,492.5,1190.6,412.2,1183.6,404.6z"/>
		</g>
		<path class="st0" d="M1196.5,417c-0.8,13.2-5.1,31.1-13.3,35.9c-2.6-3.4-4-18.8-3.5-35.9h-9.6c-2.4,17-6.8,34.2-11.5,38.2
			c-2.6-4.1-4.8-20.3-5.2-38.2h-10c-0.6,4.5-1.5,10.4-2.8,16.3c-4.7,21.8-9.7,22.8-9.9,22.9c-0.2,0-0.4,0.1-0.7-0.3
			c-4.1-3.8-5.9-21.6-5.5-38.8h-9c-0.4,14.5,0.4,38.1,8.4,45.5c1.9,1.8,4.2,2.7,6.6,2.7c0.6,0,1.1,0,1.7-0.1c6-1,10.7-7.3,14.5-19.5
			c2,12.7,5,16.3,7.7,18c2.3,1.4,5,1.5,7.5,0.2c2.8-1.5,6.6-4.7,10.4-15.5c1.6,8.4,4.1,11.3,6.4,12.7c1.5,0.9,4.6,2.2,8.5,0
			c12.4-6.8,17.4-28.6,18.2-43.9H1196.5z"/>
		<g>
			<g>
				<path class="st10" d="M1132.8,379c-4.9,0.8-9.8-0.7-12.1,26.8c-1.2,13.7-2.1,57,10.9,54.8c13-2.2,17.4-51.2,17.4-51.2
					s-0.3,56.2,11,50.3c11.3-5.9,15.6-50.3,15.6-50.3s-3.4,54.7,9.6,47.6c13-7.1,16.9-36.3,15.8-48.8c-1.4-15.6-12.8-16.5-25-17.3
					c0,0-12-7.5-20-6.1C1152.9,385.3,1142.4,377.3,1132.8,379z"/>
			</g>
		</g>
		<g>
			<g>
				<path class="st0" d="M728.9,216.9c-4.4-10.4-8.9-20.9-11.1-32c-2.3-11.1-2.3-22.9,2-33.4C724,141,733,132.2,744.1,130
					c6.8-1.4,14.1-0.2,20.7-2.6c7.6-2.8,12.7-9.8,18.6-15.3c9.3-8.6,21.3-14.1,33.9-15.4c6.6-0.7,13.5-0.2,19.4,2.8
					c5.9,3,10.6,8.8,11.1,15.4c7.7-2.6,15.6-5.2,23.8-5.7c8.2-0.5,16.8,1.4,22.9,6.8c6.1,5.4,9,14.9,5.3,22.1
					c6.6-3.9,16-0.9,20.1,5.7c4.1,6.5,3.1,15.4-1.3,21.7c-4.4,6.3-14.8,11.9-22.4,12.9c-7.6,1-16.5,1.7-23.8-0.7"/>
				<g>
					<g>
						<g>
							<g>
								<g>
									<g>
										<g>
											<g>
												<g>
													<path class="st10" d="M763.1,435.5l79.7-6.4c8-0.6,14.3-7.3,14.3-15.4c0-11.4-0.1-26-0.3-36c-0.1-6.6,4-12.4,10.1-14.8
														c13.4-5.1,35.4-18.1,35.8-49.6c0.6-45.5-7.3-149.9-7.3-149.9l0,0c-52.6-22.6-113.4-15-158.8,20l-0.1,0.1
														c-4.1,3.2-6.4,8.2-6,13.4l15.9,224.2C747,429.8,754.5,436.2,763.1,435.5z"/>
												</g>
											</g>
										</g>
									</g>
								</g>
							</g>
						</g>
						<g>
							<g>
								<g>
									<g>
										<g>
											<path class="st10" d="M735.4,235.8c-0.8-0.4-31.3-9.3-30.2,21.9s32,23.7,32,22.8C737.1,279.5,735.4,235.8,735.4,235.8z"
												/>
										</g>
									</g>
								</g>
							</g>
						</g>
					</g>
				</g>
				<path class="st0" d="M897.5,177.5c0,0-30.5,10.2-66.3-3.4c-23.5-9-50.3-11.7-55.5-6.6c-5.3,5.1-4.2,28.3-25.7,37.3
					c0,0,6,43.9-11.7,44.2c-17.7,0.2-13.6-69.1-13.6-69.1l40.9-25.4l46-13.6l43.9-4.4l42.1,8.5L897.5,177.5L897.5,177.5z"/>
			</g>
			<path class="st0" d="M898,274.3c-18.6-2.4-50.2-3.4-74,15.6c-37.9,30.2-61.9-11.6-63.4-18.7c-0.1-0.5-0.1-0.6-0.1-0.7v-2.8
				l-2.5-27.2c-0.8-9.3-12.3-13.3-18.6-6.4c-0.2,0.3-0.5,0.5-0.7,0.7c-2.6,2.3-3.9,5.8-3.5,9.3c2.2,22.7,1.1,60.6,0.6,81.2
				c-0.1,4.8,3.2,9,8.5,10.9c39.6,14,92.5,46.2,117.8,49.2c8.4,0.9,19.7-0.7,22.7-7.4c14.6-32.6,24-70.5,27.9-87.4
				C914,283.9,906.3,275.4,898,274.3z"/>
		</g>
	</g>
	<g class="st11">
		<path class="st12" d="M622,890.4l-322.6-28.6c-13.1-1.2-23.1-12.1-23.2-25.2L275,619.1c-0.1-14.8,12.4-26.6,27.2-25.5l343.5,23.9
			c14.2,1,24.8,13.4,23.6,27.6l-19.7,222.2C648.3,881.3,636,891.7,622,890.4z"/>
		<path class="st2" d="M293.9,640.2L291.8,828c-0.1,8.2,6.1,15,14.2,15.8l309.3,30.7c8.7,0.9,16.5-5.5,17.2-14.3l17.8-200.8
			c0.8-8.9-5.9-16.6-14.8-17.1l-325-17.7C301.6,624.2,294,631.2,293.9,640.2z"/>
		<path class="st13" d="M440.6,804.2l175,10.3c1.8,0.1,3.1,1.7,3,3.5l-0.2,2.8c-0.2,1.7-1.7,3-3.4,2.9l-174.8-13.1
			c-1.8-0.1-3.1-1.7-2.9-3.5v0C437.4,805.4,438.8,804.1,440.6,804.2z"/>
		<path class="st13" d="M435.9,821.8l-0.1,1.2c-0.2,1.8,1.1,3.3,2.9,3.5l174.6,15.5c1.8,0.2,3.3-1.1,3.5-2.9l0.1-1.2
			c0.2-1.8-1.1-3.3-2.9-3.5l-174.6-15.5C437.6,818.7,436.1,820,435.9,821.8z"/>
		<path class="st13" d="M487.5,842.1l0,0.5c-0.2,1.8,1.1,3.3,2.9,3.5L612,856.9c1.8,0.2,3.3-1.1,3.5-2.9l0.2-2.5
			c0.2-1.8-1.2-3.3-2.9-3.5l-121.8-8.8C489.2,839.1,487.7,840.4,487.5,842.1z"/>
	</g>
	<path class="st14" d="M66.9,813.6c-0.3,0-0.6-0.1-0.9-0.3c-0.5-0.3-0.9-0.6-1.4-1c-0.7-0.5-0.9-1.5-0.4-2.2
		c0.5-0.7,1.5-0.9,2.2-0.4c0.4,0.3,0.9,0.6,1.4,0.9c0.7,0.5,0.9,1.5,0.4,2.2C67.9,813.4,67.4,813.6,66.9,813.6z M61.5,809.7
		c-0.3,0-0.7-0.1-1-0.3c-0.4-0.3-0.9-0.7-1.3-1c-0.7-0.5-0.8-1.5-0.3-2.2c0.5-0.7,1.5-0.8,2.2-0.3c0.4,0.3,0.9,0.7,1.3,1
		c0.7,0.5,0.8,1.5,0.3,2.2C62.4,809.5,62,809.7,61.5,809.7z M56.3,805.6c-0.4,0-0.7-0.1-1-0.4c-0.4-0.4-0.9-0.7-1.3-1.1
		c-0.7-0.6-0.8-1.6-0.2-2.2c0.6-0.7,1.6-0.8,2.2-0.2c0.4,0.4,0.8,0.7,1.3,1.1c0.7,0.6,0.8,1.6,0.2,2.2
		C57.2,805.4,56.7,805.6,56.3,805.6z M51.2,801.2c-0.4,0-0.8-0.1-1.1-0.4c-0.4-0.4-0.8-0.8-1.2-1.1c-0.6-0.6-0.7-1.6-0.1-2.2
		c0.6-0.6,1.6-0.7,2.2-0.1c0.4,0.4,0.8,0.7,1.2,1.1c0.6,0.6,0.7,1.6,0.1,2.2C52.1,801.1,51.6,801.2,51.2,801.2z M46.3,796.7
		c-0.4,0-0.8-0.2-1.1-0.5c-0.4-0.4-0.8-0.8-1.2-1.2c-0.6-0.6-0.6-1.6,0-2.2c0.6-0.6,1.6-0.6,2.2,0c0.4,0.4,0.8,0.8,1.2,1.2
		c0.6,0.6,0.6,1.6,0,2.2C47.2,796.5,46.8,796.7,46.3,796.7z M41.7,791.9c-0.4,0-0.8-0.2-1.2-0.5c-0.4-0.4-0.8-0.8-1.1-1.2
		c-0.6-0.6-0.5-1.6,0.1-2.2c0.6-0.6,1.6-0.5,2.2,0.1c0.4,0.4,0.7,0.8,1.1,1.2c0.6,0.6,0.6,1.6-0.1,2.2
		C42.5,791.8,42.1,791.9,41.7,791.9z M37.2,786.9c-0.4,0-0.9-0.2-1.2-0.5c-0.4-0.4-0.7-0.9-1.1-1.3c-0.6-0.7-0.5-1.7,0.2-2.2
		c0.7-0.6,1.7-0.5,2.2,0.2c0.4,0.4,0.7,0.8,1.1,1.3c0.6,0.7,0.5,1.7-0.2,2.2C38,786.8,37.6,786.9,37.2,786.9z M33,781.8
		c-0.5,0-0.9-0.2-1.2-0.6c-0.3-0.4-0.7-0.9-1-1.3c-0.5-0.7-0.4-1.7,0.3-2.2c0.7-0.5,1.7-0.4,2.2,0.3c0.3,0.4,0.7,0.9,1,1.3
		c0.5,0.7,0.4,1.7-0.3,2.2C33.7,781.7,33.3,781.8,33,781.8z M29,776.5c-0.5,0-1-0.2-1.3-0.7c-0.3-0.5-0.7-0.9-1-1.4
		c-0.5-0.7-0.3-1.7,0.4-2.2c0.7-0.5,1.7-0.3,2.2,0.4c0.3,0.4,0.6,0.9,1,1.3c0.5,0.7,0.4,1.7-0.4,2.2C29.6,776.4,29.3,776.5,29,776.5
		z M25.2,771c-0.5,0-1-0.3-1.3-0.7c-0.3-0.5-0.6-0.9-0.9-1.4c-0.5-0.7-0.3-1.7,0.5-2.2c0.7-0.5,1.7-0.3,2.2,0.5
		c0.3,0.5,0.6,0.9,0.9,1.4c0.5,0.7,0.3,1.7-0.5,2.2C25.8,770.9,25.5,771,25.2,771z M21.6,765.3c-0.5,0-1.1-0.3-1.4-0.8
		c-0.3-0.5-0.6-1-0.9-1.5c-0.4-0.8-0.2-1.7,0.6-2.2c0.8-0.4,1.7-0.2,2.2,0.6c0.3,0.5,0.6,0.9,0.8,1.4c0.4,0.7,0.2,1.7-0.5,2.2
		C22.2,765.3,21.9,765.3,21.6,765.3z M669.4,764.3C669.4,764.3,669.4,764.3,669.4,764.3c-0.6,0-1.1,0-1.7,0c-0.9,0-1.6-0.7-1.6-1.6
		c0-0.9,0.7-1.6,1.6-1.6c0.6,0,1.1,0,1.7,0c0.9,0,1.6,0.7,1.6,1.6C671,763.6,670.3,764.3,669.4,764.3z M674.4,764.3
		c-0.9,0-1.6-0.7-1.6-1.6c0-0.9,0.7-1.6,1.6-1.6c0.6,0,1.1,0,1.7,0c0,0,0,0,0,0c0.9,0,1.6,0.7,1.6,1.6c0,0.9-0.7,1.6-1.6,1.6
		C675.5,764.3,675,764.3,674.4,764.3C674.4,764.3,674.4,764.3,674.4,764.3z M662.7,764.2C662.7,764.2,662.7,764.2,662.7,764.2
		c-0.6,0-1.2,0-1.7,0c-0.9,0-1.6-0.8-1.5-1.6c0-0.9,0.7-1.6,1.6-1.5c0.6,0,1.1,0,1.7,0c0.9,0,1.6,0.7,1.5,1.6
		C664.3,763.5,663.6,764.2,662.7,764.2z M681.1,764.2c-0.9,0-1.6-0.7-1.6-1.5c0-0.9,0.7-1.6,1.5-1.6c0.6,0,1.1,0,1.7,0
		c0.9,0,1.6,0.7,1.6,1.5c0,0.9-0.7,1.6-1.5,1.6C682.2,764.2,681.7,764.2,681.1,764.2C681.1,764.2,681.1,764.2,681.1,764.2z
		 M656.1,764C656.1,764,656,764,656.1,764c-0.6,0-1.2,0-1.7-0.1c-0.9,0-1.5-0.8-1.5-1.7c0-0.9,0.8-1.5,1.7-1.5c0.6,0,1.1,0,1.7,0.1
		c0.9,0,1.6,0.8,1.5,1.6C657.6,763.3,656.9,764,656.1,764z M687.7,763.9c-0.8,0-1.5-0.7-1.6-1.5c0-0.9,0.6-1.6,1.5-1.7
		c0.6,0,1.1-0.1,1.7-0.1c0.9,0,1.6,0.6,1.7,1.5c0,0.9-0.6,1.6-1.5,1.7C688.9,763.9,688.4,763.9,687.7,763.9
		C687.8,763.9,687.7,763.9,687.7,763.9z M649.4,763.7C649.4,763.7,649.4,763.7,649.4,763.7c-0.7,0-1.2-0.1-1.8-0.1
		c-0.9-0.1-1.5-0.8-1.5-1.7s0.8-1.5,1.7-1.5c0.6,0,1.1,0.1,1.7,0.1c0.9,0.1,1.5,0.8,1.5,1.7C650.9,763,650.2,763.7,649.4,763.7z
		 M694.4,763.6c-0.8,0-1.5-0.6-1.6-1.5c-0.1-0.9,0.6-1.6,1.5-1.7c0.6,0,1.1-0.1,1.7-0.1c0.9-0.1,1.6,0.6,1.7,1.5
		c0.1,0.9-0.6,1.6-1.5,1.7c-0.6,0-1.1,0.1-1.7,0.1C694.4,763.6,694.4,763.6,694.4,763.6z M642.8,763.2c0,0-0.1,0-0.1,0
		c-0.6,0-1.1-0.1-1.7-0.1c-0.9-0.1-1.5-0.8-1.4-1.7c0.1-0.9,0.8-1.5,1.7-1.4c0.6,0,1.1,0.1,1.7,0.1c0.9,0.1,1.5,0.8,1.5,1.7
		C644.3,762.6,643.6,763.2,642.8,763.2z M701,763c-0.8,0-1.5-0.6-1.6-1.4c-0.1-0.9,0.6-1.6,1.4-1.7c0.6,0,1.1-0.1,1.7-0.2
		c0.9-0.1,1.6,0.6,1.7,1.4c0.1,0.9-0.6,1.6-1.4,1.7c-0.6,0.1-1.1,0.1-1.7,0.2C701.1,763,701.1,763,701,763z M636.1,762.6
		c0,0-0.1,0-0.1,0c-0.6-0.1-1.1-0.1-1.7-0.2c-0.9-0.1-1.5-0.9-1.4-1.7c0.1-0.9,0.9-1.5,1.7-1.4c0.6,0.1,1.1,0.1,1.7,0.2
		c0.9,0.1,1.5,0.9,1.4,1.7C637.6,762,636.9,762.6,636.1,762.6z M707.6,762.4c-0.8,0-1.5-0.6-1.6-1.4c-0.1-0.9,0.5-1.6,1.4-1.7
		c0.5-0.1,1.1-0.1,1.6-0.2c0.9-0.1,1.7,0.5,1.8,1.4c0.1,0.9-0.5,1.7-1.4,1.8c-0.6,0.1-1.1,0.1-1.7,0.2
		C707.8,762.4,707.7,762.4,707.6,762.4z M629.5,762c-0.1,0-0.1,0-0.2,0c-0.6-0.1-1.1-0.1-1.7-0.2c-0.9-0.1-1.5-0.9-1.4-1.8
		c0.1-0.9,0.9-1.5,1.8-1.4c0.6,0.1,1.1,0.1,1.7,0.2c0.9,0.1,1.5,0.9,1.4,1.7C631,761.4,630.3,762,629.5,762z M714.3,761.6
		c-0.8,0-1.5-0.6-1.6-1.4c-0.1-0.9,0.5-1.7,1.4-1.8c0.5-0.1,1.1-0.1,1.6-0.2c0.9-0.1,1.7,0.5,1.8,1.4c0.1,0.9-0.5,1.7-1.4,1.8
		c-0.6,0.1-1.1,0.1-1.7,0.2C714.4,761.6,714.3,761.6,714.3,761.6z M622.9,761.2c-0.1,0-0.1,0-0.2,0c-0.6-0.1-1.1-0.1-1.7-0.2
		c-0.9-0.1-1.5-0.9-1.4-1.8c0.1-0.9,0.9-1.5,1.8-1.4c0.5,0.1,1.1,0.1,1.6,0.2c0.9,0.1,1.5,0.9,1.4,1.8
		C624.3,760.6,623.7,761.2,622.9,761.2z M720.9,760.6c-0.8,0-1.4-0.6-1.6-1.3c-0.1-0.9,0.5-1.7,1.3-1.8c0.5-0.1,1.1-0.2,1.6-0.3
		c0.9-0.1,1.7,0.5,1.8,1.3c0.1,0.9-0.5,1.7-1.3,1.8c-0.6,0.1-1.1,0.2-1.7,0.3C721,760.6,720.9,760.6,720.9,760.6z M616.3,760.3
		c-0.1,0-0.1,0-0.2,0c-0.6-0.1-1.1-0.2-1.7-0.2c-0.9-0.1-1.5-0.9-1.3-1.8c0.1-0.9,0.9-1.5,1.8-1.3c0.5,0.1,1.1,0.2,1.6,0.2
		c0.9,0.1,1.5,0.9,1.3,1.8C617.7,759.7,617,760.3,616.3,760.3z M727.4,759.6c-0.8,0-1.4-0.5-1.6-1.3c-0.1-0.9,0.4-1.7,1.3-1.8
		c0.5-0.1,1.1-0.2,1.6-0.3c0.9-0.2,1.7,0.4,1.8,1.3c0.2,0.9-0.4,1.7-1.3,1.8c-0.5,0.1-1.1,0.2-1.7,0.3
		C727.6,759.6,727.5,759.6,727.4,759.6z M18.3,759.5c-0.6,0-1.1-0.3-1.4-0.8c-0.3-0.5-0.5-1-0.8-1.5c-0.4-0.8-0.1-1.7,0.7-2.1
		c0.8-0.4,1.7-0.1,2.1,0.7c0.3,0.5,0.5,1,0.8,1.5c0.4,0.8,0.1,1.7-0.6,2.1C18.8,759.5,18.6,759.5,18.3,759.5z M609.7,759.3
		c-0.1,0-0.2,0-0.2,0c-0.6-0.1-1.1-0.2-1.7-0.3c-0.9-0.1-1.4-1-1.3-1.8c0.1-0.9,0.9-1.4,1.8-1.3c0.5,0.1,1.1,0.2,1.6,0.3
		c0.9,0.1,1.5,0.9,1.3,1.8C611.1,758.8,610.4,759.3,609.7,759.3z M734,758.3c-0.7,0-1.4-0.5-1.6-1.3c-0.2-0.9,0.4-1.7,1.2-1.9
		c0.5-0.1,1.1-0.2,1.6-0.3c0.9-0.2,1.7,0.4,1.9,1.2c0.2,0.9-0.4,1.7-1.2,1.9c-0.5,0.1-1.1,0.2-1.6,0.3
		C734.2,758.3,734.1,758.3,734,758.3z M603.1,758.2c-0.1,0-0.2,0-0.3,0c-0.6-0.1-1.1-0.2-1.6-0.3c-0.9-0.2-1.4-1-1.3-1.8
		c0.2-0.9,1-1.4,1.8-1.3c0.5,0.1,1.1,0.2,1.6,0.3c0.9,0.1,1.4,1,1.3,1.8C604.5,757.7,603.8,758.2,603.1,758.2z M596.5,757.1
		c-0.1,0-0.2,0-0.3,0c-0.5-0.1-1.1-0.2-1.6-0.3c-0.9-0.2-1.4-1-1.3-1.9c0.2-0.9,1-1.4,1.9-1.3c0.5,0.1,1.1,0.2,1.6,0.3
		c0.9,0.2,1.4,1,1.3,1.8C597.9,756.5,597.3,757.1,596.5,757.1z M740.5,757c-0.7,0-1.4-0.5-1.5-1.2c-0.2-0.9,0.4-1.7,1.2-1.9
		c0.5-0.1,1.1-0.2,1.6-0.4c0.9-0.2,1.7,0.3,1.9,1.2c0.2,0.9-0.3,1.7-1.2,1.9c-0.5,0.1-1.1,0.2-1.6,0.4
		C740.8,757,740.7,757,740.5,757z M590,755.8c-0.1,0-0.2,0-0.3,0l-1.6-0.3c-0.9-0.2-1.4-1-1.2-1.9c0.2-0.9,1-1.4,1.9-1.2l1.6,0.3
		c0.9,0.2,1.4,1,1.2,1.9C591.4,755.3,590.7,755.8,590,755.8z M747,755.5c-0.7,0-1.4-0.5-1.5-1.2c-0.2-0.8,0.3-1.7,1.2-1.9
		c0.5-0.1,1.1-0.3,1.6-0.4c0.8-0.2,1.7,0.3,1.9,1.2c0.2,0.8-0.3,1.7-1.2,1.9c-0.5,0.1-1.1,0.3-1.6,0.4
		C747.3,755.5,747.2,755.5,747,755.5z M583.4,754.4c-0.1,0-0.2,0-0.3,0c-0.5-0.1-1.1-0.2-1.6-0.4c-0.9-0.2-1.4-1-1.2-1.9
		c0.2-0.9,1-1.4,1.9-1.2c0.5,0.1,1.1,0.2,1.6,0.4c0.9,0.2,1.4,1,1.2,1.9C584.8,753.9,584.2,754.4,583.4,754.4z M753.5,753.9
		c-0.7,0-1.3-0.5-1.5-1.2c-0.2-0.8,0.3-1.7,1.1-1.9c0.5-0.1,1.1-0.3,1.6-0.4c0.8-0.2,1.7,0.3,1.9,1.1c0.2,0.8-0.3,1.7-1.1,1.9
		c-0.5,0.1-1.1,0.3-1.6,0.4C753.8,753.9,753.6,753.9,753.5,753.9z M15.3,753.6c-0.6,0-1.2-0.3-1.4-0.9c-0.2-0.5-0.5-1-0.7-1.5
		c-0.4-0.8,0-1.7,0.8-2.1c0.8-0.4,1.7,0,2.1,0.8c0.2,0.5,0.5,1,0.7,1.5c0.4,0.8,0,1.7-0.7,2.1C15.8,753.5,15.5,753.6,15.3,753.6z
		 M576.9,753c-0.1,0-0.2,0-0.4,0c-0.5-0.1-1.1-0.3-1.6-0.4c-0.9-0.2-1.4-1-1.2-1.9c0.2-0.9,1-1.4,1.9-1.2c0.5,0.1,1.1,0.3,1.6,0.4
		c0.9,0.2,1.4,1,1.2,1.9C578.3,752.5,577.6,753,576.9,753z M759.9,752.1c-0.7,0-1.3-0.5-1.5-1.1c-0.2-0.8,0.2-1.7,1.1-2
		c0.5-0.2,1.1-0.3,1.6-0.5c0.8-0.2,1.7,0.2,2,1.1c0.2,0.8-0.2,1.7-1.1,2c-0.5,0.2-1.1,0.3-1.6,0.5
		C760.2,752.1,760.1,752.1,759.9,752.1z M570.4,751.4c-0.1,0-0.2,0-0.4,0l-1.6-0.4c-0.8-0.2-1.4-1.1-1.2-1.9
		c0.2-0.8,1.1-1.4,1.9-1.2l1.6,0.4c0.8,0.2,1.4,1.1,1.2,1.9C571.8,751,571.1,751.4,570.4,751.4z M766.3,750.2
		c-0.7,0-1.3-0.4-1.5-1.1c-0.3-0.8,0.2-1.7,1-2c0.5-0.2,1.1-0.3,1.6-0.5c0.8-0.3,1.7,0.2,2,1c0.3,0.8-0.2,1.7-1,2
		c-0.5,0.2-1.1,0.3-1.6,0.5C766.7,750.2,766.5,750.2,766.3,750.2z M564,749.8c-0.1,0-0.3,0-0.4-0.1l-1.6-0.4
		c-0.8-0.2-1.4-1.1-1.1-1.9c0.2-0.8,1.1-1.4,1.9-1.1l1.6,0.4c0.8,0.2,1.4,1.1,1.1,1.9C565.3,749.3,564.7,749.8,564,749.8z
		 M557.5,748.1c-0.1,0-0.3,0-0.4-0.1l-1.6-0.4c-0.8-0.2-1.3-1.1-1.1-1.9c0.2-0.8,1.1-1.3,1.9-1.1l1.6,0.4c0.8,0.2,1.3,1.1,1.1,1.9
		C558.8,747.7,558.2,748.1,557.5,748.1z M772.7,748.1c-0.7,0-1.3-0.4-1.5-1.1c-0.3-0.8,0.2-1.7,1-2c0.5-0.2,1-0.4,1.6-0.5
		c0.8-0.3,1.7,0.2,2,1c0.3,0.8-0.2,1.7-1,2c-0.5,0.2-1.1,0.4-1.6,0.5C773,748.1,772.9,748.1,772.7,748.1z M12.5,747.5
		c-0.6,0-1.2-0.4-1.5-1c-0.2-0.5-0.4-1-0.7-1.6c-0.3-0.8,0.1-1.7,0.9-2.1c0.8-0.3,1.7,0.1,2.1,0.9c0.2,0.5,0.4,1,0.6,1.5
		c0.3,0.8,0,1.7-0.8,2.1C13,747.5,12.7,747.5,12.5,747.5z M551.1,746.3c-0.1,0-0.3,0-0.4-0.1l-1.6-0.5c-0.8-0.2-1.3-1.1-1.1-2
		c0.2-0.8,1.1-1.3,2-1.1l1.6,0.5c0.8,0.2,1.3,1.1,1.1,2C552.4,745.9,551.8,746.3,551.1,746.3z M779,745.9c-0.6,0-1.3-0.4-1.5-1
		c-0.3-0.8,0.1-1.7,0.9-2c0.5-0.2,1-0.4,1.6-0.6c0.8-0.3,1.7,0.1,2,0.9c0.3,0.8-0.1,1.7-0.9,2c-0.5,0.2-1.1,0.4-1.6,0.6
		C779.4,745.9,779.2,745.9,779,745.9z M544.7,744.5c-0.1,0-0.3,0-0.4-0.1l-1.6-0.5c-0.8-0.2-1.3-1.1-1.1-2c0.2-0.8,1.1-1.3,2-1.1
		l1.6,0.5c0.8,0.2,1.3,1.1,1.1,2C546,744,545.3,744.5,544.7,744.5z M785.2,743.6c-0.6,0-1.2-0.4-1.5-1c-0.3-0.8,0.1-1.7,0.9-2
		c0.5-0.2,1-0.4,1.5-0.6c0.8-0.3,1.7,0.1,2.1,0.9c0.3,0.8-0.1,1.7-0.9,2.1c-0.5,0.2-1,0.4-1.6,0.6
		C785.6,743.5,785.4,743.6,785.2,743.6z M538.3,742.6c-0.2,0-0.3,0-0.5-0.1l-1.6-0.5c-0.8-0.3-1.3-1.1-1-2c0.3-0.8,1.1-1.3,2-1
		l1.6,0.5c0.8,0.3,1.3,1.1,1,2C539.6,742.1,538.9,742.6,538.3,742.6z M10.1,741.3c-0.6,0-1.2-0.4-1.5-1c-0.2-0.5-0.4-1.1-0.6-1.6
		c-0.3-0.8,0.1-1.7,1-2c0.8-0.3,1.7,0.1,2,1c0.2,0.5,0.4,1,0.6,1.5c0.3,0.8-0.1,1.7-0.9,2C10.4,741.3,10.2,741.3,10.1,741.3z
		 M791.4,741.1c-0.6,0-1.2-0.4-1.5-1c-0.3-0.8,0-1.7,0.9-2.1c0.5-0.2,1-0.4,1.5-0.6c0.8-0.3,1.7,0,2.1,0.8c0.3,0.8,0,1.7-0.8,2.1
		c-0.5,0.2-1,0.4-1.5,0.7C791.8,741,791.6,741.1,791.4,741.1z M531.9,740.6c-0.2,0-0.3,0-0.5-0.1l-1.6-0.5c-0.8-0.3-1.3-1.2-1-2
		s1.2-1.3,2-1l1.6,0.5c0.8,0.3,1.3,1.2,1,2C533.2,740.1,532.6,740.6,531.9,740.6z M525.6,738.5c-0.2,0-0.3,0-0.5-0.1l-1.6-0.5
		c-0.8-0.3-1.3-1.2-1-2c0.3-0.8,1.2-1.3,2-1l1.6,0.5c0.8,0.3,1.3,1.2,1,2C526.8,738.1,526.2,738.5,525.6,738.5z M797.6,738.4
		c-0.6,0-1.2-0.3-1.4-0.9c-0.4-0.8,0-1.7,0.8-2.1c0.5-0.2,1-0.5,1.5-0.7c0.8-0.4,1.7,0,2.1,0.8c0.4,0.8,0,1.7-0.8,2.1
		c-0.5,0.2-1,0.5-1.5,0.7C798,738.4,797.8,738.4,797.6,738.4z M519.2,736.4c-0.2,0-0.3,0-0.5-0.1l-1.6-0.5c-0.8-0.3-1.3-1.2-1-2
		c0.3-0.8,1.2-1.3,2-1l1.6,0.5c0.8,0.3,1.3,1.2,1,2C520.5,736,519.9,736.4,519.2,736.4z M803.6,735.6c-0.6,0-1.2-0.3-1.4-0.9
		c-0.4-0.8,0-1.7,0.8-2.1c0.5-0.2,1-0.5,1.5-0.7c0.8-0.4,1.7,0,2.1,0.7c0.4,0.8,0,1.7-0.7,2.1c-0.5,0.2-1,0.5-1.5,0.7
		C804.1,735.6,803.9,735.6,803.6,735.6z M7.9,735c-0.7,0-1.3-0.4-1.5-1.1c-0.2-0.5-0.3-1.1-0.5-1.6c-0.3-0.8,0.2-1.7,1-2
		c0.8-0.3,1.7,0.2,2,1c0.2,0.5,0.3,1.1,0.5,1.6c0.3,0.8-0.2,1.7-1,2C8.2,735,8,735,7.9,735z M512.9,734.2c-0.2,0-0.4,0-0.5-0.1
		l-1.6-0.6c-0.8-0.3-1.3-1.2-1-2c0.3-0.8,1.2-1.3,2-1l1.6,0.6c0.8,0.3,1.3,1.2,1,2C514.2,733.8,513.6,734.2,512.9,734.2z
		 M809.6,732.7c-0.6,0-1.1-0.3-1.4-0.9c-0.4-0.8-0.1-1.7,0.7-2.1c0.5-0.2,1-0.5,1.5-0.8c0.8-0.4,1.7-0.1,2.1,0.7
		c0.4,0.8,0.1,1.7-0.7,2.1c-0.5,0.3-1,0.5-1.5,0.8C810.1,732.6,809.9,732.7,809.6,732.7z M506.7,731.9c-0.2,0-0.4,0-0.5-0.1
		l-1.6-0.6c-0.8-0.3-1.2-1.2-0.9-2c0.3-0.8,1.2-1.2,2-0.9l1.6,0.6c0.8,0.3,1.2,1.2,0.9,2C507.9,731.5,507.3,731.9,506.7,731.9z
		 M500.4,729.6c-0.2,0-0.4,0-0.6-0.1l-1.6-0.6c-0.8-0.3-1.2-1.2-0.9-2c0.3-0.8,1.2-1.2,2-0.9l1.6,0.6c0.8,0.3,1.2,1.2,0.9,2
		C501.6,729.2,501,729.6,500.4,729.6z M815.5,729.6c-0.6,0-1.1-0.3-1.4-0.8c-0.4-0.8-0.1-1.7,0.6-2.1c0.5-0.3,1-0.5,1.5-0.8
		c0.8-0.4,1.7-0.1,2.1,0.6c0.4,0.8,0.1,1.7-0.6,2.1c-0.5,0.3-1,0.5-1.5,0.8C816,729.5,815.8,729.6,815.5,729.6z M6,728.6
		c-0.7,0-1.3-0.5-1.5-1.2c-0.1-0.5-0.3-1.1-0.4-1.6c-0.2-0.8,0.3-1.7,1.1-1.9c0.8-0.2,1.7,0.3,1.9,1.1c0.1,0.5,0.3,1.1,0.4,1.6
		c0.2,0.8-0.3,1.7-1.1,1.9C6.3,728.6,6.1,728.6,6,728.6z M494.2,727.3c-0.2,0-0.4,0-0.6-0.1l-1.6-0.6c-0.8-0.3-1.2-1.2-0.9-2
		c0.3-0.8,1.2-1.2,2-0.9l1.6,0.6c0.8,0.3,1.2,1.2,0.9,2C495.4,726.9,494.8,727.3,494.2,727.3z M821.4,726.4c-0.5,0-1.1-0.3-1.4-0.8
		c-0.4-0.8-0.2-1.7,0.6-2.2c0.5-0.3,1-0.6,1.4-0.8c0.8-0.4,1.7-0.2,2.2,0.6c0.4,0.8,0.2,1.7-0.6,2.2c-0.5,0.3-1,0.6-1.5,0.8
		C821.9,726.3,821.6,726.4,821.4,726.4z M487.9,724.9c-0.2,0-0.4,0-0.6-0.1l-1.6-0.6c-0.8-0.3-1.2-1.2-0.9-2.1
		c0.3-0.8,1.2-1.2,2.1-0.9l1.5,0.6c0.8,0.3,1.2,1.2,0.9,2.1C489.2,724.5,488.6,724.9,487.9,724.9z M827.1,723
		c-0.5,0-1.1-0.3-1.4-0.8c-0.5-0.7-0.2-1.7,0.5-2.2c0.5-0.3,0.9-0.6,1.4-0.9c0.7-0.5,1.7-0.2,2.2,0.5c0.5,0.7,0.2,1.7-0.5,2.2
		c-0.5,0.3-1,0.6-1.4,0.9C827.7,722.9,827.4,723,827.1,723z M481.7,722.4c-0.2,0-0.4,0-0.6-0.1l-1.5-0.6c-0.8-0.3-1.2-1.3-0.9-2.1
		c0.3-0.8,1.2-1.2,2.1-0.9l1.5,0.6c0.8,0.3,1.2,1.2,0.9,2.1C483,722,482.4,722.4,481.7,722.4z M4.4,722.1c-0.7,0-1.4-0.5-1.5-1.3
		c-0.1-0.5-0.2-1.1-0.3-1.7c-0.2-0.9,0.4-1.7,1.2-1.9c0.9-0.2,1.7,0.4,1.9,1.2c0.1,0.5,0.2,1.1,0.3,1.6c0.2,0.9-0.4,1.7-1.2,1.9
		C4.7,722.1,4.6,722.1,4.4,722.1z M475.6,719.9c-0.2,0-0.4,0-0.6-0.1l-1.5-0.6c-0.8-0.3-1.2-1.3-0.9-2.1c0.3-0.8,1.3-1.2,2.1-0.9
		l1.5,0.6c0.8,0.3,1.2,1.3,0.9,2.1C476.8,719.5,476.2,719.9,475.6,719.9z M832.8,719.4c-0.5,0-1-0.3-1.3-0.7
		c-0.5-0.7-0.3-1.7,0.5-2.2c0.5-0.3,0.9-0.6,1.4-0.9c0.7-0.5,1.7-0.3,2.2,0.5c0.5,0.7,0.3,1.7-0.5,2.2c-0.5,0.3-0.9,0.6-1.4,0.9
		C833.4,719.4,833.1,719.4,832.8,719.4z M469.4,717.3c-0.2,0-0.4,0-0.6-0.1l-1.5-0.6c-0.8-0.3-1.2-1.3-0.8-2.1
		c0.3-0.8,1.3-1.2,2.1-0.8l1.5,0.6c0.8,0.3,1.2,1.3,0.8,2.1C470.6,716.9,470,717.3,469.4,717.3z M838.3,715.7c-0.5,0-1-0.2-1.3-0.7
		c-0.5-0.7-0.3-1.7,0.4-2.2c0.5-0.3,0.9-0.6,1.4-0.9c0.7-0.5,1.7-0.3,2.2,0.4c0.5,0.7,0.3,1.7-0.4,2.2c-0.5,0.3-0.9,0.6-1.4,1
		C839,715.7,838.6,715.7,838.3,715.7z M3.2,715.6c-0.8,0-1.4-0.6-1.6-1.3c-0.1-0.6-0.2-1.1-0.3-1.7c-0.1-0.9,0.5-1.7,1.3-1.8
		c0.9-0.1,1.7,0.5,1.8,1.3c0.1,0.5,0.2,1.1,0.3,1.6c0.1,0.9-0.4,1.7-1.3,1.8C3.4,715.6,3.3,715.6,3.2,715.6z M463.3,714.7
		c-0.2,0-0.4,0-0.6-0.1l-1.5-0.7c-0.8-0.3-1.2-1.3-0.8-2.1c0.3-0.8,1.3-1.2,2.1-0.8l1.5,0.7c0.8,0.3,1.2,1.3,0.8,2.1
		C464.5,714.3,463.9,714.7,463.3,714.7z M457.2,712c-0.2,0-0.4,0-0.6-0.1l-1.5-0.7c-0.8-0.4-1.2-1.3-0.8-2.1
		c0.4-0.8,1.3-1.2,2.1-0.8l1.5,0.7c0.8,0.4,1.2,1.3,0.8,2.1C458.4,711.7,457.8,712,457.2,712z M843.8,711.9c-0.5,0-1-0.2-1.3-0.7
		c-0.5-0.7-0.4-1.7,0.4-2.2c0.4-0.3,0.9-0.7,1.3-1c0.7-0.5,1.7-0.4,2.2,0.3c0.5,0.7,0.4,1.7-0.3,2.2c-0.5,0.3-0.9,0.7-1.4,1
		C844.4,711.8,844.1,711.9,843.8,711.9z M451.1,709.4c-0.2,0-0.4,0-0.6-0.1l-1.5-0.7c-0.8-0.4-1.2-1.3-0.8-2.1
		c0.4-0.8,1.3-1.2,2.1-0.8l1.5,0.7c0.8,0.4,1.2,1.3,0.8,2.1C452.3,709,451.7,709.4,451.1,709.4z M2.3,709c-0.8,0-1.5-0.6-1.6-1.4
		c-0.1-0.6-0.1-1.1-0.2-1.7c-0.1-0.9,0.6-1.6,1.4-1.7c0.9-0.1,1.6,0.6,1.7,1.4c0.1,0.5,0.1,1.1,0.2,1.6c0.1,0.9-0.5,1.6-1.4,1.7
		C2.4,709,2.4,709,2.3,709z M849.1,707.9c-0.5,0-0.9-0.2-1.3-0.6c-0.5-0.7-0.4-1.7,0.3-2.2c0.4-0.3,0.9-0.7,1.3-1
		c0.7-0.5,1.7-0.4,2.2,0.3c0.5,0.7,0.4,1.7-0.3,2.2c-0.4,0.3-0.9,0.7-1.3,1C849.8,707.8,849.5,707.9,849.1,707.9z M445,706.6
		c-0.2,0-0.4,0-0.7-0.1l-1.5-0.7c-0.8-0.4-1.1-1.3-0.8-2.1c0.4-0.8,1.3-1.1,2.1-0.8l1.5,0.7c0.8,0.4,1.1,1.3,0.8,2.1
		C446.2,706.3,445.6,706.6,445,706.6z M438.9,703.8c-0.2,0-0.4,0-0.7-0.1l-1.5-0.7c-0.8-0.4-1.1-1.3-0.8-2.1
		c0.4-0.8,1.3-1.1,2.1-0.8l1.5,0.7c0.8,0.4,1.1,1.3,0.8,2.1C440.1,703.5,439.5,703.8,438.9,703.8z M854.4,703.8
		c-0.5,0-0.9-0.2-1.2-0.6c-0.6-0.7-0.5-1.7,0.2-2.2c0.4-0.3,0.9-0.7,1.3-1.1c0.7-0.6,1.7-0.5,2.2,0.2c0.6,0.7,0.5,1.7-0.2,2.2
		c-0.4,0.4-0.9,0.7-1.3,1.1C855.1,703.7,854.7,703.8,854.4,703.8z M1.8,702.3c-0.8,0-1.5-0.7-1.6-1.5c0-0.6-0.1-1.1-0.1-1.7
		c0-0.9,0.6-1.6,1.5-1.6c0.9,0,1.6,0.6,1.6,1.5c0,0.5,0.1,1.1,0.1,1.6C3.4,701.5,2.7,702.3,1.8,702.3C1.8,702.3,1.8,702.3,1.8,702.3
		z M432.9,701c-0.2,0-0.5,0-0.7-0.1l-1.5-0.7c-0.8-0.4-1.1-1.3-0.8-2.1c0.4-0.8,1.3-1.1,2.1-0.8l1.5,0.7c0.8,0.4,1.1,1.3,0.8,2.1
		C434,700.7,433.5,701,432.9,701z M859.5,699.5c-0.4,0-0.9-0.2-1.2-0.5c-0.6-0.7-0.5-1.7,0.2-2.2c0.4-0.4,0.8-0.7,1.2-1.1
		c0.7-0.6,1.7-0.5,2.2,0.1c0.6,0.7,0.5,1.7-0.1,2.2c-0.4,0.4-0.8,0.7-1.3,1.1C860.2,699.4,859.8,699.5,859.5,699.5z M426.8,698.2
		c-0.2,0-0.5,0-0.7-0.2l-1.5-0.7c-0.8-0.4-1.1-1.3-0.8-2.1c0.4-0.8,1.3-1.1,2.1-0.8l1.5,0.7c0.8,0.4,1.1,1.3,0.8,2.1
		C428,697.9,427.4,698.2,426.8,698.2z M1.6,695.7c-0.9,0-1.6-0.7-1.6-1.6v0c0-0.5,0-1.1,0-1.6c0-0.9,0.7-1.6,1.6-1.6
		c0.9,0,1.6,0.7,1.6,1.6c0,0.5,0,1.1,0,1.6C3.2,694.9,2.5,695.7,1.6,695.7z M420.8,695.3c-0.2,0-0.5,0-0.7-0.2l-1.5-0.7
		c-0.8-0.4-1.1-1.3-0.7-2.1c0.4-0.8,1.3-1.1,2.1-0.7l1.5,0.7c0.8,0.4,1.1,1.3,0.7,2.1C422,695,421.4,695.3,420.8,695.3z M864.4,695
		c-0.4,0-0.9-0.2-1.2-0.5c-0.6-0.6-0.5-1.6,0.1-2.2c0.4-0.4,0.8-0.7,1.2-1.1c0.6-0.6,1.6-0.6,2.2,0.1c0.6,0.6,0.6,1.6-0.1,2.2
		c-0.4,0.4-0.8,0.8-1.2,1.1C865.2,694.9,864.8,695,864.4,695z M414.8,692.5c-0.2,0-0.5-0.1-0.7-0.2l-1.5-0.7
		c-0.8-0.4-1.1-1.3-0.7-2.1c0.4-0.8,1.3-1.1,2.1-0.7l1.5,0.7c0.8,0.4,1.1,1.3,0.7,2.1C416,692.1,415.4,692.5,414.8,692.5z
		 M869.3,690.5c-0.4,0-0.8-0.2-1.1-0.5c-0.6-0.6-0.6-1.6,0-2.2c0.4-0.4,0.8-0.8,1.2-1.2c0.6-0.6,1.6-0.6,2.2,0
		c0.6,0.6,0.6,1.6,0,2.2c-0.4,0.4-0.8,0.8-1.2,1.2C870.1,690.3,869.7,690.5,869.3,690.5z M408.8,689.5c-0.2,0-0.5-0.1-0.7-0.2
		l-1.5-0.7c-0.8-0.4-1.1-1.3-0.7-2.1c0.4-0.8,1.3-1.1,2.1-0.7l1.5,0.7c0.8,0.4,1.1,1.3,0.7,2.1C410,689.2,409.4,689.5,408.8,689.5z
		 M1.8,689C1.7,689,1.7,689,1.8,689c-1-0.1-1.6-0.8-1.6-1.7c0-0.6,0.1-1.1,0.1-1.7c0.1-0.9,0.8-1.5,1.7-1.5c0.9,0.1,1.5,0.8,1.5,1.7
		c0,0.5-0.1,1.1-0.1,1.6C3.3,688.4,2.6,689,1.8,689z M402.8,686.6c-0.2,0-0.5-0.1-0.7-0.2l-1.5-0.7c-0.8-0.4-1.1-1.3-0.7-2.1
		c0.4-0.8,1.3-1.1,2.1-0.7l1.5,0.7c0.8,0.4,1.1,1.3,0.7,2.1C404,686.3,403.4,686.6,402.8,686.6z M874,685.7c-0.4,0-0.8-0.1-1.1-0.4
		c-0.6-0.6-0.6-1.6,0-2.2c0.4-0.4,0.8-0.8,1.1-1.2c0.6-0.6,1.6-0.7,2.2-0.1c0.6,0.6,0.7,1.6,0.1,2.2c-0.4,0.4-0.8,0.8-1.2,1.2
		C874.8,685.6,874.4,685.7,874,685.7z M396.8,683.6c-0.2,0-0.5-0.1-0.7-0.2l-1.5-0.7c-0.8-0.4-1.1-1.3-0.7-2.1
		c0.4-0.8,1.3-1.1,2.1-0.7l1.5,0.7c0.8,0.4,1.1,1.3,0.7,2.1C398,683.3,397.4,683.6,396.8,683.6z M2.3,682.4c-0.1,0-0.1,0-0.2,0
		c-0.9-0.1-1.5-0.9-1.4-1.7c0.1-0.6,0.1-1.1,0.2-1.7c0.1-0.9,0.9-1.5,1.8-1.4c0.9,0.1,1.5,0.9,1.4,1.8c-0.1,0.5-0.1,1.1-0.2,1.6
		C3.8,681.8,3.1,682.4,2.3,682.4z M878.5,680.9c-0.4,0-0.8-0.1-1.1-0.4c-0.6-0.6-0.7-1.6-0.1-2.2c0.4-0.4,0.7-0.8,1.1-1.2
		c0.6-0.7,1.6-0.7,2.2-0.1c0.7,0.6,0.7,1.6,0.1,2.2c-0.4,0.4-0.7,0.8-1.1,1.2C879.4,680.7,878.9,680.9,878.5,680.9z M390.9,680.7
		c-0.2,0-0.5-0.1-0.7-0.2l-1.5-0.7c-0.8-0.4-1.1-1.3-0.7-2.1c0.4-0.8,1.3-1.1,2.1-0.7l1.5,0.7c0.8,0.4,1.1,1.3,0.7,2.1
		C392,680.3,391.5,680.7,390.9,680.7z M384.9,677.7c-0.2,0-0.5-0.1-0.7-0.2l-1.5-0.8c-0.8-0.4-1.1-1.3-0.7-2.1
		c0.4-0.8,1.3-1.1,2.1-0.7l1.5,0.8c0.8,0.4,1.1,1.3,0.7,2.1C386,677.4,385.5,677.7,384.9,677.7z M882.9,675.9c-0.4,0-0.7-0.1-1-0.4
		c-0.7-0.6-0.7-1.6-0.2-2.2c0.4-0.4,0.7-0.8,1.1-1.3c0.6-0.7,1.6-0.8,2.2-0.2c0.7,0.6,0.8,1.6,0.2,2.2c-0.4,0.4-0.7,0.9-1.1,1.3
		C883.8,675.7,883.3,675.9,882.9,675.9z M3.2,675.8c-0.1,0-0.2,0-0.3,0c-0.9-0.1-1.4-1-1.3-1.8c0.1-0.6,0.2-1.1,0.3-1.7
		c0.2-0.9,1-1.4,1.8-1.3c0.9,0.2,1.4,1,1.3,1.8c-0.1,0.5-0.2,1.1-0.3,1.6C4.6,675.2,4,675.8,3.2,675.8z M379,674.7
		c-0.2,0-0.5-0.1-0.7-0.2l-1.5-0.8c-0.8-0.4-1.1-1.3-0.7-2.1c0.4-0.8,1.3-1.1,2.1-0.7l1.5,0.8c0.8,0.4,1.1,1.3,0.7,2.1
		C380.1,674.4,379.5,674.7,379,674.7z M373,671.7c-0.2,0-0.5-0.1-0.7-0.2l-1.5-0.8c-0.8-0.4-1.1-1.3-0.7-2.1
		c0.4-0.8,1.3-1.1,2.1-0.7l1.5,0.8c0.8,0.4,1.1,1.3,0.7,2.1C374.1,671.3,373.6,671.7,373,671.7z M887.1,670.7c-0.3,0-0.7-0.1-1-0.3
		c-0.7-0.5-0.8-1.5-0.3-2.2c0.3-0.4,0.6-0.7,0.8-1.1l0.2-0.2l2.5,1.9l-0.2,0.2c-0.3,0.4-0.6,0.7-0.9,1.1
		C888.1,670.5,887.6,670.7,887.1,670.7z M4.5,669.2c-0.1,0-0.2,0-0.3,0c-0.9-0.2-1.4-1-1.2-1.9c0.1-0.5,0.2-1.1,0.4-1.6
		c0.2-0.9,1-1.4,1.9-1.2c0.9,0.2,1.4,1,1.2,1.9c-0.1,0.5-0.2,1.1-0.4,1.6C5.8,668.7,5.2,669.2,4.5,669.2z M367.1,668.6
		c-0.2,0-0.5-0.1-0.7-0.2l-1.5-0.8c-0.8-0.4-1.1-1.4-0.7-2.1c0.4-0.8,1.3-1.1,2.1-0.7l1.5,0.8c0.8,0.4,1.1,1.3,0.7,2.1
		C368.2,668.3,367.6,668.6,367.1,668.6z M361.1,665.6c-0.2,0-0.5-0.1-0.7-0.2l-1.5-0.8c-0.8-0.4-1.1-1.4-0.7-2.1
		c0.4-0.8,1.4-1.1,2.1-0.7l1.5,0.8c0.8,0.4,1.1,1.4,0.7,2.1C362.3,665.3,361.7,665.6,361.1,665.6z M891.2,665.4
		c-0.3,0-0.6-0.1-0.9-0.3c-0.7-0.5-0.9-1.5-0.3-2.2c0.3-0.4,0.6-0.9,1-1.3c0.5-0.7,1.5-0.9,2.2-0.4c0.7,0.5,0.9,1.5,0.4,2.2
		c-0.3,0.5-0.7,0.9-1,1.4C892.2,665.2,891.7,665.4,891.2,665.4z M6,662.7c-0.1,0-0.3,0-0.4-0.1c-0.8-0.2-1.3-1.1-1.1-1.9
		c0.1-0.5,0.3-1.1,0.5-1.6c0.2-0.8,1.1-1.3,2-1.1c0.8,0.2,1.3,1.1,1.1,2c-0.2,0.5-0.3,1.1-0.4,1.6C7.4,662.3,6.7,662.7,6,662.7z
		 M355.2,662.5c-0.2,0-0.5-0.1-0.7-0.2l-1.5-0.8c-0.8-0.4-1.1-1.4-0.7-2.1c0.4-0.8,1.4-1.1,2.1-0.7l1.5,0.8c0.8,0.4,1.1,1.4,0.7,2.1
		C356.3,662.2,355.8,662.5,355.2,662.5z M895,660c-0.3,0-0.6-0.1-0.9-0.3c-0.7-0.5-0.9-1.5-0.4-2.2c0.3-0.5,0.6-0.9,0.9-1.4
		c0.5-0.7,1.5-0.9,2.2-0.4c0.7,0.5,0.9,1.5,0.4,2.2c-0.3,0.5-0.6,0.9-0.9,1.4C896,659.7,895.5,660,895,660z M349.3,659.5
		c-0.2,0-0.5-0.1-0.7-0.2l-1.5-0.8c-0.8-0.4-1.1-1.4-0.7-2.1c0.4-0.8,1.4-1.1,2.1-0.7l1.5,0.8c0.8,0.4,1.1,1.4,0.7,2.1
		C350.4,659.2,349.8,659.5,349.3,659.5z M343.3,656.5c-0.2,0-0.5-0.1-0.7-0.2l-1.5-0.8c-0.8-0.4-1.1-1.4-0.7-2.1
		c0.4-0.8,1.4-1.1,2.1-0.7l1.5,0.8c0.8,0.4,1.1,1.4,0.7,2.1C344.5,656.1,343.9,656.5,343.3,656.5z M8,656.3c-0.2,0-0.3,0-0.5-0.1
		c-0.8-0.3-1.3-1.2-1-2c0.2-0.5,0.4-1.1,0.5-1.6c0.3-0.8,1.2-1.3,2-1c0.8,0.3,1.3,1.2,1,2c-0.2,0.5-0.4,1-0.5,1.6
		C9.3,655.9,8.6,656.3,8,656.3z M898.7,654.4c-0.3,0-0.6-0.1-0.8-0.2c-0.7-0.5-1-1.4-0.5-2.2c0.3-0.5,0.6-0.9,0.9-1.4
		c0.5-0.7,1.4-1,2.2-0.5c0.7,0.5,1,1.4,0.5,2.2c-0.3,0.5-0.6,1-0.9,1.4C899.7,654.1,899.2,654.4,898.7,654.4z M337.4,653.4
		c-0.2,0-0.5-0.1-0.7-0.2l-1.5-0.8c-0.8-0.4-1.1-1.4-0.7-2.1c0.4-0.8,1.4-1.1,2.1-0.7l1.5,0.8c0.8,0.4,1.1,1.4,0.7,2.1
		C338.5,653.1,338,653.4,337.4,653.4z M331.5,650.4c-0.2,0-0.5-0.1-0.7-0.2l-1.5-0.8c-0.8-0.4-1.1-1.4-0.7-2.1
		c0.4-0.8,1.4-1.1,2.1-0.7l1.5,0.8c0.8,0.4,1.1,1.4,0.7,2.1C332.6,650.1,332,650.4,331.5,650.4z M10.2,650.1c-0.2,0-0.4,0-0.6-0.1
		c-0.8-0.3-1.2-1.2-0.9-2c0.2-0.5,0.4-1,0.6-1.6c0.3-0.8,1.2-1.2,2.1-0.9c0.8,0.3,1.2,1.2,0.9,2.1c-0.2,0.5-0.4,1-0.6,1.5
		C11.5,649.7,10.9,650.1,10.2,650.1z M902.2,648.7c-0.3,0-0.6-0.1-0.8-0.2c-0.7-0.4-1-1.4-0.5-2.2c0.3-0.5,0.6-0.9,0.8-1.4
		c0.4-0.8,1.4-1,2.2-0.6c0.8,0.4,1,1.4,0.6,2.2c-0.3,0.5-0.6,1-0.9,1.4C903.3,648.4,902.7,648.7,902.2,648.7z M325.5,647.3
		c-0.2,0-0.5-0.1-0.7-0.2l-1.5-0.8c-0.8-0.4-1.1-1.4-0.7-2.1c0.4-0.8,1.3-1.1,2.1-0.7l1.5,0.8c0.8,0.4,1.1,1.4,0.7,2.1
		C326.7,647,326.1,647.3,325.5,647.3z M319.6,644.3c-0.2,0-0.5-0.1-0.7-0.2l-1.5-0.8c-0.8-0.4-1.1-1.3-0.7-2.1
		c0.4-0.8,1.3-1.1,2.1-0.7l1.5,0.8c0.8,0.4,1.1,1.3,0.7,2.1C320.7,644,320.2,644.3,319.6,644.3z M12.8,643.9c-0.2,0-0.4,0-0.6-0.1
		c-0.8-0.4-1.2-1.3-0.8-2.1c0.2-0.5,0.5-1,0.7-1.5c0.4-0.8,1.3-1.1,2.1-0.8c0.8,0.4,1.1,1.3,0.8,2.1c-0.2,0.5-0.5,1-0.7,1.5
		C14,643.6,13.4,643.9,12.8,643.9z M905.5,642.9c-0.3,0-0.5-0.1-0.8-0.2c-0.8-0.4-1-1.4-0.6-2.2c0.3-0.5,0.5-1,0.8-1.4
		c0.4-0.8,1.4-1,2.1-0.6c0.8,0.4,1,1.4,0.6,2.1c-0.3,0.5-0.5,1-0.8,1.5C906.6,642.6,906.1,642.9,905.5,642.9z M313.6,641.3
		c-0.2,0-0.5-0.1-0.7-0.2l-1.5-0.8c-0.8-0.4-1.1-1.3-0.7-2.1c0.4-0.8,1.3-1.1,2.1-0.7l1.5,0.8c0.8,0.4,1.1,1.3,0.7,2.1
		C314.8,641,314.2,641.3,313.6,641.3z M307.7,638.3c-0.2,0-0.5-0.1-0.7-0.2l-1.5-0.7c-0.8-0.4-1.1-1.3-0.7-2.1
		c0.4-0.8,1.3-1.1,2.1-0.7l1.5,0.8c0.8,0.4,1.1,1.3,0.7,2.1C308.8,638,308.3,638.3,307.7,638.3z M15.7,637.9c-0.2,0-0.5-0.1-0.7-0.2
		c-0.8-0.4-1.1-1.4-0.7-2.1c0.3-0.5,0.5-1,0.8-1.5c0.4-0.8,1.4-1.1,2.1-0.7c0.8,0.4,1.1,1.4,0.7,2.1c-0.3,0.5-0.5,1-0.8,1.5
		C16.8,637.6,16.3,637.9,15.7,637.9z M908.7,637.1c-0.2,0-0.5-0.1-0.7-0.2c-0.8-0.4-1.1-1.4-0.7-2.1c0.3-0.5,0.5-1,0.8-1.5
		c0.4-0.8,1.4-1.1,2.1-0.7c0.8,0.4,1.1,1.4,0.7,2.1c-0.3,0.5-0.5,1-0.8,1.5C909.9,636.8,909.3,637.1,908.7,637.1z M301.7,635.3
		c-0.2,0-0.5-0.1-0.7-0.2l-1.5-0.7c-0.8-0.4-1.1-1.3-0.7-2.1c0.4-0.8,1.3-1.1,2.1-0.7l1.5,0.7c0.8,0.4,1.1,1.3,0.7,2.1
		C302.9,635,302.3,635.3,301.7,635.3z M295.8,632.3c-0.2,0-0.5-0.1-0.7-0.2l-1.5-0.7c-0.8-0.4-1.1-1.3-0.7-2.1
		c0.4-0.8,1.3-1.1,2.1-0.7l1.5,0.7c0.8,0.4,1.1,1.3,0.7,2.1C296.9,632,296.3,632.3,295.8,632.3z M18.9,632.1c-0.3,0-0.5-0.1-0.8-0.2
		c-0.8-0.4-1-1.4-0.6-2.2c0.3-0.5,0.6-1,0.9-1.5c0.5-0.7,1.4-1,2.2-0.5c0.7,0.5,1,1.4,0.5,2.2c-0.3,0.5-0.6,0.9-0.8,1.4
		C20,631.8,19.5,632.1,18.9,632.1z M911.8,631.1c-0.2,0-0.5-0.1-0.7-0.2c-0.8-0.4-1.1-1.3-0.7-2.1c0.2-0.5,0.5-1,0.7-1.5
		c0.4-0.8,1.3-1.1,2.1-0.7c0.8,0.4,1.1,1.3,0.7,2.1c-0.2,0.5-0.5,1-0.7,1.5C912.9,630.8,912.3,631.1,911.8,631.1z M289.8,629.3
		c-0.2,0-0.5-0.1-0.7-0.2l-1.5-0.7c-0.8-0.4-1.1-1.3-0.7-2.1c0.4-0.8,1.3-1.1,2.1-0.7l1.5,0.7c0.8,0.4,1.1,1.3,0.7,2.1
		C290.9,629,290.4,629.3,289.8,629.3z M22.4,626.4c-0.3,0-0.6-0.1-0.9-0.3c-0.7-0.5-0.9-1.5-0.4-2.2c0.3-0.5,0.6-0.9,0.9-1.4
		c0.5-0.7,1.5-0.9,2.2-0.4c0.7,0.5,0.9,1.5,0.4,2.2c-0.3,0.5-0.6,0.9-0.9,1.4C23.5,626.2,23,626.4,22.4,626.4z M283.8,626.4
		c-0.2,0-0.5-0.1-0.7-0.2l-1.5-0.7c-0.8-0.4-1.1-1.3-0.7-2.1c0.4-0.8,1.3-1.1,2.1-0.7l1.5,0.7c0.8,0.4,1.1,1.3,0.7,2.1
		C285,626.1,284.4,626.4,283.8,626.4z M914.6,625.1c-0.2,0-0.4,0-0.6-0.1c-0.8-0.4-1.2-1.3-0.8-2.1c0.2-0.5,0.4-1,0.7-1.5
		c0.4-0.8,1.3-1.2,2.1-0.8c0.8,0.4,1.2,1.3,0.8,2.1c-0.2,0.5-0.5,1-0.7,1.5C915.8,624.7,915.2,625.1,914.6,625.1z M277.8,623.5
		c-0.2,0-0.5-0.1-0.7-0.2l-1.5-0.7c-0.8-0.4-1.1-1.3-0.7-2.1c0.4-0.8,1.3-1.1,2.1-0.7l1.5,0.7c0.8,0.4,1.1,1.3,0.7,2.1
		C279,623.1,278.4,623.5,277.8,623.5z M26.3,620.9c-0.3,0-0.7-0.1-0.9-0.3c-0.7-0.5-0.8-1.5-0.3-2.2c0.3-0.5,0.7-0.9,1-1.4
		c0.5-0.7,1.5-0.8,2.2-0.3c0.7,0.5,0.8,1.5,0.3,2.2c-0.3,0.4-0.7,0.9-1,1.3C27.2,620.7,26.7,620.9,26.3,620.9z M271.8,620.6
		c-0.2,0-0.5-0.1-0.7-0.2l-1.5-0.7c-0.8-0.4-1.1-1.3-0.7-2.1c0.4-0.8,1.3-1.1,2.1-0.7l1.5,0.7c0.8,0.4,1.1,1.3,0.7,2.1
		C273,620.2,272.4,620.6,271.8,620.6z M917.2,618.9c-0.2,0-0.4,0-0.6-0.1c-0.8-0.3-1.2-1.3-0.9-2.1c0.2-0.5,0.4-1,0.6-1.5
		c0.3-0.8,1.2-1.2,2.1-0.9c0.8,0.3,1.2,1.2,0.9,2.1c-0.2,0.5-0.4,1-0.6,1.6C918.4,618.6,917.8,618.9,917.2,618.9z M265.8,617.7
		c-0.2,0-0.5,0-0.7-0.2l-1.5-0.7c-0.8-0.4-1.1-1.3-0.8-2.1c0.4-0.8,1.3-1.1,2.1-0.8l1.5,0.7c0.8,0.4,1.1,1.3,0.8,2.1
		C266.9,617.4,266.4,617.7,265.8,617.7z M30.4,615.7c-0.4,0-0.7-0.1-1-0.4c-0.7-0.6-0.8-1.6-0.2-2.2c0.4-0.4,0.7-0.9,1.1-1.3
		c0.6-0.7,1.6-0.7,2.2-0.2c0.7,0.6,0.7,1.6,0.2,2.2c-0.4,0.4-0.7,0.8-1.1,1.3C31.3,615.5,30.8,615.7,30.4,615.7z M259.8,614.8
		c-0.2,0-0.5,0-0.7-0.1l-1.5-0.7c-0.8-0.4-1.1-1.3-0.8-2.1c0.4-0.8,1.3-1.1,2.1-0.8l1.5,0.7c0.8,0.4,1.1,1.3,0.8,2.1
		C260.9,614.5,260.4,614.8,259.8,614.8z M919.6,612.7c-0.2,0-0.4,0-0.5-0.1c-0.8-0.3-1.2-1.2-0.9-2c0.2-0.5,0.4-1,0.6-1.6
		c0.3-0.8,1.2-1.3,2-1c0.8,0.3,1.3,1.2,1,2c-0.2,0.5-0.4,1.1-0.6,1.6C920.9,612.3,920.3,612.7,919.6,612.7z M253.7,612
		c-0.2,0-0.4,0-0.7-0.1l-1.5-0.7c-0.8-0.4-1.1-1.3-0.8-2.1c0.4-0.8,1.3-1.1,2.1-0.8l1.5,0.7c0.8,0.4,1.1,1.3,0.8,2.1
		C254.9,611.7,254.3,612,253.7,612z M34.8,610.7c-0.4,0-0.8-0.1-1.1-0.4c-0.6-0.6-0.7-1.6-0.1-2.2c0.4-0.4,0.8-0.8,1.2-1.2
		c0.6-0.6,1.6-0.6,2.2,0c0.6,0.6,0.6,1.6,0,2.2c-0.4,0.4-0.8,0.8-1.1,1.2C35.7,610.5,35.2,610.7,34.8,610.7z M247.7,609.2
		c-0.2,0-0.4,0-0.7-0.1l-1.5-0.7c-0.8-0.4-1.1-1.3-0.8-2.1c0.4-0.8,1.3-1.1,2.1-0.8l1.5,0.7c0.8,0.4,1.1,1.3,0.8,2.1
		C248.8,608.9,248.3,609.2,247.7,609.2z M241.6,606.5c-0.2,0-0.4,0-0.6-0.1l-1.5-0.7c-0.8-0.4-1.2-1.3-0.8-2.1
		c0.4-0.8,1.3-1.2,2.1-0.8l1.5,0.7c0.8,0.4,1.2,1.3,0.8,2.1C242.8,606.1,242.2,606.5,241.6,606.5z M921.8,606.4
		c-0.2,0-0.3,0-0.5-0.1c-0.8-0.3-1.3-1.2-1-2c0.2-0.5,0.3-1.1,0.5-1.6c0.3-0.8,1.1-1.3,2-1.1c0.8,0.3,1.3,1.1,1.1,2
		c-0.2,0.5-0.3,1.1-0.5,1.6C923.1,606,922.4,606.4,921.8,606.4z M39.5,606c-0.4,0-0.8-0.2-1.1-0.5c-0.6-0.6-0.6-1.6,0.1-2.2
		c0.4-0.4,0.8-0.8,1.2-1.2c0.6-0.6,1.6-0.6,2.2,0.1c0.6,0.6,0.6,1.6-0.1,2.2c-0.4,0.4-0.8,0.7-1.2,1.1C40.3,605.8,39.9,606,39.5,606
		z M235.5,603.8c-0.2,0-0.4,0-0.6-0.1l-1.5-0.7c-0.8-0.4-1.2-1.3-0.8-2.1c0.4-0.8,1.3-1.2,2.1-0.8l1.5,0.7c0.8,0.4,1.2,1.3,0.8,2.1
		C236.7,603.4,236.1,603.8,235.5,603.8z M44.5,601.5c-0.5,0-0.9-0.2-1.2-0.6c-0.6-0.7-0.5-1.7,0.2-2.2c0.4-0.4,0.9-0.7,1.3-1.1
		c0.7-0.6,1.7-0.4,2.2,0.2c0.6,0.7,0.4,1.7-0.2,2.2c-0.4,0.3-0.8,0.7-1.3,1C45.2,601.4,44.8,601.5,44.5,601.5z M229.4,601.1
		c-0.2,0-0.4,0-0.6-0.1l-1.5-0.7c-0.8-0.3-1.2-1.3-0.8-2.1c0.3-0.8,1.3-1.2,2.1-0.8l1.5,0.7c0.8,0.3,1.2,1.3,0.8,2.1
		C230.6,600.8,230,601.1,229.4,601.1z M923.6,600c-0.1,0-0.3,0-0.4-0.1c-0.8-0.2-1.4-1.1-1.1-1.9c0.1-0.5,0.3-1.1,0.4-1.6
		c0.2-0.8,1.1-1.4,1.9-1.2c0.8,0.2,1.4,1.1,1.2,1.9c-0.1,0.5-0.3,1.1-0.4,1.6C925,599.5,924.3,600,923.6,600z M223.2,598.5
		c-0.2,0-0.4,0-0.6-0.1l-1.5-0.6c-0.8-0.3-1.2-1.3-0.9-2.1c0.3-0.8,1.3-1.2,2.1-0.9l1.5,0.6c0.8,0.3,1.2,1.3,0.8,2.1
		C224.4,598.1,223.8,598.5,223.2,598.5z M49.7,597.4c-0.5,0-1-0.2-1.3-0.6c-0.5-0.7-0.4-1.7,0.3-2.2c0.5-0.3,0.9-0.7,1.4-1
		c0.7-0.5,1.7-0.3,2.2,0.4c0.5,0.7,0.3,1.7-0.4,2.2c-0.4,0.3-0.9,0.6-1.3,1C50.4,597.3,50,597.4,49.7,597.4z M217.1,596
		c-0.2,0-0.4,0-0.6-0.1l-1.5-0.6c-0.8-0.3-1.2-1.2-0.9-2.1c0.3-0.8,1.2-1.2,2.1-0.9l1.6,0.6c0.8,0.3,1.2,1.3,0.9,2.1
		C218.3,595.6,217.7,596,217.1,596z M55.2,593.6c-0.5,0-1-0.3-1.3-0.7c-0.5-0.7-0.3-1.7,0.5-2.2c0.5-0.3,0.9-0.6,1.4-0.9
		c0.7-0.5,1.7-0.2,2.2,0.5c0.5,0.7,0.2,1.7-0.5,2.2c-0.5,0.3-0.9,0.6-1.4,0.9C55.8,593.5,55.5,593.6,55.2,593.6z M210.9,593.5
		c-0.2,0-0.4,0-0.6-0.1c-0.5-0.2-1-0.4-1.5-0.6c-0.8-0.3-1.2-1.2-0.9-2c0.3-0.8,1.2-1.2,2-0.9c0.5,0.2,1,0.4,1.6,0.6
		c0.8,0.3,1.2,1.2,0.9,2C212.1,593.1,211.5,593.5,210.9,593.5z M925.1,593.5c-0.1,0-0.2,0-0.3,0c-0.9-0.2-1.4-1-1.2-1.9
		c0.1-0.5,0.2-1.1,0.3-1.6c0.2-0.9,1-1.4,1.8-1.3c0.9,0.2,1.4,1,1.3,1.8c-0.1,0.6-0.2,1.1-0.3,1.7
		C926.5,593,925.9,593.5,925.1,593.5z M204.6,591.1c-0.2,0-0.4,0-0.6-0.1c-0.5-0.2-1-0.4-1.6-0.6c-0.8-0.3-1.2-1.2-0.9-2
		c0.3-0.8,1.2-1.2,2-0.9c0.5,0.2,1,0.4,1.6,0.6c0.8,0.3,1.2,1.2,0.9,2C205.9,590.7,205.3,591.1,204.6,591.1z M60.9,590.2
		c-0.6,0-1.1-0.3-1.4-0.8c-0.4-0.8-0.2-1.7,0.6-2.2c0.5-0.3,1-0.5,1.5-0.8c0.8-0.4,1.7-0.1,2.1,0.6c0.4,0.8,0.1,1.7-0.6,2.1
		c-0.5,0.3-1,0.5-1.4,0.8C61.4,590.1,61.2,590.2,60.9,590.2z M198.4,588.8c-0.2,0-0.4,0-0.5-0.1c-0.5-0.2-1-0.4-1.6-0.5
		c-0.8-0.3-1.3-1.2-1-2c0.3-0.8,1.2-1.3,2-1c0.5,0.2,1.1,0.4,1.6,0.6c0.8,0.3,1.3,1.2,1,2C199.6,588.4,199,588.8,198.4,588.8z
		 M66.8,587.1c-0.6,0-1.2-0.3-1.4-0.9c-0.4-0.8,0-1.7,0.7-2.1c0.5-0.2,1-0.5,1.5-0.7c0.8-0.4,1.7,0,2.1,0.8c0.4,0.8,0,1.7-0.8,2.1
		c-0.5,0.2-1,0.5-1.5,0.7C67.3,587.1,67.1,587.1,66.8,587.1z M926.3,586.9c-0.1,0-0.1,0-0.2,0c-0.9-0.1-1.5-0.9-1.4-1.8
		c0.1-0.5,0.1-1.1,0.2-1.6c0.1-0.9,0.9-1.5,1.8-1.4c0.9,0.1,1.5,0.9,1.4,1.8c-0.1,0.6-0.1,1.1-0.2,1.7
		C927.7,586.3,927,586.9,926.3,586.9z M192.1,586.7c-0.2,0-0.3,0-0.5-0.1c-0.5-0.2-1.1-0.3-1.6-0.5c-0.8-0.3-1.3-1.2-1-2
		c0.3-0.8,1.2-1.3,2-1c0.5,0.2,1.1,0.3,1.6,0.5c0.8,0.3,1.3,1.2,1,2C193.3,586.3,192.7,586.7,192.1,586.7z M185.7,584.7
		c-0.2,0-0.3,0-0.5-0.1c-0.5-0.2-1.1-0.3-1.6-0.5c-0.8-0.3-1.3-1.1-1.1-2c0.3-0.8,1.1-1.3,2-1.1c0.5,0.2,1.1,0.3,1.6,0.5
		c0.8,0.3,1.3,1.1,1,2C187,584.2,186.4,584.7,185.7,584.7z M72.9,584.4c-0.6,0-1.2-0.4-1.5-1c-0.3-0.8,0.1-1.7,0.9-2.1
		c0.5-0.2,1-0.4,1.6-0.6c0.8-0.3,1.7,0.1,2.1,0.9c0.3,0.8-0.1,1.7-0.9,2.1c-0.5,0.2-1,0.4-1.5,0.6C73.3,584.4,73.1,584.4,72.9,584.4
		z M179.3,582.8c-0.1,0-0.3,0-0.4-0.1c-0.5-0.1-1.1-0.3-1.6-0.4c-0.8-0.2-1.3-1.1-1.1-1.9c0.2-0.8,1.1-1.3,1.9-1.1
		c0.5,0.1,1.1,0.3,1.6,0.4c0.8,0.2,1.3,1.1,1.1,2C180.6,582.3,180,582.8,179.3,582.8z M79.2,582.1c-0.7,0-1.3-0.4-1.5-1.1
		c-0.3-0.8,0.2-1.7,1-2c0.5-0.2,1.1-0.4,1.6-0.5c0.8-0.3,1.7,0.2,2,1c0.3,0.8-0.2,1.7-1,2c-0.5,0.2-1,0.3-1.6,0.5
		C79.5,582,79.3,582.1,79.2,582.1z M172.9,581.1c-0.1,0-0.3,0-0.4,0c-0.5-0.1-1.1-0.3-1.6-0.4c-0.8-0.2-1.4-1.1-1.2-1.9
		c0.2-0.8,1.1-1.4,1.9-1.2c0.5,0.1,1.1,0.3,1.6,0.4c0.8,0.2,1.4,1.1,1.1,1.9C174.2,580.6,173.6,581.1,172.9,581.1z M926.9,580.3
		C926.9,580.3,926.8,580.3,926.9,580.3c-1-0.1-1.6-0.8-1.6-1.7c0-0.5,0.1-1.1,0.1-1.6c0-0.9,0.8-1.6,1.6-1.5c0.9,0,1.6,0.8,1.5,1.6
		c0,0.6,0,1.1-0.1,1.7C928.4,579.6,927.7,580.3,926.9,580.3z M85.5,580c-0.7,0-1.3-0.5-1.5-1.1c-0.2-0.8,0.2-1.7,1.1-2
		c0.5-0.2,1.1-0.3,1.6-0.5c0.8-0.2,1.7,0.3,1.9,1.1c0.2,0.8-0.3,1.7-1.1,1.9c-0.5,0.1-1.1,0.3-1.6,0.4C85.8,580,85.7,580,85.5,580z
		 M166.4,579.5c-0.1,0-0.2,0-0.3,0c-0.5-0.1-1.1-0.2-1.6-0.4c-0.9-0.2-1.4-1-1.2-1.9c0.2-0.9,1-1.4,1.9-1.2c0.5,0.1,1.1,0.2,1.6,0.4
		c0.9,0.2,1.4,1,1.2,1.9C167.8,579,167.1,579.5,166.4,579.5z M92,578.4c-0.7,0-1.4-0.5-1.5-1.2c-0.2-0.9,0.3-1.7,1.2-1.9
		c0.5-0.1,1.1-0.2,1.6-0.4c0.9-0.2,1.7,0.4,1.9,1.2c0.2,0.9-0.4,1.7-1.2,1.9c-0.5,0.1-1.1,0.2-1.6,0.4
		C92.2,578.4,92.1,578.4,92,578.4z M159.8,578.2c-0.1,0-0.2,0-0.3,0c-0.5-0.1-1.1-0.2-1.6-0.3c-0.9-0.2-1.4-1-1.3-1.8
		c0.2-0.9,1-1.4,1.8-1.3c0.6,0.1,1.1,0.2,1.7,0.3c0.9,0.2,1.4,1,1.3,1.9C161.3,577.7,160.6,578.2,159.8,578.2z M98.5,577
		c-0.8,0-1.4-0.5-1.6-1.3c-0.2-0.9,0.4-1.7,1.3-1.8c0.6-0.1,1.1-0.2,1.7-0.3c0.9-0.1,1.7,0.4,1.8,1.3c0.1,0.9-0.4,1.7-1.3,1.8
		c-0.5,0.1-1.1,0.2-1.6,0.3C98.7,577,98.6,577,98.5,577z M153.3,577c-0.1,0-0.2,0-0.3,0c-0.5-0.1-1.1-0.2-1.6-0.3
		c-0.9-0.1-1.5-0.9-1.3-1.8c0.1-0.9,0.9-1.5,1.8-1.3c0.6,0.1,1.1,0.2,1.7,0.3c0.9,0.1,1.5,0.9,1.3,1.8
		C154.7,576.5,154,577,153.3,577z M146.7,576.1c-0.1,0-0.1,0-0.2,0c-0.5-0.1-1.1-0.1-1.6-0.2c-0.9-0.1-1.5-0.9-1.4-1.8
		c0.1-0.9,0.9-1.5,1.8-1.4c0.6,0.1,1.1,0.1,1.7,0.2c0.9,0.1,1.5,0.9,1.4,1.8C148.1,575.5,147.5,576.1,146.7,576.1z M105.1,576
		c-0.8,0-1.5-0.6-1.6-1.4c-0.1-0.9,0.5-1.7,1.4-1.8c0.6-0.1,1.1-0.1,1.7-0.2c0.9-0.1,1.7,0.5,1.8,1.4s-0.5,1.7-1.4,1.8
		c-0.5,0.1-1.1,0.1-1.6,0.2C105.2,576,105.2,576,105.1,576z M140,575.4c0,0-0.1,0-0.1,0c-0.5,0-1.1-0.1-1.6-0.1
		c-0.9-0.1-1.5-0.8-1.5-1.7c0.1-0.9,0.8-1.5,1.7-1.5c0.6,0,1.1,0.1,1.7,0.1c0.9,0.1,1.5,0.8,1.4,1.7
		C141.5,574.8,140.9,575.4,140,575.4z M111.7,575.3c-0.8,0-1.5-0.6-1.6-1.4c-0.1-0.9,0.6-1.6,1.4-1.7c0.6,0,1.1-0.1,1.7-0.1
		c0.9-0.1,1.6,0.6,1.7,1.5c0.1,0.9-0.6,1.6-1.5,1.7c-0.5,0-1.1,0.1-1.6,0.1C111.8,575.3,111.8,575.3,111.7,575.3z M133.4,574.9
		C133.4,574.9,133.3,574.9,133.4,574.9c-0.6,0-1.2-0.1-1.7-0.1c-0.9,0-1.6-0.8-1.5-1.6c0-0.9,0.8-1.6,1.6-1.5c0.6,0,1.1,0,1.7,0.1
		c0.9,0,1.5,0.8,1.5,1.7C134.9,574.3,134.2,574.9,133.4,574.9z M118.4,574.9c-0.8,0-1.5-0.7-1.6-1.5c0-0.9,0.6-1.6,1.5-1.6
		c0.6,0,1.1,0,1.7-0.1c0.9,0,1.6,0.7,1.6,1.5c0,0.9-0.7,1.6-1.5,1.6C119.6,574.8,119,574.9,118.4,574.9
		C118.4,574.9,118.4,574.9,118.4,574.9z M126.7,574.7C126.7,574.7,126.7,574.7,126.7,574.7c-0.5,0-1,0-1.5,0l-0.2,0
		c-0.9,0-1.6-0.7-1.6-1.6c0-0.9,0.7-1.6,1.6-1.6l0.2,0c0.5,0,1,0,1.5,0c0.9,0,1.6,0.7,1.6,1.6C128.3,574,127.6,574.7,126.7,574.7z
		 M927,573.6c-0.9,0-1.6-0.7-1.6-1.5c0-0.5,0-1.1-0.1-1.6c0-0.9,0.6-1.6,1.5-1.7c0.9-0.1,1.6,0.6,1.7,1.5c0,0.6,0.1,1.1,0.1,1.7
		C928.6,572.9,927.9,573.6,927,573.6C927,573.6,927,573.6,927,573.6z M926.5,567c-0.8,0-1.5-0.6-1.6-1.4c-0.1-0.5-0.2-1.1-0.2-1.6
		c-0.1-0.9,0.4-1.7,1.3-1.8c0.9-0.1,1.7,0.4,1.8,1.3c0.1,0.6,0.2,1.1,0.3,1.7c0.1,0.9-0.5,1.7-1.4,1.8
		C926.6,567,926.5,567,926.5,567z M925.2,560.4c-0.7,0-1.3-0.5-1.5-1.2c-0.1-0.5-0.3-1-0.4-1.6c-0.2-0.8,0.2-1.7,1.1-2
		c0.8-0.2,1.7,0.2,2,1.1c0.2,0.5,0.3,1.1,0.5,1.7c0.2,0.8-0.3,1.7-1.1,1.9C925.4,560.4,925.3,560.4,925.2,560.4z M923.1,554.1
		c-0.6,0-1.2-0.4-1.5-1c-0.2-0.5-0.4-1-0.6-1.5c-0.4-0.8,0-1.7,0.8-2.1c0.8-0.4,1.7,0,2.1,0.8c0.2,0.5,0.5,1,0.7,1.6
		c0.3,0.8-0.1,1.7-0.9,2.1C923.5,554.1,923.3,554.1,923.1,554.1z M920.1,548.1c-0.5,0-1.1-0.3-1.4-0.8c-0.3-0.5-0.6-0.9-0.8-1.4
		c-0.5-0.7-0.3-1.7,0.5-2.2c0.7-0.5,1.7-0.3,2.2,0.5c0.3,0.5,0.6,1,0.9,1.5c0.4,0.8,0.2,1.7-0.6,2.2
		C920.7,548.1,920.4,548.1,920.1,548.1z M916.3,542.7c-0.5,0-0.9-0.2-1.2-0.6c-0.3-0.4-0.7-0.8-1-1.2c-0.6-0.7-0.5-1.7,0.2-2.2
		c0.7-0.6,1.7-0.5,2.2,0.2c0.4,0.4,0.7,0.9,1.1,1.3c0.6,0.7,0.4,1.7-0.2,2.2C917,542.6,916.7,542.7,916.3,542.7z M911.7,537.8
		c-0.4,0-0.8-0.1-1.1-0.4c-0.4-0.4-0.8-0.7-1.2-1.1c-0.7-0.6-0.7-1.6-0.2-2.2c0.6-0.7,1.6-0.7,2.2-0.2c0.4,0.4,0.9,0.8,1.3,1.1
		c0.6,0.6,0.7,1.6,0.1,2.2C912.6,537.6,912.2,537.8,911.7,537.8z M906.6,533.6c-0.3,0-0.6-0.1-0.9-0.3c-0.4-0.3-0.9-0.6-1.3-0.9
		c-0.7-0.5-0.9-1.5-0.4-2.2c0.5-0.7,1.5-0.9,2.2-0.4c0.5,0.3,0.9,0.6,1.4,1c0.7,0.5,0.9,1.5,0.4,2.2
		C907.6,533.4,907.1,533.6,906.6,533.6z M901,530c-0.3,0-0.5-0.1-0.8-0.2c-0.4-0.2-0.7-0.4-1.1-0.6c-0.8-0.4-1.1-1.4-0.6-2.1
		c0.4-0.8,1.4-1.1,2.1-0.6c0.4,0.2,0.8,0.4,1.1,0.6c0.8,0.4,1,1.4,0.6,2.2C902.1,529.7,901.5,530,901,530z"/>
	<g class="st15">
		<path class="st12" d="M594.9,812.7L214.3,805c-15.4-0.3-28.1-12.3-29.2-27.7l-18.8-255c-1.3-17.4,12.5-32.1,29.9-32.1l404.8,0.5
			c16.7,0,30.2,13.8,29.9,30.5l-5.3,262.2C625.1,800,611.5,813.1,594.9,812.7z"/>
		<path class="st2" d="M193.1,545.4l12.5,220.4c0.5,9.6,8.3,17.1,17.9,17.4l365.3,11.3c10.3,0.3,18.9-7.8,19.1-18.1l4.8-237
			c0.2-10.5-8.3-19-18.8-18.9l-382.6,5.2C200.8,526,192.5,534.9,193.1,545.4z"/>
		<path class="st16" d="M375.2,726.2l206.2-2c2.1,0,3.8,1.7,3.8,3.8l-0.1,3.3c0,2-1.7,3.7-3.8,3.7l-206.1-1.3
			c-2.1,0-3.8-1.7-3.7-3.8l0,0C371.6,727.8,373.2,726.2,375.2,726.2z"/>
		<path class="st16" d="M371.2,747.1l0,1.4c0,2.1,1.6,3.8,3.7,3.8l206,4.2c2.1,0,3.8-1.6,3.8-3.7l0-1.4c0-2.1-1.6-3.8-3.7-3.8
			l-206-4.2C372.9,743.4,371.2,745,371.2,747.1z"/>
		<path class="st16" d="M433.3,766.8l0,0.6c0,2.1,1.6,3.8,3.7,3.8l143.5,2.9c2.1,0,3.8-1.6,3.8-3.7l0.1-2.9c0-2.1-1.6-3.8-3.7-3.8
			l-143.5-0.6C435,763.2,433.4,764.8,433.3,766.8z"/>
	</g>
	<path class="st2" d="M538.8,749.7H116.4c-17.1,0-31.4-13-33-30.1L56.8,437.2C55,418,69.9,401.3,89.2,400.9l448.9-8.5
		c18.6-0.4,33.8,14.6,33.8,33.2v290.9C571.9,734.8,557.1,749.7,538.8,749.7z"/>
	<path class="st0" d="M83.8,462.4l18.9,244.2c0.8,10.6,9.6,18.8,20.2,18.9l405.3,4.2c11.4,0.1,20.7-9.1,20.7-20.5V446.3
		c0-11.6-9.6-20.9-21.2-20.5l-424.2,14.5C91.9,440.7,82.9,450.7,83.8,462.4z"/>
	<path class="st8" d="M300.2,460.1l228.6-6.8c2.3-0.1,4.3,1.8,4.3,4.2v3.7c0,2.3-1.8,4.1-4.1,4.2l-228.6,3.2c-2.3,0-4.2-1.8-4.2-4.2
		l0,0C296.1,462.1,297.9,460.2,300.2,460.1z"/>
	<path class="st8" d="M296.1,483.5v1.6c0,2.3,1.9,4.2,4.2,4.2h228.6c2.3,0,4.2-1.9,4.2-4.2v-1.6c0-2.3-1.9-4.2-4.2-4.2H300.3
		C298,479.3,296.1,481.2,296.1,483.5z"/>
	<path class="st8" d="M365.5,504v0.7c0,2.3,1.9,4.2,4.2,4.2h159.2c2.3,0,4.2-1.9,4.2-4.2v-3.2c0-2.3-1.9-4.2-4.2-4.2l-159.2,2.5
		C367.3,499.8,365.5,501.7,365.5,504z"/>
	<g>
		<path class="st17" d="M240.1,697.5c-0.3,0-0.6-0.3-0.6-0.6V695c0-0.3,0.3-0.6,0.6-0.6c0.3,0,0.6,0.3,0.6,0.6v1.8
			C240.7,697.2,240.5,697.5,240.1,697.5z M240.1,691.3c-0.3,0-0.6-0.3-0.6-0.6v-1.8c0-0.3,0.3-0.6,0.6-0.6c0.3,0,0.6,0.3,0.6,0.6
			v1.8C240.7,691.1,240.5,691.3,240.1,691.3z M240.1,685.2c-0.3,0-0.6-0.3-0.6-0.6v-1.8c0-0.3,0.3-0.6,0.6-0.6
			c0.3,0,0.6,0.3,0.6,0.6v1.8C240.7,684.9,240.5,685.2,240.1,685.2z M240.1,679.1c-0.3,0-0.6-0.3-0.6-0.6v-1.8
			c0-0.3,0.3-0.6,0.6-0.6c0.3,0,0.6,0.3,0.6,0.6v1.8C240.7,678.8,240.5,679.1,240.1,679.1z M240.1,673c-0.3,0-0.6-0.3-0.6-0.6v-1.8
			c0-0.3,0.3-0.6,0.6-0.6c0.3,0,0.6,0.3,0.6,0.6v1.8C240.7,672.7,240.5,673,240.1,673z M240.1,666.8c-0.3,0-0.6-0.3-0.6-0.6v-1.8
			c0-0.3,0.3-0.6,0.6-0.6c0.3,0,0.6,0.3,0.6,0.6v1.8C240.7,666.6,240.5,666.8,240.1,666.8z M240.1,660.7c-0.3,0-0.6-0.3-0.6-0.6
			v-1.8c0-0.3,0.3-0.6,0.6-0.6c0.3,0,0.6,0.3,0.6,0.6v1.8C240.7,660.4,240.5,660.7,240.1,660.7z M240.1,654.6
			c-0.3,0-0.6-0.3-0.6-0.6v-1.8c0-0.3,0.3-0.6,0.6-0.6c0.3,0,0.6,0.3,0.6,0.6v1.8C240.7,654.3,240.5,654.6,240.1,654.6z
			 M240.1,648.5c-0.3,0-0.6-0.3-0.6-0.6V646c0-0.3,0.3-0.6,0.6-0.6c0.3,0,0.6,0.3,0.6,0.6v1.8C240.7,648.2,240.5,648.5,240.1,648.5z
			 M240.1,642.3c-0.3,0-0.6-0.3-0.6-0.6v-1.8c0-0.3,0.3-0.6,0.6-0.6c0.3,0,0.6,0.3,0.6,0.6v1.8C240.7,642.1,240.5,642.3,240.1,642.3
			z M240.1,636.2c-0.3,0-0.6-0.3-0.6-0.6v-1.8c0-0.3,0.3-0.6,0.6-0.6c0.3,0,0.6,0.3,0.6,0.6v1.8
			C240.7,635.9,240.5,636.2,240.1,636.2z M240.1,630.1c-0.3,0-0.6-0.3-0.6-0.6v-1.8c0-0.3,0.3-0.6,0.6-0.6c0.3,0,0.6,0.3,0.6,0.6
			v1.8C240.7,629.8,240.5,630.1,240.1,630.1z M240.1,623.9c-0.3,0-0.6-0.3-0.6-0.6v-1.8c0-0.3,0.3-0.6,0.6-0.6
			c0.3,0,0.6,0.3,0.6,0.6v1.8C240.7,623.7,240.5,623.9,240.1,623.9z M240.1,617.8c-0.3,0-0.6-0.3-0.6-0.6v-1.8
			c0-0.3,0.3-0.6,0.6-0.6c0.3,0,0.6,0.3,0.6,0.6v1.8C240.7,617.5,240.5,617.8,240.1,617.8z M240.1,611.7c-0.3,0-0.6-0.3-0.6-0.6
			v-1.8c0-0.3,0.3-0.6,0.6-0.6c0.3,0,0.6,0.3,0.6,0.6v1.8C240.7,611.4,240.5,611.7,240.1,611.7z M240.1,605.6
			c-0.3,0-0.6-0.3-0.6-0.6v-1.8c0-0.3,0.3-0.6,0.6-0.6c0.3,0,0.6,0.3,0.6,0.6v1.8C240.7,605.3,240.5,605.6,240.1,605.6z
			 M240.1,599.4c-0.3,0-0.6-0.3-0.6-0.6V597c0-0.3,0.3-0.6,0.6-0.6c0.3,0,0.6,0.3,0.6,0.6v1.8C240.7,599.2,240.5,599.4,240.1,599.4z
			 M240.1,593.3c-0.3,0-0.6-0.3-0.6-0.6v-1.8c0-0.3,0.3-0.6,0.6-0.6c0.3,0,0.6,0.3,0.6,0.6v1.8C240.7,593,240.5,593.3,240.1,593.3z
			 M240.1,587.2c-0.3,0-0.6-0.3-0.6-0.6v-1.8c0-0.3,0.3-0.6,0.6-0.6c0.3,0,0.6,0.3,0.6,0.6v1.8C240.7,586.9,240.5,587.2,240.1,587.2
			z M240.1,581.1c-0.3,0-0.6-0.3-0.6-0.6v-1.8c0-0.3,0.3-0.6,0.6-0.6c0.3,0,0.6,0.3,0.6,0.6v1.8
			C240.7,580.8,240.5,581.1,240.1,581.1z M240.1,574.9c-0.3,0-0.6-0.3-0.6-0.6v-1.8c0-0.3,0.3-0.6,0.6-0.6c0.3,0,0.6,0.3,0.6,0.6
			v1.8C240.7,574.7,240.5,574.9,240.1,574.9z M240.1,568.8c-0.3,0-0.6-0.3-0.6-0.6v-1.8c0-0.3,0.3-0.6,0.6-0.6
			c0.3,0,0.6,0.3,0.6,0.6v1.8C240.7,568.5,240.5,568.8,240.1,568.8z M240.1,562.7c-0.3,0-0.6-0.3-0.6-0.6v-1.8
			c0-0.3,0.3-0.6,0.6-0.6c0.3,0,0.6,0.3,0.6,0.6v1.8C240.7,562.4,240.5,562.7,240.1,562.7z M240.1,556.5c-0.3,0-0.6-0.3-0.6-0.6
			v-1.8c0-0.3,0.3-0.6,0.6-0.6c0.3,0,0.6,0.3,0.6,0.6v1.8C240.7,556.3,240.5,556.5,240.1,556.5z M240.1,550.4
			c-0.3,0-0.6-0.3-0.6-0.6V548c0-0.3,0.3-0.6,0.6-0.6c0.3,0,0.6,0.3,0.6,0.6v1.8C240.7,550.1,240.5,550.4,240.1,550.4z M240.1,544.3
			c-0.3,0-0.6-0.3-0.6-0.6v-1.8c0-0.3,0.3-0.6,0.6-0.6c0.3,0,0.6,0.3,0.6,0.6v1.8C240.7,544,240.5,544.3,240.1,544.3z M240.1,538.2
			c-0.3,0-0.6-0.3-0.6-0.6v-1.8c0-0.3,0.3-0.6,0.6-0.6c0.3,0,0.6,0.3,0.6,0.6v1.8C240.7,537.9,240.5,538.2,240.1,538.2z M240.1,532
			c-0.3,0-0.6-0.3-0.6-0.6v-1.8c0-0.3,0.3-0.6,0.6-0.6c0.3,0,0.6,0.3,0.6,0.6v1.8C240.7,531.8,240.5,532,240.1,532z"/>
	</g>
	<g>
		<path class="st17" d="M334,691.4c-0.3,0-0.6-0.3-0.6-0.6v-1.8c0-0.3,0.3-0.6,0.6-0.6c0.3,0,0.6,0.3,0.6,0.6v1.8
			C334.6,691.1,334.3,691.4,334,691.4z M334,685.2c-0.3,0-0.6-0.3-0.6-0.6v-1.8c0-0.3,0.3-0.6,0.6-0.6c0.3,0,0.6,0.3,0.6,0.6v1.8
			C334.6,685,334.3,685.2,334,685.2z M334,679.1c-0.3,0-0.6-0.3-0.6-0.6v-1.8c0-0.3,0.3-0.6,0.6-0.6c0.3,0,0.6,0.3,0.6,0.6v1.8
			C334.6,678.8,334.3,679.1,334,679.1z M334,673c-0.3,0-0.6-0.3-0.6-0.6v-1.8c0-0.3,0.3-0.6,0.6-0.6c0.3,0,0.6,0.3,0.6,0.6v1.8
			C334.6,672.7,334.3,673,334,673z M334,666.8c-0.3,0-0.6-0.3-0.6-0.6v-1.8c0-0.3,0.3-0.6,0.6-0.6c0.3,0,0.6,0.3,0.6,0.6v1.8
			C334.6,666.6,334.3,666.8,334,666.8z M334,660.7c-0.3,0-0.6-0.3-0.6-0.6v-1.8c0-0.3,0.3-0.6,0.6-0.6c0.3,0,0.6,0.3,0.6,0.6v1.8
			C334.6,660.4,334.3,660.7,334,660.7z M334,654.6c-0.3,0-0.6-0.3-0.6-0.6v-1.8c0-0.3,0.3-0.6,0.6-0.6c0.3,0,0.6,0.3,0.6,0.6v1.8
			C334.6,654.3,334.3,654.6,334,654.6z M334,648.5c-0.3,0-0.6-0.3-0.6-0.6V646c0-0.3,0.3-0.6,0.6-0.6c0.3,0,0.6,0.3,0.6,0.6v1.8
			C334.6,648.2,334.3,648.5,334,648.5z M334,642.3c-0.3,0-0.6-0.3-0.6-0.6v-1.8c0-0.3,0.3-0.6,0.6-0.6c0.3,0,0.6,0.3,0.6,0.6v1.8
			C334.6,642.1,334.3,642.3,334,642.3z M334,636.2c-0.3,0-0.6-0.3-0.6-0.6v-1.8c0-0.3,0.3-0.6,0.6-0.6c0.3,0,0.6,0.3,0.6,0.6v1.8
			C334.6,635.9,334.3,636.2,334,636.2z M334,630.1c-0.3,0-0.6-0.3-0.6-0.6v-1.8c0-0.3,0.3-0.6,0.6-0.6c0.3,0,0.6,0.3,0.6,0.6v1.8
			C334.6,629.8,334.3,630.1,334,630.1z"/>
	</g>
	<g>
		<path class="st17" d="M405.3,694.8c-0.3,0-0.6-0.3-0.6-0.6l-0.1-1.8c0-0.3,0.3-0.6,0.6-0.6c0.3,0,0.6,0.3,0.6,0.6l0.1,1.8
			C405.9,694.5,405.7,694.7,405.3,694.8C405.3,694.8,405.3,694.8,405.3,694.8z M405.1,688.6c-0.3,0-0.6-0.3-0.6-0.6l-0.1-1.8
			c0-0.3,0.3-0.6,0.6-0.6c0.3,0,0.6,0.3,0.6,0.6l0.1,1.8C405.8,688.3,405.5,688.6,405.1,688.6C405.1,688.6,405.1,688.6,405.1,688.6z
			 M404.9,682.5c-0.3,0-0.6-0.3-0.6-0.6l-0.1-1.8c0-0.3,0.3-0.6,0.6-0.6c0.3,0,0.6,0.3,0.6,0.6l0.1,1.8
			C405.6,682.2,405.3,682.5,404.9,682.5C405,682.5,404.9,682.5,404.9,682.5z M404.8,676.4c-0.3,0-0.6-0.3-0.6-0.6l-0.1-1.8
			c0-0.3,0.3-0.6,0.6-0.6c0.4,0,0.6,0.3,0.6,0.6l0.1,1.8C405.4,676.1,405.1,676.4,404.8,676.4C404.8,676.4,404.8,676.4,404.8,676.4z
			 M404.6,670.3c-0.3,0-0.6-0.3-0.6-0.6l-0.1-1.8c0-0.3,0.3-0.6,0.6-0.6c0.3,0,0.6,0.3,0.6,0.6l0.1,1.8
			C405.2,670,404.9,670.2,404.6,670.3C404.6,670.3,404.6,670.3,404.6,670.3z M404.4,664.1c-0.3,0-0.6-0.3-0.6-0.6l-0.1-1.8
			c0-0.3,0.3-0.6,0.6-0.6c0.3,0,0.6,0.3,0.6,0.6l0.1,1.8C405,663.8,404.7,664.1,404.4,664.1C404.4,664.1,404.4,664.1,404.4,664.1z
			 M404.2,658c-0.3,0-0.6-0.3-0.6-0.6l-0.1-1.8c0-0.3,0.3-0.6,0.6-0.6c0.3,0,0.6,0.3,0.6,0.6l0.1,1.8
			C404.8,657.7,404.5,658,404.2,658C404.2,658,404.2,658,404.2,658z M404,651.9c-0.3,0-0.6-0.3-0.6-0.6l-0.1-1.8
			c0-0.3,0.3-0.6,0.6-0.6c0.3,0,0.6,0.3,0.6,0.6l0.1,1.8C404.6,651.6,404.3,651.9,404,651.9C404,651.9,404,651.9,404,651.9z
			 M403.8,645.8c-0.3,0-0.6-0.3-0.6-0.6l-0.1-1.8c0-0.3,0.3-0.6,0.6-0.6c0.3,0,0.6,0.3,0.6,0.6l0.1,1.8
			C404.4,645.5,404.2,645.7,403.8,645.8C403.8,645.8,403.8,645.8,403.8,645.8z M403.6,639.6c-0.3,0-0.6-0.3-0.6-0.6l-0.1-1.8
			c0-0.3,0.3-0.6,0.6-0.6c0.3,0,0.6,0.3,0.6,0.6l0.1,1.8C404.2,639.3,404,639.6,403.6,639.6C403.6,639.6,403.6,639.6,403.6,639.6z
			 M403.4,633.5c-0.3,0-0.6-0.3-0.6-0.6l-0.1-1.8c0-0.3,0.3-0.6,0.6-0.6c0.4,0,0.6,0.3,0.6,0.6l0.1,1.8
			C404,633.2,403.8,633.5,403.4,633.5C403.4,633.5,403.4,633.5,403.4,633.5z M403.2,627.4c-0.3,0-0.6-0.3-0.6-0.6l-0.1-1.8
			c0-0.3,0.3-0.6,0.6-0.6c0.4,0,0.6,0.3,0.6,0.6l0.1,1.8C403.9,627.1,403.6,627.4,403.2,627.4C403.2,627.4,403.2,627.4,403.2,627.4z
			 M403,621.3c-0.3,0-0.6-0.3-0.6-0.6l-0.1-1.8c0-0.3,0.3-0.6,0.6-0.6c0.3,0,0.6,0.3,0.6,0.6l0.1,1.8
			C403.7,621,403.4,621.2,403,621.3C403.1,621.3,403,621.3,403,621.3z M402.9,615.1c-0.3,0-0.6-0.3-0.6-0.6l-0.1-1.8
			c0-0.3,0.3-0.6,0.6-0.6c0.3,0,0.6,0.3,0.6,0.6l0.1,1.8C403.5,614.8,403.2,615.1,402.9,615.1C402.9,615.1,402.9,615.1,402.9,615.1z
			 M402.7,609c-0.3,0-0.6-0.3-0.6-0.6l-0.1-1.8c0-0.3,0.3-0.6,0.6-0.6c0.3,0,0.6,0.3,0.6,0.6l0.1,1.8C403.3,608.7,403,609,402.7,609
			C402.7,609,402.7,609,402.7,609z M402.5,602.9c-0.3,0-0.6-0.3-0.6-0.6l-0.1-1.8c0-0.3,0.3-0.6,0.6-0.6c0.3,0,0.6,0.3,0.6,0.6
			l0.1,1.8C403.1,602.6,402.8,602.9,402.5,602.9C402.5,602.9,402.5,602.9,402.5,602.9z M402.3,596.8c-0.3,0-0.6-0.3-0.6-0.6
			l-0.1-1.8c0-0.3,0.3-0.6,0.6-0.6c0.3,0,0.6,0.3,0.6,0.6l0.1,1.8C402.9,596.5,402.6,596.7,402.3,596.8
			C402.3,596.8,402.3,596.8,402.3,596.8z M402.1,590.6c-0.3,0-0.6-0.3-0.6-0.6l-0.1-1.8c0-0.3,0.3-0.6,0.6-0.6
			c0.3,0,0.6,0.3,0.6,0.6l0.1,1.8C402.7,590.3,402.4,590.6,402.1,590.6C402.1,590.6,402.1,590.6,402.1,590.6z M401.9,584.5
			c-0.3,0-0.6-0.3-0.6-0.6l-0.1-1.8c0-0.3,0.3-0.6,0.6-0.6c0.4,0,0.6,0.3,0.6,0.6l0.1,1.8C402.5,584.2,402.3,584.5,401.9,584.5
			C401.9,584.5,401.9,584.5,401.9,584.5z"/>
	</g>
	<g>
		<path class="st17" d="M473.3,689.7c-0.3,0-0.6-0.3-0.6-0.6v-1.8c0-0.3,0.3-0.6,0.6-0.6s0.6,0.3,0.6,0.6v1.8
			C473.9,689.4,473.7,689.7,473.3,689.7z M473.3,683.5c-0.3,0-0.6-0.3-0.6-0.6v-1.8c0-0.3,0.3-0.6,0.6-0.6s0.6,0.3,0.6,0.6v1.8
			C473.9,683.3,473.7,683.5,473.3,683.5z M473.3,677.4c-0.3,0-0.6-0.3-0.6-0.6V675c0-0.3,0.3-0.6,0.6-0.6s0.6,0.3,0.6,0.6v1.8
			C473.9,677.1,473.7,677.4,473.3,677.4z M473.3,671.3c-0.3,0-0.6-0.3-0.6-0.6v-1.8c0-0.3,0.3-0.6,0.6-0.6s0.6,0.3,0.6,0.6v1.8
			C473.9,671,473.7,671.3,473.3,671.3z M473.3,665.2c-0.3,0-0.6-0.3-0.6-0.6v-1.8c0-0.3,0.3-0.6,0.6-0.6s0.6,0.3,0.6,0.6v1.8
			C473.9,664.9,473.7,665.2,473.3,665.2z M473.3,659c-0.3,0-0.6-0.3-0.6-0.6v-1.8c0-0.3,0.3-0.6,0.6-0.6s0.6,0.3,0.6,0.6v1.8
			C473.9,658.8,473.7,659,473.3,659z M473.3,652.9c-0.3,0-0.6-0.3-0.6-0.6v-1.8c0-0.3,0.3-0.6,0.6-0.6s0.6,0.3,0.6,0.6v1.8
			C473.9,652.6,473.7,652.9,473.3,652.9z M473.3,646.8c-0.3,0-0.6-0.3-0.6-0.6v-1.8c0-0.3,0.3-0.6,0.6-0.6s0.6,0.3,0.6,0.6v1.8
			C473.9,646.5,473.7,646.8,473.3,646.8z M473.3,640.7c-0.3,0-0.6-0.3-0.6-0.6v-1.8c0-0.3,0.3-0.6,0.6-0.6s0.6,0.3,0.6,0.6v1.8
			C473.9,640.4,473.7,640.7,473.3,640.7z M473.3,634.5c-0.3,0-0.6-0.3-0.6-0.6v-1.8c0-0.3,0.3-0.6,0.6-0.6s0.6,0.3,0.6,0.6v1.8
			C473.9,634.3,473.7,634.5,473.3,634.5z"/>
	</g>
	<path class="st5" d="M147.6,593.9c2,0.1,3.9-0.5,5.4-1.8c5.6-4.9,34.2-29.9,84.9-74.4l90.4,108.4c1.2,1.4,2.8,2.3,4.5,2.6l0.2,0.3
		l0.3-0.2c1.7,0.1,3.5-0.3,5-1.4l64.1-47l65.3,53c1.3,1.1,3,1.6,4.7,1.6c1.8,0,3.5-0.6,4.9-1.8l37.8-33.1c1.5-1.3,2.4-3.1,2.5-5.1
		c0.1-2-0.5-3.9-1.8-5.4c-1.3-1.5-3.1-2.4-5.1-2.5c-2-0.1-3.9,0.5-5.4,1.8l-33.1,28.9l-64.8-52.7c-2.6-2.1-6.3-2.2-9.1-0.2
		l-63.1,46.2l-90.8-109c-1.2-1.4-2.8-2.3-4.5-2.6l-0.5-0.6l-0.6,0.6c-1.8,0-3.5,0.7-4.9,1.8l-2.3,2.1
		c-51.2,44.9-82.5,72.4-88.3,77.4c-3.1,2.7-3.4,7.4-0.7,10.5C143.8,592.9,145.6,593.8,147.6,593.9z"/>
	
		<radialGradient id="SVGID_2_" cx="293.2135" cy="538.6458" r="276.6763" gradientTransform="matrix(-0.7747 -0.6323 1.897 -2.3241 -501.45 1975.9132)" gradientUnits="userSpaceOnUse">
		<stop  offset="1.629087e-02" style="stop-color:#33C14D"/>
		<stop  offset="3.034545e-02" style="stop-color:#31C254;stop-opacity:0.9721"/>
		<stop  offset="8.910144e-02" style="stop-color:#2BC46C;stop-opacity:0.8553"/>
		<stop  offset="0.1554" style="stop-color:#26C680;stop-opacity:0.7235"/>
		<stop  offset="0.2326" style="stop-color:#23C88D;stop-opacity:0.5701"/>
		<stop  offset="0.3307" style="stop-color:#21C995;stop-opacity:0.3751"/>
		<stop  offset="0.5194" style="stop-color:#20C997;stop-opacity:0"/>
	</radialGradient>
	<path class="st18" d="M534.8,547.1c-4.8-5.5-11.5-8.8-18.8-9.3c-7.3-0.5-14.4,1.9-19.9,6.7l-20.4,17.9l-51.8-42.1
		c-9.7-7.8-23.4-8.2-33.5-0.8l-48,35.1L263.6,460c-2.8-3.3-6.3-5.9-10.3-7.6c-2.6-1.5-5.5-2.4-8.5-2.7c-3-0.2-6,0.2-8.8,1.3
		c-4.2,1-8.1,3.1-11.4,6l-2.3,2.1c-50.3,44.1-82.5,72.3-88.3,77.4c-11.4,9.9-12.6,27.3-2.6,38.7c4.8,5.5,11.5,8.8,18.8,9.3
		c7.3,0.5,14.4-1.9,19.9-6.7c4.9-4.3,27.1-23.8,69.5-60.9l77.3,92.7c3.2,3.8,7.3,6.7,12,8.3c3.6,1.6,7.7,2.1,11.6,1.4
		c4.9-0.5,9.6-2.2,13.7-5.2l51.7-37.9l53.3,43.3c4.9,3.9,11,6.1,17.2,6.1c6.6,0,13-2.4,18-6.8l37.8-33.1c5.5-4.8,8.8-11.5,9.3-18.8
		C542,559.6,539.6,552.6,534.8,547.1z"/>
	<path class="st3" d="M523.2,694.3H141.8l-18.4-216.7c-0.1-1.6-1.6-2.8-3.2-2.7c-0.8,0.1-1.5,0.4-2,1c-0.5,0.6-0.7,1.4-0.7,2.1
		L136,694.3h-10.4c-1.6,0-2.9,1.3-2.9,2.9s1.3,2.9,2.9,2.9h10.9l0.7,8c0.1,1.5,1.3,2.6,2.8,2.7l0.4,0c0.7-0.1,1.4-0.4,1.9-1
		c0.5-0.6,0.7-1.4,0.7-2.1l-0.6-7.5h380.9c1.6,0,2.9-1.3,2.9-2.9S524.8,694.3,523.2,694.3z"/>
</g>
</svg>
