<?xml version="1.0" encoding="utf-8"?>
<!-- Generator: Adobe Illustrator 24.0.2, SVG Export Plug-In . SVG Version: 6.00 Build 0)  -->
<svg version="1.1" id="Слой_1" xmlns="http://www.w3.org/2000/svg" xmlns:xlink="http://www.w3.org/1999/xlink" x="0px" y="0px"
	 width="24px" height="27.6px" viewBox="0 0 24 27.6" style="enable-background:new 0 0 24 27.6;" xml:space="preserve">
<style type="text/css">
	.st0{fill:#007BFF;}
	.st1{fill:#343A40;}
</style>
<g>
	<path class="st0" d="M24,8.9h-8c-0.9,0-0.9-0.9-0.9-0.9V0c0,0,0.9,0,1.8,0.9l6.3,6.3C24,8,24,8.9,24,8.9z"/>
	<path class="st1" d="M19.7,10.6H18h-2.8c-1.2,0-1.8-0.9-1.8-1.8v-8H0.9c0,0-0.9,0-0.9,0.9v25c0,0,0,0.9,0.9,0.9h21.4
		c0,0,0.9,0,0.9-0.9V10.6H19.7z M5.4,14.2h5.4c0.5,0,0.9,0.4,0.9,0.9c0,0.5-0.4,0.9-0.9,0.9H5.4c-0.5,0-0.9-0.4-0.9-0.9
		C4.5,14.6,4.9,14.2,5.4,14.2z M17.9,23.1H5.4c-0.5,0-0.9-0.4-0.9-0.9s0.4-0.9,0.9-0.9h12.5c0.5,0,0.9,0.4,0.9,0.9
		S18.4,23.1,17.9,23.1z M17.9,19.5H5.4c-0.5,0-0.9-0.4-0.9-0.9s0.4-0.9,0.9-0.9h12.5c0.5,0,0.9,0.4,0.9,0.9S18.4,19.5,17.9,19.5z"/>
</g>
</svg>
