<?xml version="1.0" encoding="utf-8"?>
<!-- Generator: Adobe Illustrator 24.0.2, SVG Export Plug-In . SVG Version: 6.00 Build 0)  -->
<svg version="1.1" id="Слой_1" xmlns="http://www.w3.org/2000/svg" xmlns:xlink="http://www.w3.org/1999/xlink" x="0px" y="0px"
	 width="800px" height="800px" viewBox="0 0 800 800" style="enable-background:new 0 0 800 800;" xml:space="preserve">
<style type="text/css">
	.st0{fill:#345F95;}
	.st1{fill:#FFFFFF;}
</style>
<g>
	<path class="st0" d="M800,400c0,220.9-179.1,400-400,400C179.1,800,0,620.9,0,400C0,179.1,179.1,0,400,0C620.9,0,800,179.1,800,400
		"/>
	<path class="st0" d="M715.1,400c0,174-141.1,315.1-315.1,315.1C226,715.1,84.9,574,84.9,400C84.9,226,226,84.9,400,84.9
		C574,84.9,715.1,226,715.1,400"/>
	<path class="st1" d="M376.6,506.9l26-97.8l61.5-22.5l15.3-57.5l-0.5-1.4l-60.5,22.1L462,185.5H338.2l-57.1,214.4l-47.6,17.4
		l-15.7,59.3l47.6-17.4l-33.6,126.3h329.3l21.1-78.6L376.6,506.9"/>
</g>
</svg>
