<?xml version="1.0" encoding="utf-8"?>
<!-- Generator: Adobe Illustrator 24.0.2, SVG Export Plug-In . SVG Version: 6.00 Build 0)  -->
<svg version="1.1" id="Слой_1" xmlns="http://www.w3.org/2000/svg" xmlns:xlink="http://www.w3.org/1999/xlink" x="0px" y="0px"
	 width="349px" height="100px" viewBox="0 0 349 100" style="enable-background:new 0 0 349 100;" xml:space="preserve">
<style type="text/css">
	.st0{fill:#343A40;}
</style>
<g>
	<g>
		<path class="st0" d="M63.5,50c0,14.3,8.6,26.6,20.9,32c0.7-0.8,1.4-1.6,2.1-2.4c-11.8-4.8-20-16.2-20-29.6c0-1.4,0.1-2.8,0.3-4.2
			c-1-0.4-1.9-0.7-2.9-1C63.6,46.5,63.5,48.2,63.5,50z"/>
		<g>
			<path class="st0" d="M64,43.8c1,0.3,2,0.6,2.9,1c1.8-11.1,9.4-20.3,19.5-24.4c-0.7-0.8-1.4-1.6-2.1-2.4
				C73.8,22.6,66.1,32.2,64,43.8z"/>
			<path class="st0" d="M50,32.7c5.8,0,10.5-4.7,10.5-10.5S55.8,11.7,50,11.7s-10.5,4.7-10.5,10.5S44.2,32.7,50,32.7z M50,14.7
				c4.1,0,7.5,3.4,7.5,7.5s-3.4,7.5-7.5,7.5s-7.5-3.4-7.5-7.5S45.9,14.7,50,14.7z"/>
			<path class="st0" d="M17.9,84.3c-0.2-1.5-0.3-3.1-0.3-4.7c0-9.7,3.8-18.5,10-25v-1.4c-6.8,6.7-11,16.1-11,26.4
				c0,1.2,0.1,2.4,0.2,3.6C17.2,83.5,17.6,83.9,17.9,84.3z"/>
			<path class="st0" d="M66.9,44.8c-1-0.4-1.9-0.7-2.9-1c-3.2-0.9-6.7-1.4-10.2-1.4c-9.7,0-18.5,3.7-25.1,9.8v1.4
				c6.5-6.3,15.4-10.2,25.1-10.2c3.5,0,6.8,0.5,10,1.4c1,0.3,2,0.6,2.9,1C79,50.5,88,61.7,89.7,75.1c0.3-0.4,0.6-0.9,0.8-1.4
				C88.4,60.4,79.2,49.4,66.9,44.8z"/>
			<path class="st0" d="M89.5,19.3c-0.7-0.9-1.4-1.7-2.1-2.5C78.2,6.5,64.8,0,50,0C35.1,0,21.8,6.5,12.6,16.8
				c-0.2,0.3-0.5,0.5-0.7,0.8C4.5,26.4,0,37.7,0,50c0,15.2,6.8,28.9,17.6,38.1c0.4,0.4,0.9,0.7,1.3,1.1c2.7,2.1,5.6,4,8.7,5.6
				c0.3,0.2,0.7,0.3,1,0.5c6.5,3.1,13.7,4.8,21.3,4.8c14.8,0,28.2-6.5,37.3-16.8c0.7-0.8,1.4-1.7,2.1-2.5c0.2-0.2,0.3-0.4,0.5-0.7
				c0.3-0.5,0.7-0.9,1-1.4c5.7-8.1,9-18,9-28.6C100,38.4,96.1,27.8,89.5,19.3z M90.5,73.7c-0.3,0.5-0.5,0.9-0.8,1.4
				c-1,1.6-2.1,3.1-3.3,4.6c-0.7,0.8-1.4,1.6-2.1,2.4C75.7,91.2,63.5,97,50,97c-7.7,0-14.9-1.8-21.3-5.1c-0.3-0.2-0.7-0.4-1-0.5
				c-3.5-1.9-6.8-4.3-9.7-7c-0.4-0.4-0.8-0.7-1.1-1.1C8.3,74.7,3,62.9,3,50c0-11.8,4.4-22.6,11.6-30.9c0.2-0.3,0.5-0.5,0.7-0.8
				C23.9,9,36.3,3,50,3c13.5,0,25.7,5.8,34.3,15c0.7,0.8,1.4,1.6,2.1,2.4C93,28.5,97,38.8,97,50C97,58.6,94.6,66.7,90.5,73.7z"/>
			<path class="st0" d="M15.3,18.4c-0.2,0.3-0.5,0.5-0.7,0.8c7.8,5,13,13.8,13,23.7v10.3v1.4v36.7c0.3,0.2,0.7,0.4,1,0.5V53.6v-1.4
				v-9.3C28.7,32.6,23.4,23.6,15.3,18.4z"/>
		</g>
	</g>
	<g>
		<path class="st0" d="M129.4,46.8L120.6,20h7.3l5.5,20h0.3l5.3-20h6.9l-8.6,26.8H129.4z"/>
		<path class="st0" d="M151.8,46.8V20.1h6.4v26.8h-6.4V46.8z"/>
		<path class="st0" d="M172.3,46.8V25.3h-7.8v-5.2h22.1v5.2h-7.8v21.5H172.3z"/>
		<path class="st0" d="M199.2,46.8h-6.4V20.1h11.6c6.1,0,9.8,3.3,9.8,8.7c0,3.3-1.7,6.3-4.7,7.6l5.5,10.4h-7.2l-4.7-9.5h-3.9
			L199.2,46.8L199.2,46.8z M199.2,32.7h4.3c2.6,0,4.2-1.4,4.2-3.8S206,25,203.5,25h-4.3V32.7z"/>
		<path class="st0" d="M227.7,36.9c0,3.2,1.8,5.2,5,5.2s5-2,5-5.2V20.1h6.4v17.5c0,6-4.5,9.9-11.4,9.9s-11.4-4-11.4-9.9V20.1h6.4
			V36.9z"/>
		<path class="st0" d="M258.9,46.8L250.1,20h7.3l5.5,20h0.3l5.3-20h6.9l-8.6,26.8H258.9z"/>
		<path class="st0" d="M281.3,46.8V20.1h6.4v26.8h-6.4V46.8z"/>
		<path class="st0" d="M310.5,40.8h-8.9l-1.8,6h-6.4l9.1-26.8h7.8l9.1,26.8h-7L310.5,40.8z M302.9,36.1h6.4l-3-10.1h-0.4L302.9,36.1
			z"/>
		<path class="st0" d="M325.1,46.8V20.1h5.2l11.5,15.6h0.3V20.1h6.1v26.8h-5.1l-11.6-15.8h-0.3v15.8h-6.1V46.8z"/>
	</g>
	<g>
		<path class="st0" d="M134,83.8V64.5h-7.1v-1.8h16.2v1.8H136v19.3H134z"/>
		<path class="st0" d="M179.1,83.8h-2V62.7h7.6c4.1,0,6.8,2.4,6.8,6.2c0,3-1.7,5.2-4.5,6l5.1,9h-2.3l-4.9-8.7c-0.1,0-0.2,0-0.3,0
			h-5.4v8.6H179.1z M179.1,73.4h5.4c3.1,0,4.9-1.6,4.9-4.5c0-2.8-1.9-4.5-5-4.5h-5.3L179.1,73.4L179.1,73.4z"/>
		<path class="st0" d="M238,77.4h-8.9l-2.3,6.5h-2.1l7.9-21.1h2l7.9,21.1h-2.1L238,77.4z M229.7,75.6h7.7l-3.8-10.3h-0.2L229.7,75.6
			z"/>
		<path class="st0" d="M283.2,62.7c6.4,0,10,4,10,10.6c0,6.6-3.6,10.6-10,10.6h-7V62.7H283.2z M278.2,82h4.8c5.2,0,8.1-3.3,8.1-8.7
			c0-5.5-2.9-8.8-8.1-8.8h-4.8V82z"/>
		<path class="st0" d="M340.5,83.8h-12.8V62.7h12.8v1.8h-10.8v7.6H340v1.8h-10.2V82h10.8L340.5,83.8L340.5,83.8z"/>
	</g>
</g>
</svg>
