<?xml version="1.0" encoding="utf-8"?>
<!-- Generator: Adobe Illustrator 24.0.2, SVG Export Plug-In . SVG Version: 6.00 Build 0)  -->
<svg version="1.1" id="present-statistic" xmlns="http://www.w3.org/2000/svg" xmlns:xlink="http://www.w3.org/1999/xlink" x="0px"
	 y="0px" width="70px" height="70px" viewBox="0 0 70 70" style="enable-background:new 0 0 70 70;" xml:space="preserve">
<style type="text/css">
	.st0{fill:#007BFF;}
	.st1{fill:#12A2B8;}
	.st2{fill:#E2E2E2;}
	.st3{fill:#343A40;}
	.st4{fill:#28A745;}
</style>
<g>
	<g>
		<path class="st0" d="M29,50.9c-6.4-0.9-11.9-4.6-15.4-9.7L1,53.7c-1.8,1.8-0.9,4.8,1.5,5.4l5.3,1.3c1.2,0.3,2.1,1.2,2.4,2.4
			l1.1,4.7c0.6,2.6,3.9,3.3,5.6,1.3l15.3-17.7C31.2,51.2,30.1,51.1,29,50.9z M15.3,50L10,55.7c-0.4,0.4-0.9,0.6-1.4,0.6
			s-0.9-0.2-1.3-0.5c-0.8-0.8-0.8-2-0.1-2.8l5.3-5.7c0.7-0.8,1.9-0.8,2.7-0.1C16,48,16,49.2,15.3,50z M22.6,57.3l-2.7,2.8
			c-0.4,0.4-0.9,0.6-1.4,0.6s-0.9-0.2-1.3-0.5c-0.8-0.7-0.8-1.9-0.1-2.7l2.7-2.8c0.7-0.8,1.9-0.8,2.7-0.1S23.4,56.5,22.6,57.3z"/>
		<path class="st1" d="M32.3,51.2L32.3,51.2L32.3,51.2L32.3,51.2L32.3,51.2z"/>
	</g>
	<path class="st0" d="M69.1,53.7L56.5,41.2c-3.5,5.2-9,8.8-15.4,9.7c-1.1,0.2-2.2,0.3-3.4,0.3L53,68.8c1.7,2,5,1.3,5.6-1.3l1.1-4.7
		c0.3-1.2,1.2-2.1,2.4-2.4l5.3-1.3C70,58.5,70.8,55.5,69.1,53.7z M53.1,60.2c-0.4,0.4-0.8,0.5-1.3,0.5s-1-0.2-1.4-0.6l-2.7-2.8
		c-0.7-0.8-0.7-2,0.1-2.7s2-0.7,2.7,0.1l2.7,2.8C53.9,58.3,53.9,59.5,53.1,60.2z M63,55.8c-0.4,0.4-0.8,0.5-1.3,0.5s-1-0.2-1.4-0.6
		L55,50c-0.7-0.8-0.7-2,0.1-2.7s2-0.7,2.7,0.1l5.3,5.7C63.9,53.8,63.8,55,63,55.8z"/>
	<g>
		<g>
			<path class="st2" d="M35,0C20.4,0,8.5,11.8,8.5,26.5C8.5,32,10.2,37,13,41.2c4,6,10.5,10.3,18,11.4c1.3,0.2,2.6,0.3,4,0.3
				s2.7-0.1,4-0.3c7.5-1.1,14-5.4,18.1-11.4c2.8-4.2,4.4-9.2,4.4-14.7C61.5,11.8,49.6,0,35,0z M35,48.9c-12.3,0-22.4-10-22.4-22.4
				S22.6,4.1,35,4.1c12.3,0,22.4,10,22.4,22.4S47.3,48.9,35,48.9z"/>
			<ellipse class="st2" cx="35" cy="26.5" rx="17.8" ry="17.8"/>
		</g>
		<path class="st3" d="M35,4.5c-12.2,0-22,9.9-22,22s9.9,22,22,22s22-9.9,22-22S47.2,4.5,35,4.5z M35,44.6c-10,0-18-8.1-18-18
			c0-10,8.1-18,18-18c10,0,18,8.1,18,18C53.1,36.5,45,44.6,35,44.6z"/>
		<path class="st4" d="M37.2,15l2.2,4.5c0.3,0.6,1.1,1.2,1.8,1.3l4.1,0.7c2.6,0.4,3.2,2.3,1.3,4.2l-3.1,3.1
			c-0.5,0.5-0.8,1.5-0.6,2.3l0.9,3.9c0.7,3.1-0.9,4.3-3.6,2.6l-3.8-2.2c-0.7-0.4-1.8-0.4-2.5,0l-3.8,2.2c-2.7,1.6-4.3,0.4-3.6-2.6
			l0.9-3.9c0.2-0.7-0.1-1.8-0.6-2.3l-3.1-3.1c-1.9-1.9-1.2-3.7,1.3-4.2l4.1-0.7c0.7-0.1,1.5-0.7,1.8-1.3L33,15
			C34,12.6,36,12.6,37.2,15z"/>
	</g>
</g>
</svg>
