<?xml version="1.0" encoding="utf-8"?>
<!-- Generator: Adobe Illustrator 24.0.2, SVG Export Plug-In . SVG Version: 6.00 Build 0)  -->
<svg version="1.1" id="Слой_1" xmlns="http://www.w3.org/2000/svg" xmlns:xlink="http://www.w3.org/1999/xlink" x="0px" y="0px"
	 width="771.4px" height="800px" viewBox="0 0 771.4 800" style="enable-background:new 0 0 771.4 800;" xml:space="preserve">
<style type="text/css">
	.st0{fill:#12A1B8;}
	.st1{fill:#E0E2E4;}
</style>
<g>
	<path class="st0" d="M387.7,0h-4c-34.7,0-63.6,0-86.5,3.1c-24.2,3.3-46.1,10.4-63.6,28s-24.7,39.4-28,63.6
		c-2.2,16.4-2.8,55.8-3,89.5l57.9-0.9c0.2-32.7,0.7-67.8,2.5-80.9c2.4-17.8,6.5-25.4,11.6-30.4c5-5,12.6-9.2,30.4-11.6
		c18.6-2.5,43.6-2.6,80.8-2.6c37.2,0,62.2,0.1,80.8,2.6c17.8,2.4,25.4,6.5,30.4,11.6c5,5,9.2,12.6,11.6,30.4
		c1.8,13.1,2.3,48.2,2.5,80.9l57.9,0.9c-0.2-33.7-0.8-73-3-89.5c-3.3-24.2-10.4-46.1-28-63.6s-39.4-24.7-63.6-28
		C451.3,0,422.4,0,387.7,0z"/>
	<g>
		<path class="st1" d="M512.4,508c-8.3,0-14,3.3-18,10.5c-4.7,8.4-7.1,22.5-7.1,41.9c0,20,2.4,34.3,7.1,42.5c4,7,9.8,10.3,18.1,10.3
			s14.1-3.3,18.1-10.3c4.7-8.2,7.1-22.5,7.1-42.5c0-19.5-2.4-33.6-7.1-41.9C526.4,511.4,520.7,508,512.4,508z"/>
		<path class="st1" d="M726.2,228.4c-32.5-32.5-79.4-41.7-157.4-44.2l-57.9-0.9c-15.1-0.1-31.1-0.1-48.1-0.1H308.6
			c-17,0-33,0-48.1,0.1l-57.9,0.9c-78,2.5-124.8,11.7-157.4,44.2C0,273.6,0,346.3,0,491.8S0,710,45.2,755.1
			c45.2,45.2,117.9,45.2,263.4,45.2h154.3c145.5,0,218.2,0,263.4-45.2c45.2-45.2,45.2-117.9,45.2-263.4S771.4,273.6,726.2,228.4z
			 M190.7,507.2c-15.1-17.7-22.8-43.5-22.8-76.8c0-33,7.7-58.7,22.8-76.4c15.4-18.1,37-27.2,64.3-27.2c27.2,0,48.9,9.1,64.4,27.2
			c15.3,17.7,23.1,43.4,23.1,76.4c0,33.3-7.8,59.1-23.1,76.9c-15.6,18-37.3,27.2-64.4,27.2C227.7,534.4,206.1,525.3,190.7,507.2z
			 M317,664.7L317,664.7c-5.1,3.1-10.3,4.7-15.6,4.7c-7.3,0-13.8-2.7-19.3-7.9c-5.5-5.3-8.3-12.1-8.3-20.2c0-6.4,1.9-12.8,5.5-19
			L442,341.3c3.3-5.8,7.4-10.3,12.4-13.4c5.1-3.1,10.3-4.7,15.6-4.7c7.3,0,13.8,2.7,19.3,7.9c5.5,5.3,8.3,12.1,8.3,20.2
			c0,6.4-1.9,12.8-5.5,19L329.4,651.3C326.2,657.1,322,661.6,317,664.7z M576.7,637.3c-15.4,18.1-37,27.2-64.3,27.2
			c-27.2,0-48.8-9.2-64.3-27.2c-15.1-17.7-22.8-43.7-22.8-77.3c0-33,7.8-58.6,23.1-76.2c15.6-17.9,37.1-26.9,64-26.9
			c27.2,0,48.8,9.2,64.2,27.2c15.1,17.7,22.8,43.4,22.8,76.4C599.5,593.7,591.8,619.6,576.7,637.3z"/>
		<path class="st1" d="M254.9,378c-8.3,0-13.9,3.2-17.8,10.2c-4.6,8.2-6.9,22.4-6.9,42.2c0,20.1,2.3,34.4,6.9,42.6
			c3.9,7,9.5,10.2,17.8,10.2c8.6,0,14.4-3.2,18.2-10.2c4.6-8.2,6.9-22.6,6.9-42.6c0-19.5-2.4-33.6-7.1-41.9
			C268.9,381.3,263.2,378,254.9,378z"/>
	</g>
</g>
</svg>
