<?xml version="1.0" encoding="utf-8"?>
<!-- Generator: Adobe Illustrator 24.0.2, SVG Export Plug-In . SVG Version: 6.00 Build 0)  -->
<svg version="1.1" id="Слой_1" xmlns="http://www.w3.org/2000/svg" xmlns:xlink="http://www.w3.org/1999/xlink" x="0px" y="0px"
	 width="771.4px" height="800px" viewBox="0 0 771.4 800" style="enable-background:new 0 0 771.4 800;" xml:space="preserve">
<style type="text/css">
	.st0{fill:#E0E2E4;}
	.st1{fill:#12A1B8;}
</style>
<g>
	<path class="st0" d="M726.2,228.4c-32.5-32.5-79.4-41.7-157.4-44.2l-57.9-0.9c-15.1-0.1-31.1-0.1-48.1-0.1H308.6
		c-17,0-33,0-48.1,0.1l-57.9,0.9c-78,2.5-124.8,11.7-157.4,44.2C0,273.6,0,346.3,0,491.8S0,710,45.2,755.1
		c45.2,45.2,117.9,45.2,263.4,45.2h154.3c145.5,0,218.2,0,263.4-45.2c45.2-45.2,45.2-117.9,45.2-263.4S771.4,273.6,726.2,228.4z
		 M385.7,462.8c53.4,0,106.1,37,106.1,93.2c0,45.9-35.1,79-77.1,89.6v0.4c0,16-13,28.9-28.9,28.9c-16,0-28.9-13-28.9-28.9v-0.4
		c-42-10.6-77.1-43.7-77.1-89.6c0-16,13-28.9,28.9-28.9c16,0,28.9,13,28.9,28.9c0,14.8,16.4,35.4,48.2,35.4s48.2-20.5,48.2-35.4
		c0-14.8-16.4-35.4-48.2-35.4c-53.4,0-106.1-37-106.1-93.2c0-45.9,35.1-79,77.1-89.6v-0.4c0-16,13-28.9,28.9-28.9
		c16,0,28.9,13,28.9,28.9v0.4c42,10.6,77.1,43.7,77.1,89.6c0,16-13,28.9-28.9,28.9c-16,0-28.9-13-28.9-28.9
		c0-14.8-16.4-35.4-48.2-35.4s-48.2,20.5-48.2,35.4C337.5,442.3,353.9,462.8,385.7,462.8z"/>
	<path class="st1" d="M387.7,0h-4c-34.7,0-63.6,0-86.5,3.1c-24.2,3.3-46.1,10.4-63.6,28s-24.7,39.4-28,63.6
		c-2.2,16.4-2.8,55.8-3,89.5l57.9-0.9c0.2-32.7,0.7-67.8,2.5-80.9c2.4-17.8,6.5-25.4,11.6-30.4c5-5,12.6-9.2,30.4-11.6
		c18.6-2.5,43.6-2.6,80.8-2.6c37.2,0,62.2,0.1,80.8,2.6c17.8,2.4,25.4,6.5,30.4,11.6c5,5,9.2,12.6,11.6,30.4
		c1.8,13.1,2.3,48.2,2.5,80.9l57.9,0.9c-0.2-33.7-0.8-73-3-89.5c-3.3-24.2-10.4-46.1-28-63.6s-39.4-24.7-63.6-28
		C451.3,0,422.4,0,387.7,0z"/>
</g>
</svg>
