<svg width="20" height="14" viewBox="0 0 20 14" fill="none" xmlns="http://www.w3.org/2000/svg">
<path d="M19.684 5.07427C19.684 5.07427 18.802 5.71027 18.31 5.92227C17.818 6.13427 17.622 5.75227 17.622 5.75227L15.388 2.35827C15.352 2.17627 15.732 2.02027 15.732 2.02027C15.732 2.02027 16.51 1.40227 16.934 1.17227C17.358 0.942273 17.622 1.34227 17.622 1.34227C17.622 1.34227 19.422 4.16227 19.684 4.56427C19.946 4.96627 19.684 5.07427 19.684 5.07427ZM16.934 5.58227C16.934 5.58227 17.01 5.85427 16.762 6.09027C16.514 6.32627 15.49 7.50627 15.388 7.61627C15.388 7.61627 15.198 7.91427 14.872 7.44627C14.546 6.98027 10.79 3.76227 10.578 3.71627C10.366 3.67027 10.382 3.48227 9.88998 3.71627C9.39798 3.95027 7.31198 4.90427 7.31198 4.90427C7.31198 4.90427 6.68798 5.01827 6.45198 4.56427C6.21798 4.11027 6.50598 3.75627 6.96798 3.54627C7.42998 3.33627 9.37398 2.35827 9.37398 2.35827C9.37398 2.35827 10.228 1.78027 11.436 1.85027C12.644 1.92027 15.388 2.86827 15.388 2.86827L16.934 5.58227ZM5.76798 4.39427C5.96798 5.16227 6.79798 5.41227 6.79798 5.41227L4.39398 7.44827C4.39998 7.44827 4.08198 7.65227 3.67998 7.30827C3.29998 6.98427 2.67598 6.33027 2.67598 6.09227C2.67598 5.85427 5.33198 2.92227 5.08198 3.03827C5.42198 2.88227 7.12598 2.82627 7.14398 3.03827C7.15798 3.25027 5.61398 3.80827 5.76798 4.39427ZM2.67598 5.58227C2.29998 6.10827 1.98798 5.92027 1.98798 5.92027C1.98798 5.92027 1.25798 5.60827 0.613984 5.07227C-0.0300163 4.53627 0.269984 4.22427 0.269984 4.22427C0.269984 4.22427 1.79998 2.12427 2.33198 1.34027C2.86398 0.556273 3.36198 0.832273 3.36198 0.832273C3.36198 0.832273 4.42398 1.75827 4.73598 2.02027C5.04998 2.28227 4.73598 2.69827 4.73598 2.69827C4.73598 2.69827 3.05198 5.05427 2.67598 5.58227ZM6.79798 5.75227C6.79798 5.75227 7.19798 5.39227 7.65798 5.92227C8.10198 6.43427 7.65798 6.77027 7.65798 6.77027L5.59598 8.63627C5.59598 8.63627 5.10598 8.80427 4.73598 8.46827C4.36798 8.13027 4.56398 7.79027 4.56398 7.79027L6.79798 5.75227ZM8.00198 6.93827C8.00198 6.93827 8.40198 6.57627 8.86198 7.10827C9.30598 7.62027 8.86198 7.95627 8.86198 7.95627L6.62598 9.99227C6.62598 9.99227 6.13598 10.1583 5.76798 9.82227C5.39998 9.48627 5.59598 9.14427 5.59598 9.14427L8.00198 6.93827ZM8.68798 8.46627C8.68798 8.46627 9.08798 8.10427 9.54798 8.63427C9.99198 9.14627 9.54798 9.48227 9.54798 9.48227L7.82998 11.1803C7.82998 11.1803 7.33998 11.3483 6.96998 11.0103C6.60198 10.6743 6.79798 10.3323 6.79798 10.3323L8.68798 8.46627ZM9.37598 10.1623C9.37598 10.1623 9.77598 9.80227 10.234 10.3323C10.678 10.8443 10.234 11.1803 10.234 11.1803L9.03198 12.3683C9.03198 12.3683 8.54198 12.5363 8.17198 12.1983C7.80398 11.8623 7.99998 11.5203 7.99998 11.5203L9.37598 10.1623ZM11.266 12.5363C11.196 12.9663 10.406 13.2143 10.406 13.2143L9.54798 12.3663L10.578 11.1783C10.578 11.1803 11.336 12.1083 11.266 12.5363ZM9.88998 9.65227C9.88998 9.65227 9.92998 9.57627 10.062 9.31227C10.194 9.04827 9.76598 8.16627 9.37398 8.12427C9.37398 8.12427 9.15398 8.04827 9.37398 7.78427C9.37398 7.78427 9.04198 6.67227 8.17198 6.59627C8.17198 6.59627 7.78198 5.46427 7.31198 5.40827C7.31198 5.40827 9.79198 4.23027 9.88998 4.22027C9.98598 4.21027 10.266 3.98627 10.578 4.22027C10.578 4.22027 13.802 6.55027 14.358 7.44227C14.914 8.33427 15.904 9.81627 15.904 9.81627C15.904 9.81627 16.116 10.2063 15.388 10.6643C14.66 11.1223 14.358 10.3263 14.358 10.3263L13.328 8.29027C13.328 8.29027 12.73 8.18027 12.984 8.62827C13.238 9.07827 14.358 11.0043 14.358 11.0043C14.358 11.0043 14.584 11.4283 14.186 11.6823C13.788 11.9363 13.526 11.9523 13.156 11.5123C12.786 11.0723 11.954 9.47627 11.954 9.47627C11.954 9.47627 11.422 9.17427 11.61 9.64627C11.798 10.1183 12.812 11.6823 12.812 11.6823C12.812 11.6823 12.768 11.9003 12.296 12.1903C11.824 12.4823 11.608 12.0203 11.608 12.0203C11.608 12.0203 10.418 10.1323 10.234 9.98427C10.052 9.84227 9.88998 9.65227 9.88998 9.65227Z" fill="#A4A4A6"/>
</svg>
