<svg width="18" height="16" viewBox="0 0 18 16" fill="none" xmlns="http://www.w3.org/2000/svg">
<path d="M0.563891 13.0634H7.31575C7.62737 13.0634 7.87964 12.8742 7.87964 12.6405V11.7984C7.87964 11.5647 7.62737 11.3755 7.31575 11.3755H0.563891C0.252267 11.3755 0 11.5647 0 11.7984V12.6405C0 12.8742 0.252267 13.0634 0.563891 13.0634ZM0.563891 15.3116H7.31575C7.62737 15.3116 7.87964 15.1224 7.87964 14.8887V14.0465C7.87964 13.8128 7.62737 13.6236 7.31575 13.6236H0.563891C0.252267 13.6236 0 13.8128 0 14.0465V14.8887C0 15.1224 0.252267 15.3116 0.563891 15.3116ZM0.563891 10.8116H7.31575C7.62737 10.8116 7.87964 10.6224 7.87964 10.3887V9.54653C7.87964 9.31281 7.62737 9.12361 7.31575 9.12361H0.563891C0.252267 9.12361 0 9.31281 0 9.54653V10.3887C0 10.6224 0.252267 10.8116 0.563891 10.8116ZM8.97403 10.589C8.98145 10.5222 9 10.4591 9 10.3924V9.55024C9 8.68214 8.25804 8.00325 7.31204 8.00325H5.06018C5.06018 6.44884 6.31781 5.19121 7.87222 5.19121C9.42663 5.19121 10.6843 6.44884 10.6843 8.00325C10.688 9.16071 9.9831 10.1586 8.97403 10.589ZM0 2.93565H15.7519V13.0597H8.93322C8.97403 12.9262 9 12.7852 9 12.6368V11.9319H12.3759C12.3759 10.6892 13.385 9.68008 14.6241 9.68008V6.30415C13.3813 6.30415 12.3759 5.29508 12.3759 4.0523H3.37593C3.37593 5.29508 2.36686 6.30415 1.12407 6.30415V7.99212H0.563891C0.363561 7.99212 0.178071 8.02922 0 8.08486V2.93565ZM18 0.6875V11.9394H16.8759V1.81157H1.12407V0.6875H18Z" fill="#A4A4A6"/>
</svg>
