<?xml version="1.0" encoding="utf-8"?>
<!-- Generator: Adobe Illustrator 24.0.2, SVG Export Plug-In . SVG Version: 6.00 Build 0)  -->
<svg version="1.1" id="Слой_1" xmlns="http://www.w3.org/2000/svg" xmlns:xlink="http://www.w3.org/1999/xlink" x="0px" y="0px"
	 width="800px" height="800px" viewBox="0 0 800 800" style="enable-background:new 0 0 800 800;" xml:space="preserve">
<style type="text/css">
	.st0{fill-rule:evenodd;clip-rule:evenodd;fill:#343A40;}
</style>
<path class="st0" d="M400,0C289.5,0,200,89.5,200,200s89.5,200,200,200s200-89.5,200-200S510.5,0,400,0z M500,200
	c0-55-45-100-100-100s-100,45-100,100s45,100,100,100S500,255,500,200z M700,700c-10-35.5-165-100-300-100
	c-134.5,0-288.5,64-300,100H700z M0,700c0-133,266.5-200,400-200s400,67,400,200v100H0V700z"/>
</svg>
