<?xml version="1.0" encoding="utf-8"?>
<!-- Generator: Adobe Illustrator 24.0.2, SVG Export Plug-In . SVG Version: 6.00 Build 0)  -->
<svg version="1.1" id="Layer_1" xmlns="http://www.w3.org/2000/svg" xmlns:xlink="http://www.w3.org/1999/xlink" x="0px" y="0px"
	 width="70px" height="70px" viewBox="0 0 70 70" style="enable-background:new 0 0 70 70;" xml:space="preserve">
<style type="text/css">
	.st0{fill:#E9ECEF;}
</style>
<g>
	<path class="st0" d="M35,0C15.7,0,0,15.7,0,35c0,19.3,15.7,35,35,35c19.3,0,35-15.7,35-35C70,15.7,54.3,0,35,0z M35,66.2
		c-17.2,0-31.2-14-31.2-31.2S17.8,3.8,35,3.8s31.2,14,31.2,31.2S52.2,66.2,35,66.2z"/>
	<path class="st0" d="M44.8,33.7l-16.5-9.5c-1-0.6-2.2,0.2-2.2,1.3v18.9c0,1.2,1.2,1.9,2.2,1.3l16.5-9.5
		C45.8,35.7,45.8,34.3,44.8,33.7z"/>
</g>
</svg>
