<?xml version="1.0" encoding="utf-8"?>
<!-- Generator: Adobe Illustrator 24.0.2, SVG Export Plug-In . SVG Version: 6.00 Build 0)  -->
<svg version="1.1" id="Layer_1" xmlns="http://www.w3.org/2000/svg" xmlns:xlink="http://www.w3.org/1999/xlink" x="0px" y="0px"
	 width="10px" height="10px" viewBox="0 0 10 10" style="enable-background:new 0 0 10 10;" xml:space="preserve">
<style type="text/css">
	.st0{fill:#E9ECEF;}
</style>
<path class="st0" d="M9.3,4.2H5.8V0.8C5.8,0.4,5.4,0,5,0h0C4.6,0,4.2,0.4,4.2,0.8v3.4H0.7C0.3,4.2,0,4.5,0,4.9v0
	c0,0.4,0.3,0.7,0.7,0.7h3.5v3.5C4.2,9.6,4.6,10,5,10h0c0.4,0,0.8-0.4,0.8-0.8V5.7h3.5C9.7,5.7,10,5.4,10,5v0C10,4.5,9.7,4.2,9.3,4.2
	z"/>
</svg>
