<?xml version="1.0" encoding="utf-8"?>
<!-- Generator: Adobe Illustrator 24.0.2, SVG Export Plug-In . SVG Version: 6.00 Build 0)  -->
<svg version="1.1" id="Layer_1" xmlns="http://www.w3.org/2000/svg" xmlns:xlink="http://www.w3.org/1999/xlink" x="0px" y="0px"
	 width="687.4px" height="800px" viewBox="0 0 687.4 800" style="enable-background:new 0 0 687.4 800;" xml:space="preserve">
<style type="text/css">
	.st0{fill:#343A40;}
</style>
<g>
	<g>
		<g>
			<path class="st0" d="M190.5,224.6c-44,0-79.8,35.8-79.8,79.8s35.8,79.8,79.8,79.8s79.8-35.8,79.8-79.8S234.5,224.6,190.5,224.6z
				 M190.6,330.9c-14.7,0-26.6-11.9-26.6-26.6s11.9-26.6,26.6-26.6s26.6,11.9,26.6,26.6C217.1,319,205.2,330.9,190.6,330.9z"/>
		</g>
	</g>
	<g>
		<g>
			<path class="st0" d="M403.3,437.3c-44,0-79.8,35.8-79.8,79.8s35.8,79.8,79.8,79.8s79.8-35.8,79.8-79.8
				C483,473.1,447.2,437.3,403.3,437.3z M403.3,543.6c-14.7,0-26.6-11.9-26.6-26.6c0-14.7,11.9-26.6,26.6-26.6s26.6,11.9,26.6,26.6
				C429.8,531.7,417.9,543.6,403.3,543.6z"/>
		</g>
	</g>
	<g>
		<g>
			<path class="st0" d="M428.5,279.1c-10.4-10.4-27.2-10.4-37.6,0L165.3,504.7c-10.4,10.4-10.4,27.2,0,37.6c5.2,5.2,12,7.8,18.8,7.8
				s13.6-2.6,18.8-7.8l225.6-225.6C438.9,306.3,438.9,289.5,428.5,279.1z"/>
		</g>
	</g>
	<path class="st0" d="M667.1,306.8c-13.2-38-32.4-73.5-57.2-105.4c-24.5-31.6-53.7-59-86.8-81.3c-27.9-18.8-58-33.7-89.7-44.2
		l35-12.9c12.7-4.7,21.2-16.9,21.2-30.4c0-3.8-0.7-7.6-2-11.2c-6.3-17-25-25.6-41.8-19.4L303.6,54.6c-6.7,2.5-11.8,7.9-13.9,14.7
		c-2.1,6.8-0.9,13.9,3.2,19.6L382.5,212c10.5,14.5,30.8,17.7,45.3,7.1c8.4-6.1,13.4-15.9,13.4-26.2c0-6.9-2.1-13.5-6.2-19
		l-28.5-39.2c128.6,39.4,216.8,157.5,216.8,293.6c0,169.4-137.8,307.3-307.3,307.3c-103.6,0-199.6-51.9-256.9-138.9
		c-9.6-14.5-28.7-18.8-43.6-9.8C8,591.5,2.8,598.7,0.8,607.4c-1.9,8.6-0.3,17.4,4.5,24.8C73.8,736.3,188.8,799,312.9,800
		c1,0,1.9,0,2.9,0c49.2,0,97-9.5,142.3-28.4c44.5-18.5,84.5-45.2,119-79.4c34.4-34.1,61.5-73.9,80.5-118.1
		c19.7-45.9,29.7-94.6,29.8-144.8C687.6,387.3,680.7,346.1,667.1,306.8z"/>
</g>
</svg>
