<?xml version="1.0" encoding="utf-8"?>
<!-- Generator: Adobe Illustrator 24.0.2, SVG Export Plug-In . SVG Version: 6.00 Build 0)  -->
<svg version="1.1" id="Слой_1" xmlns="http://www.w3.org/2000/svg" xmlns:xlink="http://www.w3.org/1999/xlink" x="0px" y="0px"
	 width="657.3px" height="666.7px" viewBox="0 0 657.3 666.7" style="enable-background:new 0 0 657.3 666.7;" xml:space="preserve"
	>
<style type="text/css">
	.st0{fill:#7F7F7F;}
	.st1{fill:#DDB926;}
	.st2{fill:#D3D3D3;}
	.st3{fill:#FFFFFF;}
	.st4{fill:url(#SVGID_1_);}
	.st5{opacity:0.3;fill:#FFFFFF;enable-background:new    ;}
</style>
<g>
	<ellipse class="st0" cx="329.8" cy="333.4" rx="327.5" ry="327.5"/>
	<circle class="st1" cx="320.7" cy="329.5" r="320.7"/>
	<circle class="st2" cx="320.7" cy="329.5" r="320.7"/>
	<circle class="st0" cx="328" cy="322.2" r="230.2"/>
	<circle class="st3" cx="303.1" cy="347.1" r="232.1"/>
	<circle class="st2" cx="312.9" cy="337.3" r="232.1"/>
	<g>
		
			<linearGradient id="SVGID_1_" gradientUnits="userSpaceOnUse" x1="166.9007" y1="337.3353" x2="426.0778" y2="337.3353" gradientTransform="matrix(1 0 0 -1 0 666)">
			<stop  offset="0" style="stop-color:#C0C8D2"/>
			<stop  offset="0.1845" style="stop-color:#838C9C"/>
			<stop  offset="0.4483" style="stop-color:#C2CAD3"/>
			<stop  offset="0.6455" style="stop-color:#F1F2F7"/>
			<stop  offset="0.7962" style="stop-color:#AAB3C2"/>
			<stop  offset="0.9691" style="stop-color:#5A6578"/>
		</linearGradient>
		<path class="st4" d="M400.5,364.2c-12.1-11.4-26.9-16.7-41.5-16.7c-10.8,0-19.9-8.1-20.1-18.9l0,0c-0.2-11.8,10.1-20.5,21.8-19.3
			c22.8,2.2,46-8.7,58-30.3c15-26.8,6.4-61.8-19.2-78.8c-28.2-18.6-66.1-10.1-83.7,18.4c-11.5,18.6-11.5,41.2-1.9,59.3
			c5.9,11.1,2,24.7-9.3,30.2l-0.5,0.3c-9.7,4.7-21.7,1.8-27.5-7.2c-6.4-10.1-16-18.4-28.4-23.3c-23.1-9.1-50.1-2.6-66.4,16.1
			c-27.1,31.1-15.8,79.1,22.3,94.8c23,9.5,50.2,3.3,66.8-15.3c5.6-6.3,9.6-13.3,12.1-20.6c3.6-10.6,15.7-15.5,25.3-9.6l0.8,0.5
			c8.7,5.4,11,17.3,4.4,25c-4.1,4.8-7.5,10.4-10,16.8c-9.2,23.2-2.6,50.4,16.3,66.7c31.2,26.9,79.1,15.5,94.7-22.7
			C423.6,407.1,418,380.7,400.5,364.2z"/>
		<path class="st3" d="M387.8,351.4c-12.1-11.4-26.9-16.7-41.5-16.7c-10.8,0-19.9-8.1-20.1-18.9l0,0c-0.2-11.8,10.1-20.5,21.8-19.3
			c22.8,2.2,46-8.7,58-30.3c15-26.8,6.4-61.8-19.2-78.8c-28.2-18.6-66.1-10.1-83.7,18.4c-11.5,18.6-11.5,41.2-1.9,59.3
			c5.9,11.1,2,24.7-9.3,30.2l-0.5,0.3c-9.7,4.7-21.7,1.8-27.5-7.2c-6.4-10.1-16-18.4-28.4-23.3c-23.1-9.1-50.1-2.6-66.4,16.1
			c-27.1,31.1-15.8,79.1,22.3,94.8c23,9.5,50.2,3.3,66.8-15.3c5.6-6.3,9.6-13.3,12.1-20.6c3.6-10.6,15.7-15.5,25.3-9.6l0.8,0.5
			c8.7,5.4,11,17.3,4.4,25c-4.1,4.8-7.5,10.4-10,16.8c-9.2,23.2-2.6,50.4,16.3,66.7c31.2,26.9,79.1,15.5,94.7-22.7
			C410.9,394.4,405.3,368,387.8,351.4z"/>
	</g>
	<path class="st5" d="M491.9,59.9L43.7,483.2c28.6,55.1,72.6,100.9,126.4,131.5l446-421.1C588.4,138,545.1,91.5,491.9,59.9z"/>
</g>
</svg>
