<?xml version="1.0" encoding="utf-8"?>
<!-- Generator: Adobe Illustrator 24.0.2, SVG Export Plug-In . SVG Version: 6.00 Build 0)  -->
<svg version="1.1" id="Layer_1" xmlns="http://www.w3.org/2000/svg" xmlns:xlink="http://www.w3.org/1999/xlink" x="0px" y="0px"
	 width="706.8px" height="800px" viewBox="0 0 706.8 800" style="enable-background:new 0 0 706.8 800;" xml:space="preserve">
<style type="text/css">
	.st0{fill-rule:evenodd;clip-rule:evenodd;fill:#343A40;}
	.st1{fill:#343A40;}
</style>
<g>
	<path class="st0" d="M0,145v217.6C0,565.8,151.8,753.5,353.4,800C555,753.5,706.8,565.8,706.8,362.6V145L353.4,0L0,145z M644,362.6
		c0,82.7-29.1,166.1-81.8,234.9c-52.6,68.6-125.8,119-206.2,141.9l-2.6,0.7l-2.6-0.7c-80.3-22.9-153.6-73.3-206.2-141.9
		c-52.8-68.8-81.8-152.2-81.8-234.9V182.7L353.4,63.5L644,182.7V362.6z"/>
	<path class="st1" d="M509.3,285.1L509.3,285.1c-12.8-11.9-33.6-11.9-46.5-0.1L269.9,463l-61.5-56.5c-12.8-11.8-33.5-11.8-46.3,0
		l0,0c-12.9,11.8-12.9,31.1-0.1,43l85.4,78.5c12.4,11.4,32.5,11.4,44.9,0l216.8-200.1C522,316,522,296.9,509.3,285.1z"/>
</g>
</svg>
