<?xml version="1.0" encoding="utf-8"?>
<!-- Generator: Adobe Illustrator 24.0.2, SVG Export Plug-In . SVG Version: 6.00 Build 0)  -->
<svg version="1.1" id="Слой_1" xmlns="http://www.w3.org/2000/svg" xmlns:xlink="http://www.w3.org/1999/xlink" x="0px" y="0px"
	 width="101.2px" height="101.2px" viewBox="0 0 101.2 101.2" style="enable-background:new 0 0 101.2 101.2;" xml:space="preserve"
	>
<style type="text/css">
	.st0{fill:#343A40;}
</style>
<path class="st0" d="M99.7,92.6l-23-22.9c6-7.6,9.3-16.9,9.3-26.7c0-11.5-4.5-22.3-12.6-30.4S54.5,0,43,0S20.7,4.5,12.6,12.6
	S0,31.5,0,43s4.5,22.3,12.6,30.4C20.7,81.6,31.5,86,43,86c9.8,0,19-3.2,26.6-9.2l23,22.9c1,1,2.3,1.5,3.6,1.5c1.3,0,2.6-0.5,3.6-1.5
	C101.7,97.8,101.7,94.6,99.7,92.6z M43,75.9c-18.1,0-32.9-14.8-32.9-32.9S24.9,10.1,43,10.1S75.9,24.9,75.9,43S61.2,75.9,43,75.9z"
	/>
</svg>
