<?xml version="1.0" encoding="utf-8"?>
<!-- Generator: Adobe Illustrator 24.0.2, SVG Export Plug-In . SVG Version: 6.00 Build 0)  -->
<svg version="1.1" id="Слой_1" xmlns="http://www.w3.org/2000/svg" xmlns:xlink="http://www.w3.org/1999/xlink" x="0px" y="0px"
	 width="800px" height="764.1px" viewBox="0 0 800 764.1" style="enable-background:new 0 0 800 764.1;" xml:space="preserve">
<style type="text/css">
	.st0{fill-rule:evenodd;clip-rule:evenodd;fill:#FFC107;}
</style>
<path class="st0" d="M798.3,289.4c-4.6-14-17.5-23.4-32.2-23.4h-255L432.3,23.4v0C427.7,9.4,414.7,0,400,0
	c-14.7,0-27.7,9.4-32.2,23.4L288.9,266h-255c-14.7,0-27.7,9.4-32.2,23.4c-4.6,14,0.3,29.2,12.3,37.9l206.4,149.9l-78.8,242.6
	c-4.6,14,0.5,29.3,12.4,37.9c5.9,4.3,12.9,6.5,19.9,6.5c7,0,13.9-2.2,19.9-6.5L400,607.8l206.3,149.9c11.9,8.7,28,8.7,39.9,0
	c12-8.6,16.9-23.9,12.4-37.9l-78.8-242.5l206.4-149.9C798,318.6,802.9,303.3,798.3,289.4"/>
</svg>
