<?xml version="1.0" encoding="utf-8"?>
<!-- Generator: Adobe Illustrator 24.0.2, SVG Export Plug-In . SVG Version: 6.00 Build 0)  -->
<svg version="1.1" id="present-statistic" xmlns="http://www.w3.org/2000/svg" xmlns:xlink="http://www.w3.org/1999/xlink" x="0px"
	 y="0px" width="70px" height="70px" viewBox="0 0 70 70" style="enable-background:new 0 0 70 70;" xml:space="preserve">
<style type="text/css">
	.st0{fill:#007BFF;}
	.st1{fill:#E2E2E2;}
	.st2{fill:#D6D6D6;}
	.st3{fill:#343A40;}
	.st4{fill:#28A745;}
</style>
<g>
	<path class="st0" d="M49.4,70c-0.8,0-1.5-0.3-2-1l-8.6-10.8c-0.9-1.1-0.7-2.8,0.4-3.6c1.1-0.9,2.8-0.7,3.6,0.4l8.6,10.8
		c0.9,1.1,0.7,2.8-0.4,3.6C50.5,69.8,49.9,70,49.4,70z M20.6,70c-0.6,0-1.1-0.2-1.6-0.6c-1.1-0.9-1.3-2.5-0.4-3.6L27.2,55
		c0.9-1.1,2.5-1.3,3.6-0.4c1.1,0.9,1.3,2.5,0.4,3.6L22.6,69C22.1,69.7,21.4,70,20.6,70z"/>
	<g>
		<path class="st1" d="M6.2,10v43.5c0,1.7,1.4,3.1,3.1,3.1h51.3c1.7,0,3.1-1.4,3.1-3.1V10H6.2z"/>
		<path class="st2" d="M6.2,9.6V24h33.1l0.4-1c0.4-0.9,1.2-1.5,2.2-1.7c1-0.1,1.9,0.3,2.5,1.2l1,1.5h18.4V9.6H6.2z"/>
		<path class="st3" d="M54.5,52.2H43c-1.2,0-2.2-1-2.2-2.2s1-2.2,2.2-2.2h11.5c1.2,0,2.2,1,2.2,2.2S55.7,52.2,54.5,52.2z"/>
		<path class="st3" d="M22.1,18.9h-5.7c-1.2,0-2.2-1-2.2-2.2s1-2.2,2.2-2.2h5.7c1.2,0,2.2,1,2.2,2.2S23.3,18.9,22.1,18.9z"/>
	</g>
	<path class="st3" d="M67.4,5.3H2.6C1.2,5.3,0,4.1,0,2.6l0,0C0,1.2,1.2,0,2.6,0h64.7C68.8,0,70,1.2,70,2.6l0,0
		C70,4.1,68.8,5.3,67.4,5.3z"/>
	<path class="st4" d="M65.2,10.6H4.8c-1.5,0-2.6-1.2-2.6-2.6l0,0c0-1.5,1.2-2.6,2.6-2.6h60.4c1.5,0,2.6,1.2,2.6,2.6l0,0
		C67.9,9.4,66.7,10.6,65.2,10.6z"/>
</g>
<path class="st0" d="M50.7,33.7l-7.2-10.7c0-0.1-0.1-0.1-0.2-0.2l-0.1-0.1l0,0c-0.4-0.4-0.8-0.5-1.3-0.5c-0.6,0.1-1.1,0.5-1.4,1.1
	l-5.8,14.4l-5.6-11.1c-0.2-0.4-0.7-0.8-1.1-0.9l-0.1,0c-0.4-0.1-1,0.1-1.4,0.4l-7.2,7.2c-0.6,0.6-0.6,1.7,0,2.3
	c0.3,0.3,0.7,0.5,1.1,0.5c0.5,0,1-0.2,1.3-0.5l5.6-5.5l6.1,12.3c0.3,0.6,0.9,0.9,1.5,0.9h0.1c0.6-0.1,1.1-0.5,1.4-1.1l6-15.1
	l5.5,8.2c0.2,0.4,0.6,0.6,1,0.7c0.4,0.1,0.9,0,1.3-0.2C51,35.6,51.2,34.6,50.7,33.7z"/>
</svg>
