<?xml version="1.0" encoding="utf-8"?>
<!-- Generator: Adobe Illustrator 24.0.2, SVG Export Plug-In . SVG Version: 6.00 Build 0)  -->
<svg version="1.1" id="Слой_1" xmlns="http://www.w3.org/2000/svg" xmlns:xlink="http://www.w3.org/1999/xlink" x="0px" y="0px"
	 width="800px" height="800px" viewBox="0 0 800 800" style="enable-background:new 0 0 800 800;" xml:space="preserve">
<style type="text/css">
	.st0{fill:#343A40;}
</style>
<path class="st0" d="M400,800c-22.1,0-40-17.9-40-40v-40c0-22.1,17.9-40,40-40s40,17.9,40,40v40C440,782.1,422.1,800,400,800z
	 M660,700c-10.2,0-20.4-3.9-28.2-11.6L599.2,656c-15.7-15.6-15.7-40.9-0.1-56.6c15.6-15.7,40.9-15.7,56.6-0.1l32.6,32.4
	c15.7,15.6,15.7,40.9,0.1,56.6C680.5,696.1,670.3,700,660,700z M140,700c-10.3,0-20.5-3.9-28.4-11.8c-15.6-15.7-15.5-41,0.1-56.6
	l32.6-32.4c15.7-15.6,41-15.5,56.6,0.1c15.6,15.7,15.5,41-0.1,56.6l-32.6,32.4C160.4,696.1,150.2,700,140,700z M400,600
	c-110.3,0-200-89.7-200-200c0-110.3,89.7-200,200-200c110.3,0,200,89.7,200,200C600,510.3,510.3,600,400,600z M760,440h-40
	c-22.1,0-40-17.9-40-40s17.9-40,40-40h40c22.1,0,40,17.9,40,40S782.1,440,760,440z M80,440H40c-22.1,0-40-17.9-40-40s17.9-40,40-40
	h40c22.1,0,40,17.9,40,40S102.1,440,80,440z M627.4,212.6c-10.2,0-20.5-3.9-28.3-11.7c-15.6-15.6-15.6-40.9,0-56.6l32.6-32.6
	c15.6-15.6,40.9-15.6,56.6,0c15.6,15.6,15.6,40.9,0,56.6l-32.6,32.6C647.9,208.7,637.7,212.6,627.4,212.6z M172.6,212.6
	c-10.2,0-20.5-3.9-28.3-11.7l-32.6-32.6c-15.6-15.6-15.6-40.9,0-56.6s40.9-15.6,56.6,0l32.6,32.6c15.6,15.6,15.6,40.9,0,56.6
	C193,208.7,182.8,212.6,172.6,212.6z M400,120c-22.1,0-40-17.9-40-40V40c0-22.1,17.9-40,40-40s40,17.9,40,40v40
	C440,102.1,422.1,120,400,120z"/>
</svg>
