<?xml version="1.0" encoding="utf-8"?>
<!-- Generator: Adobe Illustrator 24.0.2, SVG Export Plug-In . SVG Version: 6.00 Build 0)  -->
<svg version="1.1" id="Слой_1" xmlns="http://www.w3.org/2000/svg" xmlns:xlink="http://www.w3.org/1999/xlink" x="0px" y="0px"
	 width="666.7px" height="666.7px" viewBox="0 0 666.7 666.7" style="enable-background:new 0 0 666.7 666.7;" xml:space="preserve"
	>
<style type="text/css">
	.st0{fill:#343A40;}
</style>
<title  id="supportIconTitle">Support</title>
<path class="st0" d="M640.5,203.6c-16.8-39.7-40.8-75.3-71.4-105.9C538.4,67,502.8,43,463.1,26.2C422,8.8,378.3,0,333.3,0
	s-88.6,8.8-129.8,26.2C163.9,43,128.2,67,97.6,97.6s-54.6,66.3-71.4,106C8.8,244.7,0,288.3,0,333.3v133.3c0,55.1,44.9,100,100,100
	s100-44.9,100-100V400c0-55.1-44.9-100-100-100H68.7C85.2,168.6,197.6,66.7,333.3,66.7s248.1,102,264.6,233.3h-31.3
	c-55.1,0-100,44.9-100,100v66.7c0,55.1,44.9,100,100,100c11,0,21.6-1.8,31.5-5.1c-2.2,14.7-5.9,23.3-9.2,28.3
	c-3.5,5.3-8.6,10.2-22.3,10.2H400c-18.4,0-33.3,14.9-33.3,33.3s14.9,33.3,33.3,33.3h166.7c33.5,0,60.4-13.8,77.7-39.8
	c15-22.5,22.3-53.1,22.3-93.5v-66.7V400v-66.7C666.7,288.3,657.8,244.7,640.5,203.6z M100,366.7c18.4,0,33.3,15,33.3,33.3v66.7
	c0,18.4-15,33.3-33.3,33.3s-33.3-15-33.3-33.3v-100H100z M566.7,500c-18.4,0-33.3-15-33.3-33.3V400c0-18.4,15-33.3,33.3-33.3H600
	V400l0,0v66.7C600,485.1,585,500,566.7,500z"/>
</svg>
