<?xml version="1.0" encoding="utf-8"?>
<!-- Generator: Adobe Illustrator 24.0.2, SVG Export Plug-In . SVG Version: 6.00 Build 0)  -->
<svg version="1.1" id="Слой_1" xmlns="http://www.w3.org/2000/svg" xmlns:xlink="http://www.w3.org/1999/xlink" x="0px" y="0px"
	 width="657.3px" height="666.7px" viewBox="0 0 657.3 666.7" style="enable-background:new 0 0 657.3 666.7;" xml:space="preserve"
	>
<style type="text/css">
	.st0{fill:#20C997;}
	.st1{fill:#167C5A;}
	.st2{fill:#4FE8B1;}
</style>
<g>
	<path class="st0" d="M328.7,0L328.7,0c-34.4,0-62.2,27.8-62.2,62.2v542.3c0,34.4,27.8,62.2,62.2,62.2h0c34.4,0,62.2-27.8,62.2-62.2
		V62.2C390.9,27.8,363,0,328.7,0z"/>
	<rect x="266.4" y="292.4" class="st0" width="124.4" height="203.9"/>
	<path class="st1" d="M328.7,0L328.7,0c-34.4,0-62.2,27.8-62.2,62.2v230.2h124.4V62.2C390.9,27.8,363,0,328.7,0z"/>
	<path class="st0" d="M266.4,604.5c0,34.4,27.8,62.2,62.2,62.2h0c34.4,0,62.2-27.8,62.2-62.2v-31.3H266.4V604.5z"/>
	<rect x="266.4" y="496.3" class="st2" width="124.4" height="76.9"/>
</g>
</svg>
