<?xml version="1.0" encoding="utf-8"?>
<!-- Generator: Adobe Illustrator 24.0.2, SVG Export Plug-In . SVG Version: 6.00 Build 0)  -->
<svg version="1.1" id="Слой_1" xmlns="http://www.w3.org/2000/svg" xmlns:xlink="http://www.w3.org/1999/xlink" x="0px" y="0px"
	 width="657.3px" height="666.7px" viewBox="0 0 657.3 666.7" style="enable-background:new 0 0 657.3 666.7;" xml:space="preserve"
	>
<style type="text/css">
	.st0{fill:#167C5A;}
	.st1{fill:#4FE8B1;}
	.st2{fill:#1AAA7A;}
	.st3{fill:#20C997;}
	.st4{opacity:0.3;fill:#92F4CC;}
</style>
<g>
	<g>
		<path class="st0" d="M656.9,288.5l0.2,88.3c0.2,81.4-127,148.7-290.8,158l-0.8-403.1C529.2,140.3,656.7,207.1,656.9,288.5z"/>
		<path class="st1" d="M171.9,150.1l0.7,367.1c-31.1-8.1-59.2-18.5-83.3-30.9l-0.6-305C112.8,168.9,140.8,158.3,171.9,150.1z"/>
		<path class="st2" d="M0.2,378.2L0,289.9c-0.1-41.9,33.7-80.1,88.7-108.6l0.6,305C34.2,458.1,0.3,420.1,0.2,378.2z"/>
		<path class="st2" d="M365.4,131.7l0.8,403.1c-12.3,0.7-24.7,1.1-37.3,1.1c-56.6,0.1-109.8-6.7-156.3-18.7l-0.7-367.1
			c46.4-12.2,99.7-19.3,156.2-19.4C340.7,130.7,353.2,131.1,365.4,131.7z"/>
	</g>
	
		<ellipse transform="matrix(1 -2.032217e-03 2.032217e-03 1 -0.7576 0.6704)" class="st3" cx="329.5" cy="373.1" rx="327.8" ry="159.8"/>
	
		<ellipse transform="matrix(1 -2.032980e-03 2.032980e-03 1 -0.7462 0.6547)" class="st1" cx="321.6" cy="367.4" rx="235.3" ry="114.7"/>
	
		<ellipse transform="matrix(1 -2.032653e-03 2.032653e-03 1 -0.7866 0.6513)" class="st0" cx="320" cy="387.3" rx="237.2" ry="115.7"/>
	
		<ellipse transform="matrix(1 -2.032658e-03 2.032658e-03 1 -0.7658 0.6542)" class="st3" cx="321.5" cy="377.1" rx="237.2" ry="115.7"/>
	<path class="st4" d="M57.4,467.3L557,175.1c0,0,51,25.9,66.8,44.3L172.6,517.2C172.6,517.2,100.3,500.3,57.4,467.3z"/>
</g>
</svg>
