<?xml version="1.0" encoding="utf-8"?>
<!-- Generator: Adobe Illustrator 24.0.2, SVG Export Plug-In . SVG Version: 6.00 Build 0)  -->
<svg version="1.1" id="Слой_1" xmlns="http://www.w3.org/2000/svg" xmlns:xlink="http://www.w3.org/1999/xlink" x="0px" y="0px"
	 width="657.3px" height="666.7px" viewBox="0 0 657.3 666.7" style="enable-background:new 0 0 657.3 666.7;" xml:space="preserve"
	>
<style type="text/css">
	.st0{fill:#167C5A;}
	.st1{fill:#DDB926;}
	.st2{fill:#20C997;}
	.st3{fill:#4FE8B1;}
	.st4{opacity:0.3;fill:#92F4CC;}
	.st5{fill:#26A17B;}
	.st6{fill:#B7F9DD;}
</style>
<g>
	
		<ellipse transform="matrix(0.7071 -0.7071 0.7071 0.7071 -139.1052 330.8707)" class="st0" cx="329.8" cy="333.4" rx="327.5" ry="327.5"/>
	<circle class="st1" cx="320.7" cy="329.5" r="320.7"/>
	<circle class="st2" cx="320.7" cy="329.5" r="320.7"/>
	<circle class="st0" cx="328" cy="322.2" r="230.2"/>
	<circle class="st3" cx="303.1" cy="347.1" r="232.1"/>
	<circle class="st2" cx="312.9" cy="337.3" r="232.1"/>
	<path class="st4" d="M490.1,58.7L41.9,482c28.6,55.1,72.6,100.9,126.4,131.5l446-421.1C586.6,136.8,543.3,90.3,490.1,58.7z"/>
	<g id="Vector_2_" transform="translate(336.29 -181.139)">
		<path id="path1_fill_1_" class="st5" d="M15.5,497.7v-37.2h85.1v-56.7H-131v56.7h85.1v37.2c-69.1,3.2-121.1,16.9-121.1,33.3
			c0,16.4,52,30.1,121.1,33.3v119.1h61.5V564.3c69-3.2,120.9-16.9,120.9-33.3C136.4,514.6,84.5,500.9,15.5,497.7L15.5,497.7z
			 M15.6,554.2c-1.7,0.1-10.6,0.6-30.5,0.6c-15.9,0-27-0.4-31-0.6v0.1c-61-2.7-106.7-13.3-106.7-26c0-12.7,45.6-23.3,106.7-26v41.4
			c4,0.3,15.4,1,31.3,1c19,0,28.5-0.8,30.3-1V502c61,2.7,106.5,13.3,106.5,26C122,540.8,76.5,551.4,15.6,554.2"/>
	</g>
	<g id="Vector_3_" transform="translate(336.29 -181.139)">
		<path id="path1_fill_2_" class="st6" d="M1,486.6v-37.2h85.1v-56.7h-231.6v56.7h85.1v37.2c-69.1,3.2-121.1,16.9-121.1,33.3
			c0,16.4,52,30.1,121.1,33.3v119.1H1.1V553.1c69-3.2,120.9-16.9,120.9-33.3C121.9,503.4,70,489.8,1,486.6L1,486.6z M1.1,543
			c-1.7,0.1-10.6,0.6-30.5,0.6c-15.9,0-27-0.4-31-0.6v0.1c-61-2.7-106.7-13.3-106.7-26c0-12.7,45.6-23.3,106.7-26v41.4
			c4,0.3,15.4,1,31.3,1c19,0,28.5-0.8,30.3-1v-41.5c61,2.7,106.5,13.3,106.5,26C107.5,529.6,62,540.2,1.1,543"/>
	</g>
</g>
</svg>
