<?xml version="1.0" encoding="utf-8"?>
<!-- Generator: Adobe Illustrator 24.0.2, SVG Export Plug-In . SVG Version: 6.00 Build 0)  -->
<svg version="1.1" id="Слой_1" xmlns="http://www.w3.org/2000/svg" xmlns:xlink="http://www.w3.org/1999/xlink" x="0px" y="0px"
	 width="11px" height="9.3px" viewBox="0 0 11 9.3" style="enable-background:new 0 0 11 9.3;" xml:space="preserve">
<style type="text/css">
	.st0{fill:#121921;}
</style>
<path class="st0" d="M10.6,0.2C10.4,0,10.1,0,9.8,0C9.6,0,9.4,0.2,9.2,0.4L4.3,6.9L1.7,4.5c-0.4-0.4-1-0.3-1.4,0.1
	C0.1,4.7,0,5,0,5.2c0,0.3,0.1,0.5,0.3,0.7l3.4,3.1c0.2,0.2,0.4,0.3,0.7,0.3c0,0,0,0,0,0c0.3,0,0.6-0.2,0.8-0.4l5.6-7.3
	C10.9,1.4,11,1.1,11,0.9C10.9,0.6,10.8,0.4,10.6,0.2z"/>
<title></title>
</svg>
