<?xml version="1.0" encoding="utf-8"?>
<!-- Generator: Adobe Illustrator 24.0.2, SVG Export Plug-In . SVG Version: 6.00 Build 0)  -->
<svg version="1.1" id="Слой_1" xmlns="http://www.w3.org/2000/svg" xmlns:xlink="http://www.w3.org/1999/xlink" x="0px" y="0px"
	 width="800px" height="800px" viewBox="0 0 800 800" style="enable-background:new 0 0 800 800;" xml:space="preserve">
<style type="text/css">
	.st0{fill-rule:evenodd;clip-rule:evenodd;fill:#26A17B;}
	.st1{fill-rule:evenodd;clip-rule:evenodd;fill:#FFFFFF;}
</style>
<g>
	<circle class="st0" cx="400" cy="400" r="400"/>
	<path class="st1" d="M448.1,434.6L448.1,434.6c-2.8,0.1-16.9,1-48.6,1c-25.3,0-43-0.8-49.3-1v0.1c-97.2-4.3-169.7-21.2-169.7-41.5
		c0-20.2,72.5-37.1,169.7-41.5v66.1c6.4,0.5,24.6,1.5,49.7,1.5c30.2,0,45.3-1.2,48.1-1.5v-66.1c97,4.3,169.4,21.3,169.4,41.5
		C617.4,413.4,545,430.3,448.1,434.6 M448.1,344.8v-59.2h135.4v-90.2H214.9v90.2h135.4v59.1c-110,5-192.7,26.9-192.7,53
		s82.7,47.9,192.7,53v189.5h97.8V450.7c109.8-5,192.4-26.8,192.4-52.9C640.4,371.7,557.9,349.9,448.1,344.8"/>
</g>
</svg>
