<?xml version="1.0" encoding="utf-8"?>
<!-- Generator: Adobe Illustrator 24.0.2, SVG Export Plug-In . SVG Version: 6.00 Build 0)  -->
<svg version="1.1" id="Слой_1" xmlns="http://www.w3.org/2000/svg" xmlns:xlink="http://www.w3.org/1999/xlink" x="0px" y="0px"
	 width="683.6px" height="397.6px" viewBox="0 0 683.6 397.6" style="enable-background:new 0 0 683.6 397.6;" xml:space="preserve"
	>
<style type="text/css">
	.st0{fill:#0077FF;}
</style>
<path class="st0" d="M414.1,191.2c-12.5-4.7-12.5-22.6-13.3-35.1c-3.1-44.5,12.5-112.5-6.3-141.4C381.2-2.5,317.1-0.9,278.1,1.4
	c-11,1.6-24.2,3.9-33.6,8.6c-9.4,4.7-18.8,12.5-18.8,19.5c0,10.2,23.4,8.6,32,21.9c9.4,14.1,9.4,44.5,9.4,69.5
	c0,28.9-4.7,67.2-16.4,68.8c-18,0.8-28.1-17.2-37.5-30.5c-20.1-27.9-37.4-57.8-51.6-89.1c-7-16.4-10.9-34.4-21.1-41.4
	C124.9,17.8,96.7,17,69.4,17.8c-25,0.8-60.9-2.3-68,12.5c-5.5,16.4,6.3,32,12.5,45.3c32,69.5,66.4,130.5,108.6,188.3
	c39.1,53.9,75.8,96.9,147.7,119.5c20.3,6.3,109.4,24.2,127.3,0c6.3-9.4,4.7-30.5,7.8-46.1s7-31.3,21.9-32
	c12.5-0.8,19.5,10.1,27.4,18c8.6,8.6,15.6,15.6,21.9,23.4c14.8,14.9,30.5,35.2,49.2,43c25.8,10.9,65.6,7.8,103.1,6.3
	c30.5-0.8,52.3-7,54.7-25c1.6-14.1-14.1-34.4-23.5-46.1c-23.5-28.9-34.4-37.5-61-64.1c-11.7-11.7-26.6-24.2-26.6-38.3
	c-0.8-8.6,6.3-16.4,12.5-25c27.3-40.6,54.7-69.5,79.7-111.7c7-12.5,23.5-41.4,17.2-55.5c-7-15.6-46.1-10.9-70.3-10.9
	c-31.3,0-71.9-2.3-79.7,3.9c-14.9,10.2-21.1,26.6-28.1,42.2c-15.6,35.9-36.7,72.6-58.6,100C437.5,174.7,422.6,194.3,414.1,191.2
	L414.1,191.2z"/>
</svg>
