<?xml version="1.0" encoding="utf-8"?>
<!-- Generator: Adobe Illustrator 24.0.2, SVG Export Plug-In . SVG Version: 6.00 Build 0)  -->
<svg version="1.1" id="Слой_1" xmlns="http://www.w3.org/2000/svg" xmlns:xlink="http://www.w3.org/1999/xlink" x="0px" y="0px"
	 width="700px" height="676.8px" viewBox="0 0 700 676.8" style="enable-background:new 0 0 700 676.8;" xml:space="preserve">
<style type="text/css">
	.st0{fill:#12A0B8;}
	.st1{fill:#E2E2E2;}
</style>
<g>
	<path id="secondary" class="st0" d="M313.7,68.6l-139,198H136c-12.4-0.1-23.6-7-29.3-18c-5.3-10.7-4.6-23.4,2-33.3l117-166.7
		c4.7-7.8,12.4-13.4,21.3-15.3c8.7-1.6,17.7,0.3,25,5.3L313.7,68.6z M602.3,120.6L438.7,5.9c-15.1-10.5-35.8-6.7-46.3,8.3
		l-51.7,73.3l-124,179H525c10.1-0.7,19.3-6,25-14.3l60.7-85.7c10.5-15.1,6.7-35.8-8.3-46.3v0.4H602.3z"/>
	<path class="st1" d="M516.7,376.8h166.7v-100c0-36.8-29.8-66.7-66.7-66.7H83.3c-36.8,0-66.7,29.8-66.7,66.7v333.3
		c0,36.8,29.8,66.7,66.7,66.7h533.3c36.8,0,66.7-29.8,66.7-66.7v-100H516.7c-18.4,0-33.3-14.9-33.3-33.3v-66.7
		C483.3,391.7,498.3,376.8,516.7,376.8z"/>
</g>
</svg>
