<?xml version="1.0" encoding="utf-8"?>
<!-- Generator: Adobe Illustrator 24.0.2, SVG Export Plug-In . SVG Version: 6.00 Build 0)  -->
<svg version="1.1" id="Слой_1" xmlns="http://www.w3.org/2000/svg" xmlns:xlink="http://www.w3.org/1999/xlink" x="0px" y="0px"
	 width="744.9px" height="750px" viewBox="0 0 744.9 750" style="enable-background:new 0 0 744.9 750;" xml:space="preserve">
<style type="text/css">
	.st0{fill:#0DD95F;}
</style>
<g>
	<path class="st0" d="M541.5,449.5c-9.5-4.5-55-27-63.5-30.5s-14.5-4.5-21,5s-24,30-29.5,36.5s-10.5,7-20,0
		c-27.3-11-52.5-26.5-74.5-46c-19.9-18.8-36.8-40.5-50-64.5c-5.5-9,0-14,4-19s9-10.5,14-16c3.7-4.8,6.7-10,9-15.5
		c2.5-5.2,2.5-11.3,0-16.5c0-4.5-21-50-29-68.5s-15-16-20.5-16h-20c-9.5,0.4-18.5,4.5-25,11.5c-21.1,20.2-32.9,48.3-32.5,77.5
		c2.6,35.5,15.6,69.4,37.5,97.5c40.2,59.7,95.1,107.9,159.5,140c22,9.5,39,15,52.5,19.5c19,5.7,39,6.9,58.5,3.5
		c26.2-5.3,49-21.2,63-44c5.8-13.9,7.7-29.1,5.5-44C557,456.5,551,454,541.5,449.5z"/>
	<path class="st0" d="M635,109C565.1,38.5,469.8-0.8,370.5,0C165.1,1.1-0.6,168.5,0.5,373.9C0.8,438.3,17.9,501.6,50,557.5L0,750
		l197-50c54.5,29.6,115.5,45.1,177.5,45c203.6-0.9,369.1-165.4,370.4-369.6C745.6,275.5,706,179.4,635,109z M370.5,681
		c-55.5,0-109.9-15-157.5-43.5l-11-6.5L85,661.5l31-114l-7-11.5c-90-145-45.5-335.5,99.5-425.5C330,35.1,487.4,52.8,589,153.5
		c58.2,57.8,90.8,136.5,90.5,218.5C679.2,542.5,541,680.7,370.5,681z"/>
</g>
</svg>
