<?xml version="1.0" encoding="utf-8"?>
<!-- Generator: Adobe Illustrator 24.0.2, SVG Export Plug-In . SVG Version: 6.00 Build 0)  -->
<svg version="1.1" id="Artwork" xmlns="http://www.w3.org/2000/svg" xmlns:xlink="http://www.w3.org/1999/xlink" x="0px" y="0px"
	 width="2662.2px" height="2083.9px" viewBox="0 0 2662.2 2083.9" style="enable-background:new 0 0 2662.2 2083.9;"
	 xml:space="preserve">
<style type="text/css">
	.st0{opacity:0.32;}
	.st1{fill:url(#SVGID_1_);}
	.st2{fill:url(#SVGID_2_);}
	.st3{fill:url(#SVGID_3_);}
	.st4{fill:url(#SVGID_4_);}
	.st5{fill:url(#SVGID_5_);}
	.st6{fill:url(#SVGID_6_);}
	.st7{fill:url(#SVGID_7_);}
	.st8{fill:url(#SVGID_8_);}
	.st9{fill:url(#SVGID_9_);}
	.st10{fill:url(#SVGID_10_);}
	.st11{fill:url(#SVGID_11_);}
	.st12{fill:url(#SVGID_12_);}
	.st13{fill:url(#SVGID_13_);}
	.st14{fill:url(#SVGID_14_);}
	.st15{fill:url(#SVGID_15_);}
	.st16{fill:url(#SVGID_16_);}
	.st17{fill:url(#SVGID_17_);}
	.st18{fill:url(#SVGID_18_);}
</style>
<g>
	<g class="st0">
		<linearGradient id="SVGID_1_" gradientUnits="userSpaceOnUse" x1="2637.8916" y1="1854.121" x2="-47.06" y2="268.3755">
			<stop  offset="0" style="stop-color:#00A7A6"/>
			<stop  offset="1" style="stop-color:#00E7C7"/>
		</linearGradient>
		<path class="st1" d="M1712.1,1203.1c0.3-1,0.6-2,0.6-3.1c0-5.3-4.3-9.5-9.5-9.5c-5.3,0-9.5,4.3-9.5,9.5c0,5.3,4.3,9.5,9.5,9.5
			c3,0,5.7-1.4,7.4-3.6l752.2,434v209.3c-3.6,0.7-6.3,3.9-6.3,7.8c0,4.4,3.6,7.9,7.9,7.9c4.4,0,7.9-3.6,7.9-7.9c0-3.8-2.7-7-6.3-7.8
			v-211.1L1712.1,1203.1z M1703.1,1206.4c-3.5,0-6.3-2.8-6.3-6.3s2.8-6.3,6.3-6.3c3.5,0,6.3,2.8,6.3,6.3
			S1706.6,1206.4,1703.1,1206.4z"/>
		<linearGradient id="SVGID_2_" gradientUnits="userSpaceOnUse" x1="2771.7617" y1="1627.4568" x2="86.803" y2="41.7073">
			<stop  offset="0" style="stop-color:#00A7A6"/>
			<stop  offset="1" style="stop-color:#00E7C7"/>
		</linearGradient>
		<path class="st2" d="M392.3,227.3l1506.3,869.4l0.4,0.2l383.1,0.9l-944.7-546.4c0.2-0.8,0.4-1.7,0.4-2.5c0-5.3-4.3-9.5-9.5-9.5
			c-5.3,0-9.5,4.3-9.5,9.5c0,5.3,4.3,9.5,9.5,9.5c3.2,0,6.1-1.6,7.8-4.1l934.1,540.2l-370.3-0.9L393.5,224.3l-0.4-0.2H18.9
			c-0.6-4.6-4.6-8.2-9.4-8.2c-5.3,0-9.5,4.3-9.5,9.5c0,5.3,4.3,9.5,9.5,9.5c4.6,0,8.4-3.3,9.3-7.6H392.3z M1328.2,555.3
			c-3.5,0-6.3-2.8-6.3-6.3c0-3.5,2.8-6.3,6.3-6.3c3.5,0,6.3,2.8,6.3,6.3C1334.5,552.4,1331.7,555.3,1328.2,555.3z M9.5,231.7
			c-3.5,0-6.3-2.8-6.3-6.3c0-3.5,2.8-6.3,6.3-6.3c3.5,0,6.3,2.8,6.3,6.3C15.9,228.9,13,231.7,9.5,231.7z"/>
		<linearGradient id="SVGID_3_" gradientUnits="userSpaceOnUse" x1="2440.1379" y1="2188.9543" x2="-244.8163" y2="603.2075">
			<stop  offset="0" style="stop-color:#00A7A6"/>
			<stop  offset="1" style="stop-color:#00E7C7"/>
		</linearGradient>
		<path class="st3" d="M1341.6,1430.7c5.3,0,9.5-4.3,9.5-9.5c0-5.3-4.3-9.5-9.5-9.5c-4.8,0-8.7,3.6-9.4,8.2l-374-0.3L207.6,986.7
			c0.3-0.9,0.4-1.7,0.4-2.7c0-5.3-4.3-9.5-9.5-9.5c-5.3,0-9.5,4.3-9.5,9.5c0,5.3,4.3,9.5,9.5,9.5c3.2,0,6-1.6,7.7-4l750.7,432.9
			l0.4,0.2l374.9,0.3C1333.1,1427.3,1336.9,1430.7,1341.6,1430.7z M1341.6,1414.8c3.5,0,6.3,2.8,6.3,6.3c0,3.5-2.8,6.3-6.3,6.3
			c-3.5,0-6.3-2.8-6.3-6.3C1335.2,1417.7,1338.1,1414.8,1341.6,1414.8z M198.5,990.4c-3.5,0-6.3-2.8-6.3-6.3c0-3.5,2.8-6.3,6.3-6.3
			c3.5,0,6.3,2.8,6.3,6.3C204.9,987.5,202,990.4,198.5,990.4z"/>
		<linearGradient id="SVGID_4_" gradientUnits="userSpaceOnUse" x1="2532.4463" y1="2032.6487" x2="-152.5084" y2="446.9014">
			<stop  offset="0" style="stop-color:#00A7A6"/>
			<stop  offset="1" style="stop-color:#00E7C7"/>
		</linearGradient>
		<path class="st4" d="M949.8,1194.2c-5.3,0-9.5,4.3-9.5,9.5c0,5.3,4.3,9.5,9.5,9.5c4.7,0,8.5-3.4,9.3-7.8l381.2-0.3l-5.1-3
			c0,0-188.2-108.7-376.5-217.3c-94.1-54.3-188.3-108.6-258.9-149.4c-35.3-20.4-64.8-37.3-85.4-49.2c-26.9-15.5-32-18.4-33.4-18.7
			l0-0.1c-5,0.4-338.1,0-373.5,0c-0.7-3.6-3.9-6.3-7.8-6.3c-4.4,0-7.9,3.6-7.9,7.9c0,4.4,3.6,7.9,7.9,7.9c3.8,0,7-2.7,7.8-6.3
			c314.2,0.3,364.5,0.2,373-0.2l0,0c5.7,2.9,681.9,393.3,748.1,431.5l-369.3,0.3C958.5,1197.7,954.6,1194.2,949.8,1194.2z
			 M949.8,1210.1c-3.5,0-6.3-2.8-6.3-6.3s2.8-6.3,6.3-6.3c3.5,0,6.3,2.8,6.3,6.3S953.3,1210.1,949.8,1210.1z"/>
		<linearGradient id="SVGID_5_" gradientUnits="userSpaceOnUse" x1="2819.0745" y1="1547.3458" x2="134.125" y2="-38.3983">
			<stop  offset="0" style="stop-color:#00A7A6"/>
			<stop  offset="1" style="stop-color:#00E7C7"/>
		</linearGradient>
		<path class="st5" d="M199.6,124.9c3.9,0,7.2-2.9,7.8-6.6l373.2,0.2l375.9,216.9c-0.2,0.8-0.4,1.7-0.4,2.6c0,5.3,4.3,9.5,9.5,9.5
			c5.3,0,9.5-4.3,9.5-9.5c0-5.3-4.3-9.5-9.5-9.5c-3.2,0-6,1.6-7.8,4l-376-217l-0.4-0.2l-374.2-0.2c-0.9-3.5-4-6-7.7-6
			c-4.4,0-7.9,3.6-7.9,7.9C191.7,121.3,195.3,124.9,199.6,124.9z M965.7,331.6c3.5,0,6.3,2.8,6.3,6.3c0,3.5-2.8,6.3-6.3,6.3
			c-3.5,0-6.3-2.8-6.3-6.3C959.3,334.4,962.2,331.6,965.7,331.6z"/>
		<linearGradient id="SVGID_6_" gradientUnits="userSpaceOnUse" x1="3015.5049" y1="1214.7543" x2="330.5586" y2="-370.988">
			<stop  offset="0" style="stop-color:#00A7A6"/>
			<stop  offset="1" style="stop-color:#00E7C7"/>
		</linearGradient>
		<path class="st6" d="M769.4,15.9c2.3,0,4.4-1,5.8-2.6l558.4,322.2l0.4,0.2h376.7l746.5,431.7c-0.2,0.7-0.4,1.5-0.4,2.2
			c0,4.4,3.6,7.9,7.9,7.9c4.4,0,7.9-3.6,7.9-7.9c0-4.4-3.6-7.9-7.9-7.9c-2.5,0-4.6,1.1-6.1,2.9l-746.7-431.9l-0.4-0.2h-376.7
			l-558-322c0.3-0.8,0.5-1.7,0.5-2.6c0-4.4-3.6-7.9-7.9-7.9c-4.4,0-7.9,3.6-7.9,7.9C761.5,12.3,765,15.9,769.4,15.9z"/>
		<linearGradient id="SVGID_7_" gradientUnits="userSpaceOnUse" x1="2874.8213" y1="1452.9563" x2="189.8676" y2="-132.7903">
			<stop  offset="0" style="stop-color:#00A7A6"/>
			<stop  offset="1" style="stop-color:#00E7C7"/>
		</linearGradient>
		<path class="st7" d="M2654.3,1529.4v-434.6L1523.5,442.3l-0.4-0.2l-369.3-0.6c-0.7-3.6-3.9-6.4-7.8-6.4c-4.4,0-7.9,3.6-7.9,7.9
			c0,4.4,3.6,7.9,7.9,7.9c3.8,0,7-2.7,7.8-6.3l368.5,0.6l1128.8,651.3v432.8c-4.5,0.8-7.9,4.7-7.9,9.4c0,5.3,4.3,9.5,9.5,9.5
			c5.3,0,9.5-4.3,9.5-9.5C2662.2,1534,2658.8,1530.1,2654.3,1529.4z M2652.7,1545.1c-3.5,0-6.3-2.8-6.3-6.3c0-3.5,2.8-6.3,6.3-6.3
			s6.3,2.8,6.3,6.3C2659.1,1542.2,2656.2,1545.1,2652.7,1545.1z"/>
		<linearGradient id="SVGID_8_" gradientUnits="userSpaceOnUse" x1="2447.3394" y1="2176.7605" x2="-237.6068" y2="591.0183">
			<stop  offset="0" style="stop-color:#00A7A6"/>
			<stop  offset="1" style="stop-color:#00E7C7"/>
		</linearGradient>
		<path class="st8" d="M2472.3,2064.9c-4.7,0-8.5,3.4-9.3,7.8l-374.8-0.9l-746.3-430.9c0.3-0.8,0.4-1.6,0.4-2.5
			c0-4.4-3.6-7.9-7.9-7.9c-4.4,0-7.9,3.6-7.9,7.9c0,4.4,3.6,7.9,7.9,7.9c2.4,0,4.5-1,5.9-2.7l746.6,431.1l0.4,0.2l375.6,0.9
			c0.7,4.6,4.6,8.1,9.4,8.1c5.3,0,9.5-4.3,9.5-9.5C2481.8,2069.2,2477.6,2064.9,2472.3,2064.9z M2472.3,2080.8
			c-3.5,0-6.3-2.8-6.3-6.3s2.8-6.3,6.3-6.3c3.5,0,6.3,2.8,6.3,6.3S2475.8,2080.8,2472.3,2080.8z"/>
		<linearGradient id="SVGID_9_" gradientUnits="userSpaceOnUse" x1="2586.4553" y1="1941.2133" x2="-98.499" y2="355.4663">
			<stop  offset="0" style="stop-color:#00A7A6"/>
			<stop  offset="1" style="stop-color:#00E7C7"/>
		</linearGradient>
		<path class="st9" d="M2087.7,1864.9c4.4,0,7.9-3.6,7.9-7.9c0-4.4-3.6-7.9-7.9-7.9c-2.3,0-4.4,1-5.8,2.6l-557.6-322.9v-434.3
			L395.9,443c0.4-1,0.6-2.2,0.6-3.4c0-5.3-4.3-9.5-9.5-9.5c-5.3,0-9.5,4.3-9.5,9.5s4.3,9.5,9.5,9.5c2.9,0,5.5-1.4,7.3-3.4
			l1126.8,650.5v434.3l559.1,323.7c-0.3,0.8-0.5,1.7-0.5,2.6C2079.8,1861.3,2083.3,1864.9,2087.7,1864.9z M387,446
			c-3.5,0-6.3-2.8-6.3-6.3c0-3.5,2.8-6.3,6.3-6.3c3.5,0,6.3,2.8,6.3,6.3C393.4,443.2,390.5,446,387,446z"/>
	</g>
	<g>
		
			<linearGradient id="SVGID_10_" gradientUnits="userSpaceOnUse" x1="121.2338" y1="361.1434" x2="2865.0642" y2="1925.0735" gradientTransform="matrix(-1 0 0 -1 2850.1719 2143.2168)">
			<stop  offset="0" style="stop-color:#00A7A6"/>
			<stop  offset="1" style="stop-color:#00E7C7"/>
		</linearGradient>
		<path class="st10" d="M950.2,880.8c-0.3,1-0.6,2-0.6,3.1c0,5.3,4.3,9.5,9.5,9.5c5.3,0,9.5-4.3,9.5-9.5c0-5.3-4.3-9.5-9.5-9.5
			c-3,0-5.7,1.4-7.4,3.6L199.4,444V234.8c3.6-0.7,6.3-3.9,6.3-7.8c0-4.4-3.6-7.9-7.9-7.9c-4.4,0-7.9,3.6-7.9,7.9
			c0,3.8,2.7,7,6.3,7.8v211.1L950.2,880.8z M959.1,877.6c3.5,0,6.3,2.8,6.3,6.3s-2.8,6.3-6.3,6.3c-3.5,0-6.3-2.8-6.3-6.3
			S955.6,877.6,959.1,877.6z"/>
		
			<linearGradient id="SVGID_11_" gradientUnits="userSpaceOnUse" x1="264.9109" y1="109.0757" x2="3008.7288" y2="1672.9985" gradientTransform="matrix(-1 0 0 -1 2850.1719 2143.2168)">
			<stop  offset="0" style="stop-color:#00A7A6"/>
			<stop  offset="1" style="stop-color:#00E7C7"/>
		</linearGradient>
		<path class="st11" d="M2269.9,1856.6L763.7,987.2l-0.4-0.2l-383.1-0.9l944.7,546.4c-0.2,0.8-0.4,1.7-0.4,2.5
			c0,5.3,4.3,9.5,9.5,9.5c5.3,0,9.5-4.3,9.5-9.5c0-5.3-4.3-9.5-9.5-9.5c-3.2,0-6.1,1.6-7.8,4.1L392.1,989.3l370.3,0.9l1506.3,869.4
			l0.4,0.2h374.2c0.6,4.6,4.6,8.2,9.4,8.2c5.3,0,9.5-4.3,9.5-9.5c0-5.3-4.3-9.5-9.5-9.5c-4.6,0-8.4,3.3-9.3,7.6H2269.9z
			 M1334.1,1528.7c3.5,0,6.3,2.8,6.3,6.3c0,3.5-2.8,6.3-6.3,6.3c-3.5,0-6.3-2.8-6.3-6.3C1327.7,1531.5,1330.6,1528.7,1334.1,1528.7z
			 M2652.7,1852.2c3.5,0,6.3,2.8,6.3,6.3c0,3.5-2.8,6.3-6.3,6.3c-3.5,0-6.3-2.8-6.3-6.3C2646.4,1855,2649.2,1852.2,2652.7,1852.2z"
			/>
		
			<linearGradient id="SVGID_12_" gradientUnits="userSpaceOnUse" x1="-61.0849" y1="681.0212" x2="2682.7361" y2="2244.9458" gradientTransform="matrix(-1 0 0 -1 2850.1719 2143.2168)">
			<stop  offset="0" style="stop-color:#00A7A6"/>
			<stop  offset="1" style="stop-color:#00E7C7"/>
		</linearGradient>
		<path class="st12" d="M1320.7,653.3c-5.3,0-9.5,4.3-9.5,9.5c0,5.3,4.3,9.5,9.5,9.5c4.8,0,8.7-3.6,9.4-8.2l374,0.3l750.5,432.8
			c-0.3,0.9-0.4,1.7-0.4,2.7c0,5.3,4.3,9.5,9.5,9.5c5.3,0,9.5-4.3,9.5-9.5c0-5.3-4.3-9.5-9.5-9.5c-3.2,0-6,1.6-7.7,4l-750.7-432.9
			l-0.4-0.2L1330,661C1329.2,656.6,1325.3,653.3,1320.7,653.3z M1320.7,669.1c-3.5,0-6.3-2.8-6.3-6.3c0-3.5,2.8-6.3,6.3-6.3
			c3.5,0,6.3,2.8,6.3,6.3C1327,666.3,1324.2,669.1,1320.7,669.1z M2463.7,1093.6c3.5,0,6.3,2.8,6.3,6.3c0,3.5-2.8,6.3-6.3,6.3
			c-3.5,0-6.3-2.8-6.3-6.3C2457.4,1096.4,2460.2,1093.6,2463.7,1093.6z"/>
		
			<linearGradient id="SVGID_13_" gradientUnits="userSpaceOnUse" x1="28.8198" y1="523.2866" x2="2772.6467" y2="2087.2146" gradientTransform="matrix(-1 0 0 -1 2850.1719 2143.2168)">
			<stop  offset="0" style="stop-color:#00A7A6"/>
			<stop  offset="1" style="stop-color:#00E7C7"/>
		</linearGradient>
		<path class="st13" d="M1712.5,889.7c5.3,0,9.5-4.3,9.5-9.5c0-5.3-4.3-9.5-9.5-9.5c-4.7,0-8.5,3.4-9.3,7.8l-381.2,0.3l5.1,3
			c0,0,188.2,108.7,376.5,217.3c94.1,54.3,188.3,108.6,258.9,149.4c35.3,20.4,64.8,37.3,85.4,49.2c26.9,15.5,32,18.4,33.4,18.7
			l0,0.1c5-0.4,338.1,0,373.5,0c0.7,3.6,3.9,6.3,7.8,6.3c4.4,0,7.9-3.6,7.9-7.9s-3.6-7.9-7.9-7.9c-3.8,0-7,2.7-7.8,6.3
			c-314.2-0.3-364.5-0.2-373,0.2l0,0c-5.7-2.9-681.9-393.3-748.1-431.5l369.3-0.3C1703.8,886.2,1707.7,889.7,1712.5,889.7z
			 M1712.5,873.9c3.5,0,6.3,2.8,6.3,6.3s-2.8,6.3-6.3,6.3s-6.3-2.8-6.3-6.3S1709,873.9,1712.5,873.9z"/>
		
			<linearGradient id="SVGID_14_" gradientUnits="userSpaceOnUse" x1="312.8852" y1="24.91" x2="3056.7124" y2="1588.8383" gradientTransform="matrix(-1 0 0 -1 2850.1719 2143.2168)">
			<stop  offset="0" style="stop-color:#00A7A6"/>
			<stop  offset="1" style="stop-color:#00E7C7"/>
		</linearGradient>
		<path class="st14" d="M2462.6,1959c-3.9,0-7.2,2.9-7.8,6.6l-373.2-0.2l-375.9-216.9c0.2-0.8,0.4-1.7,0.4-2.6
			c0-5.3-4.3-9.5-9.5-9.5c-5.3,0-9.5,4.3-9.5,9.5c0,5.3,4.3,9.5,9.5,9.5c3.2,0,6-1.6,7.8-4l376,217l0.4,0.2l374.2,0.2
			c0.9,3.5,4,6,7.7,6c4.4,0,7.9-3.6,7.9-7.9C2470.5,1962.6,2467,1959,2462.6,1959z M1696.6,1752.4c-3.5,0-6.3-2.8-6.3-6.3
			c0-3.5,2.8-6.3,6.3-6.3c3.5,0,6.3,2.8,6.3,6.3C1702.9,1749.5,1700.1,1752.4,1696.6,1752.4z"/>
		
			<linearGradient id="SVGID_15_" gradientUnits="userSpaceOnUse" x1="496.7056" y1="-297.5951" x2="3240.5317" y2="1266.3325" gradientTransform="matrix(-1 0 0 -1 2850.1719 2143.2168)">
			<stop  offset="0" style="stop-color:#00A7A6"/>
			<stop  offset="1" style="stop-color:#00E7C7"/>
		</linearGradient>
		<path class="st15" d="M1892.9,2068.1c-2.3,0-4.4,1-5.8,2.6l-558.4-322.2l-0.4-0.2H951.6l-746.5-431.7c0.2-0.7,0.4-1.5,0.4-2.2
			c0-4.4-3.6-7.9-7.9-7.9c-4.4,0-7.9,3.6-7.9,7.9c0,4.4,3.6,7.9,7.9,7.9c2.5,0,4.6-1.1,6.1-2.9l746.7,431.9l0.4,0.2h376.7l558,322
			c-0.3,0.8-0.5,1.7-0.5,2.6c0,4.4,3.6,7.9,7.9,7.9c4.4,0,7.9-3.6,7.9-7.9C1900.8,2071.6,1897.2,2068.1,1892.9,2068.1z"/>
		
			<linearGradient id="SVGID_16_" gradientUnits="userSpaceOnUse" x1="351.0151" y1="-41.9868" x2="3094.8406" y2="1521.9403" gradientTransform="matrix(-1 0 0 -1 2850.1719 2143.2168)">
			<stop  offset="0" style="stop-color:#00A7A6"/>
			<stop  offset="1" style="stop-color:#00E7C7"/>
		</linearGradient>
		<path class="st16" d="M7.9,554.6v434.6l1130.8,652.5l0.4,0.2l369.3,0.6c0.7,3.6,3.9,6.4,7.8,6.4c4.4,0,7.9-3.6,7.9-7.9
			s-3.6-7.9-7.9-7.9c-3.8,0-7,2.7-7.8,6.3l-368.5-0.6L11.1,987.4V554.6c4.5-0.8,7.9-4.7,7.9-9.4c0-5.3-4.3-9.5-9.5-9.5
			c-5.3,0-9.5,4.3-9.5,9.5C0,549.9,3.4,553.8,7.9,554.6z M9.5,538.9c3.5,0,6.3,2.8,6.3,6.3c0,3.5-2.8,6.3-6.3,6.3s-6.3-2.8-6.3-6.3
			C3.2,541.7,6,538.9,9.5,538.9z"/>
		
			<linearGradient id="SVGID_17_" gradientUnits="userSpaceOnUse" x1="-64.0737" y1="686.2526" x2="2679.75" y2="2250.1787" gradientTransform="matrix(-1 0 0 -1 2850.1719 2143.2168)">
			<stop  offset="0" style="stop-color:#00A7A6"/>
			<stop  offset="1" style="stop-color:#00E7C7"/>
		</linearGradient>
		<path class="st17" d="M189.9,19c4.7,0,8.5-3.4,9.3-7.8l374.8,0.9l746.3,430.9c-0.3,0.8-0.4,1.6-0.4,2.5c0,4.4,3.6,7.9,7.9,7.9
			c4.4,0,7.9-3.6,7.9-7.9c0-4.4-3.6-7.9-7.9-7.9c-2.4,0-4.5,1-5.9,2.7L575.3,9.2L575,9L199.3,8.1c-0.7-4.6-4.6-8.1-9.4-8.1
			c-5.3,0-9.5,4.3-9.5,9.5S184.7,19,189.9,19z M189.9,3.2c3.5,0,6.3,2.8,6.3,6.3s-2.8,6.3-6.3,6.3c-3.5,0-6.3-2.8-6.3-6.3
			S186.4,3.2,189.9,3.2z"/>
		
			<linearGradient id="SVGID_18_" gradientUnits="userSpaceOnUse" x1="77.2548" y1="438.3108" x2="2821.0867" y2="2002.2418" gradientTransform="matrix(-1 0 0 -1 2850.1719 2143.2168)">
			<stop  offset="0" style="stop-color:#00A7A6"/>
			<stop  offset="1" style="stop-color:#00E7C7"/>
		</linearGradient>
		<path class="st18" d="M574.5,219.1c-4.4,0-7.9,3.6-7.9,7.9c0,4.4,3.6,7.9,7.9,7.9c2.3,0,4.4-1,5.8-2.6l557.6,322.9v434.3
			l1128.4,651.4c-0.4,1-0.6,2.2-0.6,3.4c0,5.3,4.3,9.5,9.5,9.5c5.3,0,9.5-4.3,9.5-9.5s-4.3-9.5-9.5-9.5c-2.9,0-5.5,1.4-7.3,3.4
			L1141.1,987.7V553.4L582,229.6c0.3-0.8,0.5-1.7,0.5-2.6C582.5,222.6,578.9,219.1,574.5,219.1z M2275.2,1637.9
			c3.5,0,6.3,2.8,6.3,6.3c0,3.5-2.8,6.3-6.3,6.3c-3.5,0-6.3-2.8-6.3-6.3C2268.9,1640.8,2271.7,1637.9,2275.2,1637.9z"/>
	</g>
</g>
</svg>
