<?xml version="1.0" encoding="utf-8"?>
<!-- Generator: Adobe Illustrator 24.0.2, SVG Export Plug-In . SVG Version: 6.00 Build 0)  -->
<svg version="1.1" id="OBJECTS" xmlns="http://www.w3.org/2000/svg" xmlns:xlink="http://www.w3.org/1999/xlink" x="0px" y="0px"
	 width="500px" height="500px" viewBox="0 0 500 500" style="enable-background:new 0 0 500 500;" xml:space="preserve">
<style type="text/css">
	.st0{fill:#C67305;}
	.st1{fill:#DDB926;}
	.st2{fill:#F5BB00;}
	.st3{fill:#FFCB4A;}
	.st4{fill:#FFFA87;}
	.st5{fill:url(#SVGID_1_);}
	.st6{fill:url(#SVGID_2_);}
	.st7{fill:url(#SVGID_3_);}
	.st8{fill:url(#SVGID_4_);}
	.st9{opacity:0.3;fill:#92F4CC;}
</style>
<g>
	
		<ellipse transform="matrix(0.7071 -0.7071 0.7071 0.7071 -103.0197 251.2887)" class="st0" cx="251.8" cy="250" rx="250" ry="250"/>
	<circle class="st1" cx="244.9" cy="247" r="244.9"/>
	<circle class="st2" cx="244.9" cy="247" r="244.9"/>
	<circle class="st0" cx="250.5" cy="241.5" r="175.8"/>
	<circle class="st3" cx="231.4" cy="260.5" r="177.2"/>
	<circle class="st2" cx="238.9" cy="253" r="177.2"/>
	<g>
		<polygon class="st4" points="228.9,291.4 243.6,247.9 276.6,240.9 276.6,216.3 252.6,221.4 280.5,139.2 226.5,139.2 194.5,233.6 
			162.5,240.4 162.5,265 185.5,260.1 174.9,291.4 174.8,291.4 162.4,328.1 162.5,328.1 216.4,328.1 306.5,328.1 319,291.4 		"/>
		<g>
			<linearGradient id="SVGID_1_" gradientUnits="userSpaceOnUse" x1="148.0427" y1="323.8981" x2="334.5968" y2="106.9224">
				<stop  offset="0" style="stop-color:#FCCF17"/>
				<stop  offset="0.1845" style="stop-color:#DF9808"/>
				<stop  offset="0.4758" style="stop-color:#FFD71F"/>
				<stop  offset="0.6455" style="stop-color:#FBE36E"/>
				<stop  offset="0.7962" style="stop-color:#F5BB00"/>
				<stop  offset="1" style="stop-color:#CDA838"/>
			</linearGradient>
			<polygon class="st5" points="264.7,218.8 288.8,147.6 280.5,139.2 252.6,221.4 			"/>
			<linearGradient id="SVGID_2_" gradientUnits="userSpaceOnUse" x1="177.6614" y1="349.3637" x2="364.2148" y2="132.3888">
				<stop  offset="0" style="stop-color:#FCCF17"/>
				<stop  offset="0.1845" style="stop-color:#DF9808"/>
				<stop  offset="0.4758" style="stop-color:#FFD71F"/>
				<stop  offset="0.6455" style="stop-color:#FBE36E"/>
				<stop  offset="0.7962" style="stop-color:#F5BB00"/>
				<stop  offset="1" style="stop-color:#CDA838"/>
			</linearGradient>
			<polygon class="st6" points="285,249.3 285,224.7 276.6,216.3 276.6,240.9 243.6,247.9 228.9,291.4 240.1,291.4 252,256.3 			"/>
			<linearGradient id="SVGID_3_" gradientUnits="userSpaceOnUse" x1="204.2827" y1="372.2523" x2="390.8363" y2="155.2773">
				<stop  offset="0" style="stop-color:#FCCF17"/>
				<stop  offset="0.1845" style="stop-color:#DF9808"/>
				<stop  offset="0.4758" style="stop-color:#FFD71F"/>
				<stop  offset="0.6455" style="stop-color:#FBE36E"/>
				<stop  offset="0.7962" style="stop-color:#F5BB00"/>
				<stop  offset="1" style="stop-color:#CDA838"/>
			</linearGradient>
			<polygon class="st7" points="319,291.4 306.5,328.1 216.4,328.1 162.5,328.1 170.8,336.4 170.8,336.4 224.8,336.4 314.9,336.4 
				327.3,299.7 			"/>
			<linearGradient id="SVGID_4_" gradientUnits="userSpaceOnUse" x1="134.2915" y1="312.074" x2="320.8432" y2="95.1011">
				<stop  offset="0" style="stop-color:#FCCF17"/>
				<stop  offset="0.1845" style="stop-color:#DF9808"/>
				<stop  offset="0.4758" style="stop-color:#FFD71F"/>
				<stop  offset="0.6455" style="stop-color:#FBE36E"/>
				<stop  offset="0.7962" style="stop-color:#F5BB00"/>
				<stop  offset="1" style="stop-color:#CDA838"/>
			</linearGradient>
			<polygon class="st8" points="181.8,271.1 185.5,260.1 162.5,265 170.9,273.4 			"/>
		</g>
	</g>
	<path class="st9" d="M375.6,40.3L33.3,363.5c21.8,42.1,55.4,77,96.5,100.4l340.5-321.5C449.2,99.9,416.2,64.4,375.6,40.3z"/>
</g>
</svg>
