<?xml version="1.0" encoding="utf-8"?>
<!-- Generator: Adobe Illustrator 24.0.2, SVG Export Plug-In . SVG Version: 6.00 Build 0)  -->
<svg version="1.1" id="Слой_1" xmlns="http://www.w3.org/2000/svg" xmlns:xlink="http://www.w3.org/1999/xlink" x="0px" y="0px"
	 width="70px" height="70px" viewBox="0 0 70 70" style="enable-background:new 0 0 70 70;" xml:space="preserve">
<style type="text/css">
	.st0{fill:#E2E2E2;}
	.st1{fill:#007BFF;}
	.st2{fill:#343A40;}
	.st3{fill-rule:evenodd;clip-rule:evenodd;fill:#28A745;}
</style>
<g>
	<path class="st0" d="M57.9,3.5H10.5C9.7,3.5,9,3.8,8.4,4.3C7.9,4.8,7.6,5.5,7.6,6.2V67c0,0.8,0.3,1.5,0.8,2
		c0.6,0.6,1.3,0.9,2.1,0.9h47.4V3.5z M34.9,18.4c2.9,0,5.2,2.3,5.2,5.2c0,0.1,0,0.1,0,0.2c-0.1,2.9-2.5,5.2-5.4,5.1
		c-2.8-0.1-5.1-2.5-5-5.4C29.8,20.7,32.1,18.4,34.9,18.4z M24.8,40.2c1-4.7,5-8.1,9.9-8.2h0.2c4.9,0,9.1,3.5,10.1,8.2
		c0.2,1-0.3,1.9-1.1,2.4c-5.6,3.1-12.3,3.1-17.9,0C25.1,42.1,24.6,41.2,24.8,40.2z M40.5,64.3h-11c-1.1,0-1.9-0.9-2-2
		c0-1.1,0.9-2,2-2h11c1.1,0,2,0.9,2,2C42.4,63.4,41.6,64.3,40.5,64.3z M45.6,57.3H24.4c-1.1,0-2-0.9-2-2c0-1.1,0.9-2,2-2h21.2
		c1.1,0,2,0.9,2,2C47.5,56.4,46.7,57.3,45.6,57.3z"/>
	<g>
		<g>
			<path class="st1" d="M34.9,14.9c-9.6,0-17.4,7.8-17.4,17.4s7.8,17.5,17.4,17.5S52.3,42,52.3,32.4S44.5,14.9,34.9,14.9z
				 M29.8,23.5c0.1-2.8,2.4-5.1,5.2-5.1c2.9,0,5.2,2.3,5.2,5.2c0,0.1,0,0.1,0,0.2c-0.1,2.9-2.5,5.2-5.4,5.1
				C31.9,28.8,29.7,26.4,29.8,23.5z M43.9,42.6c-5.6,3.1-12.3,3.1-17.9,0c-0.8-0.5-1.3-1.4-1.1-2.4c1-4.7,5-8.1,9.9-8.2H35
				c4.9,0,9.1,3.5,10.1,8.2C45.2,41.2,44.8,42.1,43.9,42.6z"/>
			<path class="st2" d="M55.3,3.5h4.2c1.6,0,2.9,1.3,2.9,2.9v60.7c0,1.6-1.3,2.9-2.9,2.9h-4.2V3.5z"/>
		</g>
		<path class="st0" d="M1.5,70C0.7,70,0,69.3,0,68.5V23.1c0-0.8,0.7-1.5,1.5-1.5S3,22.3,3,23.1v45.4C3,69.3,2.3,70,1.5,70z"/>
		<path class="st0" d="M68.5,51.9c-0.8,0-1.5-0.7-1.5-1.5V5.1c0-0.8,0.7-1.5,1.5-1.5S70,4.2,70,5.1v45.4
			C70,51.3,69.3,51.9,68.5,51.9z"/>
		<path class="st3" d="M51,2.9C51,1.3,49.7,0,48.1,0H21.8c-0.8,0-1.5,0.3-2.1,0.8c-0.5,0.6-0.8,1.3-0.8,2.1v5.2
			c0,1.6,1.3,2.9,2.9,2.9h26.3c1.5,0,2.8-1.2,2.9-2.7c0-0.1,0-0.1,0-0.2V2.9L51,2.9z"/>
	</g>
</g>
</svg>
