<?xml version="1.0" encoding="utf-8"?>
<!-- Generator: Adobe Illustrator 24.0.2, SVG Export Plug-In . SVG Version: 6.00 Build 0)  -->
<svg version="1.1" id="Слой_1" xmlns="http://www.w3.org/2000/svg" xmlns:xlink="http://www.w3.org/1999/xlink" x="0px" y="0px"
	 width="70px" height="70px" viewBox="0 0 70 70" style="enable-background:new 0 0 70 70;" xml:space="preserve">
<style type="text/css">
	.st0{fill:#28A745;}
	.st1{fill:#E1E3E5;}
	.st2{fill:#343A40;}
	.st3{fill:#007BFF;}
</style>
<g>
	<path class="st0" d="M48.1,57.1l4.7,8.1C63.5,58.9,70,47.4,70,35h-9.6v0.2C60.4,44.2,55.8,52.4,48.1,57.1"/>
	<path class="st1" d="M35,0C15.6,0.1-0.1,15.8,0,35.1s15.8,35,35.2,34.9c6.2,0,12.3-1.7,17.7-4.8l-4.7-8.1
		c-12.1,7.3-27.9,3.5-35.2-8.6s-3.5-27.8,8.6-35.1c4-2.4,8.6-3.7,13.3-3.7l0,0L35,0L35,0z"/>
	<path class="st2" d="M35,0v9.7C49,9.8,60.3,21.1,60.4,35H70C70,15.7,54.3,0,35,0"/>
	<path class="st3" d="M35,19.7c-0.1,0-0.2,0-0.3,0c-8.6,0-15.5,7-15.5,15.5S26,50.7,34.6,50.8c8.6,0.1,15.7-6.8,15.8-15.4
		C50.5,26.9,43.6,19.8,35,19.7z M36.7,43.6l-0.3,0.1v1.2c0,0.9-0.7,1.6-1.6,1.6c-0.9,0-1.6-0.7-1.6-1.6v-1.2l-0.3-0.1
		c-0.7-0.3-1.3-0.7-1.9-1.2l0,0c-0.5-0.5-0.9-1.1-1.1-1.7v-0.1c-0.2-0.4-0.2-0.8-0.1-1.2s0.4-0.8,0.8-1c0.2-0.1,0.5-0.2,0.8-0.2
		c0.6,0,1.2,0.3,1.4,0.9c0.1,0.1,0.1,0.2,0.1,0.3l0,0c0.1,0.3,0.3,0.5,0.5,0.7c0.4,0.4,0.9,0.6,1.5,0.6c1.2,0,2.1-0.9,2.1-2.1
		c0-1.2-0.9-2.1-2.1-2.1l0,0c-1.4,0-2.8-0.5-3.8-1.5s-1.6-2.3-1.6-3.8c0-2.2,1.4-4.2,3.5-5l0.3-0.1v-1.2c0-0.9,0.7-1.6,1.6-1.6
		s1.6,0.7,1.6,1.6V26l0.3,0.1c0.7,0.3,1.3,0.7,1.9,1.2c0.5,0.5,0.9,1.1,1.2,1.7c0.2,0.4,0.2,0.8,0,1.2c-0.2,0.4-0.5,0.7-0.9,0.9
		c-0.8,0.4-1.8,0-2.2-0.8c-0.1-0.3-0.3-0.5-0.5-0.7c-0.4-0.4-0.9-0.6-1.5-0.6c-1.2,0-2.1,0.9-2.1,2.1s0.9,2.1,2.1,2.1l0,0
		c1.4,0,2.8,0.5,3.8,1.5s1.6,2.3,1.6,3.8C40.2,40.8,38.8,42.8,36.7,43.6z"/>
</g>
</svg>
