<?xml version="1.0" encoding="utf-8"?>
<!-- Generator: Adobe Illustrator 24.0.2, SVG Export Plug-In . SVG Version: 6.00 Build 0)  -->
<svg version="1.1" id="Слой_1" xmlns="http://www.w3.org/2000/svg" xmlns:xlink="http://www.w3.org/1999/xlink" x="0px" y="0px"
	 width="70px" height="70px" viewBox="0 0 70 70" style="enable-background:new 0 0 70 70;" xml:space="preserve">
<style type="text/css">
	.st0{fill:#E1E3E5;}
	.st1{fill:#343A40;}
	.st2{fill:#007BFF;}
	.st3{fill:#28A745;}
	.st4{fill:#3FC959;}
</style>
<g>
	<g>
		<path class="st0" d="M63.6,10.8l-43.3,0.4c0.6,1,1,2.2,1,3.5c0,3.7-3,6.8-6.8,6.8s-6.8-3-6.8-6.8c0-1.2,0.3-2.4,0.9-3.4h-2
			c-1.2,0-2.1,1-2.1,2.1V64h61.2V12.8C65.7,11.6,64.8,10.8,63.6,10.8z M42.3,50.1H26.2c-0.6,0-1.2-0.3-1.5-0.9l-8.1-19.8
			C16,28.6,16.2,27.5,17,27c0.8-0.6,1.9-0.4,2.4,0.4c0.1,0.1,0.1,0.2,0.2,0.3l7.7,18.9h15.1c1,0,1.7,0.8,1.7,1.7
			C44,49.3,43.2,50.1,42.3,50.1z M54,32.9H41c-1,0-1.7-0.8-1.7-1.7c0-1,0.8-1.7,1.7-1.7h13c1,0,1.7,0.8,1.7,1.7
			C55.8,32.1,55,32.9,54,32.9z M39.2,25.7c0-1,0.8-1.7,1.7-1.7h8.2c1,0,1.7,0.8,1.7,1.7c0,1-0.8,1.7-1.7,1.7H41
			C40,27.5,39.2,26.7,39.2,25.7z M54,22.1H41c-1,0-1.7-0.8-1.7-1.7c0-1,0.8-1.7,1.7-1.7h13c1,0,1.7,0.8,1.7,1.7
			C55.8,21.3,55,22.1,54,22.1z"/>
		<path class="st1" d="M59.2,10.6h4.4c1.2,0,2.2,0.9,2.2,2.1c0,0,0,0,0,0.1v46.6h-6.6V10.6L59.2,10.6z"/>
		<path class="st1" d="M41.8,44.3h10.5c2.2-0.2,4.1,1.4,4.3,3.6c0.2,2.2-1.4,4.1-3.6,4.3c-0.2,0-0.5,0-0.7,0H41.8
			c-2.2,0.2-4.1-1.4-4.3-3.6c-0.2-2.2,1.4-4.1,3.6-4.3C41.3,44.3,41.5,44.3,41.8,44.3"/>
		<path class="st2" d="M2.4,58c-0.6,0-1.2,0.2-1.6,0.7c-0.5,0.4-0.7,1-0.7,1.6v5c0,2.6,2.1,4.7,4.7,4.7l0,0h60.5
			c2.6,0,4.7-2.1,4.7-4.7c0,0,0,0,0-0.1v-5c0-0.6-0.2-1.2-0.7-1.6c-0.4-0.4-1-0.7-1.6-0.7H49.5c-1.3,0-2.3,1.1-2.3,2.3l0,0v2.2H23
			v-2.2c0-1.3-1-2.3-2.3-2.3c0,0,0,0-0.1,0L2.4,58L2.4,58z"/>
	</g>
	<g>
		<path class="st3" d="M14.9,0L14.9,0C6.6,0-0.1,6.8,0,15.1c0,8.3,6.8,15,15.1,15s15-6.8,14.9-15c0-0.5-2.7,0-2.8-0.7
			c-0.6-7-3.5-10.5-10.5-11.6C16.1,2.7,15.7,0,14.9,0 M15,9.2L15,9.2c3.2,0,5.7,2.7,5.7,5.8c0,3.2-2.7,5.7-5.8,5.7
			c-3.2,0-5.7-2.6-5.7-5.8C9.1,11.8,11.7,9.2,15,9.2"/>
		<path class="st4" d="M14.9,0L14.9,0c8.2,0.1,14.8,6.8,14.8,15h-9.1c0-3.2-2.6-5.8-5.8-5.8l0,0l0,0L14.9,0L14.9,0z"/>
	</g>
</g>
</svg>
