<?xml version="1.0" encoding="utf-8"?>
<!-- Generator: Adobe Illustrator 24.0.2, SVG Export Plug-In . SVG Version: 6.00 Build 0)  -->
<svg version="1.1" id="Слой_1" xmlns="http://www.w3.org/2000/svg" xmlns:xlink="http://www.w3.org/1999/xlink" x="0px" y="0px"
	 width="70px" height="70px" viewBox="0 0 70 70" style="enable-background:new 0 0 70 70;" xml:space="preserve">
<style type="text/css">
	.st0{fill:#343A40;}
	.st1{fill:#C0C3EE;}
	.st2{fill:#E2E2E2;}
	.st3{fill:#007BFF;}
	.st4{fill:#28A745;}
	.st5{fill:#E1E3E5;}
</style>
<g>
	<path class="st0" d="M39.9,19.3h-2.4c0.7,0,1.2-0.5,1.2-1.2v-4.8c0-0.7-0.5-1.2-1.2-1.2h-1.2c-0.7,0-1.2-0.5-1.2-1.2V6
		c0-0.7,0.5-1.2,1.2-1.2H11.8V70h26.6C32,65.9,27.8,58.8,27.8,50.7c0-8.2,4.3-15.4,10.9-19.5v-3.5c0-0.7-0.5-1.2-1.2-1.2h2.4
		c0.7,0,1.2-0.5,1.2-1.2v-4.8C41.1,19.8,40.6,19.3,39.9,19.3z M30.2,13.3c0-0.7,0.5-1.2,1.2-1.2h2.4c0.7,0,1.2,0.5,1.2,1.2v4.8
		c0,0.7-0.5,1.2-1.2,1.2h-2.4c-0.7,0-1.2-0.5-1.2-1.2V13.3z M37.4,25.4c0,0.7-0.5,1.2-1.2,1.2h-2.4c0.7,0,1.2,0.5,1.2,1.2v4.8
		c0,0.7-0.5,1.2-1.2,1.2h-2.4c-0.7,0-1.2-0.5-1.2-1.2v-4.8c0-0.7,0.5-1.2,1.2-1.2h2.4c-0.7,0-1.2-0.5-1.2-1.2v-4.8
		c0-0.7,0.5-1.2,1.2-1.2h2.4c0.7,0,1.2,0.5,1.2,1.2V25.4z"/>
	<g>
		<g>
			<g>
				<path class="st1" d="M36.7,54.2c0.1,0.3,0.2,0.6,0.3,0.9C36.8,54.8,36.7,54.5,36.7,54.2z"/>
				<path class="st1" d="M36.4,53.2c0,0.2,0.1,0.4,0.1,0.7C36.5,53.6,36.5,53.4,36.4,53.2z"/>
				<path class="st1" d="M36.2,50.6c0,0.4,0,0.7,0,1.1C36.2,51.3,36.2,51,36.2,50.6z"/>
				<path class="st1" d="M36.3,52.4c0,0.1,0,0.3,0.1,0.4C36.4,52.7,36.3,52.6,36.3,52.4z"/>
				<path class="st1" d="M36.4,48.4c0,0.1,0,0.3-0.1,0.4C36.3,48.7,36.4,48.5,36.4,48.4z"/>
				<path class="st1" d="M36.2,50.6c0-0.4,0-0.7,0-1.1C36.2,49.9,36.2,50.2,36.2,50.6z"/>
				<path class="st1" d="M36.6,47.4c-0.1,0.2-0.1,0.4-0.1,0.7C36.5,47.8,36.5,47.6,36.6,47.4z"/>
				<path class="st1" d="M37.9,57.3c0.1,0.2,0.2,0.3,0.3,0.5C38,57.7,38,57.5,37.9,57.3z"/>
				<path class="st1" d="M37.2,55.8c0.1,0.4,0.3,0.7,0.4,1C37.5,56.5,37.3,56.2,37.2,55.8z"/>
				<path class="st1" d="M37.6,44.4c-0.2,0.3-0.3,0.7-0.4,1C37.3,45,37.5,44.7,37.6,44.4z"/>
				<path class="st1" d="M38.1,43.4c-0.1,0.2-0.2,0.3-0.3,0.5C38,43.7,38,43.6,38.1,43.4z"/>
				<path class="st1" d="M36.9,46.1c-0.1,0.3-0.2,0.6-0.3,0.9C36.7,46.7,36.8,46.4,36.9,46.1z"/>
			</g>
			<path class="st2" d="M16.9,12.1h4.8c-0.7,0-1.2-0.5-1.2-1.2V6c0-0.7,0.5-1.2,1.2-1.2H6C5.4,4.8,4.8,5.4,4.8,6v4.8
				C4.8,11.5,5.3,12,6,12H1.2C0.5,12,0,12.5,0,13.2V18c0,0.7,0.5,1.2,1.2,1.2h2.4c-0.7,0-1.2,0.5-1.2,1.2v4.8c0,0.7,0.5,1.2,1.2,1.2
				H1.2c-0.7,0-1.2,0.5-1.2,1.2v4.8c0,0.7,0.5,1.2,1.2,1.2H6c-0.7,0-1.2,0.5-1.2,1.2v4.8C4.8,40.5,5.4,41,6,41H1.2
				C0.5,41,0,41.6,0,42.2V47c0,0.7,0.5,1.2,1.2,1.2h2.4c-0.7,0-1.2,0.5-1.2,1.2v4.8c0,0.7,0.5,1.2,1.2,1.2H1.2
				c-0.7,0-1.2,0.5-1.2,1.2v4.8c0,0.7,0.5,1.2,1.2,1.2H6c-0.7,0-1.2,0.5-1.2,1.2v4.8C4.8,69.5,5.4,70,6,70h15.7
				c-0.7,0-1.2-0.5-1.2-1.2V64c0-0.7,0.5-1.2,1.2-1.2h-4.8c-0.7,0-1.2-0.5-1.2-1.2v-4.8c0-0.7,0.5-1.2,1.2-1.2h2.4
				c-0.7,0-1.2-0.5-1.2-1.2v-4.8c0-0.7,0.5-1.2,1.2-1.2h-2.4c-0.7,0-1.2-0.5-1.2-1.2v-4.8c0-0.7,0.5-1.2,1.2-1.2h4.8
				c-0.7,0-1.2-0.5-1.2-1.2v-5c0-0.7,0.5-1.2,1.2-1.2h-4.8c-0.7,0-1.2-0.5-1.2-1.2v-4.8c0-0.7,0.5-1.2,1.2-1.2h2.4
				c-0.7,0-1.2-0.5-1.2-1.2v-4.8c0-0.7,0.5-1.2,1.2-1.2h-2.4c-0.7,0-1.2-0.5-1.2-1.2v-4.8C15.7,12.6,16.2,12.1,16.9,12.1z"/>
			<path class="st3" d="M50.9,38.1c-0.1,0-0.2,0-0.3,0c-6.9,0-12.4,5.6-12.4,12.5c0,6.8,5.5,12.4,12.3,12.5
				c6.9,0.1,12.6-5.4,12.6-12.3C63.3,43.9,57.7,38.2,50.9,38.1z M52.2,57.3L52,57.4v0.9c0,0.7-0.6,1.3-1.3,1.3s-1.3-0.6-1.3-1.3
				v-0.9l-0.2-0.1c-0.6-0.2-1.1-0.6-1.5-1l0,0c-0.4-0.4-0.7-0.9-0.9-1.4l0,0c-0.2-0.3-0.2-0.6-0.1-1c0.1-0.3,0.3-0.6,0.6-0.8
				c0.2-0.1,0.4-0.2,0.6-0.2c0.5,0,0.9,0.2,1.2,0.7c0,0.1,0.1,0.2,0.1,0.2l0,0c0.1,0.2,0.2,0.4,0.4,0.5c0.3,0.3,0.7,0.5,1.2,0.5
				c0.9,0,1.7-0.8,1.7-1.7s-0.8-1.7-1.7-1.7l0,0c-1.1,0-2.2-0.4-3-1.2s-1.3-1.9-1.3-3c0-1.8,1.1-3.4,2.8-4l0.2-0.1v-0.9
				c0-0.7,0.6-1.3,1.3-1.3s1.3,0.6,1.3,1.3v0.9l0.2,0.1c0.6,0.2,1.1,0.6,1.5,1s0.7,0.8,0.9,1.4c0.1,0.3,0.1,0.7,0,1
				s-0.4,0.6-0.7,0.7c-0.7,0.3-1.4,0-1.7-0.7c-0.1-0.2-0.2-0.4-0.4-0.6c-0.3-0.3-0.7-0.5-1.2-0.5c-0.9,0-1.7,0.8-1.7,1.7
				s0.8,1.7,1.7,1.7l0,0c1.1,0,2.2,0.4,3,1.2s1.3,1.9,1.3,3C55,55,53.9,56.6,52.2,57.3z"/>
			<path class="st4" d="M50.7,31.4C40,31.4,31.4,40,31.4,50.7S40,70,50.7,70S70,61.4,70,50.7S61.4,31.4,50.7,31.4z M50.7,65.2
				c-8,0-14.5-6.5-14.5-14.5s6.5-14.5,14.5-14.5s14.5,6.5,14.5,14.5S58.7,65.2,50.7,65.2z"/>
		</g>
		<path class="st5" d="M23.2,5.9V1.5c0-0.7,0.5-1.3,1.2-1.3H8.6C8,0.2,7.5,0.8,7.5,1.4v4.5C7.5,6.5,8,7,8.7,7h2.4H24
			C23.5,6.9,23.2,6.4,23.2,5.9z"/>
		<path class="st0" d="M35.5,0h-1.2h-0.1h-2.3h-2.4h-3.8h-4.8c-0.7,0-1.2,0.5-1.2,1.3v4.8c0,0.5,0.4,1,0.8,1.1h9h2.4h3.7
			c0.6-0.1,1.1-0.6,1.1-1.2V1.2C36.7,0.6,36.2,0,35.5,0z"/>
	</g>
</g>
</svg>
