<?xml version="1.0" encoding="utf-8"?>
<!-- Generator: Adobe Illustrator 24.0.2, SVG Export Plug-In . SVG Version: 6.00 Build 0)  -->
<svg version="1.1" id="Слой_1" xmlns="http://www.w3.org/2000/svg" xmlns:xlink="http://www.w3.org/1999/xlink" x="0px" y="0px"
	 width="70px" height="70px" viewBox="0 0 70 70" style="enable-background:new 0 0 70 70;" xml:space="preserve">
<style type="text/css">
	.st0{fill:#E2E2E2;}
	.st1{fill:#343A40;}
	.st2{fill-rule:evenodd;clip-rule:evenodd;fill:#007BFF;}
	.st3{fill:#28A745;}
</style>
<g>
	<path class="st0" d="M35.5,14.1c-11.4,0-20.8,9.3-20.8,20.8S24,55.7,35.5,55.7s20.8-9.3,20.8-20.8C56.2,23.4,46.9,14.1,35.5,14.1z
		 M35.5,52.7c-9.8,0-17.8-8-17.8-17.8s8-17.8,17.8-17.8s17.8,8,17.8,17.8S45.3,52.7,35.5,52.7z"/>
	<path class="st1" d="M59.4,38.4C57.9,49,49.6,57.3,39.1,58.8v6.3c14-1.6,25.1-12.7,26.7-26.7L59.4,38.4L59.4,38.4z"/>
	<path class="st1" d="M31.9,58.8C21.4,57.3,13.1,49,11.6,38.4H5.3C6.9,52.4,18,63.5,32,65.1v-6.3H31.9z"/>
	<path class="st1" d="M11.6,31.3c1.6-10.5,9.8-18.8,20.4-20.4V4.6C17.9,6.3,6.9,17.3,5.3,31.3H11.6z"/>
	<path class="st1" d="M65.7,31.3c-1.6-14-12.6-25-26.7-26.7V11c10.5,1.6,18.8,9.8,20.4,20.4h6.3V31.3z"/>
	<path class="st2" d="M35.5,46.3c0.9,0,1.6-0.7,1.6-1.6v-1.2l0.3-0.1c2.1-0.8,3.4-2.8,3.4-5c0-1.4-0.6-2.7-1.6-3.7s-2.3-1.5-3.7-1.5
		l0,0c-1.1,0-2.1-0.9-2.1-2.1c0-1.1,0.9-2.1,2.1-2.1c0.6,0,1.1,0.2,1.5,0.6c0.2,0.2,0.4,0.4,0.5,0.7c0.4,0.8,1.3,1.2,2.1,0.8
		c0.4-0.2,0.7-0.5,0.9-0.9s0.1-0.8,0-1.2c-0.3-0.6-0.6-1.2-1.1-1.7s-1.2-0.9-1.9-1.2L37.1,26v-1.2c0-0.9-0.7-1.6-1.6-1.6
		c-0.9,0-1.6,0.7-1.6,1.6V26l-0.3,0.1c-2.1,0.8-3.4,2.8-3.4,5c0,1.4,0.6,2.7,1.6,3.7s2.3,1.5,3.7,1.5l0,0c1.1,0,2.1,0.9,2.1,2.1
		c0,1.1-0.9,2.1-2.1,2.1c-0.5,0-1.1-0.2-1.4-0.6c-0.2-0.2-0.4-0.4-0.5-0.7l0,0c0-0.1-0.1-0.2-0.1-0.3c-0.3-0.5-0.9-0.9-1.4-0.9
		c-0.3,0-0.5,0.1-0.8,0.2c-0.4,0.2-0.7,0.5-0.8,0.9c-0.1,0.4-0.1,0.9,0.1,1.2v0.1c0.2,0.6,0.6,1.2,1.1,1.7l0,0
		c0.5,0.5,1.2,0.9,1.9,1.2l0.3,0.1v1.2C33.9,45.5,34.6,46.3,35.5,46.3z"/>
	<path class="st3" d="M35.5,18.8c-1.2,0-2.1-1-2.1-2.1V2.1c0-1.2,1-2.1,2.1-2.1s2.1,1,2.1,2.1v14.5C37.6,17.8,36.7,18.8,35.5,18.8z"
		/>
	<path class="st3" d="M35.5,70c-1.2,0-2.1-1-2.1-2.1V53.3c0-1.2,1-2.1,2.1-2.1s2.1,1,2.1,2.1v14.5C37.6,69,36.7,70,35.5,70z"/>
	<path class="st3" d="M67.9,37.1H53.4c-1.2,0-2.1-1-2.1-2.1c0-1.2,1-2.1,2.1-2.1h14.5c1.2,0,2.1,1,2.1,2.1S69.1,37.1,67.9,37.1z"/>
	<path class="st3" d="M16.6,37.1H2.1c-1.2,0-2.1-1-2.1-2.1c0-1.2,1-2.1,2.1-2.1h14.5c1.2,0,2.1,1,2.1,2.1
		C18.8,36.1,17.8,37.1,16.6,37.1z"/>
</g>
</svg>
