<?xml version="1.0" encoding="utf-8"?>
<!-- Generator: Adobe Illustrator 24.0.2, SVG Export Plug-In . SVG Version: 6.00 Build 0)  -->
<svg version="1.1" id="Слой_1" xmlns="http://www.w3.org/2000/svg" xmlns:xlink="http://www.w3.org/1999/xlink" x="0px" y="0px"
	 width="70px" height="70px" viewBox="0 0 70 70" style="enable-background:new 0 0 70 70;" xml:space="preserve">
<style type="text/css">
	.st0{fill:#28A745;}
	.st1{fill:#E9ECEF;}
	.st2{fill:#E2E2E2;}
	.st3{fill:#343A40;}
	.st4{fill-rule:evenodd;clip-rule:evenodd;fill:#007BFF;}
	.st5{fill:#007BFF;}
	.st6{fill:#D1D1D1;}
	.st7{fill:#19842E;}
</style>
<g>
	<g>
		<path class="st0" d="M41.9,31.6v28h25.7c1.3,0,2.4-1.1,2.4-2.4V31.6H41.9z M59.2,52.5L59,52.6v0.9c0,0.7-0.6,1.3-1.3,1.3
			s-1.3-0.6-1.3-1.3v-0.9l-0.2-0.1c-0.5-0.2-1.1-0.5-1.5-1l0,0c-0.4-0.4-0.7-0.8-0.9-1.3l0,0c-0.2-0.3-0.2-0.6-0.1-1
			c0.1-0.3,0.3-0.6,0.6-0.8c0.2-0.1,0.4-0.1,0.6-0.1c0.5,0,0.9,0.2,1.1,0.7c0,0.1,0.1,0.1,0.1,0.2l0,0c0.1,0.2,0.2,0.4,0.4,0.5
			c0.3,0.3,0.7,0.5,1.1,0.5c0.9,0,1.6-0.7,1.6-1.6S58.6,47,57.6,47l0,0c-1.1,0-2.2-0.4-2.9-1.2c-0.8-0.8-1.2-1.8-1.2-3
			c0-1.7,1.1-3.3,2.7-3.9l0.2-0.1v-0.9c0-0.7,0.6-1.3,1.3-1.3s1.3,0.6,1.3,1.3v0.9l0.2,0.1c0.6,0.2,1.1,0.5,1.5,1
			c0.4,0.4,0.7,0.8,0.9,1.3c0.1,0.3,0.1,0.7,0,1s-0.4,0.6-0.7,0.7c-0.6,0.3-1.4,0-1.7-0.7c-0.1-0.2-0.2-0.4-0.4-0.5
			c-0.3-0.3-0.7-0.5-1.1-0.5c-0.9,0-1.6,0.7-1.6,1.6c0,0.9,0.7,1.6,1.6,1.6l0,0c1.1,0,2.2,0.4,2.9,1.2c0.8,0.8,1.2,1.8,1.2,3
			C61.9,50.3,60.8,51.9,59.2,52.5z"/>
		<path class="st0" d="M70,20.1c0-0.6-0.2-1.3-0.7-1.7c-0.4-0.5-1.1-0.7-1.7-0.7H41.9v7.1H70V20.1z"/>
	</g>
	<g>
		<path class="st1" d="M50.2,2.3c-0.6-1.4-2-2.3-3.5-2.3L46,2.3H50.2z"/>
		<path class="st1" d="M46.7,0L46.7,0L46.7,0L46.7,0z"/>
	</g>
	<g>
		<path class="st2" d="M46.8,0H6.2C2.8,0,0,2.8,0,6.2V68c0,0.5,0.3,0.9,0.7,1.1s1,0.1,1.3-0.2L4.2,67c0.7-0.6,1.7-0.6,2.4,0l2.7,2.4
			c0.8,0.7,2.1,0.7,2.9,0l2.7-2.4c0.7-0.6,1.7-0.6,2.4,0l2.7,2.4c0.8,0.7,2.1,0.7,2.9,0l2.7-2.4c0.7-0.6,1.7-0.6,2.4,0l2.7,2.4
			c0.8,0.7,2.1,0.7,2.9,0l2.7-2.4c0.7-0.6,1.7-0.6,2.4,0l2.1,1.9c0.4,0.3,0.9,0.4,1.3,0.2c0.4-0.2,0.7-0.6,0.7-1.1V3.8
			C42.9,1.7,44.6,0,46.8,0L46.8,0z M18.9,13.8l0.2-0.1v-0.9c0-0.7,0.6-1.3,1.3-1.3c0.7,0,1.3,0.6,1.3,1.3v0.9l0.2,0.1
			c0.5,0.2,1,0.5,1.4,0.9s0.7,0.8,0.9,1.3c0.1,0.3,0.1,0.7,0,1s-0.4,0.6-0.7,0.7c-0.6,0.3-1.4,0-1.7-0.6c-0.1-0.2-0.2-0.4-0.4-0.5
			c-0.3-0.3-0.7-0.5-1.1-0.5c-0.9,0-1.6,0.7-1.6,1.6c0,0.9,0.7,1.6,1.6,1.6l0,0c1.1,0,2.1,0.4,2.9,1.2c0.8,0.8,1.2,1.8,1.2,2.9
			c0,1.7-1.1,3.3-2.7,3.9l-0.2,0.1v0.9c0,0.7-0.6,1.3-1.3,1.3s-1.3-0.6-1.3-1.3v-0.9l-0.2-0.1c-0.6-0.2-1.1-0.5-1.4-0.9l0,0
			c-0.4-0.4-0.7-0.8-0.9-1.3l0,0c-0.2-0.3-0.2-0.6-0.1-1c0.1-0.3,0.3-0.6,0.6-0.7c0.2-0.1,0.4-0.1,0.6-0.1c0.4,0,0.9,0.3,1.1,0.7
			c0,0.1,0.1,0.1,0.1,0.2l0,0c0.1,0.2,0.2,0.4,0.4,0.5c0.3,0.3,0.7,0.5,1.1,0.4c0.9,0,1.6-0.7,1.6-1.6s-0.7-1.6-1.6-1.6l0,0
			c-1.1,0-2.1-0.4-2.9-1.2c-0.8-0.8-1.2-1.8-1.2-2.9C16.2,15.9,17.3,14.4,18.9,13.8z M8,49.3c-1,0-1.8-0.8-1.8-1.8S7,45.7,8,45.7
			h14.2c1,0,1.8,0.8,1.8,1.8s-0.8,1.8-1.8,1.8H8z M31.4,56.7H21c-1,0-1.8-0.8-1.8-1.8s0.8-1.8,1.8-1.8h10.4c1,0,1.8,0.8,1.8,1.8
			C33.1,55.9,32.3,56.7,31.4,56.7z M32,42.1H21c-1,0-1.8-0.8-1.8-1.8s0.8-1.8,1.8-1.8h11c1,0,1.8,0.8,1.8,1.8
			C33.7,41.3,32.9,42.1,32,42.1z"/>
		<path class="st3" d="M36.4,0v67.2l0,0c0.7-0.6,1.7-0.6,2.4,0l2.1,1.9c0.4,0.3,0.9,0.4,1.3,0.2c0.4-0.2,0.7-0.6,0.7-1.1V3.8
			c0-2.1,1.7-3.8,3.8-3.8H36.4z M46.8,0L46,2.3h4.2C49.7,0.9,48.3,0,46.8,0"/>
		<path class="st4" d="M8,42.1h6.3c1,0,1.8-0.8,1.8-1.8s-0.8-1.8-1.8-1.8H8c-1,0-1.8,0.8-1.8,1.8S7,42.1,8,42.1z"/>
		<path class="st4" d="M31.4,45.7h-2.6c-1,0-1.8,0.8-1.8,1.8s0.8,1.8,1.8,1.8h2.6c1,0,1.8-0.8,1.8-1.8
			C33.1,46.5,32.3,45.7,31.4,45.7z"/>
		<path class="st4" d="M8,56.7h6.3c1,0,1.8-0.8,1.8-1.8s-0.8-1.8-1.8-1.8H8c-1,0-1.8,0.8-1.8,1.8S7,56.7,8,56.7z"/>
		<path class="st5" d="M20.4,8.2c-6.7,0-12.2,5.5-12.2,12.2s5.5,12.2,12.2,12.2s12.2-5.5,12.2-12.2S27.1,8.2,20.4,8.2z M21.9,27.3
			l-0.2,0.1v0.9c0,0.7-0.6,1.3-1.3,1.3c-0.7,0-1.3-0.6-1.3-1.3v-0.9L19,27.3c-0.6-0.2-1.1-0.5-1.4-0.9l0,0c-0.4-0.4-0.7-0.8-0.9-1.3
			l0,0c-0.2-0.3-0.2-0.6-0.1-1c0.1-0.3,0.3-0.6,0.6-0.7c0.2-0.1,0.4-0.1,0.6-0.1c0.4,0,0.9,0.3,1.1,0.7c0,0.1,0.1,0.1,0.1,0.2l0,0
			c0.1,0.2,0.2,0.4,0.4,0.5c0.3,0.3,0.7,0.5,1.1,0.4c0.9,0,1.6-0.7,1.6-1.6s-0.7-1.6-1.6-1.6l0,0c-1.1,0-2.1-0.4-2.9-1.2
			c-0.8-0.8-1.2-1.8-1.2-2.9c0-1.7,1.1-3.3,2.7-3.9l0.2-0.1v-0.9c0-0.7,0.6-1.3,1.3-1.3s1.3,0.6,1.3,1.3v0.9l0.2,0.1
			c0.5,0.2,1,0.5,1.4,0.9s0.7,0.8,0.9,1.3c0.1,0.3,0.1,0.7,0,1s-0.4,0.6-0.7,0.7c-0.6,0.3-1.4,0-1.7-0.6c-0.1-0.2-0.2-0.4-0.4-0.5
			c-0.3-0.3-0.7-0.5-1.1-0.5c-0.9,0-1.6,0.7-1.6,1.6s0.7,1.6,1.6,1.6l0,0c1.1,0,2.1,0.4,2.9,1.2c0.8,0.8,1.2,1.8,1.2,2.9
			C24.6,25.1,23.5,26.7,21.9,27.3z"/>
		<path class="st6" d="M50.5,17.7h-7.6V3.8c0-2.1,1.7-3.8,3.8-3.8s3.8,1.7,3.8,3.8V17.7L50.5,17.7L50.5,17.7z"/>
	</g>
	<g>
		<path class="st7" d="M63.5,31.6v28h4.1c0.6,0,1.3-0.2,1.7-0.7c0.5-0.4,0.7-1.1,0.7-1.7V31.6h-1.9H63.5z"/>
		<path class="st7" d="M70,24.8v-4.6c0-0.7-0.2-1.3-0.7-1.8c-0.4-0.5-1.1-0.7-1.7-0.7h-4.1v7.1h5H70z"/>
	</g>
</g>
</svg>
