<?xml version="1.0" encoding="utf-8"?>
<!-- Generator: Adobe Illustrator 24.0.2, SVG Export Plug-In . SVG Version: 6.00 Build 0)  -->
<svg version="1.1" id="Слой_1" xmlns="http://www.w3.org/2000/svg" xmlns:xlink="http://www.w3.org/1999/xlink" x="0px" y="0px"
	 width="70px" height="70px" viewBox="0 0 70 70" style="enable-background:new 0 0 70 70;" xml:space="preserve">
<style type="text/css">
	.st0{fill-rule:evenodd;clip-rule:evenodd;fill:#343A40;}
	.st1{fill-rule:evenodd;clip-rule:evenodd;fill:#28A745;}
	.st2{fill:#28A745;}
	.st3{fill:#007BFF;}
	.st4{fill:#0866BC;}
	.st5{fill:#E2E2E2;}
	.st6{fill:#D1D1D1;}
	.st7{fill:#343A40;}
</style>
<g>
	<path class="st0" d="M47.4,59.7v8.5c0,1,0.8,1.8,1.8,1.8s1.8-0.8,1.8-1.8v-8.5c0-1-0.8-1.8-1.8-1.8C48.2,58,47.5,58.8,47.4,59.7z"
		/>
	<path class="st0" d="M47.4,49.2v3.2c0,1,0.8,1.8,1.8,1.8s1.8-0.8,1.8-1.8v-3.2c0-1-0.8-1.8-1.8-1.8C48.2,47.5,47.5,48.2,47.4,49.2z
		"/>
	<g>
		<path class="st1" d="M61.8,22.7c0.9,0,1.6-0.7,1.6-1.6V20l0.3-0.1c2-0.8,3.4-2.7,3.4-4.9c0-1.4-0.6-2.7-1.5-3.7s-2.3-1.5-3.7-1.5
			l0,0c-1.1,0-2-0.9-2-2s0.9-2,2-2c0.5,0,1.1,0.2,1.4,0.6c0.2,0.2,0.4,0.4,0.5,0.7c0.4,0.8,1.3,1.2,2.1,0.8c0.4-0.2,0.7-0.5,0.9-0.9
			c0.2-0.4,0.1-0.8,0-1.2C66.4,5.1,66,4.5,65.6,4c-0.5-0.5-1.1-0.9-1.8-1.2l-0.3-0.1V1.6c0-0.9-0.7-1.6-1.6-1.6
			c-0.9,0-1.6,0.7-1.6,1.6v1.1L60,2.8c-2,0.8-3.4,2.7-3.4,4.9c0,1.4,0.6,2.7,1.5,3.7c1,1,2.3,1.5,3.7,1.5l0,0c1.1,0,2,0.9,2,2
			s-0.9,2-2,2c-0.5,0-1-0.2-1.4-0.6c-0.2-0.2-0.4-0.4-0.5-0.7l0,0c0-0.1-0.1-0.2-0.1-0.3c-0.3-0.5-0.8-0.9-1.4-0.9
			c-0.3,0-0.5,0.1-0.7,0.2c-0.4,0.2-0.7,0.5-0.8,0.9s-0.1,0.8,0.1,1.2l0,0c0.3,0.6,0.6,1.2,1.1,1.7l0,0c0.5,0.5,1.1,0.9,1.8,1.2
			l0.3,0.1v1.1C60.3,22,61,22.7,61.8,22.7z"/>
		<path class="st2" d="M69.6,42.3c0.6-0.8,0.6-1.9-0.1-2.7l0,0l-5.6-6.3c-0.4-0.4-0.9-0.7-1.5-0.7s-1.1,0.2-1.5,0.7l-5.6,6.3
			c-0.7,0.8-0.7,2.1,0.1,2.8c0.7,0.6,1.8,0.6,2.5,0l2.4-1.9V68c0,1.1,0.9,2,2,2s2-0.9,2-2V40.7l2.4,1.9c0.4,0.3,1,0.5,1.5,0.4
			C68.7,43,69.2,42.7,69.6,42.3z"/>
	</g>
	<g>
		<path class="st3" d="M29.6,10.8L28.7,11v11.2c0,0.7,0.5,1.3,1.2,1.4c3.6,0.5,6.5,3.4,7,7c0.1,0.7,0.7,1.2,1.4,1.2
			c2.4,0,8.1,0,10.7,0c0.4,0,0.8-0.2,1-0.4c0.3-0.3,0.4-0.7,0.4-1C49.7,19.3,40.8,10.6,29.7,10C29.3,9.9,29.9,10.8,29.6,10.8z"/>
		<path class="st4" d="M28.6,10.4c0-0.3,0.2-0.5,0.4-0.5l0,0h1c10.7,0,19.7,8.3,20.4,19v1.3c0,0.4-0.1,0.7-0.4,1
			c-0.3,0.3-0.6,0.5-1,0.4h-6.7c0-8.9-5.4-16.9-13.7-20.2L28.6,10.4z"/>
		<g>
			<path class="st5" d="M23.9,51.3c8,0,14.6-6.4,14.9-14.3c-2.4,0-5.1,0-6.6,0c-0.6,0-1.2,0.5-1.2,1.1c-0.5,3-2.7,5.5-5.6,6.3
				c-4.2,1-8.4-1.4-9.4-5.5s1.4-8.3,5.5-9.4c0.6-0.1,1-0.7,1-1.3c0-1.4,0-4.2,0-6.6C15,22.3,9.1,28.7,9.1,36.4
				C9,44.6,15.7,51.3,23.9,51.3z"/>
			<path class="st6" d="M34.7,46.7c2.4-2.6,4-6,4.1-9.7h-1.5C37.2,40.4,36.3,43.8,34.7,46.7z"/>
		</g>
		<path class="st7" d="M46.1,35.6c-2.4,0-4.3,1.7-4.7,4c-1.5,8.6-8.9,14.8-17.6,14.8c-0.1,0-0.1,0-0.2,0C14.1,54.3,6.1,46.5,5.9,37
			C5.7,28.3,12,20.5,20.6,19c2.3-0.4,4-2.4,4-4.8v-1.5h-1.5C17,13,11.3,15.4,7,19.8c-4.5,4.5-7,10.7-7,17C0.1,43,2.5,48.9,7,53.4
			s10.5,7,16.8,7s12.3-2.5,16.8-7c4.4-4.4,6.8-10.2,7-16.3v-1.4h-1.5V35.6z"/>
	</g>
</g>
</svg>
