<?xml version="1.0" encoding="utf-8"?>
<!-- Generator: Adobe Illustrator 24.0.2, SVG Export Plug-In . SVG Version: 6.00 Build 0)  -->
<svg version="1.1" id="Слой_1" xmlns="http://www.w3.org/2000/svg" xmlns:xlink="http://www.w3.org/1999/xlink" x="0px" y="0px"
	 width="70px" height="70px" viewBox="0 0 70 70" style="enable-background:new 0 0 70 70;" xml:space="preserve">
<style type="text/css">
	.st0{fill:#007BFF;}
	.st1{fill:#28A745;}
	.st2{fill:#E2E2E2;}
	.st3{fill:#343A40;}
	.st4{fill-rule:evenodd;clip-rule:evenodd;fill:#007BFF;}
</style>
<g>
	<path class="st0" d="M57.5,15.2c-6.9,0-12.5,5.6-12.5,12.5s5.6,12.5,12.5,12.5S70,34.6,70,27.7S64.4,15.2,57.5,15.2z M58.9,34.6
		l-0.2,0.1v0.9c0,0.7-0.5,1.2-1.2,1.2s-1.2-0.5-1.2-1.2v-0.9L56,34.6c-0.5-0.2-1-0.5-1.4-0.9l0,0c-0.4-0.4-0.7-0.8-0.9-1.3l0,0
		c-0.1-0.3-0.2-0.6-0.1-0.9c0.1-0.3,0.3-0.6,0.6-0.7c0.2-0.1,0.4-0.1,0.6-0.1c0.4,0,0.9,0.2,1.1,0.7c0,0.1,0.1,0.1,0.1,0.2l0,0
		c0.1,0.2,0.2,0.4,0.3,0.5c0.3,0.3,0.7,0.4,1.1,0.4c0.9,0,1.6-0.7,1.6-1.6s-0.7-1.6-1.6-1.6l0,0c-1.1,0-2-0.4-2.8-1.1
		s-1.2-1.7-1.2-2.8c0-1.7,1-3.2,2.6-3.7l0.2-0.1v-0.9c0-0.7,0.5-1.2,1.2-1.2s1.2,0.5,1.2,1.2v0.9l0.2,0.1c0.5,0.2,1,0.5,1.4,0.9
		s0.6,0.8,0.9,1.3c0.1,0.3,0.1,0.6,0,0.9s-0.4,0.5-0.7,0.7c-0.6,0.3-1.3,0-1.6-0.6c-0.1-0.2-0.2-0.4-0.3-0.5
		c-0.3-0.3-0.7-0.5-1.1-0.5c-0.9,0-1.6,0.7-1.6,1.6s0.7,1.6,1.6,1.6l0,0c1.1,0,2.1,0.4,2.8,1.1c0.8,0.7,1.2,1.7,1.2,2.8
		C61.5,32.5,60.4,34,58.9,34.6z"/>
	<g>
		<path class="st1" d="M43.3,35.4v13.3l4.6,1.5V40.1C46,38.9,44.4,37.3,43.3,35.4z"/>
		<g>
			<path class="st1" d="M38.9,3.8H20.1v7.4h12.5c0.7,0,1.2,0.5,1.2,1.2s-0.5,1.2-1.2,1.2H20.1v3.6h2.6c0.7,0,1.2,0.5,1.2,1.2
				c0,0.7-0.5,1.2-1.2,1.2h-2.6v3.5h12.5c0.6,0,1.2,0.5,1.2,1.2c0,0.7-0.6,1.2-1.2,1.2H20.1v3.7h2.6c0.7,0,1.2,0.5,1.2,1.2
				c0,0.7-0.5,1.2-1.2,1.2h-2.6v3.7h11.6c0.7,0,1.2,0.5,1.2,1.2c0,0.7-0.5,1.2-1.2,1.2h-4.1l-7.5-2.5v10.5l21.1,7V6.1
				C41.2,4.8,40.2,3.8,38.9,3.8z M33.2,31.7h-4.4c-0.7,0-1.2-0.5-1.2-1.2c0-0.7,0.5-1.2,1.2-1.2h4.4c0.7,0,1.2,0.5,1.2,1.2
				C34.4,31.2,33.9,31.7,33.2,31.7z M33.2,19.7h-4.4c-0.7,0-1.2-0.5-1.2-1.2c0-0.7,0.5-1.2,1.2-1.2h4.4c0.7,0,1.2,0.5,1.2,1.2
				C34.4,19.1,33.9,19.7,33.2,19.7z"/>
			<path class="st2" d="M47,44.2l-26.9-8.8V2.1c0-0.6-0.3-1.2-0.7-1.6c-0.5-0.4-1.1-0.6-1.7-0.5L1.9,2.4C0.8,2.6,0,3.5,0,4.5v63.2
				C0,69,1.1,70,2.3,70h44.1c1.3,0,2.3-1,2.3-2.3V46.6C48.8,45.5,48.1,44.6,47,44.2z M15.7,53.7H11c0,0,0,0-0.1,0c-0.1,0,0,0-0.1,0
				H6.1c-1,0-1.8-0.8-1.8-1.8c0-1,0.8-1.7,1.8-1.8h4.7c0,0,0,0,0.1,0l0,0h4.7c1,0,1.8,0.8,1.8,1.8C17.4,52.9,16.6,53.7,15.7,53.7z
				 M32.3,61.7h-4.7c0,0,0,0-0.1,0s0,0-0.1,0h-4.7c-1,0-1.8-0.8-1.8-1.8c0-1,0.8-1.7,1.8-1.8h4.7c0,0,0,0,0.1,0l0,0h4.7
				c1,0,1.8,0.8,1.8,1.8C34.1,60.9,33.3,61.7,32.3,61.7z"/>
			<path class="st3" d="M20.1,2.1c0-0.6-0.3-1.2-0.7-1.6c-0.5-0.4-1.1-0.6-1.7-0.5L1.8,2.4C0.8,2.6,0,3.5,0,4.5v3.9l11.1-1.5
				c1.5-0.2,2.9,0.8,3.1,2.3c0,0.1,0,0.3,0,0.5v27.8c0,1.2,0.8,2.2,1.9,2.6L41,48.2c1.1,0.4,1.9,1.4,1.9,2.6V70h3.5
				c1.3,0,2.3-1,2.3-2.3V46.6c0-1.1-0.7-2.1-1.7-2.4l-26.9-8.8V2.1z"/>
			<path class="st4" d="M22.4,53.7h4.7c1,0,1.8-0.8,1.8-1.8c0-1-0.8-1.8-1.8-1.8h-4.7c-1,0-1.7,0.8-1.8,1.8
				C20.7,52.9,21.5,53.7,22.4,53.7z"/>
			<path class="st4" d="M11.8,61.7h4.7c1,0,1.8-0.8,1.8-1.8c0-1-0.8-1.8-1.8-1.8h-4.7c-1,0-1.7,0.8-1.8,1.8
				C10,60.9,10.8,61.7,11.8,61.7z"/>
		</g>
		<path class="st1" d="M45.6,8.3h-2.4v12c1.2-1.9,2.8-3.5,4.6-4.7v-5C47.9,9.4,46.9,8.3,45.6,8.3z"/>
	</g>
</g>
</svg>
