<?xml version="1.0" encoding="utf-8"?>
<!-- Generator: Adobe Illustrator 24.0.2, SVG Export Plug-In . SVG Version: 6.00 Build 0)  -->
<svg version="1.1" id="Слой_1" xmlns="http://www.w3.org/2000/svg" xmlns:xlink="http://www.w3.org/1999/xlink" x="0px" y="0px"
	 width="70px" height="70px" viewBox="0 0 70 70" style="enable-background:new 0 0 70 70;" xml:space="preserve">
<style type="text/css">
	.st0{fill:#E9ECEF;}
	.st1{fill:#28A745;}
	.st2{fill:#007BFF;}
	.st3{fill:none;}
	.st4{fill:#E2E2E2;}
	.st5{fill:#343A40;}
</style>
<g>
	<path class="st0" d="M14.6,65.8c-0.3,0-0.7-0.1-1-0.4C1.4,55,0.1,39.9,0,39.3c-0.1-0.8,0.5-1.5,1.4-1.6C2.2,37.6,2.9,38.2,3,39
		c0,0.1,1.3,14.5,12.6,24.2c0.6,0.5,0.7,1.5,0.2,2.1C15.5,65.7,15,65.8,14.6,65.8z"/>
	<path class="st0" d="M55.4,65.8c0.3,0,0.7-0.1,1-0.4C68.6,55,69.9,39.9,70,39.3c0.1-0.8-0.5-1.5-1.4-1.6c-0.8-0.1-1.5,0.5-1.6,1.4
		c0,0.1-1.3,14.5-12.6,24.2c-0.6,0.5-0.7,1.5-0.2,2.1C54.5,65.7,55,65.8,55.4,65.8z"/>
	<g>
		<path class="st1" d="M38.8,60.1c4.8-2.4,8.7-5.7,11.7-9.9c1.9-2.8,3.5-6,4.7-9.5H38.8V60.1z"/>
		<path class="st2" d="M13.2,16.3c-0.3,4.3-0.4,10.2,0.6,16.6h18.3V11.2c-4.1,2.5-10,5.2-17.5,5.2C14.1,16.4,13.6,16.4,13.2,16.3z"
			/>
		<path class="st3" d="M56.7,38.4H37.8c-0.6,0-1,0.5-1,1.2v22.4c0,0.4,0.2,0.8,0.4,1c0.2,0.1,0.4,0.2,0.6,0.2c0.1,0,0.2,0,0.4-0.1
			c5.8-2.5,10.4-6.3,13.9-11.2c2.4-3.4,4.2-7.4,5.6-11.8c0.1-0.4,0.1-0.8-0.1-1.1C57.3,38.6,57,38.4,56.7,38.4z"/>
		<path class="st3" d="M33.6,8.1c-0.3-0.2-0.7-0.2-1,0c-3.8,2.7-9.9,5.9-18,5.9c-0.7,0-1.5,0-2.2-0.1c-0.5,0-1,0.4-1.1,1.1
			c-0.4,4.5-0.6,11.3,0.6,18.6c0,0.2,0.1,0.4,0.1,0.6v0.2c0.1,0.6,0.5,1,1,1h20.1c0.6,0,1-0.5,1-1.2v-25C34.1,8.7,33.9,8.3,33.6,8.1
			z"/>
		<path class="st3" d="M58.6,13.9C57.9,14,57.1,14,56.4,14c-1.2,0-2.3-0.1-3.5-0.2c-0.6-0.1-1.1,0.4-1.1,1.1c0,0.2,0,0.4,0.1,0.6
			c-0.8-0.1-1.5-0.2-2.2-0.4c0.1-0.1,0.2-0.3,0.2-0.5c0.1-0.7-0.2-1.3-0.8-1.4c-3.9-0.9-7.5-2.6-10.8-5c-0.3-0.2-0.7-0.2-1,0
			c-0.3,0.2-0.5,0.6-0.5,1v25c0,0.7,0.5,1.2,1,1.2h20.1c0.5,0,0.9-0.4,1-1v-0.2c0-0.1,0-0.2,0.1-0.3c1.3-7.4,1-14.3,0.6-18.9
			C59.6,14.3,59.1,13.8,58.6,13.9z M57,33H38.9V11.8c4.1,2.3,10.5,4.8,18.5,4.8c0.1,0,0.2,0,0.3,0C57.9,20.7,58,26.7,57,33z"/>
		<path class="st0" d="M57.4,16.6c-8,0-14.3-2.6-18.5-4.8V33H57c0.9-6.4,0.8-12.3,0.6-16.4C57.6,16.6,57.5,16.6,57.4,16.6z"/>
		<path class="st0" d="M31.6,59.6V41.1H16.3c1.2,3.4,2.7,6.4,4.5,8.9C23.6,54.1,27.1,57.3,31.6,59.6z"/>
		<path class="st4" d="M62.6,9C45.3,12.7,35.5,0,35.5,0S25.7,12.6,8.4,9c0,0-9.3,48,27.1,59.7C71.9,57,62.6,9,62.6,9z M34.1,61.9
			c0,0.4-0.2,0.8-0.4,1c-0.2,0.1-0.4,0.2-0.6,0.2c-0.1,0-0.2,0-0.4-0.1c-4.2-1.8-7.8-4.3-10.7-7.4c-0.4-0.4-0.5-1.2-0.1-1.7
			c0.2-0.2,0.4-0.3,0.6-0.4c-0.6-0.6-1.1-1.3-1.7-2c0,0.3-0.2,0.5-0.3,0.7c-0.4,0.4-1.1,0.4-1.4-0.1L19,52.1
			c-0.1-0.1-0.2-0.3-0.3-0.4c-2.3-3.3-4.2-7.3-5.5-11.6c-0.1-0.4-0.1-0.8,0.1-1.1s0.5-0.5,0.8-0.5H33c0.6,0,1,0.5,1,1.2L34.1,61.9
			L34.1,61.9z M34.1,34.1c0,0.7-0.5,1.2-1,1.2H13c-0.5,0-0.9-0.4-1-1v-0.2c0-0.2-0.1-0.4-0.1-0.6c-1.2-7.3-1-14.1-0.6-18.6
			c0.1-0.6,0.5-1.1,1.1-1.1c0.7,0.1,1.5,0.1,2.2,0.1c8.1,0,14.3-3.2,18-5.9c0.3-0.2,0.7-0.2,1,0c0.3,0.2,0.5,0.6,0.5,1V34.1z
			 M57.6,40c-1.3,4.5-3.2,8.4-5.6,11.8c-3.5,5-8.2,8.7-13.9,11.2c-0.1,0.1-0.2,0.1-0.4,0.1c-0.2,0-0.4-0.1-0.6-0.2
			c-0.3-0.2-0.4-0.6-0.4-1V39.6c0-0.7,0.5-1.2,1-1.2h18.9c0.3,0,0.6,0.2,0.8,0.5C57.7,39.2,57.7,39.6,57.6,40z M59,33.9
			c0,0.1,0,0.2-0.1,0.3v0.2c-0.1,0.6-0.5,1-1,1H37.8c-0.6,0-1-0.5-1-1.2v-25c0-0.4,0.2-0.8,0.5-1c0.3-0.2,0.7-0.2,1,0
			c3.4,2.4,7,4.1,10.8,5c0.5,0.1,0.9,0.8,0.8,1.4c0,0.2-0.1,0.4-0.2,0.5c0.7,0.2,1.5,0.3,2.2,0.4c-0.1-0.2-0.1-0.4-0.1-0.6
			c0.1-0.7,0.6-1.1,1.1-1.1c1.2,0.1,2.3,0.2,3.5,0.2c0.7,0,1.5,0,2.2-0.1c0.5,0,1,0.4,1.1,1.1C60,19.6,60.2,26.6,59,33.9z"/>
		<path class="st5" d="M36.2,68.2c-0.5-0.8-1-1.6-1.4-2.3c-0.8-1.2-1.5-2.5-2.3-3.8L32.4,62c0-0.1-0.1-0.1-0.1-0.1l-0.2-0.1
			c-3.6-1.7-6.8-4-9.4-6.7l0,0c-0.1-0.1-0.1-0.4,0-0.5c0,0,0,0,0.1-0.1l1-0.2c0.2,0,0.3-0.3,0.2-0.5l-0.7-0.8
			c-0.6-0.7-1.1-1.3-1.6-1.9l-0.8-1.1c-0.2-0.2-0.5-0.1-0.5,0.1l-0.2,1.3c0,0.1,0,0.1-0.1,0.2l0,0c0,0,0,0-0.1-0.1l-0.1-0.1
			c-0.1-0.1-0.2-0.3-0.3-0.4l0,0c-2.3-3.3-4.1-7.1-5.3-11.4c0-0.1,0-0.3,0-0.4s0.1-0.1,0.1-0.1h7.5c0.2,0,0.3-0.2,0.3-0.4L22,38.1
			c-0.2-1-0.4-1.9-0.6-3l-0.1-0.5c0-0.1-0.1-0.2-0.3-0.2h-8c0,0-0.1-0.1-0.1-0.2V34l0,0c0-0.1,0-0.2-0.1-0.3c0-0.1,0-0.2-0.1-0.3
			c-1.2-7.3-1-14-0.6-18.4l0,0c0-0.2,0.2-0.3,0.3-0.3c0.7,0.1,1.5,0.1,2.1,0.1c2.4,0,4.7-0.3,7-0.8l0.4-0.1c0.1,0,0.2-0.1,0.2-0.2
			l0.1-0.4c0.3-1.6,0.7-3.2,1.2-4.8l0.3-1c0.1-0.2-0.2-0.4-0.4-0.4l-1,0.3c-2.5,0.7-5,1.1-7.6,1.1h-0.6c-0.3,0-0.6,0-0.8,0h-0.1
			c-0.1,0-0.1,0-0.2,0h-0.1h-0.4l0,0h-0.1c-0.1,0-0.1,0-0.2,0s-0.2,0-0.3,0l0,0c-0.1,0-0.1,0-0.1,0c-0.1,0-0.2,0-0.3,0l0,0
			c0,0,0,0-0.1,0c0,0-0.1,0-0.2,0c-0.1,0-0.1,0-0.2,0c-0.1,0-0.1,0-0.1,0l0,0c-0.1,0-0.2,0-0.2,0c-0.1,0-0.1,0-0.2,0h-0.1l0,0l0,0
			c-0.1,0-0.1,0-0.2,0c-0.1,0-0.1,0-0.2,0H9.9l0,0c-0.1,0-0.1,0-0.2,0c-0.1,0-0.1,0-0.2,0H9.4c-0.1,0-0.1,0-0.2,0
			c-0.1,0-0.1,0-0.2,0c0,0,0,0-0.1,0H8.8l-1-0.2C7.7,8,7.6,8.1,7.5,8.2L7.4,8.8c0,0-0.2,0.9-0.4,2.4c0,0.2,0,0.3-0.1,0.5
			C6.8,12,6.8,12.5,6.7,13c0,0.2,0,0.4-0.1,0.6c0,0.2,0,0.5-0.1,0.7c0,0.2,0,0.3-0.1,0.5v0.1c0,0.2,0,0.5-0.1,0.7
			c-0.1,2.2-0.2,4.3-0.2,6.4c0,7,0.9,17.2,5.1,26.4c5.1,10.4,13,17.6,24.1,21.1l1.5,0.5c0.3,0.1,0.5-0.2,0.4-0.4L36.2,68.2z"/>
	</g>
</g>
</svg>
