<?xml version="1.0" encoding="utf-8"?>
<!-- Generator: Adobe Illustrator 24.0.2, SVG Export Plug-In . SVG Version: 6.00 Build 0)  -->
<svg version="1.1" id="Слой_1" xmlns="http://www.w3.org/2000/svg" xmlns:xlink="http://www.w3.org/1999/xlink" x="0px" y="0px"
	 width="70px" height="70px" viewBox="0 0 70 70" style="enable-background:new 0 0 70 70;" xml:space="preserve">
<style type="text/css">
	.st0{fill:#E9ECEF;}
	.st1{fill:#007BFF;}
	.st2{fill:#28A745;}
	.st3{fill:#343A40;}
	.st4{fill:#D1D1D1;}
	.st5{fill:#E2E2E2;}
</style>
<g>
	<path class="st0" d="M24.4,6.1h-6H3.7c-1.8,0-3.2,1.4-3.2,3.2v46.5v4.7c0,1.8,1.4,3.2,3.2,3.2h14.6h0.1l0,0h0.7l0,0h5.3
		c1.8,0,3.2-1.4,3.2-3.2v-4.7V9.3C27.5,7.6,26.1,6.1,24.4,6.1z M17.8,17.5c0-0.7,0.6-1.3,1.3-1.3c0.7,0,1.3,0.6,1.3,1.3v6.8
		c0,0.7-0.6,1.3-1.3,1.3c-0.7,0-1.3-0.6-1.3-1.3V17.5z M17.8,55.9L17.8,55.9v-23c0-0.7,0.6-1.3,1.3-1.3c0.7,0,1.3,0.6,1.3,1.3v22.9
		l0,0c0,0.7-0.6,1.3-1.3,1.3C18.4,57.1,17.8,56.6,17.8,55.9z"/>
	<g>
		<path class="st1" d="M56.8,43.7L56.8,43.7c-7.3,0-13.2,5.9-13.2,13.2S49.6,70,56.9,70C64.1,70,70,64.1,70,56.8
			S64.1,43.7,56.8,43.7z M64.7,64.7c-2.1,2.1-4.9,3.3-7.8,3.3l0,0c-6.1,0-11.1-5-11.1-11.1s4.9-11.1,11.1-11.2l0,0
			c6.1,0,11.1,5,11.1,11.1C68,59.8,66.8,62.6,64.7,64.7z"/>
		<path class="st1" d="M56.8,47.7L56.8,47.7c-5.1,0-9.1,4.1-9.1,9.2c0,5,4.1,9.1,9.1,9.1l0,0c5,0,9.1-4.1,9.1-9.2
			C65.9,51.8,61.8,47.7,56.8,47.7z M58,62l-0.2,0.1v0.7c0,0.5-0.4,1-1,1s-1-0.4-0.9-1V62h-0.2c-0.4-0.1-0.8-0.4-1.1-0.7l0,0
			c-0.3-0.3-0.5-0.6-0.7-1l0,0c-0.1-0.2-0.1-0.5-0.1-0.7c0.1-0.2,0.2-0.5,0.5-0.6c0.1-0.1,0.3-0.1,0.5-0.1c0.3,0,0.7,0.2,0.8,0.5
			c0,0.1,0.1,0.1,0.1,0.2l0,0c0.1,0.1,0.2,0.3,0.3,0.4c0.2,0.2,0.5,0.3,0.9,0.3c0.7,0,1.2-0.5,1.2-1.2s-0.6-1.2-1.2-1.2l0,0
			c-0.8,0-1.6-0.3-2.2-0.9c-0.6-0.6-0.9-1.4-0.9-2.2c0-1.3,0.8-2.5,2-3l0.2-0.1V51c0-0.5,0.4-1,1-1c0.5,0,1,0.4,1,1v0.7l0.2,0.1
			c0.4,0.2,0.8,0.4,1.1,0.7s0.5,0.6,0.7,1c0.1,0.2,0.1,0.5,0,0.7s-0.3,0.4-0.5,0.5c-0.5,0.2-1,0-1.3-0.5c-0.1-0.2-0.1-0.3-0.3-0.4
			c-0.2-0.3-0.5-0.4-0.9-0.4c-0.7,0-1.2,0.6-1.2,1.2c0,0.7,0.6,1.2,1.2,1.2l0,0c0.8,0,1.6,0.3,2.2,0.9c0.6,0.6,0.9,1.4,0.9,2.2
			C60,60.4,59.2,61.5,58,62z"/>
		<path class="st1" d="M38.5,51.6c-0.5-0.4-1.1-0.3-1.6,0.1l0,0L33.2,55c-0.3,0.2-0.4,0.5-0.4,0.9c0,0.3,0.1,0.7,0.4,0.9l3.7,3.3
			c0.5,0.4,1.2,0.4,1.7-0.1c0.3-0.4,0.3-1.1,0-1.5l-1.1-1.4h6.8c0.7,0,1.2-0.5,1.2-1.2s-0.5-1.2-1.2-1.2h-6.6l1.1-1.4
			c0.2-0.3,0.3-0.6,0.3-0.9C38.9,52.1,38.7,51.8,38.5,51.6z"/>
	</g>
	<g>
		<path class="st2" d="M56.8,0L56.8,0c-7.3,0-13.2,5.9-13.2,13.2s5.9,13.1,13.2,13.1s13.1-5.9,13.1-13.2C70,5.9,64.1,0,56.8,0z
			 M64.7,21c-2.1,2.1-4.9,3.3-7.8,3.3l0,0c-6.1,0-11.1-5-11.1-11.1S50.7,2.1,56.9,2l0,0C63,2,67.9,7,68,13.1
			C68,16.1,66.8,18.9,64.7,21z"/>
		<path class="st2" d="M56.8,4L56.8,4c-5.1,0-9.1,4.1-9.1,9.2c0,5,4.1,9.1,9.1,9.1l0,0c5,0,9.1-4.1,9.1-9.2C65.9,8.1,61.8,4,56.8,4z
			 M58,18.3l-0.2,0.1v0.7c0,0.5-0.4,1-1,1s-1-0.4-0.9-1v-0.7l-0.2-0.1c-0.4-0.1-0.8-0.4-1.1-0.7l0,0c-0.3-0.3-0.5-0.6-0.7-1l0,0
			c-0.1-0.2-0.1-0.5-0.1-0.7c0.1-0.2,0.2-0.5,0.5-0.6c0.1-0.1,0.3-0.1,0.5-0.1c0.3,0,0.7,0.2,0.8,0.5c0,0.1,0.1,0.1,0.1,0.2l0,0
			c0.1,0.1,0.2,0.3,0.3,0.4c0.2,0.2,0.5,0.3,0.9,0.3c0.7,0,1.2-0.5,1.2-1.2s-0.6-1.2-1.2-1.2l0,0c-0.8,0-1.6-0.3-2.2-0.9
			c-0.6-0.6-0.9-1.4-0.9-2.2c0-1.3,0.8-2.5,2-3L55.9,8V7.3c0-0.5,0.4-1,1-1c0.5,0,1,0.4,1,1V8l0.2,0.1c0.4,0.2,0.8,0.4,1.1,0.7
			s0.5,0.6,0.7,1c0.1,0.2,0.1,0.5,0,0.7s-0.3,0.4-0.5,0.5c-0.5,0.2-1,0-1.3-0.5c-0.1-0.2-0.1-0.3-0.3-0.4c-0.2-0.3-0.5-0.4-0.9-0.4
			c-0.7,0-1.2,0.6-1.2,1.2c0,0.7,0.6,1.2,1.2,1.2l0,0c0.8,0,1.6,0.3,2.2,0.9c0.6,0.6,0.9,1.4,0.9,2.2C60,16.7,59.2,17.8,58,18.3z"/>
		<path class="st2" d="M38.5,7.9C38,7.6,37.3,7.6,36.9,8l0,0l-3.7,3.3c-0.3,0.2-0.4,0.5-0.4,0.9c0,0.3,0.1,0.7,0.4,0.9l3.7,3.3
			c0.5,0.4,1.2,0.4,1.7-0.1c0.3-0.4,0.3-1.1,0-1.5l-1.1-1.4h6.8c0.7,0,1.2-0.5,1.2-1.2S44.8,11,44.2,11h-6.6l1.1-1.4
			C38.9,9.3,39,9,39,8.7C38.9,8.4,38.7,8.1,38.5,7.9z"/>
	</g>
	<path class="st3" d="M39.1,39.8c0.5,0.4,1.1,0.3,1.6-0.1l0,0l3.7-3.3c0.3-0.2,0.4-0.5,0.4-0.9c0-0.3-0.1-0.7-0.4-0.9l-3.7-3.3
		c-0.5-0.4-1.2-0.4-1.7,0.1c-0.3,0.4-0.3,1.1,0,1.5l1.1,1.4h-6.8c-0.7,0-1.2,0.5-1.2,1.2s0.5,1.2,1.2,1.2h6.6l-1.1,1.4
		c-0.2,0.3-0.3,0.6-0.3,0.9C38.7,39.3,38.9,39.6,39.1,39.8z"/>
	<path class="st0" d="M18.3,63.8H3.7c-1.8,0-3.2-1.4-3.2-3.2v0.1c0,1.8,1.4,3.2,3.2,3.2L18.3,63.8c0.3,0.1,0.5,0.1,0.8,0H18.3z"/>
	<path class="st4" d="M24.4,63.8L24.4,63.8c1.8,0,3.2-1.4,3.2-3.2v-0.1c0,0.1,0,0.3,0,0.4C27.4,62.6,26,63.8,24.4,63.8z"/>
	<path class="st4" d="M24.4,6.1L24.4,6.1c1.8,0,3.2,1.4,3.2,3.2v46.6l0,0V9.3C27.6,7.6,26.1,6.1,24.4,6.1z"/>
	<path class="st4" d="M27.5,61c-0.2,1.6-1.5,2.8-3.2,2.8l0,0H19c-0.3,0.1-0.5,0.1-0.8,0.1h6C26,63.8,27.4,62.6,27.5,61z"/>
	<path class="st4" d="M21.5,60.7L21.5,60.7c0,1.7-1.4,3.1-3.2,3.1h0.8C20.5,63.4,21.5,62.2,21.5,60.7z"/>
	<path class="st4" d="M27.5,60.6L27.5,60.6c0,0.2,0,0.3,0,0.4C27.5,60.8,27.6,60.7,27.5,60.6v-4.7l0,0V60.6z"/>
	<path class="st4" d="M24.4,63.8L24.4,63.8c1.6,0,3-1.2,3.2-2.8c0-0.1,0-0.2,0-0.3v-0.1C27.5,62.3,26.1,63.8,24.4,63.8z"/>
	<g>
		<path class="st5" d="M17.9,6.1H3.2C1.4,6.1,0,7.6,0,9.3v46.5v4.7c0,1.8,1.4,3.2,3.2,3.2h14.6c1.8,0,3.2-1.4,3.2-3.2v-4.7V9.3
			C21,7.6,19.6,6.2,17.9,6.1z M17.3,17.5c0-0.7,0.6-1.3,1.3-1.3c0.7,0,1.3,0.6,1.3,1.3v6.8c0,0.7-0.6,1.3-1.3,1.3
			c-0.7,0-1.3-0.6-1.3-1.3V17.5z M19.8,55.9c0,0.7-0.6,1.3-1.3,1.3c-0.7,0-1.3-0.6-1.3-1.3l0,0v-23c0-0.7,0.6-1.3,1.3-1.3
			c0.7,0,1.3,0.6,1.3,1.3V55.9L19.8,55.9z"/>
		<path class="st3" d="M24.3,6.1h-6c1.7,0,3.1,1.4,3.1,3.2v46.6v4.7v0.1c0,1.5-1,2.7-2.4,3.1h5.3c1.8,0,3.2-1.4,3.2-3.2v-4.7V9.3
			C27.5,7.6,26.1,6.1,24.3,6.1z"/>
	</g>
</g>
</svg>
