<?xml version="1.0" encoding="utf-8"?>
<!-- Generator: Adobe Illustrator 24.0.2, SVG Export Plug-In . SVG Version: 6.00 Build 0)  -->
<svg version="1.1" id="Слой_1" xmlns="http://www.w3.org/2000/svg" xmlns:xlink="http://www.w3.org/1999/xlink" x="0px" y="0px"
	 width="1643px" height="1617px" viewBox="0 0 1643 1617" style="enable-background:new 0 0 1643 1617;" xml:space="preserve">
<style type="text/css">
	.st0{fill:#E1E3E5;}
	.st1{fill:#28A745;}
	.st2{fill:#343A40;}
	.st3{clip-path:url(#SVGID_2_);fill:#007BFF;}
	.st4{fill:#F7D4CD;}
	.st5{fill:#007BFF;}
	.st6{fill:#1D2936;}
	.st7{fill:url(#SVGID_3_);}
	.st8{fill:#F5F5F5;}
	.st9{fill:#33C14D;}
</style>
<g id="Background">
</g>
<path class="st0" d="M1386.8,1126.3c-146.5,342.4-533.2,489.5-836.2,464.4c-82.7-6.8-249.2-20.6-379.1-143.5
	c-249.6-236-211.1-729.4,27.8-1019.9c30.8-37.4,243.7-288,575.6-284.7c243,2.5,413.5,139.7,434.3,156.8
	c26.2,21.6,84,72.9,136.1,154.4C1467.5,645.2,1478.3,912.3,1386.8,1126.3z"/>
<g>
	<path class="st0" d="M1246.3,403c1.8,2.4,1.6,5.8-0.6,8c-4.9,4.6-10,9.1-15.3,13.4c-2.6,2.1-6.3,1.6-8.4-0.9c0,0,0-0.1-0.1-0.1
		c-2-2.6-1.5-6.3,1-8.3c5-4,9.9-8.3,14.6-12.7c2.4-2.3,6.2-2.2,8.4,0.2C1246.1,402.7,1246.2,402.8,1246.3,403z M1204.9,434.3
		c0.1,0.2,0.3,0.4,0.4,0.6c1.7,2.8,0.8,6.5-2.1,8.2c-5.8,3.5-11.8,6.7-17.9,9.7c-3,1.4-6.5,0.2-8-2.8c-1.4-3-0.2-6.5,2.8-8
		c5.8-2.8,11.5-5.9,17-9.2C1199.7,431.3,1203.1,432,1204.9,434.3z M1157.6,455.8c0.4,0.5,0.7,1.1,0.9,1.8c1,3.1-0.7,6.5-3.8,7.5
		c-6.4,2.1-13,3.9-19.6,5.4c-3.2,0.7-6.4-1.3-7.2-4.5c-0.7-3.2,1.3-6.4,4.5-7.2c6.3-1.4,12.5-3.2,18.6-5.2
		C1153.5,453,1156.1,453.9,1157.6,455.8z M1106.6,466.1c0.7,0.9,1.1,1.9,1.2,3.1c0.3,3.3-2.1,6.2-5.4,6.5
		c-6.7,0.6-13.6,0.9-20.3,0.9c-3.3,0-6-2.7-6-6s2.7-6,6-6c6.4,0,12.9-0.3,19.3-0.9C1103.5,463.6,1105.4,464.6,1106.6,466.1z
		 M1054.7,464.9c0.9,1.2,1.4,2.8,1.2,4.4c-0.4,3.3-3.5,5.5-6.7,5.1c-6.7-0.9-13.4-2.1-20-3.6c-3.2-0.7-5.2-3.9-4.5-7.1
		c0.7-3.2,3.9-5.2,7.1-4.5c6.3,1.4,12.7,2.6,19,3.4C1052.4,462.8,1053.7,463.7,1054.7,464.9z M1004.3,452.1c1.2,1.6,1.6,3.7,0.9,5.7
		c-1.2,3.1-4.6,4.6-7.7,3.5c-6.3-2.4-12.6-5.1-18.7-8c-3-1.4-4.2-5-2.8-8s5-4.2,8-2.8c5.8,2.8,11.8,5.3,17.8,7.6
		C1002.7,450.6,1003.6,451.3,1004.3,452.1z M859.8,287.4c0.5,0.7,0.9,1.4,1.1,2.3c1.5,6.2,3.2,12.5,5.2,18.6c1,3.1-0.7,6.5-3.8,7.5
		s-6.5-0.7-7.5-3.8c-2.1-6.4-3.9-13-5.5-19.6c-0.7-3.2,1.3-6.4,4.5-7.2C856.1,284.7,858.5,285.6,859.8,287.4z M958,428.5
		c1.5,2,1.7,4.7,0.2,6.9c-1.8,2.8-5.5,3.5-8.3,1.7c-5.6-3.7-11.2-7.7-16.5-11.9c-2.6-2.1-3-5.8-1-8.4s5.8-3,8.4-1
		c5,4,10.3,7.8,15.6,11.3C957.1,427.6,957.6,428,958,428.5z M877.2,336.4c0.2,0.3,0.5,0.7,0.6,1c2.8,5.8,5.9,11.5,9.2,17
		c1.7,2.8,0.8,6.5-2.1,8.2c-2.8,1.7-6.5,0.8-8.2-2.1c-3.5-5.8-6.7-11.8-9.7-17.9c-1.4-3-0.2-6.5,2.7-8
		C872.5,333.4,875.6,334.2,877.2,336.4z M918.2,395.2c1.8,2.4,1.6,5.8-0.6,7.9c-2.4,2.3-6.2,2.2-8.4-0.2c-4.7-4.9-9.2-10-13.4-15.3
		l-0.1-0.1c-2-2.6-1.5-6.3,1-8.3c2.6-2.1,6.3-1.7,8.4,0.9c4,5,8.3,9.9,12.7,14.5C917.9,394.9,918,395,918.2,395.2z"/>
	<path class="st0" d="M854.1,245.9c0.7,0.9,1.2,2.1,1.2,3.3c0.1,3.1,0.4,6.2,0.6,9.3c0.3,3.3-2.1,6.2-5.4,6.5
		c-3.3,0.3-6.2-2.1-6.5-5.4c-0.3-3.2-0.5-6.5-0.7-9.8s2.4-6.1,5.7-6.2C851.1,243.5,852.9,244.4,854.1,245.9z"/>
</g>
<g>
	<path class="st0" d="M917.1,75.3c1.8,2.3,1.6,5.6-0.4,7.7c-2.1,2.2-4.2,4.6-6.2,6.9c-2.2,2.5-5.9,2.8-8.4,0.6
		c-2.5-2.2-2.7-5.9-0.6-8.4c2.1-2.5,4.3-4.9,6.6-7.3s6-2.5,8.4-0.2C916.7,74.8,916.9,75,917.1,75.3z"/>
	<path class="st0" d="M1270.2,92.9c1.7,2.2,3.3,4.4,4.9,6.6c1.9,2.7,1.3,6.4-1.4,8.3c-2.7,1.9-6.4,1.3-8.3-1.4
		c-3.7-5.2-7.6-10.2-11.7-15c-2.1-2.5-1.8-6.3,0.7-8.4s6.3-1.8,8.4,0.7C1265.4,86.8,1267.8,89.8,1270.2,92.9z M1291.7,126.4
		c0.2,0.3,0.4,0.6,0.5,0.9c3.1,5.9,6,12,8.6,18.1c1.3,3-0.1,6.5-3.2,7.8c-3,1.3-6.5-0.1-7.8-3.2c-2.5-5.8-5.2-11.6-8.2-17.2
		c-1.5-2.9-0.4-6.5,2.5-8.1C1286.8,123.4,1290,124.1,1291.7,126.4z M1240.9,61.3c1.7,2.2,1.7,5.4-0.3,7.6c-2.2,2.5-6,2.7-8.4,0.5
		c-4.7-4.2-9.6-8.3-14.7-12.1c-2.6-2-3.2-5.7-1.2-8.4c2-2.6,5.7-3.2,8.4-1.2c5.3,4,10.5,8.3,15.5,12.7
		C1240.4,60.8,1240.7,61.1,1240.9,61.3z M1310.5,174c0.5,0.6,0.8,1.3,1,2.1c1.7,6.4,3.2,13,4.4,19.5c0.6,3.2-1.6,6.3-4.8,6.9
		c-3.2,0.6-6.3-1.6-6.9-4.8c-1.1-6.2-2.5-12.4-4.2-18.5c-0.9-3.2,1-6.5,4.2-7.3C1306.6,171.2,1309,172.1,1310.5,174z M1199.3,31.7
		c1.4,1.8,1.7,4.4,0.5,6.5c-1.6,2.9-5.2,3.9-8.1,2.3c-5.5-3.1-11.2-5.9-17-8.5c-3-1.4-4.3-4.9-3-7.9c1.4-3,4.9-4.3,7.9-3
		c6.1,2.7,12.1,5.8,17.9,9C1198.2,30.5,1198.8,31.1,1199.3,31.7z M1152.1,11.9c1.1,1.5,1.6,3.4,1,5.3c-0.9,3.2-4.3,5-7.4,4
		c-6.1-1.8-12.3-3.3-18.4-4.6c-3.2-0.7-5.3-3.8-4.6-7c0.7-3.2,3.8-5.3,7.1-4.6c6.5,1.3,13,3,19.4,4.9
		C1150.4,10.2,1151.4,10.9,1152.1,11.9z M1101.8,2.9c0.9,1.1,1.3,2.5,1.2,4c-0.2,3.3-3.1,5.8-6.4,5.5c-6.3-0.4-12.7-0.6-19-0.5
		c-3.3,0.1-6-2.6-6.1-5.9s2.6-6,5.9-6.1c6.6-0.1,13.4,0.1,20,0.5C1099.3,0.7,1100.8,1.6,1101.8,2.9z M1050.7,5
		c0.6,0.8,1,1.7,1.2,2.7c0.5,3.3-1.7,6.3-5,6.8c-6.2,1-12.5,2.2-18.7,3.7c-3.2,0.8-6.4-1.2-7.2-4.4s1.2-6.4,4.4-7.2
		c6.5-1.6,13.1-2.9,19.6-3.9C1047.3,2.4,1049.4,3.4,1050.7,5z M1001.3,18.3c0.3,0.4,0.6,0.9,0.8,1.5c1.2,3.1-0.3,6.5-3.4,7.7
		c-5.9,2.3-11.7,4.9-17.4,7.7c-3,1.5-6.5,0.2-8-2.7c-1.5-3-0.2-6.5,2.7-8c6-2.9,12.1-5.7,18.3-8.1
		C996.9,15.4,999.7,16.3,1001.3,18.3z M956.1,42.2c0.1,0.1,0.1,0.2,0.2,0.3c1.8,2.7,1.1,6.4-1.6,8.3c-3.9,2.6-7.7,5.4-11.4,8.2
		c-1.3,1-2.7,2.1-4,3.1c-2.6,2.1-6.3,1.7-8.4-0.9c-2.1-2.6-1.7-6.3,0.9-8.4c1.4-1.1,2.8-2.2,4.2-3.3c3.9-3,7.9-5.9,11.9-8.6
		C950.6,39.1,954.2,39.7,956.1,42.2z"/>
	<path class="st0" d="M1318.3,224.7c0.7,0.9,1.2,2.1,1.2,3.4c0.1,3.2,0.2,6.5,0.2,9.8s-2.7,6-6,6s-6-2.7-6-6c0-3.1-0.1-6.2-0.2-9.3
		c-0.1-3.3,2.4-6.1,5.7-6.2C1315.3,222.3,1317.1,223.2,1318.3,224.7z"/>
</g>
<path class="st1" d="M1257.3,257.5l-28.7-18.1c0-15.8-2.5-31.8-7.7-47.3l21.4-26.3c0.8-0.9,0.8-2.2,0.2-3.2l-21.4-34.6
	c-0.6-1-1.8-1.5-3-1.3l-33.1,7.5c-11.5-11.5-24.7-20.9-38.9-28l-3.4-33.8c-0.1-1.2-1-2.2-2.1-2.4l-39.6-9.3c-1.2-0.3-2.4,0.2-3,1.2
	l-18.1,28.7c-15.8,0-31.8,2.5-47.3,7.7l-26.3-21.4c-0.9-0.8-2.2-0.8-3.2-0.2L968.5,98c-1,0.6-1.5,1.8-1.3,3l7.5,33.1
	c-11.5,11.5-20.9,24.7-28,38.9l-33.8,3.4c-1.2,0.1-2.2,1-2.4,2.1l-9.3,39.6c-0.3,1.2,0.2,2.4,1.2,3l28.7,18.1
	c0,15.8,2.5,31.8,7.7,47.3l-21.4,26.3c-0.8,0.9-0.8,2.2-0.2,3.2l21.4,34.6c0.6,1,1.8,1.5,3,1.3l33.1-7.5
	c11.5,11.5,24.7,20.9,38.9,28l3.4,33.8c0.1,1.2,1,2.2,2.1,2.4l39.6,9.3c1.2,0.3,2.4-0.2,3-1.2l18.1-28.7c15.8,0,31.8-2.5,47.3-7.7
	l26.3,21.4c0.9,0.8,2.2,0.8,3.2,0.2l34.6-21.4c1-0.6,1.5-1.8,1.3-3l-7.5-33.1c11.5-11.5,20.9-24.7,28-38.9l33.8-3.4
	c1.2-0.1,2.2-1,2.4-2.1l9.3-39.6C1258.8,259.3,1258.3,258.1,1257.3,257.5z M1079.4,358.6c-65.7,0-119-53.3-119-119s53.3-119,119-119
	s119,53.3,119,119S1145.2,358.6,1079.4,358.6z"/>
<g>
	<path class="st1" d="M1112.3,214.4c12.2,15.8,11.2,38.6-3.1,53.4c-15.7,16.2-41.7,16.6-57.9,0.9c-7.9-7.6-12.3-17.8-12.4-28.7
		c-0.2-10.9,3.9-21.3,11.5-29.1c15.7-16.2,41.7-16.6,57.9-0.9C1109.8,211.3,1111.1,212.8,1112.3,214.4z M1054.9,258.4
		c0.9,1.2,2,2.4,3.1,3.5c12.4,12,32.3,11.7,44.4-0.7c12-12.4,11.7-32.3-0.7-44.4c-12.4-12-32.3-11.7-44.4,0.7
		c-5.8,6-9,13.9-8.8,22.3C1048.6,246.6,1050.9,253.1,1054.9,258.4z"/>
</g>
<path class="st1" d="M1175.6,204.9L1175.6,204.9c-0.2-0.4-0.3-0.8-0.4-1.1l-0.3-0.8c-1.9-5.1-4.3-10.1-7-14.8
	c-0.6-1-1.1-1.9-1.7-2.9c-1.8-3-3.9-5.9-6-8.7c-14.5-18.8-34.4-31.7-57.7-37.2c-26.7-6.3-54.2-1.8-77.4,12.6c-3,1.9-5.9,3.9-8.7,6
	c-18.8,14.5-31.7,34.4-37.2,57.7c-6.3,26.7-1.8,54.2,12.6,77.4c19.4,31.3,53,48.5,87.3,48.5c18.4,0,37-4.9,53.8-15.3
	c3-1.8,5.8-3.8,8.6-5.9c11.9-9.1,21.7-20.9,28.5-34.1c1.1-2.1,0.3-4.7-1.8-5.8c-1.5-0.8-3.3-0.6-4.6,0.4c-0.5,0.4-0.9,0.9-1.2,1.4
	c-6.3,12.1-15.3,22.9-26.2,31.3c-2.5,1.9-5.2,3.8-7.9,5.4c-44,27.3-102,13.6-129.3-30.4c-13.2-21.3-17.3-46.5-11.6-71
	c5-21.3,16.8-39.6,34-52.9c2.5-2,5.2-3.8,8-5.5c15.2-9.4,32.7-14.3,50.5-14c32.4,0.4,61.8,17.1,78.8,44.5c3.5,5.7,6.4,11.8,8.7,18
	c0.8,2.2,3.3,3.4,5.5,2.6c0.4-0.2,0.8-0.4,1.2-0.6C1175.7,208.6,1176.3,206.6,1175.6,204.9z"/>
<g>
	<g>
		<path class="st0" d="M1551.7,536.3c1,1.3,1.1,3.2,0.1,4.6c-1.9,2.6-3.9,5.2-6,7.7c-1.3,1.6-3.8,1.9-5.4,0.5
			c-1.6-1.3-1.9-3.8-0.5-5.4c2-2.4,3.9-4.9,5.7-7.4c1.2-1.7,3.6-2.1,5.3-0.8C1551.2,535.7,1551.4,536,1551.7,536.3z"/>
		<path class="st0" d="M1532.2,558.3c1.2,1.5,1,3.7-0.4,5.1c-4.1,3.8-8.4,7.5-12.8,10.9c-0.9,0.7-1.9,1.4-2.8,2.1
			c-1.7,1.3-4.1,0.7-5.3-0.8c-1.3-1.7-0.9-4.1,0.8-5.3c0.9-0.7,1.8-1.3,2.7-2c4.2-3.2,8.3-6.7,12.2-10.4c1.5-1.5,4-1.4,5.4,0.2
			C1532.1,558.1,1532.1,558.2,1532.2,558.3z M1500.2,581.8c0.1,0.1,0.2,0.3,0.3,0.5c1,1.8,0.4,4.2-1.5,5.2
			c-5.9,3.3-12.1,6.3-18.3,8.9c-2,0.8-4.2-0.1-5-2.1s0.1-4.2,2.1-5c6-2.4,11.8-5.3,17.5-8.5C1497,579.9,1499.1,580.3,1500.2,581.8z
			 M1463.5,596.9c0.3,0.4,0.5,0.8,0.7,1.3c0.6,2-0.7,4.1-2.7,4.7c-6.5,1.8-13.2,3.1-19.9,4.1c-2.1,0.3-4-1.2-4.3-3.3s1.2-4,3.2-4.3
			c6.4-0.9,12.8-2.2,19-3.9C1461,595.1,1462.6,595.7,1463.5,596.9z M1424.2,602.4c0.5,0.6,0.8,1.4,0.8,2.3c0,2.1-1.6,3.9-3.8,3.9
			c-6.8,0.1-13.6-0.2-20.3-0.9c-2.1-0.2-3.6-2.1-3.4-4.2c0.2-2.1,2.1-3.6,4.2-3.4c6.4,0.7,12.9,1,19.4,0.9
			C1422.4,600.9,1423.5,601.5,1424.2,602.4z M1384.8,598.2c0.7,0.9,1,2,0.7,3.2c-0.5,2.1-2.5,3.3-4.6,2.9
			c-6.6-1.5-13.1-3.5-19.5-5.8c-2-0.7-3-2.9-2.3-4.9s2.9-3,4.9-2.3c6.1,2.2,12.3,4.1,18.6,5.5
			C1383.5,597.1,1384.2,597.6,1384.8,598.2z M1347.5,584.6c0.9,1.1,1.1,2.7,0.4,4.1c-1,1.9-3.3,2.6-5.1,1.7
			c-6-3.1-11.9-6.6-17.5-10.4c-1.7-1.2-2.2-3.6-1-5.3s3.6-2.2,5.3-1c5.3,3.6,10.9,7,16.7,9.9
			C1346.7,583.8,1347.2,584.2,1347.5,584.6z M1314.7,562.3c1.1,1.4,1.1,3.5-0.2,4.9c-1.4,1.6-3.8,1.7-5.4,0.3
			c-5.1-4.5-9.9-9.3-14.4-14.4c-1.4-1.6-1.3-4,0.3-5.4c1.6-1.4,4-1.3,5.4,0.3c4.3,4.8,8.9,9.5,13.7,13.7
			C1314.4,561.9,1314.6,562.1,1314.7,562.3z M1278.2,515.5c0.1,0.2,0.3,0.4,0.4,0.6c2.6,4.9,5.5,9.8,8.6,14.5
			c0.5,0.7,0.9,1.4,1.4,2.1c1.2,1.7,0.8,4.1-1,5.3c-1.7,1.2-4.2,0.8-5.3-1c-0.5-0.7-1-1.5-1.5-2.2c-3.3-4.9-6.3-10-9-15.2
			c-1-1.9-0.2-4.2,1.6-5.2C1275.1,513.6,1277.1,514,1278.2,515.5z"/>
	</g>
	<g>
		<path class="st0" d="M1547.8,341.2c1.3,1.7,1,4-0.7,5.3s-4.1,1-5.4-0.6c-3.9-5-8.2-9.8-12.7-14.2c-1.5-1.5-1.5-3.9,0-5.4
			s3.9-1.5,5.4,0C1539.2,330.9,1543.7,335.9,1547.8,341.2C1547.8,341.1,1547.8,341.2,1547.8,341.2z M1559,357.2
			c0.1,0.1,0.2,0.2,0.2,0.3c3.5,5.7,6.6,11.6,9.4,17.7c0.9,1.9,0,4.2-1.9,5.1s-4.2,0-5.1-1.9c-2.6-5.8-5.6-11.4-9-16.9
			c-1.1-1.8-0.5-4.2,1.3-5.3C1555.7,355.3,1557.8,355.7,1559,357.2z M1520.1,313.7c1,1.3,1.1,3.3,0,4.7c-1.3,1.7-3.7,2-5.4,0.7
			c-5-3.9-10.3-7.5-15.8-10.7c-1.8-1.1-2.4-3.4-1.3-5.2c1.1-1.8,3.4-2.4,5.2-1.3c5.7,3.4,11.3,7.2,16.5,11.3
			C1519.7,313.2,1519.9,313.4,1520.1,313.7z M1575.2,392.8c0.3,0.3,0.5,0.7,0.6,1.2c2,6.4,3.6,12.9,4.8,19.4c0.4,2.1-1,4.1-3.1,4.5
			s-4.1-1-4.5-3.1c-1.2-6.2-2.7-12.5-4.6-18.5c-0.6-2,0.5-4.2,2.5-4.8C1572.6,390.9,1574.2,391.5,1575.2,392.8z M1486.6,293.7
			c0.8,1.1,1.1,2.6,0.5,3.9c-0.9,1.9-3.1,2.8-5,2c-5.8-2.6-11.8-4.8-17.9-6.6c-2-0.6-3.2-2.7-2.5-4.8c0.6-2,2.7-3.2,4.8-2.5
			c6.4,1.9,12.7,4.3,18.8,7C1485.7,292.8,1486.2,293.2,1486.6,293.7z M1449.3,282.4c0.6,0.8,0.9,1.9,0.7,3c-0.4,2.1-2.3,3.5-4.4,3.1
			c-6.3-1.1-12.6-1.8-19-2.2c-2.1-0.1-3.7-1.9-3.6-4s1.9-3.7,4-3.6c6.6,0.4,13.3,1.1,19.9,2.3
			C1447.9,281.1,1448.7,281.6,1449.3,282.4z M1410.3,280.3c0.4,0.6,0.7,1.3,0.8,2.1c0.1,2.1-1.4,3.9-3.6,4.1
			c-6.3,0.4-12.7,1.3-18.9,2.4c-2.1,0.4-4.1-1-4.5-3c-0.4-2.1,1-4.1,3-4.5c6.5-1.3,13.2-2.1,19.9-2.6
			C1408.3,278.7,1409.5,279.3,1410.3,280.3z"/>
		<path class="st0" d="M1582.3,431.3c0.4,0.6,0.7,1.3,0.8,2.1c0.2,3.3,0.3,6.6,0.3,9.8c0,2.1-1.7,3.8-3.8,3.8
			c-2.1,0-3.8-1.7-3.8-3.8c0-3.1-0.1-6.2-0.3-9.3c-0.1-2.1,1.5-3.9,3.6-4C1580.4,429.8,1581.6,430.4,1582.3,431.3z"/>
	</g>
	<g>
		<path class="st1" d="M1541.2,458.9c0.2-0.8-0.2-1.6-0.9-2.1l-19.9-12.6c0-11-1.7-22.1-5.3-32.8l14.9-18.2c0.5-0.6,0.6-1.5,0.1-2.2
			l-14.9-24c-0.4-0.7-1.3-1.1-2.1-0.9l-23,5.2c-8-8-17.1-14.5-27-19.4l-2.4-23.4c-0.1-0.8-0.7-1.5-1.5-1.7l-27.5-6.5
			c-0.8-0.2-1.6,0.2-2.1,0.9l-12.6,19.9c-11,0-22.1,1.7-32.8,5.3l-18.2-14.9c-0.6-0.5-1.5-0.6-2.2-0.1l-24,14.9
			c-0.7,0.4-1.1,1.3-0.9,2.1l5.2,23c-8,8-14.5,17.1-19.4,27l-23.4,2.4c-0.8,0.1-1.5,0.7-1.7,1.5l-6.5,27.5c-0.2,0.8,0.2,1.6,0.9,2.1
			l19.9,12.6c0,11,1.7,22.1,5.3,32.8l-14.9,18.2c-0.5,0.6-0.6,1.5-0.1,2.2l14.9,24c0.4,0.7,1.3,1.1,2.1,0.9l23-5.2
			c8,8,17.1,14.5,27,19.4l2.4,23.4c0.1,0.8,0.7,1.5,1.5,1.7l27.5,6.5c0.8,0.2,1.6-0.2,2.1-0.9l12.6-19.9c11,0,22.1-1.7,32.8-5.3
			l18.2,14.9c0.6,0.5,1.5,0.6,2.2,0.1l24-14.9c0.7-0.4,1.1-1.3,0.9-2.1l-5.2-23c8-8,14.5-17.1,19.4-27l23.4-2.4
			c0.8-0.1,1.5-0.7,1.7-1.5L1541.2,458.9z"/>
		<g>
			<path class="st2" d="M1440.2,426.6c3.8,4.9,5.8,10.8,5.9,17.1c0.1,7.7-2.8,15-8.1,20.6c-11.1,11.5-29.4,11.7-40.9,0.7
				c-11.4-11.1-11.7-29.4-0.7-40.9c5.4-5.5,12.6-8.7,20.3-8.8c7.7-0.1,15,2.8,20.6,8.1C1438.4,424.4,1439.3,425.5,1440.2,426.6z
				 M1400.4,457.2c0.6,0.8,1.3,1.6,2.1,2.3c8.4,8.2,21.9,7.9,30.1-0.5c3.9-4.1,6.1-9.5,6-15.1c-0.1-5.7-2.4-11-6.5-14.9l0,0
				c-4.1-4-9.5-6.1-15.1-6c-5.7,0.1-11,2.4-14.9,6.5C1394.5,437.1,1394,448.9,1400.4,457.2z"/>
		</g>
		<path class="st2" d="M1473.7,400.2c1.5,1.9,2.9,3.9,4.2,6c2.6,4.2,4.7,8.6,6.4,13.2c0.1,0.2,0.1,0.4,0.2,0.6
			c0.6,1.6,0,3.3-1.3,4.3c-0.3,0.2-0.7,0.4-1.1,0.6c-2,0.7-4.2-0.3-4.9-2.3c-1.5-4.3-3.5-8.5-5.9-12.3l0,0c-0.1-0.2-0.3-0.4-0.4-0.6
			c-5.8-9.2-13.7-16.5-22.9-21.7c-5-2.8-10.4-4.9-16.1-6.3h-0.1c-0.1,0-0.3-0.1-0.4-0.1c-16.7-3.9-34-1.1-48.6,7.9
			c-1.9,1.2-3.7,2.4-5.4,3.8c-11.7,9-19.9,21.6-23.3,36.2c-3.9,16.7-1.1,34,7.9,48.6s23.2,24.8,40,28.8c16.7,3.9,34,1.1,48.6-7.9
			c1.9-1.1,3.7-2.4,5.4-3.7c7.5-5.7,13.6-13.1,17.9-21.4c0.3-0.5,0.6-0.9,1.1-1.3c1.1-0.9,2.7-1.1,4.1-0.4c1.9,1,2.6,3.3,1.6,5.2
			c-4.8,9.4-11.7,17.6-20.1,24c-1.9,1.5-3.9,2.9-6,4.2c-16.4,10.1-35.7,13.3-54.4,8.9c-18.7-4.4-34.6-15.8-44.7-32.2
			c-10.1-16.4-13.3-35.7-8.9-54.4c3.8-16.3,13-30.4,26.1-40.5c1.9-1.5,4-2.9,6.1-4.2C1410.4,363.3,1451.5,371.3,1473.7,400.2z"/>
	</g>
</g>
<g>
	<g>
		<g>
			<g>
				<defs>
					<path id="SVGID_1_" d="M1157.5,1580c-232.5,49.3-461-99.2-510.3-331.7s99.2-461,331.7-510.3c208.5-44.2,433.4,35.6,509.1,227.5
						c8.7,22.1,72,31.9,77.1,55.9c6.2,29.1-66.7,106.4-66.4,135C1500.1,1356.5,1361,1536.8,1157.5,1580z"/>
				</defs>
				<clipPath id="SVGID_2_">
					<use xlink:href="#SVGID_1_"  style="overflow:visible;"/>
				</clipPath>
				<path class="st3" d="M797.3,1504.6c0,0,33.9-453.8,230.5-513.8c0,0,305.8-36.2,481.7,30.5l-37.1,574.8
					C1472.4,1596.1,975.2,1709.1,797.3,1504.6z"/>
			</g>
		</g>
		<path class="st4" d="M1139.7,875c0,0,31.4,76.3,39.4,136.3c2.3,17.6,16,31.5,33.5,34.4c37.5,6.2,99.8,9.7,137.7-24.8
			c8.4-7.7,11.3-19.7,7.4-30.4c-15.6-43.7-96.7-225.4-140.9-253.3L1139.7,875z"/>
		<g>
			<path class="st4" d="M1459.5,1436c0,0.3,0,0.7,0,1c0.7,95-127.8,104-127.8,104s-36.7-61.1-83.8-63c-47.1-2-112.5,74.8-112.5,74.8
				l104.6,16.7c0,0,199.4,119.6,336.1-22.5C1551.9,1458.6,1494.3,1439.2,1459.5,1436z"/>
			<path class="st5" d="M1509.4,1021.3c-129.6,45.9-110.8,147.7-110.8,147.7s59.8,171.9,60.8,267c34.8,3.2,92.4,22.5,116.6,111
				c3.2-3.4,6.5-6.8,9.6-10.5C1749,1347.3,1509.4,1021.3,1509.4,1021.3z"/>
			<path class="st2" d="M1459.5,1441.1c-2.8,0-5-2.2-5-5c-0.8-74-37.7-195.5-53.5-244.3c-0.9-2.6,0.6-5.5,3.2-6.3
				c2.7-0.9,5.5,0.6,6.3,3.2c16,49.2,53.2,171.9,54,247.3C1464.5,1438.8,1462.3,1441.1,1459.5,1441.1L1459.5,1441.1z"/>
		</g>
		<g>
			<path class="st4" d="M998,682.6c0,3.8,84.8,240.2,84.8,240.2l133.9-51.3l-47.1-236C1169.7,635.5,998,619,998,682.6z"/>
			<path class="st2" d="M1146.2,693l34.5,122.3c0.4,1.6,0.7,3.1,0.7,4.8c0,10-2.5,44.3-37.4,39.6c-31.7-4.2-60.7-7.6-79.2,1.1
				c-8.3,3.9-12.2,13.4-9.2,22.1c7.7,21.5,26,69.5,48.2,108.9c4.5,8,14.4,11.1,22.8,7.3c25.2-11.4,77.5-37.1,114.8-67.6
				c5.1-4.1,7.5-10.6,6.3-17c-5.9-31.3-23.4-126.4-24.1-153.7c-0.7-25.6,28-45.1,40.6-52.5c4.1-2.4,7.1-6.4,8.2-11
				c4-16.5,7.3-53.8-40.2-62c-10-1.7-16.4-11.2-14.4-21.1c4-19.7,2.7-48.7-34.7-59.4c-38-10.9-62,12-74.1,29.6
				c-4.9,7.1-14.1,9.4-22,5.9c-4.5-2-9.9-2.1-15.7,2.8c-7.9,6.6-19.8,4.6-25.6-3.9c-11.1-16.3-31.2-32.6-65.3-21.6
				c-60.5,19.6-57.6,89.3-35.4,127.3c22.2,37.9,86.6,13,117.1-12.2c23.2-19.1,58.5-7.7,74.1-1.1C1141,683.6,1144.7,687.8,1146.2,693
				z"/>
			<path class="st4" d="M1229,806.2c0,0-29.1-68.6-5.4-89.9c23.7-21.3,56.7-14,55.6,39C1278,821.2,1229,806.2,1229,806.2z"/>
		</g>
		<g>
			<path class="st2" d="M1282.6,1598.8c-0.4,0-0.8,0-1.2,0l-341.3-0.6c-12.7,0-22.9-11.1-22.9-24.8c0-13.7,10.3-25,22.9-24.7
				l341.3,0.6c12.7,0,22.9,11.1,22.9,24.8C1304.4,1587.3,1294.8,1598.1,1282.6,1598.8z"/>
			<path class="st2" d="M480,1096.4h426.3c31.5,0,60.1,19.6,73.5,50.4l197.1,451.7H647.1c-20.3,0-38.5-13.4-45.9-33.8l-152.8-418
				C439.5,1122.6,455.9,1096.4,480,1096.4z"/>
			
				<ellipse transform="matrix(0.9646 -0.2636 0.2636 0.9646 -326.5279 244.6268)" class="st6" cx="748.3" cy="1339.1" rx="33.8" ry="58.6"/>
		</g>
	</g>
</g>
<radialGradient id="SVGID_3_" cx="1616.6467" cy="-141.736" r="527.9391" gradientTransform="matrix(-0.9991 -4.134067e-02 -6.177721e-02 1.4931 2056.4561 1121.2432)" gradientUnits="userSpaceOnUse">
	<stop  offset="1.629087e-02" style="stop-color:#007BFF"/>
	<stop  offset="0.7464" style="stop-color:#007BFF;stop-opacity:0"/>
</radialGradient>
<path class="st7" d="M900,533.5c0.3-42.4-9.3-84.3-27.9-122.2l0.1-12.4c0-6.1-0.3-12.2-1.1-18.1c11.7-20.5,18-43.7,18.1-67.9
	c0.2-37.2-14-72.3-40.2-98.8c-26.1-26.5-61-41.2-98.2-41.5c-0.4,0-0.8,0-1.2,0c-36.8,0-71.4,14.2-97.7,40.2
	c-13.2,13-23.5,28.3-30.5,44.9l-337.1-2.2c-6.8-16.7-16.9-32-29.9-45.3c-26.1-26.5-61-41.2-98.3-41.5c-0.3,0-0.6,0-0.9,0
	c-76.4,0-138.8,61.9-139.3,138.4c-0.2,24.2,5.8,47.5,17.2,68.1c-0.8,6-1.3,12-1.3,18.1l0,12.7c-19,37.6-29.2,79.3-29.5,121.7
	L1.4,666.2c-0.2,29.5,6.8,58.1,20,83.7c-13.5,27.4-20.8,57.7-21,88.6L0,902.9c-0.4,56.3,10,121.3,29.9,188
	c19.4,65.1,47.3,129.7,80.6,186.7C200.2,1431,318.9,1516,445,1516.8h1.7c125.3,0,244.5-83.4,335.6-234.9
	c34.1-56.6,62.8-120.8,83.1-185.6c20.8-66.4,31.9-131.3,32.3-187.6l0.4-64.5c0.2-31-6.7-61.4-20-89.1c13.5-25.4,20.8-53.8,21-83.2
	L900,533.5z"/>
<path class="st2" d="M667,692.2l-442.1-2.9c-19.7-0.1-35.7-16.3-35.5-36l0,0c0.1-19.7,16.3-35.7,36-35.5l442.1,2.9
	c19.7,0.1,35.7,16.3,35.5,36l0,0C702.9,676.3,686.7,692.3,667,692.2z"/>
<path class="st8" d="M625.7,297.5l-349.6-2.3c-83.2-0.5-151.7,67.1-152.2,150.2L123,584c-0.2,31.3,25.3,57.2,56.6,57.4l538,3.5
	c31.3,0.2,57.2-25.3,57.4-56.6l0.9-138.5C776.5,366.6,708.9,298.1,625.7,297.5z"/>
<path class="st1" d="M673.7,496.2l0.2-26.3c0.1-18-13.2-33.2-31-35.3c-65.7-7.8-133.1-11.7-203.3-11.7c-64.1,0-130.7,3.2-200.4,9.7
	c-18.1,1.7-31.9,16.7-32,34.9L207,493c-0.1,18.4,13.6,33.6,31.8,35.4c135.7,13.3,271.2,14.3,402.7,2.7
	C659.7,529.5,673.5,514.5,673.7,496.2z"/>
<g>
	<g>
		<path class="st2" d="M338,481.3c-0.1,16.4-13.5,29.7-30,29.6c-16.4-0.1-29.7-13.5-29.6-30c0.1-16.4,13.5-29.7,30-29.6
			C324.8,451.4,338.1,464.8,338,481.3z"/>
	</g>
</g>
<g>
	<g>
		<path class="st2" d="M602,481.3c-0.1,16.4-13.5,29.7-30,29.6c-16.4-0.1-29.7-13.5-29.6-30c0.1-16.4,13.5-29.7,30-29.6
			S602.1,464.8,602,481.3z"/>
	</g>
</g>
<g>
	<path class="st2" d="M351.3,481.4l1.2-0.2c0-0.8-0.3-1.5-0.9-2.1s-1.3-0.9-2.1-0.9l0,0c-1.6,0-3,1.3-3,3v0.1v0.1
		c0,0.8,0.3,1.5,0.9,2.1s1.3,0.9,2.1,0.9l0,0c0.8,0,1.5-0.3,2.1-0.9s0.9-1.3,0.9-2.1H351.3L351.3,481.4z"/>
	<path class="st2" d="M272.4,497.3c0.3-0.7,0.3-1.6,0.1-2.3c-0.6-1.5-2.4-2.2-3.9-1.7c-0.7,0.3-1.3,0.9-1.6,1.6
		c-0.3,0.7-0.3,1.5-0.1,2.3l0,0c0.4,1.1,1.6,1.9,2.7,1.9l0,0c0.4,0,0.7-0.1,1-0.2h0.1C271.5,498.6,272.1,498.1,272.4,497.3z"/>
	<path class="st2" d="M291.7,515.7c-0.7-0.4-1.6-0.4-2.3-0.1c-0.7,0.3-1.3,0.8-1.6,1.5c-0.4,0.7-0.4,1.5-0.1,2.3
		c0.3,0.7,0.8,1.3,1.5,1.7c0.4,0.2,0.8,0.3,1.3,0.3l0,0c1.2,0,2.2-0.7,2.7-1.7c0.4-0.7,0.4-1.5,0.1-2.3
		C292.9,516.7,292.4,516.1,291.7,515.7z"/>
	<path class="st2" d="M276.6,454.2c-1.3-1-3.2-0.7-4.2,0.6c-1,1.3-0.7,3.2,0.6,4.2c0.5,0.4,1.1,0.6,1.8,0.6l0,0
		c0.9,0,1.8-0.5,2.4-1.2C278.2,457.1,277.9,455.2,276.6,454.2z"/>
	<path class="st2" d="M280,446.8c-1.2,1.1-1.4,2.9-0.4,4.2l0,0c0.6,0.7,1.4,1.1,2.3,1.1l0,0c0.7,0,1.3-0.2,1.9-0.7
		c1.2-1,1.4-2.9,0.4-4.2C283.2,446,281.4,445.8,280,446.8z"/>
	<path class="st2" d="M279.4,510.9c-0.5,0.6-0.8,1.4-0.7,2.2c0.1,0.8,0.4,1.5,1,2c0.5,0.5,1.2,0.7,1.9,0.7l0,0
		c0.9,0,1.7-0.4,2.3-1.1c1-1.3,0.9-3.2-0.4-4.2C282.3,509.5,280.4,509.6,279.4,510.9z"/>
	<path class="st2" d="M275.1,502.3c-0.8-0.1-1.6,0.1-2.2,0.5c-1.3,1-1.6,2.8-0.7,4.1l0,0c0.6,0.8,1.5,1.2,2.4,1.2l0,0
		c0.6,0,1.3-0.2,1.7-0.6c0.7-0.5,1.1-1.2,1.2-1.9c0.1-0.8,0-1.6-0.5-2.2C276.6,502.8,275.9,502.4,275.1,502.3z"/>
	<path class="st2" d="M341.9,462.7c0.5,0.9,1.5,1.5,2.6,1.5l0,0c0.5,0,1-0.1,1.4-0.4c1.5-0.8,2-2.6,1.2-4c-0.8-1.5-2.6-2-4-1.2
		c-0.7,0.4-1.2,1-1.4,1.7C341.4,461.2,341.5,462,341.9,462.7L341.9,462.7z"/>
	<path class="st2" d="M338.4,455.8L338.4,455.8c0.7,0,1.5-0.3,2.1-0.8c1.2-1.1,1.3-3,0.1-4.2c-1.1-1.2-3-1.3-4.2-0.1
		c-1.2,1.1-1.3,3-0.1,4.2C336.8,455.5,337.5,455.8,338.4,455.8z"/>
	<path class="st2" d="M345.7,469.4c-0.4,0.7-0.5,1.5-0.3,2.3c0.3,1.3,1.5,2.2,2.9,2.2c0,0,0,0,0.1,0c0.2,0,0.4,0,0.7-0.1
		c1.6-0.4,2.5-2,2.2-3.7c-0.4-1.6-2.1-2.5-3.6-2.1C346.8,468.2,346.1,468.7,345.7,469.4z"/>
	<path class="st2" d="M268.7,468.5h0.1c0.3,0.1,0.6,0.2,1,0.2c1.2,0,2.3-0.7,2.8-1.9c0.6-1.5-0.1-3.3-1.7-3.9
		c-1.5-0.6-3.3,0.2-3.9,1.7C266.4,466.1,267.2,467.9,268.7,468.5z"/>
	<path class="st2" d="M267.3,489.1L267.3,489.1c0.1,0,0.1,0,0.2,0c1.6-0.2,2.8-1.7,2.6-3.3c-0.2-1.6-1.7-2.8-3.3-2.6
		c-0.8,0.1-1.5,0.5-2,1.1s-0.7,1.4-0.6,2.2l0,0C264.4,488,265.7,489.1,267.3,489.1L267.3,489.1z"/>
	<path class="st2" d="M266.8,478.7L266.8,478.7c0.1,0,0.3,0,0.4,0c1.5,0,2.8-1.1,3-2.6c0.1-0.8-0.1-1.6-0.6-2.2s-1.2-1-2-1.1
		s-1.6,0.1-2.2,0.6s-1,1.2-1.2,2C264,477,265.2,478.5,266.8,478.7z"/>
	<path class="st2" d="M300.8,518.7c-1.6-0.3-3.2,0.7-3.5,2.4c-0.3,1.6,0.8,3.2,2.3,3.5c0.1,0,0.2,0,0.2,0c0.1,0,0.2,0,0.4,0
		c1.4,0,2.6-1,2.9-2.4C303.4,520.6,302.4,519.1,300.8,518.7z"/>
	<path class="st2" d="M336,507.5c-1.1,1.2-1.1,3.1,0.1,4.2c0,0,0,0,0.1,0.1c0.6,0.5,1.3,0.7,2,0.7l0,0c0.9,0,1.6-0.3,2.1-0.9
		c1.1-1.2,1.1-3.1-0.1-4.2C339.1,506.3,337.2,506.3,336,507.5z"/>
	<path class="st2" d="M332.1,443.7c-0.7-0.4-1.5-0.6-2.2-0.4c-0.8,0.2-1.5,0.7-1.9,1.3c-0.4,0.7-0.6,1.5-0.4,2.3s0.6,1.4,1.3,1.9
		l0,0c0.5,0.3,1,0.4,1.6,0.4l0,0c1,0,1.9-0.5,2.5-1.4C333.9,446.4,333.5,444.6,332.1,443.7z"/>
	<path class="st2" d="M348.9,488.7c-1.6-0.4-3.2,0.6-3.6,2.1c-0.2,0.8-0.1,1.6,0.3,2.3c0.4,0.7,1.1,1.2,1.8,1.4
		c0.3,0.1,0.5,0.1,0.7,0.1c1.4,0,2.6-0.9,2.9-2.2v-0.1c0.2-0.7,0.1-1.5-0.3-2.1C350.4,489.5,349.7,488.9,348.9,488.7z"/>
	<path class="st2" d="M328.6,513.6c-1.4,0.9-1.8,2.8-0.9,4.1c0.5,0.8,1.5,1.4,2.5,1.4l0,0c0.6,0,1.2-0.2,1.6-0.4
		c1.4-0.9,1.8-2.7,0.9-4.2C331.8,513.1,329.9,512.7,328.6,513.6z"/>
	<path class="st2" d="M345.7,498.6c-1.4-0.8-3.2-0.3-4.1,1.2c-0.8,1.4-0.3,3.2,1.1,4c0.6,0.4,1.2,0.4,1.5,0.4c1.1,0,2.1-0.6,2.6-1.5
		c0.4-0.7,0.5-1.5,0.3-2.2C347,499.7,346.5,499,345.7,498.6z"/>
	<path class="st2" d="M311.1,436.8c-1.6-0.1-3,1.2-3.2,2.8c-0.1,1.6,1.1,3.1,2.8,3.2h0.2c1.6,0,2.9-1.2,3-2.8
		C314,438.3,312.8,436.9,311.1,436.8z"/>
	<path class="st2" d="M310.4,519.4c-1.6,0.1-2.9,1.5-2.8,3.1s1.4,2.8,3,2.8c0,0,0.1,0,0.2,0c0.8,0,1.5-0.4,2.1-1
		c0.5-0.6,0.8-1.3,0.7-2.1c0-0.8-0.4-1.5-1-2.1C312,519.6,311.2,519.3,310.4,519.4z"/>
	<path class="st2" d="M322.2,439c-0.1,0-0.1-0.1-0.2-0.1c-0.8-0.3-1.6-0.2-2.3,0.2c-0.7,0.4-1.2,1-1.5,1.7c-0.5,1.6,0.3,3.2,1.9,3.8
		c0.3,0.1,0.6,0.2,1,0.2l0,0c1.3,0,2.5-0.9,2.8-2.1c0.3-0.8,0.2-1.6-0.1-2.3C323.4,439.8,322.9,439.3,322.2,439z"/>
	<path class="st2" d="M300.1,437.5c-0.8,0.1-1.5,0.6-1.9,1.2c-0.5,0.7-0.6,1.5-0.5,2.2c0.3,1.4,1.5,2.4,2.9,2.4c0,0,0,0,0.1,0
		c0.2,0,0.3,0,0.5-0.1c1.6-0.3,2.7-1.8,2.4-3.5C303.2,438.2,301.6,437.2,300.1,437.5z"/>
	<path class="st2" d="M291.8,440.8c-0.7-0.3-1.6-0.2-2.3,0.1c-1.5,0.7-2.1,2.5-1.4,4c0.5,1.1,1.5,1.7,2.7,1.8l0,0
		c0.5,0,0.9-0.1,1.2-0.3c0.7-0.3,1.3-0.9,1.6-1.7c0.3-0.7,0.2-1.5-0.1-2.2C293.1,441.6,292.5,441.1,291.8,440.8z"/>
	<path class="st2" d="M322.1,517.8c-0.7-0.4-1.5-0.4-2.2-0.2c-0.8,0.2-1.4,0.7-1.8,1.4s-0.5,1.5-0.2,2.3l0,0
		c0.4,1.2,1.5,2.1,2.8,2.1h0.1c0.2,0,0.5,0,0.9-0.1c0.8-0.3,1.4-0.8,1.7-1.5c0.4-0.7,0.4-1.5,0.2-2.2
		C323.4,518.8,322.8,518.2,322.1,517.8z"/>
</g>
<g>
	<path class="st2" d="M615.4,481.4l1.2-0.2c0-0.8-0.3-1.5-0.9-2.1c-0.6-0.6-1.3-0.9-2.1-0.9l0,0c-1.6,0-3,1.3-3,3v0.1v0.1
		c0,0.8,0.3,1.5,0.9,2.1c0.6,0.6,1.3,0.9,2.1,0.9l0,0c0.8,0,1.5-0.3,2.1-0.9s0.9-1.3,0.9-2.1H615.4L615.4,481.4z"/>
	<path class="st2" d="M536.5,497.3c0.3-0.7,0.3-1.6,0.1-2.3c-0.6-1.5-2.4-2.2-3.9-1.7c-0.7,0.3-1.3,0.9-1.6,1.6s-0.3,1.5-0.1,2.3
		l0,0c0.4,1.1,1.6,1.9,2.7,1.9l0,0c0.4,0,0.7-0.1,1-0.2h0.1C535.6,498.6,536.1,498.1,536.5,497.3z"/>
	<path class="st2" d="M555.7,515.7c-0.7-0.4-1.6-0.4-2.3-0.1c-0.7,0.3-1.3,0.8-1.6,1.5c-0.4,0.7-0.4,1.5-0.1,2.3
		c0.3,0.7,0.8,1.3,1.5,1.7c0.4,0.2,0.8,0.3,1.3,0.3l0,0c1.2,0,2.2-0.7,2.7-1.7c0.4-0.7,0.4-1.5,0.1-2.3
		C557,516.7,556.5,516.1,555.7,515.7z"/>
	<path class="st2" d="M540.7,454.2c-1.3-1-3.2-0.7-4.2,0.6c-1,1.3-0.7,3.2,0.6,4.2c0.5,0.4,1.1,0.6,1.8,0.6l0,0
		c0.9,0,1.8-0.5,2.4-1.2C542.3,457.1,542,455.2,540.7,454.2z"/>
	<path class="st2" d="M544.1,446.8c-1.2,1.1-1.4,2.9-0.4,4.2l0,0c0.6,0.7,1.4,1.1,2.3,1.1l0,0c0.7,0,1.3-0.2,1.9-0.7
		c1.2-1,1.4-2.9,0.4-4.2C547.3,446,545.4,445.8,544.1,446.8z"/>
	<path class="st2" d="M543.5,510.9c-0.5,0.6-0.8,1.4-0.7,2.2s0.4,1.5,1,2c0.5,0.5,1.2,0.7,1.9,0.7l0,0c0.9,0,1.7-0.4,2.3-1.1
		c1-1.3,0.9-3.2-0.4-4.2C546.4,509.5,544.5,509.6,543.5,510.9z"/>
	<path class="st2" d="M539.2,502.3c-0.8-0.1-1.6,0.1-2.2,0.5c-1.3,1-1.6,2.8-0.7,4.1l0,0c0.6,0.8,1.5,1.2,2.4,1.2l0,0
		c0.6,0,1.3-0.2,1.7-0.6c0.7-0.5,1.1-1.2,1.2-1.9c0.1-0.8,0-1.6-0.5-2.2C540.7,502.8,540,502.4,539.2,502.3z"/>
	<path class="st2" d="M606,462.7c0.5,0.9,1.5,1.5,2.6,1.5l0,0c0.5,0,1-0.1,1.4-0.4c1.5-0.8,2-2.6,1.2-4c-0.8-1.5-2.6-2-4-1.2
		c-0.7,0.4-1.2,1-1.4,1.7C605.5,461.2,605.6,462,606,462.7L606,462.7z"/>
	<path class="st2" d="M602.5,455.8L602.5,455.8c0.7,0,1.5-0.3,2.1-0.8c1.2-1.1,1.3-3,0.1-4.2c-1.1-1.2-3-1.3-4.2-0.1
		c-1.2,1.1-1.3,3-0.1,4.2C600.9,455.5,601.6,455.8,602.5,455.8z"/>
	<path class="st2" d="M609.8,469.4c-0.4,0.7-0.5,1.5-0.3,2.3c0.3,1.3,1.5,2.2,2.9,2.2c0,0,0,0,0.1,0c0.2,0,0.4,0,0.7-0.1
		c1.6-0.4,2.5-2,2.2-3.7c-0.4-1.6-2.1-2.5-3.6-2.1C610.9,468.2,610.2,468.7,609.8,469.4z"/>
	<path class="st2" d="M532.8,468.5L532.8,468.5c0.4,0.1,0.7,0.2,1.1,0.2c1.2,0,2.3-0.7,2.8-1.9c0.6-1.5-0.1-3.3-1.7-3.9
		c-1.5-0.6-3.3,0.2-3.9,1.7C530.5,466.1,531.3,467.9,532.8,468.5z"/>
	<path class="st2" d="M531.4,489.1L531.4,489.1c0.1,0,0.1,0,0.2,0c1.6-0.2,2.8-1.7,2.6-3.3c-0.2-1.6-1.7-2.8-3.3-2.6
		c-0.8,0.1-1.5,0.5-2,1.1s-0.7,1.4-0.6,2.2l0,0C528.5,488,529.8,489.1,531.4,489.1L531.4,489.1z"/>
	<path class="st2" d="M530.9,478.7L530.9,478.7c0.1,0,0.3,0,0.4,0c1.5,0,2.8-1.1,3-2.6c0.1-0.8-0.1-1.6-0.6-2.2s-1.2-1-2-1.1
		s-1.6,0.1-2.2,0.6c-0.6,0.5-1,1.2-1.2,2C528.1,477,529.3,478.5,530.9,478.7z"/>
	<path class="st2" d="M564.9,518.7c-1.6-0.3-3.2,0.7-3.5,2.4c-0.3,1.6,0.8,3.2,2.3,3.5c0.1,0,0.2,0,0.2,0c0.1,0,0.2,0,0.4,0
		c1.4,0,2.6-1,2.9-2.4C567.5,520.6,566.5,519.1,564.9,518.7z"/>
	<path class="st2" d="M600.1,507.5c-1.1,1.2-1.1,3.1,0.1,4.2c0,0,0,0,0.1,0.1c0.6,0.5,1.3,0.7,2,0.7l0,0c0.9,0,1.6-0.3,2.1-0.9
		c1.1-1.2,1.1-3.1-0.1-4.2S601.2,506.3,600.1,507.5z"/>
	<path class="st2" d="M596.1,443.7c-0.7-0.4-1.5-0.6-2.2-0.4c-0.8,0.2-1.5,0.7-1.9,1.3c-0.4,0.7-0.6,1.5-0.4,2.3
		c0.2,0.8,0.6,1.4,1.3,1.9l0,0c0.5,0.3,1,0.4,1.6,0.4l0,0c1,0,1.9-0.5,2.5-1.4C597.9,446.4,597.5,444.6,596.1,443.7z"/>
	<path class="st2" d="M613,488.7c-1.6-0.4-3.2,0.6-3.6,2.1c-0.2,0.8-0.1,1.6,0.3,2.3c0.4,0.7,1.1,1.2,1.8,1.4
		c0.3,0.1,0.5,0.1,0.7,0.1c1.4,0,2.6-0.9,2.9-2.2v-0.1c0.2-0.7,0.1-1.5-0.3-2.1C614.5,489.5,613.8,488.9,613,488.7z"/>
	<path class="st2" d="M592.6,513.6c-1.4,0.9-1.8,2.8-0.9,4.1c0.5,0.8,1.5,1.4,2.5,1.4l0,0c0.6,0,1.2-0.2,1.6-0.4
		c1.4-0.9,1.8-2.7,0.9-4.2C595.8,513.1,594,512.7,592.6,513.6z"/>
	<path class="st2" d="M609.8,498.6c-1.4-0.8-3.2-0.3-4.1,1.2c-0.8,1.4-0.3,3.2,1.1,4c0.6,0.4,1.2,0.4,1.5,0.4c1.1,0,2.1-0.6,2.6-1.5
		c0.4-0.7,0.5-1.5,0.3-2.2C611.1,499.7,610.5,499,609.8,498.6z"/>
	<path class="st2" d="M575.2,436.8c-1.6-0.1-3,1.2-3.2,2.8c-0.1,1.6,1.1,3.1,2.8,3.2h0.2c1.6,0,2.9-1.2,3-2.8
		C578.1,438.3,576.8,436.9,575.2,436.8z"/>
	<path class="st2" d="M574.5,519.4c-1.6,0.1-2.9,1.5-2.8,3.1c0.1,1.6,1.4,2.8,3,2.8c0,0,0.1,0,0.2,0c0.8,0,1.5-0.4,2.1-1
		c0.5-0.6,0.8-1.3,0.7-2.1c0-0.8-0.4-1.5-1-2.1C576,519.6,575.3,519.3,574.5,519.4z"/>
	<path class="st2" d="M586.3,439c-0.1,0-0.1-0.1-0.2-0.1c-0.8-0.3-1.6-0.2-2.3,0.2c-0.7,0.4-1.2,1-1.5,1.7c-0.5,1.6,0.3,3.2,1.9,3.8
		c0.3,0.1,0.6,0.2,1,0.2l0,0c1.3,0,2.5-0.9,2.8-2.1c0.3-0.8,0.2-1.6-0.1-2.3C587.5,439.8,587,439.3,586.3,439z"/>
	<path class="st2" d="M564.2,437.5c-0.8,0.1-1.5,0.6-1.9,1.2c-0.5,0.7-0.6,1.5-0.5,2.2c0.3,1.4,1.5,2.4,2.9,2.4c0,0,0,0,0.1,0
		c0.2,0,0.3,0,0.5-0.1c1.6-0.3,2.7-1.8,2.4-3.5C567.3,438.2,565.7,437.2,564.2,437.5z"/>
	<path class="st2" d="M555.8,440.8c-0.7-0.3-1.6-0.2-2.3,0.1c-1.5,0.7-2.1,2.5-1.4,4c0.5,1.1,1.5,1.7,2.7,1.8l0,0
		c0.5,0,0.9-0.1,1.2-0.3c0.7-0.3,1.3-0.9,1.6-1.7c0.3-0.7,0.2-1.5-0.1-2.2C557.2,441.6,556.6,441.1,555.8,440.8z"/>
	<path class="st2" d="M586.2,517.8c-0.7-0.4-1.5-0.4-2.2-0.2c-0.8,0.2-1.4,0.7-1.8,1.4c-0.4,0.7-0.5,1.5-0.2,2.3l0,0
		c0.4,1.2,1.5,2.1,2.8,2.1h0.1c0.2,0,0.5,0,0.9-0.1c0.8-0.3,1.4-0.8,1.7-1.5c0.4-0.7,0.4-1.5,0.2-2.2
		C587.4,518.8,586.9,518.2,586.2,517.8z"/>
</g>
<path class="st2" d="M170.6,225.2c-0.1,9.1-7.5,16.5-16.6,16.4s-16.5-7.5-16.4-16.6s7.5-16.5,16.6-16.4
	C163.3,208.6,170.6,216.1,170.6,225.2z"/>
<path class="st5" d="M153.2,361.6c0,0,39.4,5.3,61.3-46.1l-10.3-21.7c-3.5-7.4-12.4-10.5-19.7-6.9l-22.7,11.2
	c-5,2.5-8.2,7.5-8.2,13.1L153.2,361.6z"/>
<path class="st2" d="M157.3,232.8c-0.4-1-1.9-0.6-1.7,0.5l13.1,72.6c0.3,1.7,1.4,3,2.9,3.7s3.3,0.5,4.7-0.4l4.2-2.8
	c3.5-2.3,4.9-6.8,3.2-10.7L157.3,232.8z"/>
<path class="st2" d="M732.1,228.9c-0.1,9.1,7.3,16.6,16.4,16.6c9.1,0.1,16.6-7.3,16.6-16.4c0.1-9.1-7.3-16.6-16.4-16.6
	C739.6,212.4,732.2,219.7,732.1,228.9z"/>
<path class="st5" d="M747.7,365.4c0,0-39.5,4.8-60.7-46.8l10.6-21.5c3.6-7.3,12.5-10.3,19.8-6.6L740,302c5,2.5,8.1,7.6,8,13.2
	L747.7,365.4z"/>
<path class="st2" d="M747,237.1l-14,72.1c-0.3,1.7-1.5,3.2-3.1,3.8c-1.6,0.7-3.5,0.5-4.9-0.5l-3.9-2.6c-3.5-2.4-4.8-6.8-3.1-10.7
	l27.3-62.6C745.7,235.6,747.3,236,747,237.1z"/>
<path class="st5" d="M265.7,379.5c-9-0.1-16.6-7-17.3-16.1c-0.8-9.6,6.4-18.1,16-18.9c127.2-10.5,243.4-10.1,355.3,1.2
	c9.6,1,16.6,9.5,15.7,19.2c-1,9.6-9.5,16.6-19.2,15.7c-109.7-11-223.8-11.4-348.9-1.1C266.8,379.5,266.3,379.5,265.7,379.5z"/>
<path class="st2" d="M653.8,406.1c-132.3-16.7-271.4-17.4-425-2c-30.3,3-53.4,29.7-53.6,61.9l-0.2,28.3
	c-0.2,32.5,22.7,59.5,53.2,62.7c71.2,7.5,143.3,11.5,214.1,11.9c4.6,0,9.2,0,13.7,0c65.8,0,131.5-3.1,195.6-9.1
	c30.5-2.9,53.6-29.5,53.8-62l0.2-29.3C706,436.7,683.6,409.9,653.8,406.1z M452.3,413.6c67.9,0.4,134.9,4.8,199,12.9
	c19.5,2.5,34.1,20.5,34,42.1l-0.2,29.3c-0.1,21.9-15.3,39.8-35.2,41.7c-136.9,12.9-278,11.9-419.4-2.9c-20-2.1-35-20.2-34.9-42.2
	l0.2-28.3c0.1-21.8,15.2-39.7,35.1-41.7c73.5-7.3,142.1-10.9,209.2-10.9C444.2,413.5,448.2,413.5,452.3,413.6z"/>
<path class="st8" d="M694.3,679.7l-491.6-3.2c-44.1-0.3-80.5,35.6-80.7,79.7l-0.4,64.5c-1.2,179.3,143.5,489.2,322.8,490.3l0,0
	c179.3,1.2,328-306.8,329.2-486.1l0.4-64.5C774.3,716.3,738.4,680,694.3,679.7z"/>
<path class="st5" d="M202.4,725.7c-0.1,0-0.1,0-0.2,0c-16.8,0-31,14.1-31.1,30.9l-0.4,64.5c-0.5,81.6,34.4,196.9,87,286.9
	c57,97.5,125.1,153.6,187,154c0.2,0,0.4,0,0.7,0c61.7,0,130.3-55.2,188.3-151.6c53.8-89.3,90.2-204.1,90.7-285.7l0.4-64.5
	c0.1-16.8-14-31.2-30.9-31.3L202.4,725.7z"/>
<path class="st0" d="M614,718.6c-14-14.2-32.8-22.1-52.7-22.3l-229-1.5c-20-0.1-38.8,7.5-53,21.6c-14.2,14-22.1,32.8-22.3,52.7
	l-0.4,65.2c-0.3,41.2,33.1,75,74.3,75.2l229,1.5h0.5c41,0,74.5-33.3,74.8-74.3l0.4-65.2C635.7,751.6,628.1,732.8,614,718.6z"/>
<path class="st2" d="M550.4,842.6H342.1c-10.3,0-18.6-8.3-18.6-18.6v-42.7c0-10.3,8.3-18.6,18.6-18.6h208.4
	c10.3,0,18.6,8.3,18.6,18.6V824C569.1,834.2,560.7,842.6,550.4,842.6z"/>
<path class="st1" d="M561.2,719l-229-1.5c-13.9-0.1-27,5.2-36.9,15s-15.4,22.8-15.5,36.7l-0.4,65.2c-0.2,28.7,23,52.2,51.7,52.4
	l229,1.5l0,0c0.1,0,0.2,0,0.3,0c28.5,0,51.9-23.1,52-51.7l0.4-65.2C613.1,742.7,589.9,719.2,561.2,719z M584.7,836.4
	c-0.1,13.3-11,24.1-24.3,24.1c-0.1,0-0.1,0-0.2,0l-229-1.5c-13.4-0.1-24.2-11.1-24.1-24.5l0.4-65.2c0.1-13.3,11-24.1,24.3-24.1
	c0.1,0,0.1,0,0.2,0l229,1.5c6.5,0,12.6,2.6,17.1,7.2c4.6,4.6,7.1,10.7,7,17.2L584.7,836.4z"/>
<g>
	<path class="st9" d="M353.6,807.8c-0.4,0-0.8,0-1.2-0.1c-0.4-0.1-0.8-0.2-1.2-0.4c-0.4-0.2-0.8-0.4-1.1-0.6
		c-0.3-0.2-0.7-0.5-0.9-0.8c-1.2-1.2-1.9-2.8-1.8-4.5c0-1.7,0.7-3.3,1.9-4.5c2.4-2.3,6.6-2.3,9,0.1c0.3,0.3,0.5,0.6,0.8,1
		c0.2,0.4,0.4,0.7,0.6,1.1c0.2,0.4,0.3,0.8,0.3,1.2c0.1,0.4,0.1,0.8,0.1,1.2s0,0.8-0.1,1.2s-0.2,0.8-0.4,1.2
		c-0.2,0.4-0.4,0.8-0.6,1.1c-0.3,0.3-0.5,0.7-0.8,0.9c-0.3,0.3-0.6,0.6-1,0.8c-0.4,0.3-0.7,0.4-1.1,0.6c-0.4,0.2-0.8,0.3-1.2,0.3
		C354.4,807.8,354,807.8,353.6,807.8z"/>
	<path class="st9" d="M497.5,802.4c0-3.5,2.9-6.3,6.4-6.3l0,0c3.5,0,6.4,2.9,6.4,6.4l0,0c0,3.5-2.9,6.3-6.4,6.3l0,0
		C500.3,808.8,497.5,805.9,497.5,802.4z M467.4,802.2c0-3.5,2.9-6.3,6.4-6.3l0,0c3.5,0,6.3,2.9,6.3,6.4l0,0c0,3.5-2.9,6.3-6.4,6.3
		l0,0C470.2,808.6,467.4,805.7,467.4,802.2z M437.4,802c0-3.5,2.9-6.3,6.4-6.3l0,0c3.5,0,6.3,2.9,6.3,6.4l0,0c0,3.5-2.9,6.3-6.4,6.3
		l0,0C440.2,808.4,437.4,805.5,437.4,802z M407.3,801.8c0-3.5,2.9-6.3,6.4-6.3l0,0c3.5,0,6.3,2.9,6.3,6.4l0,0c0,3.5-2.9,6.3-6.4,6.3
		l0,0C410.2,808.2,407.3,805.3,407.3,801.8z M377.3,801.6c0-3.5,2.9-6.3,6.4-6.3l0,0c3.5,0,6.3,2.9,6.3,6.4l0,0
		c0,3.5-2.9,6.3-6.4,6.3l0,0C380.1,808,377.3,805.1,377.3,801.6z"/>
	<path class="st9" d="M533.8,809c-1.7,0-3.3-0.7-4.5-1.9c-0.3-0.3-0.6-0.6-0.8-1s-0.4-0.7-0.6-1.1c-0.2-0.4-0.3-0.8-0.3-1.2
		c-0.1-0.4-0.1-0.8-0.1-1.2c0-1.7,0.7-3.3,1.9-4.5c0.3-0.3,0.6-0.6,1-0.8c0.4-0.3,0.7-0.4,1.1-0.6c0.4-0.2,0.8-0.3,1.2-0.3
		c2.1-0.4,4.3,0.3,5.7,1.8c1.2,1.2,1.8,2.8,1.8,4.5c0,0.4,0,0.8-0.1,1.2s-0.2,0.8-0.4,1.2s-0.4,0.7-0.6,1.1
		c-0.2,0.3-0.5,0.7-0.8,0.9c-0.3,0.3-0.6,0.6-1,0.8c-0.4,0.3-0.7,0.4-1.1,0.6c-0.4,0.2-0.8,0.3-1.2,0.3
		C534.6,809,534.2,809,533.8,809z"/>
</g>
</svg>
