<?xml version="1.0" encoding="utf-8"?>
<!-- Generator: Adobe Illustrator 24.0.2, SVG Export Plug-In . SVG Version: 6.00 Build 0)  -->
<svg version="1.1" id="Слой_1" xmlns="http://www.w3.org/2000/svg" xmlns:xlink="http://www.w3.org/1999/xlink" x="0px" y="0px"
	 width="1739px" height="1590px" viewBox="0 0 1739 1590" style="enable-background:new 0 0 1739 1590;" xml:space="preserve">
<style type="text/css">
	.st0{fill:#E1E3E5;}
	.st1{fill:#F5F5F5;}
	.st2{fill:#343A40;}
	.st3{fill:url(#SVGID_1_);}
	.st4{fill:#33C14D;}
	.st5{fill:#7BEF8C;}
	.st6{fill:#267031;}
	.st7{fill:url(#SVGID_2_);}
	.st8{fill:url(#SVGID_3_);}
	.st9{fill:#FFC107;}
	.st10{fill:#FFD77D;}
	.st11{fill:#A07302;}
	.st12{fill:url(#SVGID_4_);}
	.st13{fill:#007BFF;}
	.st14{opacity:0.2;}
	.st15{fill:#12A2B8;}
	.st16{fill:#F7D4CD;}
</style>
<g id="Background">
</g>
<g id="Illustration">
	<path class="st0" d="M1104.2,200.8c342.9,145.2,491.4,531.4,467.5,834.5c-6.5,82.8-19.7,249.3-142.1,379.7
		c-235.1,250.5-728.6,213.8-1020-24c-37.5-30.6-288.9-242.7-286.8-574.6c1.6-243,138.2-414.1,155.2-434.9
		c21.5-26.3,72.6-84.2,153.9-136.6C622.8,121.8,889.9,110.1,1104.2,200.8z"/>
	<g>
		<g>
			<g>
				<g>
					<g>
						<g>
							<g>
								<g>
									<g>
										<g>
											<g>
												<g>
													<g>
														<g>
															<g>
																<path class="st1" d="M348.1,1097.3l-215.2-0.1c-25.9,0-46.8-22.1-46.8-49.3l0-566.9c0-27.2,21-49.3,46.9-49.2
																	l215.2,0.1c25.9,0,46.8,22.1,46.8,49.3l-0.1,566.9C394.9,1075.3,373.9,1097.3,348.1,1097.3z"/>
															</g>
														</g>
													</g>
												</g>
											</g>
										</g>
									</g>
								</g>
								<g>
									<g>
										<g>
											<g>
												<g>
													<g>
														<g>
															<g>
																<path class="st2" d="M348,451.9h-41.7c-5.6,0-10.1,5-10.1,11.1v8c0,6.1-4.5,11.1-10.1,11.1l-81.3-0.1
																	c-5.6,0-10.1-5-10.1-11.1v-8c0-6.1-4.5-11.1-10.1-11.1h-14.7h-36.5c-18.1,0-32.8,15.4-32.8,34.5l-0.1,553.3
																	c0,19,14.7,34.5,32.8,34.5l214.7,0.1c18.1,0,32.8-15.4,32.8-34.5l0.1-553.3C380.8,467.4,366.1,451.9,348,451.9z"/>
															</g>
														</g>
													</g>
												</g>
											</g>
										</g>
									</g>
								</g>
							</g>
						</g>
					</g>
				</g>
			</g>
		</g>
	</g>
	<g>
		<g>
			<g>
				<g>
					<g>
						<g>
							<g>
								<g>
									<g>
										<g>
											<g>
												<g>
													<g>
														<g>
															<g>
																<g>
																	<g>
																		<path class="st1" d="M1626.1,822.3l-215.2-0.1c-25.9,0-46.8-22.1-46.8-49.3l0.1-566.9c0-27.2,21-49.3,46.9-49.2
																			l215.2,0.1c25.9,0,46.8,22.1,46.8,49.3l-0.1,566.9C1672.9,800.3,1651.9,822.3,1626.1,822.3z"/>
																	</g>
																</g>
															</g>
														</g>
													</g>
												</g>
											</g>
										</g>
									</g>
								</g>
								<g>
									<g>
										<g>
											<g>
												<g>
													<g>
														<g>
															<g>
																<path class="st2" d="M1626,176.9h-41.7c-5.6,0-10.1,5-10.1,11.1v8c0,6.1-4.5,11.1-10.1,11.1l-81.3-0.1
																	c-5.6,0-10.1-5-10.1-11.1v-8c0-6.1-4.5-11.1-10.1-11.1h-14.7h-36.5c-18.1,0-32.8,15.4-32.8,34.5l-0.1,553.3
																	c0,19,14.7,34.5,32.8,34.5l214.7,0.1c18.1,0,32.8-15.4,32.8-34.5l0.1-553.3C1658.8,192.4,1644.1,176.9,1626,176.9z"
																	/>
															</g>
														</g>
													</g>
												</g>
											</g>
										</g>
									</g>
								</g>
							</g>
						</g>
					</g>
				</g>
			</g>
		</g>
	</g>
	
		<radialGradient id="SVGID_1_" cx="295.25" cy="803.8" r="236.0752" gradientTransform="matrix(1 0 0 -1 0 1590)" gradientUnits="userSpaceOnUse">
		<stop  offset="1.629055e-02" style="stop-color:#33C14D"/>
		<stop  offset="1" style="stop-color:#33C14D;stop-opacity:0"/>
	</radialGradient>
	<path class="st3" d="M462.5,619.6C418,575,358.7,550.4,295.6,550.3c-0.1,0-0.2,0-0.3,0c-63,0-122.2,24.4-166.8,68.8
		C83.7,663.7,59.1,722.9,59,785.9s24.4,122.3,69,166.9c44.6,44.6,103.9,69.2,166.9,69.3c0.1,0,0.2,0,0.3,0c13.8,0,27.6-1.2,41.1-3.6
		c54-9.5,103.4-37.8,139.1-79.7c36.1-42.5,56.1-96.6,56.1-152.3C531.6,723.5,507.1,664.2,462.5,619.6z"/>
	<g>
		<g>
			<g>
				<g>
					<g>
						<g>
							<g>
								<g>
									<path class="st4" d="M444,781c0.1,94-76.1,170.2-170.3,170.4c-10.2,0-20.2-0.9-29.9-2.6c-79.9-14-140.7-83.6-140.8-167.4
										c-0.1-94,76.1-170.2,170.3-170.3C367.4,610.9,443.9,687,444,781z"/>
								</g>
							</g>
						</g>
					</g>
					<g>
						<g>
							<g>
								<g>
									<path class="st5" d="M408.1,782.8c0.1,71.6-58,129.7-129.8,129.8s-130-57.9-130.1-129.5s58-129.7,129.8-129.8
										S408,711.2,408.1,782.8z"/>
								</g>
							</g>
						</g>
					</g>
				</g>
			</g>
			<g>
				<g>
					<g>
						<g>
							<g>
								<g>
									<path class="st6" d="M288.3,858.7l0.4,22.6l-20.2,0.3l-0.3-22c-20-0.9-39.3-6.9-50.6-15.4l10.7-24.8
										c10.2,7.3,24.9,12.5,39.4,13.7l-0.5-33.8c-22.5-5.1-47.7-12.2-48.1-41.1c-0.3-21.4,14.9-40.1,46.8-44.2l-0.4-22.4l20.2-0.3
										l0.3,22c15.2,1,30,4.8,41.2,11.7l-9.7,25c-10.4-5.7-21-9-31.1-10l0.5,34.4c22.5,4.9,47.3,12,47.7,40.5
										C335,835.9,319.9,854.4,288.3,858.7z M266.7,769.7l-0.5-28.7c-10.7,2.6-14.8,8.5-14.7,15.2
										C251.6,763.2,257.7,767,266.7,769.7z M302.2,817.8c-0.1-7.1-6-10.8-14.8-13.7l0.4,27.9
										C297.9,829.6,302.3,824.3,302.2,817.8z"/>
								</g>
							</g>
						</g>
					</g>
				</g>
			</g>
		</g>
		<g>
			<polygon class="st2" points="101,980 181.3,983.4 181.3,543.4 101,540 			"/>
		</g>
	</g>
	<g>
		
			<radialGradient id="SVGID_2_" cx="1042.5502" cy="1314.45" r="134.65" gradientTransform="matrix(1 0 0 -1 0 1590)" gradientUnits="userSpaceOnUse">
			<stop  offset="1.629055e-02" style="stop-color:#33C14D"/>
			<stop  offset="1" style="stop-color:#33C14D;stop-opacity:0"/>
		</radialGradient>
		<path class="st7" d="M1137.9,180.5c-25.4-25.4-59.2-39.4-95.2-39.5c-0.1,0-0.1,0-0.2,0c-35.9,0-69.7,13.9-95.1,39.3
			c-25.5,25.4-39.6,59.1-39.6,95.1c0,35.9,13.9,69.7,39.4,95.2c25.4,25.4,59.2,39.4,95.2,39.5c0.1,0,0.1,0,0.2,0
			c7.9,0,15.7-0.7,23.4-2c30.8-5.4,59-21.5,79.3-45.4c20.6-24.2,32-55.1,32-86.9C1177.3,239.7,1163.3,205.9,1137.9,180.5z"/>
		<g>
			<g>
				<g>
					<g>
						<g>
							<g>
								<g>
									<path class="st4" d="M1176.2,248.6c13.5,60.3-24.5,120-84.9,133.6c-6.5,1.5-13.1,2.3-19.6,2.6
										c-53.3,2.4-102.2-33.5-114.2-87.2c-13.5-60.2,24.5-120,84.9-133.6C1102.8,150.5,1162.7,188.4,1176.2,248.6z"/>
								</g>
							</g>
						</g>
					</g>
					<g>
						<g>
							<g>
								<g>
									<path class="st5" d="M1153.5,254.9c10.3,45.9-18.7,91.5-64.7,101.8c-46,10.3-91.7-18.6-101.9-64.5
										c-10.3-45.9,18.7-91.5,64.7-101.8C1097.5,180.1,1143.2,209,1153.5,254.9z"/>
								</g>
							</g>
						</g>
					</g>
				</g>
			</g>
			<g>
				<g>
					<g>
						<g>
							<g>
								<g>
									<path class="st6" d="M1087.4,320.7l3.5,14.5l-12.9,3.1l-3.4-14.1c-13,2.3-26.2,1.2-34.6-2.6l3.3-17.5
										c7.6,3.2,17.7,4.5,27.3,3.2l-5.2-21.6c-15.2-0.1-32.3-1-36.7-19.5c-3.3-13.7,3.9-27.8,23.7-35l-3.4-14.3l12.9-3.1l3.4,14.1
										c9.9-1.5,19.9-1.2,28.1,1.6l-2.7,17.4c-7.5-2.2-14.7-2.8-21.4-2l5.2,22c15.1-0.1,32,0.9,36.4,19.2
										C1114.1,299.4,1107.1,313.4,1087.4,320.7z M1060.9,266.7l-4.4-18.3c-6.5,3.2-8.3,7.6-7.3,11.8
										C1050.3,264.7,1054.7,266.2,1060.9,266.7z M1090.5,292.5c-1.1-4.5-5.4-6.1-11.4-6.7l4.3,17.8
										C1089.5,300.7,1091.5,296.6,1090.5,292.5z"/>
								</g>
							</g>
						</g>
					</g>
				</g>
			</g>
		</g>
	</g>
	
		<radialGradient id="SVGID_3_" cx="1460.2499" cy="1110.75" r="236.0502" gradientTransform="matrix(1 0 0 -1 0 1590)" gradientUnits="userSpaceOnUse">
		<stop  offset="1.629066e-02" style="stop-color:#FBB03B;stop-opacity:0.9"/>
		<stop  offset="6.589614e-02" style="stop-color:#FBB138;stop-opacity:0.8546"/>
		<stop  offset="1" style="stop-color:#FFC107;stop-opacity:0"/>
	</radialGradient>
	<path class="st8" d="M1627.5,312.6c-44.6-44.6-103.9-69.2-166.9-69.2c-0.1,0-0.2,0-0.3,0c-63,0-122.2,24.4-166.8,68.8
		c-44.7,44.5-69.4,103.7-69.5,166.7s24.4,122.3,69,166.9c44.6,44.6,103.9,69.2,166.9,69.3c0.1,0,0.2,0,0.3,0
		c13.8,0,27.6-1.2,41.1-3.6c54-9.5,103.4-37.8,139.1-79.7c36.1-42.5,56.1-96.6,56.1-152.3C1696.6,416.5,1672.1,357.2,1627.5,312.6z"
		/>
	<g>
		<g>
			<g>
				<g>
					<g>
						<g>
							<g>
								<g>
									<g>
										<path class="st9" d="M1310.5,479c-0.1,94,76.1,170.2,170.3,170.4c10.2,0,20.2-0.9,29.9-2.6
											c79.9-14,140.7-83.6,140.8-167.4c0.1-94-76.1-170.2-170.3-170.3C1387.1,308.9,1310.6,385,1310.5,479z"/>
									</g>
								</g>
							</g>
						</g>
						<g>
							<g>
								<g>
									<g>
										<path class="st10" d="M1346.4,480.8c-0.1,71.6,58,129.7,129.8,129.8s130-57.9,130.1-129.5s-58-129.7-129.8-129.8
											S1346.5,409.2,1346.4,480.8z"/>
									</g>
								</g>
							</g>
						</g>
					</g>
				</g>
			</g>
			<g>
				<polygon class="st2" points="1653.5,678 1573.2,681.4 1573.2,241.4 1653.5,238 				"/>
			</g>
		</g>
		<path class="st11" d="M1524.7,478.9c10.2-11,13.8-28.1,8.5-43.7c-5-14.9-16.9-24.5-32.3-26.3v-13.6h-23.4v13h-8.5v-13h-23.4v13
			h-18.4v140.9h19.7v13h23.4v-13h7.2v13h23.4v-13.3c15.4-1.8,27.2-11.3,32.3-26.3C1538.4,507,1534.9,489.9,1524.7,478.9z
			 M1450.6,466.9v-34.7l44.9,0.2l0,0c11.8,0,16.3,8.9,16.6,16.6c0.3,8.1-4.4,17.2-15.1,17.9H1450.6z M1495.5,525.4h-44.9v-34.7
			l46.4,0.1c10.7,0.7,15.4,9.8,15.1,17.9C1511.8,516.5,1507.4,525.4,1495.5,525.4z"/>
	</g>
	<g>
		
			<radialGradient id="SVGID_4_" cx="639.3" cy="1412.5" r="166.6503" gradientTransform="matrix(1 0 0 -1 0 1590)" gradientUnits="userSpaceOnUse">
			<stop  offset="1.629066e-02" style="stop-color:#FBB03B;stop-opacity:0.9"/>
			<stop  offset="6.589614e-02" style="stop-color:#FBB138;stop-opacity:0.8546"/>
			<stop  offset="1" style="stop-color:#FFC107;stop-opacity:0"/>
		</radialGradient>
		<path class="st12" d="M757.4,59.9C725.9,28.4,684,11.1,639.5,11c-0.1,0-0.1,0-0.2,0c-44.5,0-86.3,17.3-117.8,48.6
			c-31.6,31.4-49,73.2-49,117.7c-0.1,44.5,17.3,86.3,48.7,117.8c31.5,31.5,73.3,48.8,117.9,48.9c0.1,0,0.1,0,0.2,0
			c9.7,0,19.5-0.8,29-2.5c38.1-6.7,73-26.7,98.2-56.3c25.5-30,39.6-68.2,39.6-107.5C806.2,133.2,788.9,91.4,757.4,59.9z"/>
		<g>
			<g>
				<g>
					<g>
						<g>
							<g>
								<g>
									<g>
										<path class="st9" d="M488.3,146.9c-16.5,73.8,30.1,147.1,104.1,163.7c8,1.8,16,2.9,24,3.2c65.3,3,125.2-41.1,140-106.9
											C772.9,133,726.3,59.7,652.3,43.2C578.2,26.6,504.9,73,488.3,146.9z"/>
									</g>
								</g>
							</g>
						</g>
						<g>
							<g>
								<g>
									<g>
										<path class="st10" d="M516.2,154.6c-12.6,56.3,22.9,112.1,79.3,124.7c56.4,12.6,112.3-22.8,124.9-79
											C733,144,697.5,88.2,641.1,75.6C584.7,62.9,528.8,98.3,516.2,154.6z"/>
									</g>
								</g>
							</g>
						</g>
					</g>
				</g>
			</g>
			<path class="st11" d="M655.3,185.2c10.5-5.9,17.3-18.1,17.1-31.3c-0.2-12.6-6.9-22.8-18.2-27.9l3.3-10.3l-17.9-5.7l-3.2,9.9
				l-6.5-2.1l3.2-9.9l-17.9-5.7l-3.2,9.9l-14-4.5l-34.3,107.5l15.1,4.8l-3.2,9.9l17.9,5.7l3.2-9.9l5.5,1.7l-3.2,9.9l17.9,5.7
				l3.2-10.2c12.2,2.4,23.5-2,31-12.2C659,210.1,660.5,196.2,655.3,185.2z M601.7,158l8.4-26.4l34.2,11.1l0,0
				c9,2.9,10.3,10.8,8.6,16.7c-1.8,6.3-7.5,12-15.9,10L601.7,158z M621.8,213.6l-34.3-10.9l8.4-26.4l35.3,11.4
				c8,3.2,9.3,11.2,7.2,17.4C636.4,210.8,630.8,216.5,621.8,213.6z"/>
		</g>
	</g>
	<g>
		<g>
			<path class="st13" d="M414,463.5c0,0,55.4-20.4,104.7,18.6L505,504.8c0,0-28.5-31.1-85.3-13.7c-30.7,9.4-56,44.1-57.8,60.9l-29,6
				C336.2,531.1,357.8,483.6,414,463.5z"/>
		</g>
		<g>
			<polygon class="st13" points="522.7,460.8 484.7,511.7 535.9,504.2 			"/>
		</g>
	</g>
	<g class="st14">
		<g>
			<path class="st15" d="M623,495.8c0,0,39.7-87.7,141.3-100.3l10.7,41.9c0,0-68.8-2.4-113.5,83.5c-24.2,46.5-12.8,115.4,4.7,136.9
				l-26.3,40.6C612.7,663.6,582.1,584.1,623,495.8z"/>
		</g>
		<g>
			<polygon class="st15" points="744.1,366.4 759.9,468.8 809.8,400.7 			"/>
		</g>
	</g>
	<g class="st14">
		<g>
			<path class="st15" d="M1232,651.7c0,0-13.8,91-104.1,129l-20.7-35.8c0,0,64-15.6,82.8-106.3c10.2-49.1-18.2-109.5-39.8-124.8
				l13.7-44.2C1198,494.6,1246.7,559.8,1232,651.7z"/>
		</g>
		<g>
			<polygon class="st15" points="1154,802.2 1112.9,712.1 1084.7,787.7 			"/>
		</g>
	</g>
	<g>
		<g>
			<path class="st13" d="M1379.8,827.6c0,0-47,35.6-105.5,12.7l6.5-25.7c0,0,36.4,21.5,85.6-11.8c26.6-18,40.7-58.4,37.6-75.1
				l26-14.2C1434.4,740.2,1427.6,792,1379.8,827.6z"/>
		</g>
		<g>
			<polygon class="st13" points="1276.6,861.9 1298.1,802.1 1251.2,824.2 			"/>
		</g>
	</g>
	<g>
		<g>
			<g>
				<path class="st2" d="M796.6,608.4c-6.1-14.3-12.2-28.7-15.3-43.9s-3.2-31.4,2.7-45.8c5.9-14.4,18.3-26.5,33.5-29.5
					c9.4-1.9,19.4-0.3,28.4-3.6c10.4-3.8,17.4-13.4,25.5-21c12.7-11.8,29.2-19.4,46.5-21.2c9-0.9,18.5-0.3,26.6,3.8
					c8.1,4.1,14.6,12.1,15.3,21.1c10.6-3.6,21.4-7.2,32.6-7.8c11.2-0.7,23,1.9,31.4,9.3c8.4,7.4,12.3,20.4,7.3,30.4
					c9.1-5.3,22-1.2,27.6,7.8c5.6,8.9,4.3,21.2-1.8,29.8s-20.3,16.3-30.8,17.7s-22.6,2.4-32.6-0.9"/>
				<g>
					<g>
						<g>
							<g>
								<g>
									<g>
										<g>
											<g>
												<g>
													<path class="st16" d="M822.1,910.2l150-12c0.9-17.5-0.3-85.3-0.3-85.3s62.4-9.7,63.2-72.1s-10-205.7-10-205.7l0,0
														c-72.2-31-155.6-20.6-217.9,27.4l-9.2,7.1L822.1,910.2z"/>
												</g>
											</g>
										</g>
									</g>
								</g>
							</g>
						</g>
						<g>
							<g>
								<g>
									<g>
										<g>
											<path class="st16" d="M805.5,634.3c-1.1-0.5-42.9-12.7-41.5,30s43.9,32.5,43.9,31.3C807.9,694.3,805.5,634.3,805.5,634.3
												z"/>
										</g>
									</g>
								</g>
							</g>
						</g>
					</g>
				</g>
				<path class="st2" d="M1028,554.3c0,0-41.8,14-91-4.6c-32.3-12.3-69-16.1-76.2-9.1c-7.3,7-5.7,38.9-35.3,51.2
					c0,0,8.2,60.3-16.1,60.6s-18.7-94.9-18.7-94.9l56.1-34.8L910,504l60.3-6.1l57.8,11.6L1028,554.3L1028,554.3z"/>
			</g>
			<g>
				<g>
					<g>
						<g>
							<path class="st16" d="M1189.2,1053.7c0,0,108.7,111.9,147,95.3c104.2-45.2,188.8-140.3,217.9-174.5c1.2-6.4,2.5-14,3.6-23
								c0.9-7.7,0.4-15.6-1.3-23.2c-2.1-9.3-5.4-21.5-9.2-27.7c-4.7-7.7,2.1-16.9,9.6-13.8c7.5,3.2,25.7,23.4,29.5,51.9
								c0,0,3.2,11.7,16.2,7.4c18.9-6.2,82.9-31.1,94.3-33.7c10.2-2.4,22.3-1.8,15.5,5.6s-54,35.1-54,35.1s61.2-37.4,66.3-28.3
								c3.5,6.3-9.4,20.9-52.4,41.7c0,0,50.7-30.5,59.3-29.5c19.5,2.3-41.1,39.5-41.1,39.5c42.7-25.7,40.7-27.4,45.3-22.5
								c3.5,3.7-4,12.3-25.1,29.4c-17.1,13.9-32,31.7-56.8,54.3l0,0c0,0-257.2,357.5-418.9,247.8c-87.2-59.2-111.1-89-160.6-133.8"
								/>
						</g>
					</g>
				</g>
			</g>
			<g>
				<path class="st16" d="M545.9,1142.4c0,0-54.8,146-96.5,146.1c-113.5,0.3-229.2-52.9-269.5-72.6c-3.7-5.4-7.9-11.8-12.5-19.6
					c-3.9-6.7-6.6-14.1-8.1-21.8c-1.8-9.3-3.7-21.9-2.7-29.1c1.3-8.9-8.7-14.6-14.3-8.8c-5.6,5.9-14.2,31.7-6.2,59.4
					c0,0,1.7,12-11.9,13.3c-19.8,1.9-88.4,4.7-99.9,6.9c-10.3,1.9-21.1,7.3-12,11.4c6.7,3,37.2,7.2,53.4,9.2
					c-19.7-2.3-61.2-6.1-61.9,1.9c-0.4,4.6,6.9,9.7,24.8,13.2c-12.2-0.8-23.3-1-26.3,0.8c-16.9,9.9,53.5,19.7,53.5,19.7
					c-49.4-6.5-48.3-8.8-50.5-2.4c-1.7,4.8,8.6,9.6,34.7,16.9c21.2,5.9,42,16.3,73.8,27c0,0,378.8,224.6,483,59.3
					c56.2-89.1,66.2-126,93.6-187L545.9,1142.4z"/>
			</g>
			<g>
				<g>
					<path class="st13" d="M1317.4,1149.2l-179.2-200c-49.9-49-76.5-63.7-146-71.9c-11.4-1.3-20.4-2.2-26.9-3
						c-53.3,16.4-106.6,16.4-159.9-0.1l0,0c-24.7,1-45.2,8.7-66.2,12.7c-66.2,12.7-113.9,60.9-127.1,105.5l0,0l-149.4,291.8
						l126.2,106L704,1207.3l7,194.7l-3.2,66.1c-2.1,43.2,32.3,79.5,75.6,79.6l282.2,0.8c43.8,0.1,78.6-36.7,76-80.4l-15.4-261
						l119.1,96.9L1317.4,1149.2z"/>
				</g>
				<path class="st13" d="M466.3,1283.5c-6.3-0.6-8.6-9.1-6.6-15c2.1-6,6.7-10.8,8.7-16.7c1.2-3.4,1.7-7.5,4.6-9.5
					c3.1-2.1,7.9-2,10.7,0.5c17.5,14.9,30.3,29.5,49.3,45.6c18.3,15.5,38.1,35.5,57.4,49.7c10.9,8,24.2,16.4,25.7,29.8
					c1.2,11.1-8.1,22.3-19.3,23.1c-11,0.8-20.6-7.1-28.9-14.5c-34.5-30.8-69-61.6-103.6-92.3"/>
				<g>
					<path class="st13" d="M1251,1294.1c-2.9,5.8-7.9,8.8-14.2,8.1c-6.3-0.7-12-4.1-18.3-4.8c-3.6-0.4-7.7,0-10.3-2.4
						c-2.7-2.5-2.5-6.8-1.9-10.5c4-23.7,16.8-44.9,30.6-64.6c13.8-19.7,28.9-38.7,38.5-60.7c5.4-12.4,10.6-27.3,23.4-31.7
						c10.6-3.7,23.6,3,26.8,13.7c3.2,10.6-2.3,21.7-7.7,31.4C1295.6,1213.1,1273.3,1253.6,1251,1294.1"/>
					<g>
						<path class="st2" d="M705.1,1101.9c-0.3-6.6-0.3-7.9-2.1-7.9l0,0c-1.7,0-1.8,1.4-2.1,7.9c-0.2,4.2-0.4,10.2-0.6,17.7
							c-0.4,15.6-0.6,36.3-0.7,58.4c-0.1,22.1,0,42.8,0.2,58.4c0.1,7.6,0.2,13.6,0.4,17.7c0.3,6.6,0.3,7.9,2.1,7.9
							c1.7,0,1.8-1.4,2.1-7.9c0.2-4.2,0.4-10.1,0.6-17.7c0.4-15.6,0.6-36.3,0.7-58.4c0.1-22.1,0-42.8-0.2-58.4
							C705.4,1112.1,705.3,1106.1,705.1,1101.9z"/>
						<path class="st2" d="M1139.1,1332.3l-1.5-27.5c-1.4-24.2-3.5-56.4-6-90.7c-2.4-34.2-4.9-66.4-6.9-90.6l-2.4-27.4
							c-0.3-3.3-0.6-5.8-0.8-7.5c-0.3-2.7-0.5-4-2.1-3.9s-1.6,1.5-1.5,4.1c0,1.7,0.1,4.2,0.2,7.6l1.5,27.5c1.4,24.2,3.5,56.4,6,90.7
							c2.4,34.2,4.9,66.4,6.9,90.6l2.4,27.4c0.3,3.3,0.6,5.8,0.8,7.5c0.3,2.6,0.5,3.9,1.9,3.9c0.1,0,0.1,0,0.2,0l0,0
							c1.6-0.1,1.6-1.5,1.5-4.1C1139.3,1338.1,1139.3,1335.6,1139.1,1332.3z"/>
						<path class="st2" d="M605.4,1347.8c-3.1-2.6-7.7-6.3-14.1-11.1l-1.8-1.4c-5.6-4.3-12-9.1-18.5-15.2l-23.8-21.9
							c-16.4-15-31.9-29.1-43.6-39.5l-13.4-11.8c-1.6-1.4-2.9-2.5-3.8-3.2c-1.3-1.1-2.4-1.9-3.4-0.8c-1.1,1.1-0.1,2.2,1.1,3.4
							c0.8,0.8,1.9,2,3.5,3.5l12.9,12.3c11.5,10.8,26.8,25,43.2,40l23.9,21.8c7.1,6.6,14.4,11.8,20.2,16l0.7,0.5
							c7,4.9,11.4,8.2,14.4,10.4l1.6,1.2c1.2,0.9,2.1,1.6,2.7,2c0.6,0.4,1.3,0.9,1.9,0.9c0.4,0,0.7-0.1,1.1-0.5
							c0.3-0.3,0.4-0.7,0.4-1.1C610.6,1352.8,610.6,1352.3,605.4,1347.8z"/>
						<path class="st2" d="M1287.4,1124.7L1287.4,1124.7c-1.3-0.8-2.1,0.3-3.1,1.7c-0.7,0.9-1.6,2.3-2.9,4c-2.5,3.6-6,8.8-9.9,15
							c-5.7,8.9-17.2,27.4-30.2,51.1c-12.9,23.8-22.2,43.5-26.5,53.1c-3.1,6.7-5.5,12.4-7.2,16.5c-0.8,2-1.4,3.5-1.8,4.6
							c-0.6,1.6-1.1,2.9,0.3,3.5c0.2,0.1,0.5,0.2,0.7,0.2c1,0,1.5-1.1,2.2-2.3c0.5-1,1.3-2.5,2.2-4.4l7.8-16.1
							c8.8-18.1,17.9-35.8,27-52.5s19-34,29.5-51.2l9.3-15.3c1.1-1.8,2-3.3,2.5-4.2C1288,1126.8,1288.7,1125.5,1287.4,1124.7z"/>
					</g>
				</g>
			</g>
		</g>
		<path class="st2" d="M1028.7,687.2c-25.5-3.3-68.9-4.7-101.6,21.4c-52,41.4-84.9-15.9-87-25.6c-0.2-0.7-0.2-0.8-0.2-0.9v-3.8
			l-3.4-37.4c-1.1-12.7-16.9-18.2-25.5-8.8c-0.3,0.4-0.7,0.7-1,1c-3.6,3.2-5.3,8-4.8,12.8c3,31.2,1.5,83.2,0.8,111.5
			c-0.2,6.6,4.4,12.3,11.7,14.9c54.4,19.2,127,63.4,161.7,67.5c11.5,1.3,27-1,31.1-10.1c20-44.7,33-96.8,38.3-120
			C1050.7,700.4,1040.1,688.7,1028.7,687.2z"/>
	</g>
</g>
</svg>
