<?xml version="1.0" encoding="utf-8"?>
<!-- Generator: Adobe Illustrator 24.0.2, SVG Export Plug-In . SVG Version: 6.00 Build 0)  -->
<svg version="1.1" id="Слой_1" xmlns="http://www.w3.org/2000/svg" xmlns:xlink="http://www.w3.org/1999/xlink" x="0px" y="0px"
	 width="1824px" height="1480.7px" viewBox="0 0 1824 1480.7" style="enable-background:new 0 0 1824 1480.7;" xml:space="preserve"
	>
<style type="text/css">
	.st0{fill:url(#SVGID_1_);}
	.st1{fill:#7BEF8C;}
	.st2{fill:#33C14D;}
	.st3{fill:#6BF7C9;}
	.st4{fill:#267031;}
	.st5{fill:#F5F5F5;}
	.st6{fill:#343A40;}
	.st7{fill:url(#SVGID_2_);}
	.st8{fill:#08C88D;}
	.st9{fill:#F7D4CD;}
	.st10{fill:#007BFF;}
	.st11{fill:#E1E3E5;}
	.st12{fill:#B57B71;}
	.st13{fill:url(#SVGID_3_);}
	.st14{fill:#FFC107;}
	.st15{fill:#FFD77D;}
	.st16{fill:#A07302;}
	.st17{fill:url(#SVGID_4_);}
	.st18{opacity:0.8;fill:url(#SVGID_5_);enable-background:new    ;}
	.st19{fill:url(#SVGID_6_);}
</style>
<g id="Background">
</g>
<g>
	<g>
		
			<radialGradient id="SVGID_1_" cx="184.6837" cy="-1344.6246" r="180.8434" gradientTransform="matrix(0.9919 -0.1273 7.060234e-02 0.55 100.6896 1362.4546)" gradientUnits="userSpaceOnUse">
			<stop  offset="1.629077e-02" style="stop-color:#28A745"/>
			<stop  offset="1" style="stop-color:#28A745;stop-opacity:0"/>
		</radialGradient>
		<polygon class="st0" points="346,470.3 0,524.5 31.9,728.5 377.9,674.4 		"/>
		<g>
			<g>
				
					<rect x="45.7" y="520.6" transform="matrix(0.988 -0.1547 0.1547 0.988 -89.5726 36.667)" class="st1" width="290.2" height="146.5"/>
				
					<rect x="54.2" y="527.2" transform="matrix(0.988 -0.1547 0.1547 0.988 -89.5646 36.6664)" class="st2" width="273.2" height="133.2"/>
			</g>
			<g>
				<g>
					<path class="st1" d="M44.7,566.5l-2.9-18.4l18.4-2.9l0.1,0.9c1.5,9.7-5.1,18.8-14.8,20.3L44.7,566.5z"/>
					<path class="st1" d="M81.4,680.1L63,683l-3-18.4l0.9-0.1c9.7-1.5,18.8,5.1,20.3,14.8L81.4,680.1z"/>
				</g>
				<g>
					<path class="st1" d="M337,621.2l2.9,18.4l-18.4,2.9l-0.1-0.9c-1.5-9.7,5.1-18.8,14.8-20.3L337,621.2z"/>
					<path class="st3" d="M300.3,507.5l18.4-2.9l2.9,18.4l-0.9,0.1c-9.7,1.5-18.8-5.1-20.3-14.8L300.3,507.5z"/>
				</g>
			</g>
			<g>
				
					<ellipse transform="matrix(0.988 -0.1547 0.1547 0.988 -89.5648 36.6664)" class="st1" cx="190.8" cy="593.8" rx="45.7" ry="61.6"/>
				<g>
					<path class="st4" d="M102.9,602.1c-3.6-0.5-7-0.9-9.3-1.8c-1.6-0.6-2.5-1.5-2.7-2.9c-0.2-1.5,0.3-2.8,1.7-3.9
						c1.2-0.8,3-1.4,5.6-1.6c1.1-0.1,2.1-0.1,3.2-0.1c3.5,0.2,7.3,1.2,11.3,2.9l2.7-11.5c-4.5-2.2-10.1-3.2-15.7-3.2l-1.2-8.5
						l-9,1.4l1.4,8.1c-10.6,2.7-15,10-13.8,18.1c1.6,10.8,10.6,13.1,18.6,14.3c3.5,0.5,6.9,0.9,9.3,1.7c2.1,0.7,3.5,1.7,3.8,3.5
						c0.2,1.7-0.5,3-2.7,4c-1.2,0.5-2.8,0.9-4.8,1c-1.3,0.1-2.6,0.1-4,0c-4.6-0.3-9.4-1.7-13.2-3.8l-3,11.4c4.4,2.6,11.1,4.1,18,4.2
						l1.5,9l9-1.4l-1.6-8.6c11.3-2.6,15.8-10.1,14.7-18.2C120.7,605.3,111,603.3,102.9,602.1z"/>
				</g>
				<g>
					<path class="st4" d="M283.5,573.8c-3.6-0.5-7-0.9-9.3-1.8c-1.6-0.6-2.5-1.5-2.7-2.9c-0.2-1.5,0.3-2.8,1.7-3.9
						c1.2-0.8,3-1.4,5.6-1.6c1.1-0.1,2.1-0.1,3.2-0.1c3.5,0.2,7.3,1.2,11.3,2.9l2.7-11.5c-4.5-2.2-10.1-3.2-15.7-3.2l-1.2-8.5
						l-9,1.4l1.4,8.1c-10.6,2.7-15,10-13.8,18.1c1.6,10.8,10.6,13.1,18.6,14.3c3.5,0.5,6.9,0.9,9.3,1.7c2.1,0.7,3.5,1.7,3.8,3.5
						c0.2,1.7-0.5,3-2.7,4c-1.2,0.5-2.8,0.9-4.8,1c-1.3,0.1-2.6,0.1-4,0c-4.6-0.3-9.4-1.7-13.2-3.8l-3,11.4c4.4,2.6,11.1,4.1,18,4.2
						l1.5,9l9-1.4l-1.6-8.6c11.3-2.6,15.8-10.1,14.7-18.2C301.3,577,291.7,575,283.5,573.8z"/>
				</g>
			</g>
		</g>
	</g>
	<path class="st5" d="M1763.4,999.5c-146.5,342.4-533.2,489.5-836.2,464.4c-82.7-6.8-249.2-20.6-379.1-143.5
		C298.5,1084.4,337,591,575.9,300.5c30.8-37.4,243.7-288,575.6-284.7c243,2.5,413.5,139.7,434.3,156.8
		c26.2,21.6,84,72.9,136.1,154.4C1844.1,518.4,1854.9,785.5,1763.4,999.5z"/>
	<g>
		<rect x="827" y="453.6" class="st6" width="26.4" height="121.2"/>
		<rect x="868" y="422.8" class="st6" width="29.7" height="152"/>
		<rect x="912.4" y="393.6" class="st6" width="33.7" height="181.2"/>
		<polyline class="st6" points="963.2,574.9 963.2,365.7 997,365.7 997,574.9 		"/>
	</g>
	<g>
		
			<radialGradient id="SVGID_2_" cx="2398.4146" cy="-2127.094" r="180.8157" gradientTransform="matrix(0.814 -0.5808 0.3221 0.4514 321.0039 2908.8362)" gradientUnits="userSpaceOnUse">
			<stop  offset="1.629077e-02" style="stop-color:#28A745"/>
			<stop  offset="1" style="stop-color:#28A745;stop-opacity:0"/>
		</radialGradient>
		<polygon class="st7" points="1665.6,367.7 1386.3,578.9 1510.8,743.6 1790.1,532.5 		"/>
		<g>
			<g>
				
					<rect x="1423.3" y="500.8" transform="matrix(0.8251 -0.565 0.565 0.8251 -49.9917 986.5502)" class="st1" width="290.2" height="146.5"/>
				
					<rect x="1431.7" y="507.5" transform="matrix(0.8251 -0.565 0.565 0.8251 -50.0544 986.498)" class="st2" width="273.2" height="133.2"/>
			</g>
			<g>
				<g>
					<path class="st8" d="M1424.7,612.3l-10.5-15.4l15.4-10.5l0.5,0.7c5.5,8.1,3.5,19.1-4.6,24.7L1424.7,612.3z"/>
					<path class="st8" d="M1506.7,699l-15.4,10.5l-10.5-15.4l0.7-0.5c8.1-5.5,19.1-3.5,24.7,4.6L1506.7,699z"/>
				</g>
				<g>
					<path class="st1" d="M1712.1,535.8l10.5,15.4l-15.4,10.5l-0.5-0.7c-5.5-8.1-3.5-19.1,4.6-24.7L1712.1,535.8z"/>
					<path class="st1" d="M1630,449l15.4-10.5l10.5,15.4l-0.7,0.5c-8.1,5.5-19.1,3.5-24.7-4.6L1630,449z"/>
				</g>
			</g>
			<g>
				<path class="st1" d="M1533.6,523.2c20.8-14.2,53.3-3,72.5,25c19.2,28.1,17.9,62.4-2.9,76.6c-20.8,14.2-53.3,3-72.5-25
					S1512.8,537.5,1533.6,523.2z"/>
				<g>
					<path class="st8" d="M1492.6,619.4c-3.6,1.1-6.7,2.2-9.2,2.4c-1.7,0.1-2.9-0.3-3.7-1.5c-0.8-1.3-1-2.7-0.1-4.2
						c0.7-1.2,2.1-2.5,4.4-3.9c0.9-0.5,1.8-1,2.9-1.4c3.2-1.3,7.1-2.1,11.4-2.2l-2.5-11.5c-5.1-0.1-10.6,1.4-15.5,3.9l-4.8-7.1
						l-7.5,5.1l4.7,6.8c-8.4,7-9.2,15.5-4.7,22.3c6,9,15.1,7.3,22.9,4.9c3.4-1,6.6-2.1,9.1-2.5c2.2-0.3,3.9,0.1,4.9,1.5
						c0.9,1.4,0.9,3-0.7,4.7c-0.9,1-2.1,2-3.9,3.1c-1.2,0.7-2.4,1.3-3.6,1.8c-4.3,1.7-9.3,2.5-13.5,2.2l2.2,11.6
						c5.1,0.5,11.7-1,18-4l5.2,7.5l7.5-5.1l-5.1-7.1c9-7.1,10-15.9,5.4-22.7C1510,614.6,1500.5,616.9,1492.6,619.4z"/>
				</g>
				<g>
					<path class="st4" d="M1643.4,516.1c-3.6,1.1-6.7,2.2-9.2,2.4c-1.7,0.1-2.9-0.3-3.7-1.5c-0.8-1.3-1-2.7-0.1-4.2
						c0.7-1.2,2.1-2.5,4.4-3.9c0.9-0.5,1.8-1,2.9-1.4c3.2-1.3,7.1-2.1,11.4-2.2l-2.5-11.5c-5.1-0.1-10.6,1.4-15.5,3.9l-4.8-7.1
						l-7.5,5.1l4.7,6.8c-8.4,7-9.2,15.5-4.7,22.3c6,9,15.1,7.3,22.9,4.9c3.4-1,6.6-2.1,9.1-2.5c2.2-0.3,3.9,0.1,4.9,1.5
						c0.9,1.4,0.9,3-0.7,4.7c-0.9,1-2.1,2-3.9,3.1c-1.2,0.7-2.4,1.3-3.6,1.8c-4.3,1.7-9.3,2.5-13.5,2.2l2.2,11.6
						c5.1,0.5,11.7-1,18-4l5.2,7.5l7.5-5.1l-5.1-7.1c9-7.1,10-15.9,5.4-22.7C1660.9,511.3,1651.3,513.6,1643.4,516.1z"/>
				</g>
			</g>
		</g>
	</g>
	<path class="st9" d="M1.5,149.8c0,0,142.7,31.5,229.5,71.5c17.2,8,31,21.9,38.8,39c26,56.9,103.6,199.4,254.2,267.5
		c-21.7,28.8-56.6,88.7-71.8,189.3c-90.4-67.3-168.5-179.7-206-364.1c0,0-28.5,15.5-64.2-1.8c-18.8-9.1-40.5-22.1-56.8-32.3
		c-16.2-10.2-28.3-25.9-33-44.4c-6.2-24.3-2.6-45.8-2.6-68.7L16.2,183C16.2,183-5.9,174.7,1.5,149.8z"/>
	<path class="st10" d="M452.1,717.1c15.2-100.6,50.1-160.5,71.8-189.3c93.5,42.3,215.2,55.8,370.2,2.1c14.3-4.9,29.2-7.8,44.3-8.7
		c82.5-4.8,354.3-13.7,579.3,60.7c47.3,15.6,85.7,50.6,105.4,96c60.8,139.6,159.4,457.6-114.1,618.2c-21-52.2-45.3-94.1-66-124.9
		c44-74.3,57.1-175.8-21.1-307.9c-57,153.9-83.7,378.4-89.3,477.8c-1.8,32.7,3.9,65.4,16.7,95.6l1.4,3.3c2.7,6.5-1,13.9-7.9,15.4
		c-154,34.6-314.1,25.2-361.9,21.2c-8.5-0.7-15.6-6.8-17.6-15.1c-74.9-315.5-75-530.6-56.7-666.7
		C836.6,810.4,622.4,843.8,452.1,717.1z"/>
	<path class="st6" d="M906.3,805.5c4.2,0,7.8-3.1,8.4-7.4c17.6-132.8,53.1-189.9,53.4-190.4c2.5-4,1.3-9.2-2.6-11.7
		c-4-2.5-9.2-1.3-11.7,2.6c-1.5,2.4-37.8,60.9-55.9,197.3c-0.6,4.7,2.7,8.9,7.3,9.5C905.6,805.4,905.9,805.5,906.3,805.5z"/>
	<path class="st9" d="M1286.3,337.3c0,0,15.6,164.7,29.3,213.4c2.1,7.4-1.1,15.2-7.8,19c-23.3,13.3-79.1,35-155.5-2.4
		c-12.4-6.1-19.8-19-19.2-32.6l6.7-159.1L1286.3,337.3z"/>
	<g>
		<path class="st9" d="M1136.4,126.7c0,0-49.8,114.4-53.2,174.5c-3.3,60.1-16.3,99,53.2,111.1c69.4,12.1,128-22.5,159.7-82.3
			c0,0,49.7-92.2,38.5-129.9C1323.4,162.3,1136.4,126.7,1136.4,126.7z"/>
		<path class="st6" d="M1272.3,286.9l-4-1.7c-5-2.2-7.2-8.2-4.7-13.1c9.8-18.9,28.9-62.3,4.2-72.4c-31.8-13-157.7-38.7-184.9-83.4
			c-26.1-42.9-3-98.4,31.8-114.1c2.3-1.1,5.1-0.2,6.3,2l2.9,5.5c2,3.8,7.5,3.2,8.7-0.9l0,0c1.1-3.9,6.3-4.7,8.5-1.2
			c8.4,13.4,30.9,35,91.2,46.2c85.7,15.8,142.3,50.5,143.7,109.7c0.1,3.8,4.1,5.9,7.3,3.9c6.3-3.9,16.4-5.7,30,5.7
			c23.5,19.8,13.9,71.1-37.7,113.3c-2.4,2-2.4,5.8,0.2,7.6c9.4,6.1,23.3,20.6-12.8,39.9c-37.4,20-65.3,18.3-76,16.6
			c-2.7-0.4-4.4-3-3.8-5.7l11.5-52c0.6-2.9-1.6-5.7-4.6-5.7h-17.8V286.9z"/>
		<path class="st11" d="M1270.2,297.9c0,0,19-73.1,51.8-52.6s-17,81.9-43.4,84.6L1270.2,297.9z"/>
	</g>
	<path class="st12" d="M227.2,270.7c2.1-2.5,1.9-6.2-0.7-8.5l-33.1-28.4c-0.8-0.7-1.8-1.1-2.8-1.3l-62.3-12.5
		c-0.4-0.1-0.8-0.1-1.2-0.1c-2,0-3.8,1-4.9,2.6c-4.5,6.6-6,13-4.6,19c1.7,7.2,7.5,13.5,17.5,19.2c14,7.8,54,55.1,68.2,72.7
		c1.2,1.4,2.9,2.2,4.7,2.2c1.4,0,2.7-0.5,3.8-1.3c2.6-2.1,2.9-5.9,0.8-8.5c-0.5-0.6-52.4-64.6-71.7-75.5
		c-4.7-2.6-10.6-6.8-11.7-11.5c-0.1-0.4-0.5-1.8,0.1-4l0.6-2.3l56.7,11.4l31.9,27.4C221.2,273.6,225,273.3,227.2,270.7z"/>
	<path class="st9" d="M1271.6,1408.4l-224.8-4.9c0,0,196-55.4,208.2-40.3c0,0,121.5-79.8,188.1-192.2c20.7,30.8,45,72.7,66,124.9
		C1449.3,1331,1371,1391.9,1271.6,1408.4z"/>
	<path class="st9" d="M1277.9,1369.5c0,0,4.6,89.6-112.9,76.6c-63.9-7.1-167.1-66.6-167.1-66.6S1266.8,1378.7,1277.9,1369.5z"/>
	<path class="st6" d="M1042.2,271c-1.8,23.7-5,77.3,0.8,126c1.2,9.9,15.3,16.7,26.7,18.9c34.3,6.4,116.8-14.2,174.5-16.3
		c7.7-0.3,13.8-4.4,15.6-10.7c7.8-27.2,21.8-77.3,34-106.2c1.9-4.4,1.7-9.5-0.8-13.6c-0.2-0.4-0.5-0.8-0.7-1.3
		c-5.4-11.5-22.1-11-27,0.8l-14.4,34.7l-1.1,3.6c0,0.1-0.1,0.2-0.5,0.8c-4.9,8.6-53.4,53.5-90.7-1.5c-23.4-34.7-65.3-46.2-90.6-50.7
		C1056.8,253.5,1043.2,261.5,1042.2,271z"/>
	<g>
		
			<radialGradient id="SVGID_3_" cx="1167.35" cy="313.7775" r="321.9255" gradientTransform="matrix(1 0 0 1 0 845.3617)" gradientUnits="userSpaceOnUse">
			<stop  offset="1.629066e-02" style="stop-color:#FBB03B;stop-opacity:0.9"/>
			<stop  offset="6.589614e-02" style="stop-color:#FBB138;stop-opacity:0.8546"/>
			<stop  offset="1" style="stop-color:#FFC107;stop-opacity:0"/>
		</radialGradient>
		<path class="st13" d="M1395.5,931.9c-60.7-60.8-141.5-94.4-227.6-94.5c-0.1,0-0.3,0-0.4,0c-85.9,0-166.6,33.3-227.5,93.8
			c-61.1,60.8-94.6,141.5-94.8,227.5s33.3,166.8,94.1,227.6c60.8,60.8,141.7,94.4,227.6,94.5c0.1,0,0.3,0,0.4,0
			c18.8,0,37.6-1.6,56-4.9c73.6-13,141-51.5,189.7-108.7c49.2-58,76.5-131.7,76.5-207.7C1489.7,1073.6,1456.3,992.7,1395.5,931.9z"
			/>
		<g>
			<g>
				<g>
					<g>
						<g>
							<g>
								<g>
									<g>
										<path class="st14" d="M1406.2,1138.2c0.1,128.2-103.8,232.1-232.2,232.4c-13.9,0-27.5-1.2-40.8-3.5
											c-109-19.1-191.9-114-192-228.3c-0.1-128.2,103.8-232.1,232.2-232.2C1301.8,906.3,1406.1,1010,1406.2,1138.2z"/>
									</g>
								</g>
							</g>
						</g>
						<g>
							<g>
								<g>
									<g>
										<path class="st15" d="M1350.9,1140.7c0.1,97.6-79.1,176.9-177,177s-177.3-79-177.4-176.6c-0.1-97.6,79.1-176.9,177-177
											C1271.4,963.9,1350.8,1043,1350.9,1140.7z"/>
									</g>
								</g>
							</g>
						</g>
					</g>
				</g>
				<g>
					<g>
						<g>
							<g>
								<g>
									<g>
										<path class="st16" d="M1184,1244.2l0.5,30.8l-27.5,0.4l-0.4-30c-27.3-1.2-53.6-9.4-69-21l14.6-33.8
											c13.9,10,34,17,53.7,18.7l-0.7-46.1c-30.7-7-65-16.6-65.6-56c-0.4-29.2,20.3-54.7,63.8-60.3l-0.5-30.5l27.5-0.4l0.4,30
											c20.7,1.4,40.9,6.5,56.2,16l-13.2,34.1c-14.2-7.8-28.6-12.3-42.4-13.6l0.7,46.9c30.7,6.7,64.5,16.4,65,55.2
											C1247.7,1213.1,1227.1,1238.3,1184,1244.2z M1154.6,1122.8l-0.7-39.1c-14.6,3.5-20.2,11.6-20,20.7
											C1134,1114,1142.3,1119.1,1154.6,1122.8z M1203,1188.4c-0.1-9.7-8.2-14.7-20.2-18.7l0.5,38
											C1197.1,1204.5,1203.1,1197.3,1203,1188.4z"/>
									</g>
								</g>
							</g>
						</g>
					</g>
				</g>
			</g>
		</g>
	</g>
	<g>
		<path class="st6" d="M712,937.4c2.7,20.2-7.6,36.3-29.1,39c-21.5,2.9-35.7-7.9-38.7-30.2c-2.4-19.2,6.8-35.9,29.9-38.8
			C694.7,904.7,709.1,915.6,712,937.4z M668.9,943c1.5,11.5,5.4,16.6,11.7,15.8c6.1-0.8,9.1-5.8,7.5-18.2c-1.8-13-6.1-16-11.7-15.3
			C670.5,926,667.3,930.9,668.9,943z M687,1028.4L747.6,900l18.7-2.4L705.6,1026L687,1028.4z M809.2,979.3
			c2.7,20.2-7.6,36.3-29.1,39c-21.5,2.9-35.7-7.9-38.7-30.2c-2.4-19.2,6.8-35.9,29.9-38.8C792,946.5,806.4,957.5,809.2,979.3z
			 M766.2,985c1.5,11.5,5.4,16.6,11.7,15.8c6.1-0.8,9.1-5.8,7.5-18.3c-1.8-13-6.1-16-11.7-15.3C767.8,967.9,764.5,972.9,766.2,985z"
			/>
	</g>
	<g>
		
			<radialGradient id="SVGID_4_" cx="2772.3618" cy="3512.1711" r="120.9617" gradientTransform="matrix(0.9461 -0.324 -0.1753 -0.512 -346.0131 2881.6821)" gradientUnits="userSpaceOnUse">
			<stop  offset="1.629066e-02" style="stop-color:#FBB03B;stop-opacity:0.9"/>
			<stop  offset="0.3561" style="stop-color:#FDB823;stop-opacity:0.5891"/>
			<stop  offset="0.7432" style="stop-color:#FEBF0F;stop-opacity:0.2349"/>
			<stop  offset="1" style="stop-color:#FFC107;stop-opacity:0"/>
		</radialGradient>
		<path class="st17" d="M1727.4,113.7c-25.6-4.3-56.6-0.9-87.2,9.6c-0.1,0-0.1,0-0.1,0c-30.6,10.5-57.1,26.7-74.7,45.8
			c-17.7,19.1-24.3,38.7-18.7,55.3s22.9,28,48.4,32.3c25.6,4.3,56.5,0.9,87.2-9.6c0.1,0,0.1,0,0.1,0c6.7-2.3,13.3-4.9,19.6-7.7
			c25.3-11.4,46.7-27.1,60.3-44c13.7-17.1,18.5-34.7,13.5-49.3C1770.2,129.5,1753,118,1727.4,113.7z"/>
		<g>
			<g>
				<path class="st14" d="M1731.1,114l6.3,19.7c1.3,4.1,1,8.6-0.6,13.3c-0.3,1-0.8,2.1-1.3,3.2c-2.7,5.6-7.3,11.3-13.5,16.9
					c-0.6,0.6-1.2,1.2-1.8,1.7c-5.2,4.5-11.3,8.9-18.4,13c-0.6,0.4-1.3,0.8-2,1.2c-6.6,3.7-13.8,7.3-21.5,10.4
					c-0.6,0.3-1.4,0.6-2.1,0.9c-4.4,1.7-9,3.3-13.7,4.8c-4.4,1.4-8.8,2.6-13.1,3.7c-0.7,0.2-1.5,0.4-2.2,0.5
					c-9.4,2.2-18.5,3.7-27,4.4c-0.8,0.1-1.6,0.1-2.3,0.2c-8.2,0.5-15.8,0.3-22.6-0.6c-0.9-0.1-1.7-0.2-2.5-0.3
					c-8-1.3-14.8-3.5-19.9-6.7c-1.2-0.7-2.2-1.5-3.1-2.3c-3.1-2.5-5.2-5.5-6.3-9l-6.3-19.7l12.8-4c11.9-15.7,37.1-31.7,68.5-41.6
					c31.4-10,61.3-11.5,80-5.5L1731.1,114z"/>
				<g>
					<path class="st16" d="M1726.7,115.4l10,31.7c-0.3,1-0.8,2.1-1.3,3.2l-10.8-34.2L1726.7,115.4z"/>
					<path class="st16" d="M1708.3,124.5l13.5,42.7c-0.6,0.6-1.2,1.2-1.8,1.7l-13.8-43.6L1708.3,124.5z"/>
					<path class="st16" d="M1687.7,137.7l14,44.2c-0.6,0.4-1.3,0.8-2,1.2l-14.1-44.6L1687.7,137.7z"/>
					<path class="st16" d="M1664,148.8l14.2,44.7c-0.6,0.3-1.4,0.6-2.1,0.9l-14.2-45L1664,148.8z"/>
					<path class="st16" d="M1636,161.2l13.2,41.7c-0.7,0.2-1.5,0.4-2.2,0.5l-13.1-41.5L1636,161.2z"/>
					<path class="st16" d="M1607.1,166.8l13,40.9c-0.8,0.1-1.6,0.1-2.3,0.2l-12.9-40.4L1607.1,166.8z"/>
					<path class="st16" d="M1583.5,170.7l11.6,36.6c-0.9-0.1-1.7-0.2-2.5-0.3l-11.3-35.6L1583.5,170.7z"/>
					<path class="st16" d="M1561.3,164.1l11.5,36.2c-1.2-0.7-2.2-1.5-3.1-2.3l-10.5-33.2L1561.3,164.1z"/>
				</g>
			</g>
			<g>
				<path class="st15" d="M1632.2,103.7c48-15.2,92.4-10.7,99,10.2s-27,50.2-75,65.4s-92.4,10.7-99-10.2
					C1550.6,148.3,1584.2,119,1632.2,103.7z"/>
				<path class="st14" d="M1609.4,184c-3.5,0-6.9-0.2-10.1-0.5c-17-1.8-28.1-8.1-31.1-17.8c-6.2-19.5,22.4-45.3,65-58.8l0,0
					c19.9-6.3,39.8-8.9,55.9-7.2c17,1.8,28.1,8.1,31.1,17.8c3.1,9.7-2.3,21.3-15.2,32.5c-12.2,10.7-29.9,20-49.8,26.3
					C1639.3,181.3,1623.4,184,1609.4,184z M1635,112.6c-38.1,12.1-66.1,35.5-61.1,51.2c2.3,7.2,11.7,12.1,26,13.6
					c15.3,1.6,34.3-0.9,53.5-7s36.1-15,47.7-25.1c10.8-9.4,15.7-18.9,13.4-26.1c-2.3-7.2-11.7-12.1-26-13.6
					C1673.2,104.1,1654.2,106.5,1635,112.6L1635,112.6z"/>
				<g>
					<path class="st16" d="M1649.3,136.4c-5.1,1-9.8,2.1-12.9,2.4c-2.1,0.2-3.5-0.1-3.8-0.9c-0.3-0.9,0.4-2,2.5-3.2
						c1.7-1,4.1-2.1,7.8-3.2c1.4-0.5,2.9-0.9,4.4-1.3c4.8-1.2,10.1-2.1,15.6-2.4l3.9-8.6c-6.3,0.3-14.1,1.8-21.8,3.9l-1.6-5.1
						l-12.4,3.9l1.7,5.2c-14.8,5.9-21,12.3-19.5,17.2c2.1,6.5,14.5,4.5,25.6,2.3c4.9-1,9.5-2,12.8-2.5c2.9-0.3,4.8-0.2,5.2,0.8
						c0.3,1-0.7,2.2-3.7,3.6c-1.6,0.8-3.9,1.6-6.7,2.5c-1.8,0.6-3.7,1.1-5.6,1.6c-6.4,1.6-13.1,2.5-18.3,2.5l-4.3,8.7
						c6,0,15.3-1.5,24.9-4.1l1.6,5.1l12.4-3.9l-1.7-5.2c15.7-6,22.2-12.7,20.6-17.6C1674,131.7,1660.7,134,1649.3,136.4z"/>
				</g>
			</g>
		</g>
	</g>
	<g>
		
			<radialGradient id="SVGID_5_" cx="2082.3303" cy="5588.2119" r="246.6586" gradientTransform="matrix(0.8116 -0.5842 -0.3585 -0.498 1002.0295 4277.1729)" gradientUnits="userSpaceOnUse">
			<stop  offset="1.629066e-02" style="stop-color:#FBB03B;stop-opacity:0.9"/>
			<stop  offset="0.3561" style="stop-color:#FDB823;stop-opacity:0.5891"/>
			<stop  offset="0.7432" style="stop-color:#FEBF0F;stop-opacity:0.2349"/>
			<stop  offset="1" style="stop-color:#FFC107;stop-opacity:0"/>
		</radialGradient>
		<path class="st18" d="M768,88.9c-54.7,4.1-114,27.6-167.7,65.9c-0.2,0-0.2,0-0.2,0.2c-53.5,38.6-94.5,87.4-115.7,137.8
			s-20,96.3,3.7,129.2c23.5,32.9,66.5,48.8,121,44.7c54.7-4.1,114.1-27.3,167.8-65.9c0.2,0,0.2,0,0.2-0.2
			c11.6-8.4,23.1-17.6,33.5-26.9c42.2-38,73.7-82.9,88.2-126.5c14.7-44.3,11.4-84.5-9.4-113.5C865.8,100.8,822.7,84.8,768,88.9z"/>
		<g>
			<g>
				<path class="st14" d="M824.8,137l20.8,36.9c4.3,7.8,5.7,16.7,4.3,26.9c-0.2,2.2-0.6,4.5-1.2,6.9c-3.1,12.2-9.8,25.7-20,39.4
					c-0.8,1.4-1.8,2.9-2.9,4.1c-8.6,11.2-19,22.7-31.2,33.7c-1,1-2.2,2-3.5,3.3c-11.4,10.2-24.5,20.2-38.6,29.8
					c-1.2,0.8-2.4,1.8-3.9,2.7c-8.2,5.3-16.5,10.4-25.3,15.3c-8.2,4.7-16.5,9-24.7,12.9c-1.4,0.6-2.9,1.4-4.3,1.8
					c-18,8.4-35.3,15.1-52.2,20c-1.4,0.4-3.1,1-4.5,1.2c-16.1,4.5-31.4,7.3-45.5,8.2c-1.8,0.2-3.5,0.2-5.1,0.4
					c-16.5,0.8-31-0.8-42.5-5.1c-2.7-1-4.9-2-7.1-3.5c-7.1-3.7-12.7-9-16.1-15.3l-20.8-36.9l23.9-13.5
					c17.1-36.3,61-78.8,119.6-111.6c58.6-33.1,117.6-48.4,157.6-44.1L824.8,137z"/>
				<g>
					<path class="st16" d="M816.4,141.7l33.3,59.2c-0.2,2.2-0.6,4.5-1.2,6.9l-35.9-63.9L816.4,141.7z"/>
					<path class="st16" d="M783.5,167.6l44.7,79.6c-0.8,1.4-1.8,2.9-2.9,4.1l-45.9-81.4L783.5,167.6z"/>
					<path class="st16" d="M747.6,202.5l46.3,82.5c-1,1-2.2,2-3.5,3.3L743.5,205L747.6,202.5z"/>
					<path class="st16" d="M705,234.5l46.9,83.5c-1.2,0.8-2.4,1.8-3.9,2.7L700.9,237L705,234.5z"/>
					<path class="st16" d="M654.3,270.9l43.7,77.8c-1.4,0.6-2.9,1.4-4.3,1.8l-43.5-77.4L654.3,270.9z"/>
					<path class="st16" d="M598.8,294.1l42.9,76.3c-1.4,0.4-3.1,1-4.5,1.2l-42.5-75.3L598.8,294.1z"/>
					<path class="st16" d="M553.3,311.9l38.4,68.4c-1.8,0.2-3.5,0.2-5.1,0.4l-37.1-66.3L553.3,311.9z"/>
					<path class="st16" d="M506.2,307.8l38,67.6c-2.7-1-4.9-2-7.1-3.5L502.3,310L506.2,307.8z"/>
				</g>
			</g>
			<g>
				<path class="st15" d="M622.7,157.6c89.6-50.4,180-59.8,202.1-20.8c21.8,39-33.1,111.4-122.7,161.8s-180,59.8-202.1,20.8
					C478.2,280.5,533.1,208,622.7,157.6z"/>
				<path class="st14" d="M575.1,331.5c-25.9,0-45.7-7.8-54.7-23.5c-10.2-18.2-4.3-43.5,16.7-71.2c20-26.3,51.4-52.5,88.6-73.3
					c79.6-44.7,158-51.4,178.4-15.1s-25.9,99.8-105.5,144.7C653.7,318.4,609,331.5,575.1,331.5z M632.1,174.1
					c-35.7,20.2-65.9,44.9-84.9,70c-17.6,23.3-23.5,44.3-15.9,57.8c16.5,29.2,90.4,20.2,161.4-19.8s117.1-98.6,100.8-127.8
					C777,125.1,703.1,134.3,632.1,174.1L632.1,174.1z"/>
				<g>
					<path class="st16" d="M670.5,216c-9.8,4.3-18.8,8.4-24.7,10.2c-4.3,1.2-7.1,1.4-8-0.2c-1-1.6,0-4.1,3.7-7.3
						c2.9-2.7,7.6-5.9,14.3-9.6c2.7-1.4,5.3-2.9,8.4-4.3c9.2-4.5,19.4-8.4,30.2-11.2l4.3-18.8c-12.4,3.3-27.3,9.4-41.8,16.9
						l-5.3-9.6l-23.1,13.1l5.5,9.8c-27.1,18-36.7,33.5-31.6,42.5c6.7,12,30.8,3.1,52.2-6.1c9.4-4.1,18.2-8,24.7-10.2
						c5.7-1.8,9.6-2.4,10.6-0.4c1,1.8-0.6,4.7-5.9,8.8c-2.9,2.2-7.1,4.9-12.4,8c-3.5,1.8-6.9,3.7-10.6,5.3
						c-12.2,5.9-25.1,10.4-35.5,12.7l-5.1,19.2c12-2.4,30-9.4,48-18.8l5.3,9.6l23.1-13.1l-5.3-9.6c28.8-18.4,39-34.7,33.9-43.7
						C717.8,196.2,692.3,206.4,670.5,216z"/>
				</g>
			</g>
		</g>
	</g>
	<g>
		
			<radialGradient id="SVGID_6_" cx="637.736" cy="-1239.8579" r="261.8914" gradientTransform="matrix(0.9038 -0.428 0.2374 0.5012 162.2871 2112.677)" gradientUnits="userSpaceOnUse">
			<stop  offset="1.629077e-02" style="stop-color:#28A745"/>
			<stop  offset="1" style="stop-color:#28A745;stop-opacity:0"/>
		</radialGradient>
		<polygon class="st19" points="602.7,970.2 150.6,1199.8 286,1466.4 738.1,1236.9 		"/>
		<g>
			<g>
				
					<rect x="234.3" y="1103.7" transform="matrix(0.8916 -0.4528 0.4528 0.8916 -499.608 332.3452)" class="st1" width="420.2" height="212.1"/>
				
					<rect x="246.6" y="1113.4" transform="matrix(0.8916 -0.4528 0.4528 0.8916 -499.6526 332.3674)" class="st2" width="395.6" height="192.9"/>
			</g>
			<g>
				<g>
					<path class="st1" d="M230.8,1237.6l-12.3-24l24-12.3l0.6,1.2c6.4,12.7,1.4,28.1-11.3,34.5L230.8,1237.6z"/>
					<path class="st1" d="M332.3,1377.7l-24,12.3l-12.3-24l1.2-0.6c12.7-6.4,28.1-1.4,34.5,11.3L332.3,1377.7z"/>
				</g>
				<g>
					<path class="st1" d="M657.9,1182l12.3,24l-24,12.3l-0.6-1.2c-6.4-12.7-1.4-28.1,11.3-34.5L657.9,1182z"/>
					<path class="st1" d="M556.5,1041.9l24-12.3l12.3,24l-1.2,0.6c-12.7,6.4-28.1,1.4-34.5-11.3L556.5,1041.9z"/>
				</g>
			</g>
			<g>
				
					<ellipse transform="matrix(0.8916 -0.4528 0.4528 0.8916 -499.5794 332.3431)" class="st1" cx="444.4" cy="1209.7" rx="66.2" ry="89.2"/>
				<g>
					<path class="st4" d="M327,1260.7c-5.2,0.9-10.1,1.9-13.6,1.7c-2.5-0.1-4.2-1-5.1-2.9c-1-1.9-0.9-4.1,0.7-6.1
						c1.3-1.7,3.5-3.2,7-4.8c1.4-0.6,2.9-1,4.3-1.4c4.9-1.3,10.6-1.7,16.8-1l-1.4-16.9c-7.2-1-15.5,0.1-23,2.6l-5.5-11.2l-11.7,5.9
						l5.5,10.6c-13.5,8.5-16.2,20.6-10.9,31.1c7,14.2,20.4,13.3,32,11.4c5.1-0.9,9.8-1.9,13.5-1.9c3.2,0,5.6,0.7,6.8,3
						c1,2.2,0.7,4.5-1.9,6.7c-1.4,1.3-3.5,2.5-6.2,3.6c-1.7,0.7-3.6,1.3-5.5,1.9c-6.5,1.7-13.8,1.9-19.8,0.7l1,17.1
						c7.2,1.6,17.1,0.7,26.6-2.3l6.2,11.7l11.7-5.9l-6.1-11.2c14.3-8.5,17.2-21,12-31.7C352.9,1257,338.7,1258.6,327,1260.7z"/>
				</g>
				<g>
					<path class="st4" d="M563.2,1140.8c-5.2,0.9-10.1,1.9-13.6,1.7c-2.5-0.1-4.2-1-5.1-2.9c-1-1.9-0.9-4.1,0.7-6.1
						c1.3-1.7,3.5-3.2,7-4.8c1.4-0.6,2.9-1,4.3-1.4c4.9-1.3,10.6-1.7,16.8-1l-1.4-16.9c-7.2-1-15.5,0.1-23,2.6l-5.5-11.2l-11.7,5.9
						l5.5,10.6c-13.5,8.5-16.2,20.6-10.9,31.1c7,14.2,20.4,13.3,32,11.4c5.1-0.9,9.8-1.9,13.5-1.9c3.2,0,5.6,0.7,6.8,3
						c1,2.2,0.7,4.5-1.9,6.7c-1.4,1.3-3.5,2.5-6.2,3.6c-1.7,0.7-3.6,1.3-5.5,1.9c-6.5,1.7-13.8,1.9-19.8,0.7l1,17.1
						c7.2,1.6,17.1,0.7,26.6-2.3l6.2,11.7l11.7-5.9l-6.1-11.2c14.3-8.5,17.2-21,12-31.7C589.1,1137.1,574.9,1138.6,563.2,1140.8z"/>
				</g>
			</g>
		</g>
	</g>
</g>
</svg>
