<?xml version="1.0" encoding="utf-8"?>
<!-- Generator: Adobe Illustrator 24.0.2, SVG Export Plug-In . SVG Version: 6.00 Build 0)  -->
<svg version="1.1" id="Your_design" xmlns="http://www.w3.org/2000/svg" xmlns:xlink="http://www.w3.org/1999/xlink" x="0px"
	 y="0px" width="632px" height="126.6px" viewBox="0 0 632 126.6" style="enable-background:new 0 0 632 126.6;"
	 xml:space="preserve">
<style type="text/css">
	.st0{fill:#F3BA2F;}
</style>
<g>
	<polygon class="st0" points="62.8,28.6 87.4,53.2 101.7,38.9 62.8,0 23.9,38.9 38.2,53.2 	"/>
	
		<rect x="3.6" y="53.2" transform="matrix(0.7071 -0.7071 0.7071 0.7071 -40.7738 28.2505)" class="st0" width="20.2" height="20.2"/>
	<polygon class="st0" points="62.8,98 38.2,73.4 23.8,87.7 23.9,87.7 62.8,126.6 101.7,87.7 101.7,87.7 87.4,73.4 	"/>
	
		<rect x="101.6" y="53.2" transform="matrix(0.7071 -0.7071 0.7071 0.7071 -12.073 97.5434)" class="st0" width="20.2" height="20.2"/>
	<polygon class="st0" points="62.8,48.8 52,59.5 52,59.5 50.8,60.7 48.3,63.3 48.2,63.3 48.3,63.3 62.8,77.8 77.3,63.3 77.3,63.3 
		77.3,63.3 77.3,63.3 	"/>
	<path class="st0" d="M192.8,62.7c1.2-0.6,2.3-1.4,3.4-2.3c1-0.9,2-1.9,2.8-3.1c0.8-1.2,1.4-2.5,1.9-4s0.7-3.2,0.7-5.1V48
		c0-4.5-1.5-8.3-4.6-11.4c-4-4-9.8-5.9-17.5-5.9h-31.1v67.1h31.9c3.8,0,7.2-0.4,10.3-1.2c3.1-0.8,5.7-1.9,7.9-3.5s3.9-3.5,5.1-5.8
		c1.2-2.3,1.8-5,1.8-8.1V79c0-4.5-1.1-8-3.3-10.5C199.8,66.2,196.7,64.2,192.8,62.7z M162.8,43.6h14.6c3.1,0,5.5,0.6,7.2,1.8
		s2.5,2.9,2.5,5.1v0.2c0,2.5-1,4.3-2.9,5.4c-1.9,1.1-4.5,1.7-7.8,1.7h-13.6V43.6z M190.8,77.6c0,2.5-0.9,4.3-2.8,5.5
		c-1.9,1.2-4.4,1.8-7.7,1.8l0,0h-17.6V70.1h17.1c3.8,0,6.6,0.7,8.3,2s2.6,3.1,2.6,5.3L190.8,77.6L190.8,77.6z"/>
	<rect x="223.9" y="30.7" class="st0" width="14.8" height="67.1"/>
	<polygon class="st0" points="306.1,72 274.6,30.7 261,30.7 261,97.8 275.6,97.8 275.6,55.1 308.1,97.8 320.7,97.8 320.7,30.7 
		306.1,30.7 	"/>
	<path class="st0" d="M365.4,30.2l-28.8,67.6h15.1l6.1-15.1h28.4l6.1,15.1h15.4L379,30.2H365.4z M363.1,69.7l8.9-21.8l8.9,21.8
		H363.1z"/>
	<polygon class="st0" points="468.8,72 437.4,30.7 423.7,30.7 423.7,97.8 438.3,97.8 438.3,55.1 470.8,97.8 483.4,97.8 483.4,30.7 
		468.8,30.7 	"/>
	<path class="st0" d="M546.8,83.2c-2.7,1.4-5.9,2.1-9.7,2.1c-2.9,0-5.5-0.6-7.9-1.7s-4.4-2.6-6.1-4.6c-1.7-1.9-3-4.2-4-6.7
		c-1-2.6-1.4-5.3-1.4-8.2v-0.2c0-2.9,0.5-5.6,1.4-8.1c1-2.5,2.3-4.7,4-6.7c1.7-1.9,3.8-3.4,6.2-4.5s5-1.6,7.8-1.6
		c3.4,0,6.4,0.7,9.2,2c2.7,1.3,5.4,3.2,8,5.6l9.4-10.8c-1.5-1.5-3.2-2.9-5-4.2s-3.7-2.4-5.9-3.3c-2.1-0.9-4.5-1.6-7.1-2.1
		s-5.5-0.8-8.6-0.8c-5.2,0-9.9,0.9-14.2,2.7s-8,4.3-11,7.5c-3.1,3.2-5.5,6.8-7.2,11s-2.6,8.7-2.6,13.5v0.2c0,4.8,0.9,9.3,2.6,13.5
		s4.1,7.9,7.2,11c3.1,3.1,6.7,5.5,10.9,7.3s8.8,2.7,13.7,2.7c3.3,0,6.2-0.3,8.8-0.8s5-1.3,7.2-2.4s4.2-2.3,6.1-3.8
		c1.9-1.5,3.6-3.1,5.4-5l-9.4-9.5C552.1,79.9,549.4,81.8,546.8,83.2z"/>
	<polygon class="st0" points="596,84.7 596,70.6 627.7,70.6 627.7,57.4 596,57.4 596,43.8 632,43.8 632,30.7 581.5,30.7 581.5,97.8 
		632.5,97.8 632.5,84.7 	"/>
</g>
</svg>
