<?xml version="1.0" encoding="utf-8"?>
<!-- Generator: Adobe Illustrator 24.0.2, SVG Export Plug-In . SVG Version: 6.00 Build 0)  -->
<svg version="1.1"
	 id="svg446" inkscape:version="0.92.0 r15299" sodipodi:docname="bitfinex.svg" xmlns:cc="http://creativecommons.org/ns#" xmlns:dc="http://purl.org/dc/elements/1.1/" xmlns:inkscape="http://www.inkscape.org/namespaces/inkscape" xmlns:rdf="http://www.w3.org/1999/02/22-rdf-syntax-ns#" xmlns:sodipodi="http://sodipodi.sourceforge.net/DTD/sodipodi-0.dtd" xmlns:svg="http://www.w3.org/2000/svg"
	 xmlns="http://www.w3.org/2000/svg" xmlns:xlink="http://www.w3.org/1999/xlink" x="0px" y="0px" width="894px" height="105px"
	 viewBox="0 0 894 105" style="enable-background:new 0 0 894 105;" xml:space="preserve">
<style type="text/css">
	.st0{fill:#97C554;}
	.st1{fill:#709B30;}
	.st2{fill:#444444;}
</style>
<sodipodi:namedview  bordercolor="#666666" borderopacity="1.0" fit-margin-bottom="0" fit-margin-left="0" fit-margin-right="0" fit-margin-top="0" id="base" inkscape:current-layer="layer1" inkscape:cx="426.69788" inkscape:cy="56.847669" inkscape:document-units="mm" inkscape:pageopacity="0.0" inkscape:pageshadow="2" inkscape:window-height="744" inkscape:window-maximized="1" inkscape:window-width="1280" inkscape:window-x="-4" inkscape:window-y="-4" inkscape:zoom="0.86180571" pagecolor="#ffffff" showgrid="false" units="px">
	</sodipodi:namedview>
<g id="layer1" transform="translate(357.06977,-214.71208)" inkscape:groupmode="layer" inkscape:label="Layer 1">
	<g id="logo3-dark-theme" transform="matrix(0.26458333,0,0,0.26458333,-356.96504,214.97666)">
		<path id="Path-1-Copy-9" inkscape:connector-curvature="0" class="st0" d="M2996.5,336.9c18.1,19.2,117.7,111.2,273.9,4.4
			c113-88,110.2-278.8,99.3-336.4C3366,13.4,3234.8,300.8,2996.5,336.9z M3369.8,4.9c-1.4-0.6-146.8-20.4-290.5,72.2
			c-89.2,57.5-101,141.6-97,197.7C3191.2,251.4,3365,11.5,3369.8,4.9z"/>
		<path id="Path-1-Copy-8" inkscape:connector-curvature="0" class="st1" d="M3369.8,4.9c-1.4-0.6-146.8-20.4-290.5,72.2
			c-89.2,57.5-101,141.6-97,197.7C3191.2,251.4,3365,11.5,3369.8,4.9z"/>
		<path id="BITFINEX-Copy-3" inkscape:connector-curvature="0" class="st2" d="M236.4,325.7H73.7V239h162.7
			c40.7,0,61.5,19.5,61.5,44.7C297.9,308,277.6,325.7,236.4,325.7z M231.1,192.6H73.7v-73h157.4c42.9,0,59.7,15,59.7,35.8
			C290.8,174.5,271.4,192.6,231.1,192.6z M272.7,214.7c68.5-2.2,93.3-36.3,93.3-73.4c0-40.7-32.3-74.3-111-74.3H3.4v310.4h259.1
			c64.6,0,112.8-27,112.8-84.9C375.3,251.4,348.3,216.5,272.7,214.7z M458.3,67v310.4h70.3V67H458.3z M813.8,125.8h154.8V67H588.7
			v58.8h154.8v251.6h70.3V125.8z M1028.6,67v310.4h70.3V256.3h164.9v-50.9h-164.9v-84.9h268V67H1028.6z M1423.8,67v310.4h70.3V67
			H1423.8z M1659,142.6l233,234.8h79.6V67h-69.4v223.8L1678.4,67h-89.3v310.4h69.9L1659,142.6z M2066.6,67v310.4h344v-52.2h-273.7
			v-85.3H2301v-48.2h-164.1v-71.2h273.7V67H2066.6z M2881.5,67h-92.9l-118.5,109.2L2552.5,67h-94.2l165.4,153l-171.6,157.4h92.9
			l124.3-114.5l123.8,114.5h94.6l-172-157.9L2881.5,67z"/>
	</g>
</g>
</svg>
