<?xml version="1.0" encoding="utf-8"?>
<!-- Generator: Adobe Illustrator 24.0.2, SVG Export Plug-In . SVG Version: 6.00 Build 0)  -->
<svg version="1.1" id="svg11628" xmlns:svg="http://www.w3.org/2000/svg"
	 xmlns="http://www.w3.org/2000/svg" xmlns:xlink="http://www.w3.org/1999/xlink" x="0px" y="0px" width="1013.1px"
	 height="161.3px" viewBox="0 0 1013.1 161.3" style="enable-background:new 0 0 1013.1 161.3;" xml:space="preserve">
<style type="text/css">
	.st0{fill:#FF0201;}
	.st1{fill:#125BFF;}
	.st2{fill:#E9ECEF;}
</style>
<g>
	<polygon id="polygon11576" class="st0" points="39.3,1.3 0,159 39.4,159 64,60.4 103.5,60.4 118.3,1.3 78.8,1.3 	"/>
	<polygon id="polygon11578" class="st1" points="197.1,1.3 157.7,1.3 142.9,60.4 133.1,99.9 93.7,99.9 78.9,159 118.3,159 
		157.8,159 182.4,60.4 	"/>
	<path id="path11580" class="st2" d="M410,10.8c0.1,3-1.2,5.8-3.4,7.8c-4.1,4.1-10.7,4.1-14.9,0c-4.2-4-4.4-10.7-0.4-15l0.5-0.5
		c4.1-4.1,10.7-4.1,14.9,0C408.9,5,410.1,7.9,410,10.8L410,10.8z M236.7,1.2h65.3c18,0,32.2,5.2,41.3,14
		c6.7,6.7,10.3,15.9,10.1,25.4V41c0,20.5-12.7,31.1-25,36.5c18.7,5.7,33.8,16.5,33.8,38v0.5c0,27-22.7,43.1-57.3,43.1h-68.3
		L236.7,1.2z M298.9,71.6c21.4,0,36.3-9.7,36.3-28.3v-0.4c0-15.6-12.4-25.7-35.1-25.7h-45.8v54.4L298.9,71.6z M305.2,143.1
		c23.9,0,38.8-10.6,38.8-28.3v-0.4c0-17.2-14.5-27.1-42-27.1h-47.7v55.8L305.2,143.1z M390.4,42.5h17.4v116.6h-17.4V42.5z
		 M453.8,122.1V57.8h-26.4V42.6h26.4V1.2h17.4v41.4h47.9v15.2h-47.7v62c0,15.7,7.4,25.7,21.5,25.4c8.5,0.2,16.9-1.3,24.9-4.2v15.2
		c-9.2,3.8-19.1,5.5-29,4.9c-21-0.5-34.9-15.3-34.9-39.2L453.8,122.1z M544.4,1.2h37.4L623.3,68l41.5-66.7h37.4v157.9h-34.4V56
		l-44.4,67.6h-0.9l-44-66.7v102.3h-34.1V1.2z M733.1,1.2h119.1v30.9h-84.5v32H838v30.9h-70.4v33.1h85.7v30.9H733.1V1.2z M918.3,78.8
		L865.5,1.2h40.6l33.1,51.2l33.4-51.2h39.5l-52.7,77.1l54.9,80.7h-40.6L938.3,105l-35.6,54.1h-39.5L918.3,78.8z"/>
</g>
</svg>
