<?xml version="1.0" encoding="utf-8"?>
<!-- Generator: Adobe Illustrator 24.0.2, SVG Export Plug-In . SVG Version: 6.00 Build 0)  -->
<svg version="1.1" id="layer" xmlns="http://www.w3.org/2000/svg" xmlns:xlink="http://www.w3.org/1999/xlink" x="0px" y="0px"
	 width="600px" height="135.6px" viewBox="0 0 600 135.6" style="enable-background:new 0 0 600 135.6;" xml:space="preserve">
<style type="text/css">
	.st0{fill:#159E49;}
	.st1{fill:#EAEAEA;}
</style>
<g>
	<g id="line" transform="translate(792.000000, 406.000000)">
		<polygon id="Fill-10" class="st0" points="-792,-270.6 -272.6,-270.6 -272.6,-284.2 -792,-284.2 		"/>
		<polygon id="Fill-11" class="st0" points="-236.6,-270.6 -192,-270.6 -192,-284.2 -236.6,-284.2 		"/>
	</g>
	<g id="text" transform="translate(792.000000, 406.000000)">
		<path class="st1" d="M-690.8-304.8h18.6v-70h-18.6V-304.8z M-692.6-395c0-3.2,1-5.8,3.2-8c2-2,4.8-3,8-3c3.4,0,6,1,8,3
			s3.2,4.6,3.2,8c0,3.2-1,5.8-3.2,8c-2,2-4.8,3-8,3s-5.8-1-8-3S-692.6-391.8-692.6-395z"/>
		<path class="st1" d="M-629.4-375h19v14h-19v33.6c0,3,0.8,5.4,2.6,7.2s4,2.8,7,2.8c2.6,0,5.6-0.4,8.8-1.2l2.4,13.8
			c-5.4,1.4-10.6,2.2-15.6,2.2c-3.4,0-6.6-0.6-9.4-1.6s-5.2-2.6-7.4-4.6c-2-2-3.6-4.4-4.8-7.2c-1.2-2.8-1.6-5.8-1.6-9.2v-35.4h-12.8
			v-14h12.8v-20.6h17.8v20.2C-629.6-375-629.4-375-629.4-375z"/>
		<path class="st1" d="M-599.4-355.6c0-3,0.6-6,2-8.6c1.4-2.6,3.2-4.8,5.4-6.8c2.4-1.8,5.2-3.4,8.4-4.4s7-1.6,10.8-1.6
			c4,0,8.2,0.4,12.4,1.2c4.2,0.8,8.6,2,13,3.6l-4,13.2c-3.4-1.4-6.8-2.4-10.2-3.2s-6.6-1.2-9.6-1.2c-3.2,0-5.8,0.6-7.8,2
			c-2,1.4-2.8,3.2-2.8,5.6c0,2.2,1,3.8,2.8,4.8s4,2,6.8,2.8c2.8,0.8,5.6,1.6,8.8,2.2c3.2,0.8,6.2,2,8.8,3.6c2.8,1.6,5,3.8,6.8,6.4
			c1.8,2.8,2.8,6.4,2.8,10.8c0,3.2-0.6,6-2,8.8c-1.4,2.6-3.2,5-5.6,7s-5.2,3.4-8.8,4.6c-3.4,1-7.2,1.6-11.2,1.6
			c-8.6,0-17.8-1.8-27.4-5.6l3.8-13c8.2,3.4,15.6,5,22.2,5c3.4,0,6.2-0.8,8.2-2.2s3-3.4,3-6c0-2.2-1-3.8-2.8-5s-4-2.2-6.8-3
			s-5.6-1.6-8.8-2.4c-3.2-0.8-6-2-8.8-3.6s-5-3.6-6.8-6.2C-598.6-347.6-599.4-351.2-599.4-355.6"/>
		<path class="st1" d="M-507.6-375h19v14h-19v33.6c0,3,0.8,5.4,2.6,7.2c1.8,1.8,4,2.8,7,2.8c2.6,0,5.6-0.4,8.8-1.2l2.4,13.8
			c-5.4,1.4-10.6,2.2-15.6,2.2c-3.4,0-6.6-0.6-9.4-1.6c-2.8-1-5.2-2.6-7.4-4.6s-3.6-4.4-4.8-7.2c-1.2-2.8-1.6-5.8-1.6-9.2v-35.4
			h-12.8v-14h12.8v-20.6h17.8v20.2C-507.8-375-507.6-375-507.6-375z"/>
		<path class="st1" d="M-459.2-326.2c0,2.8,1.2,5.2,3.4,7.2c2.4,2,5.2,3,8.6,3c4.8,0,8.6-1.6,11.6-4.6s4.4-7,4.4-11.8v-4.2
			c-3.4-1-7.2-1.4-11.4-1.4c-5.2,0-9.2,1-12.2,3.2C-457.6-332.8-459.2-329.8-459.2-326.2 M-476.6-325.2c0-7.4,2.8-13.2,8.4-17.2
			c5.6-4,13.4-6,23.6-6c2.2,0,4.4,0.2,6.6,0.4s4.6,0.6,6.8,1v-3.8c0-3.6-1.2-6.6-3.8-8.8c-2.6-2.2-6-3.4-10.4-3.4
			c-7,0-14.6,1.6-22.8,5l-4.6-12.8c10-4,19.8-5.8,29.4-5.8c4.4,0,8.2,0.6,11.8,2c3.6,1.2,6.6,3,9.2,5.4c2.6,2.2,4.6,5,6,8.2
			c1.4,3.2,2.2,6.8,2.2,10.6v28.6c0,1.6,0.4,2.8,1.2,3.6c0.8,1,2,1.4,3.6,1.4c0.8,0,1.4,0,2.2-0.2c0.6,0,1.2-0.2,1.4-0.2l1.2,13.4
			c-1.6,0.2-3,0.6-4.6,0.8c-1.6,0.2-3.2,0.2-5,0.2c-3.6,0-6.6-0.8-9.2-2.6c-2.6-1.6-4.4-4-5.6-7c-3,3-6.6,5.4-10.4,7
			c-4,1.6-8,2.4-12.4,2.4c-3.6,0-7-0.6-10-1.6s-5.6-2.6-7.8-4.6c-2.2-2-3.8-4.2-5-7C-476-319-476.6-322-476.6-325.2"/>
		<path class="st1" d="M-394.2-375.2h14.4l2.2,9.6c2.8-3.6,6-6.4,10-8.4s8.2-3,12.8-3c5.2,0,9.6,1.2,13.6,3.4
			c3.8,2.2,6.8,5.4,8.8,9.4c3.2-4.2,7-7.4,11.2-9.6c4.2-2.2,8.8-3.2,14-3.2c3.8,0,7.2,0.6,10.4,1.8c3.2,1.2,6,3,8.2,5.4
			c2.4,2.2,4.2,5,5.4,8.2c1.2,3.2,2,6.6,2,10.4v46.4h-18.2v-43.4c0-4-1.2-7.2-3.8-9.8c-2.6-2.4-5.8-3.8-9.8-3.8
			c-4.6,0-8.4,1.6-11.4,4.8s-4.4,7.2-4.4,12.4v39.8H-347v-43.4c0-4-1.2-7.2-3.6-9.8c-2.4-2.4-5.6-3.8-9.6-3.8
			c-4.8,0-8.6,1.6-11.6,4.8s-4.4,7.2-4.4,12.4v39.8h-18.2v-70.4C-394.4-375.2-394.2-375.2-394.2-375.2z"/>
		<path class="st1" d="M-212-340.2c0-3.2-0.4-6.2-1.4-9c-0.8-2.8-2.2-5.2-3.8-7c-1.6-2-3.4-3.4-5.6-4.6c-2.2-1.2-4.6-1.6-7.2-1.6
			c-4.8,0-8.6,1.6-11.8,5c-3,3.2-4.6,7.4-4.6,12.6v9.4c0,2.6,0.4,5,1.2,7c0.8,2.2,2,4,3.4,5.6c1.4,1.6,3.2,2.8,5.2,3.6
			s4.2,1.2,6.6,1.2c2.6,0,5-0.6,7.2-1.6s4-2.6,5.6-4.6s2.8-4.4,3.8-7C-212.4-333.8-212-337-212-340.2z M-264-375.2h14.4l2.2,9
			c2.6-3.4,5.6-6,9.4-8c3.8-1.8,8-2.8,12.6-2.8s8.8,1,12.8,2.8c3.8,1.8,7.2,4.4,10,7.6s5,7,6.6,11.6c1.6,4.4,2.4,9.4,2.4,14.8
			c0,5.4-0.8,10.4-2.4,14.8c-1.6,4.4-3.8,8.4-6.6,11.6c-2.8,3.2-6.2,5.8-10,7.6c-3.8,1.8-8.2,2.8-12.8,2.8c-4.2,0-8.2-0.8-11.6-2.4
			c-3.6-1.6-6.6-4-9-7.2v42.6h-18V-375.2L-264-375.2z"/>
		<path class="st1" d="M-730.8-322.8c-2.8,2.8-6.6,4-11.4,4h-22.4v-29h22.4c4.6,0,8.4,1.4,11.4,4c2.8,2.6,4.2,6.2,4.2,10.4
			C-726.4-329-727.8-325.4-730.8-322.8z M-764.6-387h20.6c4.2,0,7.6,1.2,10.4,3.8c2.8,2.4,4,5.8,4,9.8s-1.4,7.2-4,9.6
			c-2.8,2.4-6.2,3.6-10.4,3.6h-20.6V-387z M-712.4-346c-3-4.2-7-7.2-12-9c4-1.8,7-4.4,9.4-8c2.4-3.6,3.6-7.8,3.6-12.6
			c0-3.8-0.8-7.2-2.2-10.2c-1.4-3.2-3.6-5.8-6.2-8c-2.6-2.2-5.8-4-9.4-5.2s-7.6-1.8-12-1.8H-792v12.8l0,0c7.8,0,14,6.4,14,14.2
			c0,7.8-6.2,14.2-14,14.2v11.6l0,0c7.8,0,14,6.4,14,14.2v2.2c0,7.8-6.2,14.2-14,14.2l0,0v12.8h53c4.6,0,8.6-0.6,12.4-2
			c3.8-1.2,7-3,9.8-5.4c2.8-2.4,5-5.2,6.4-8.4c1.6-3.2,2.4-6.8,2.4-10.8C-708-337-709.4-341.8-712.4-346z"/>
	</g>
</g>
</svg>
