<?xml version="1.0" encoding="utf-8"?>
<!-- Generator: Adobe Illustrator 24.0.2, SVG Export Plug-In . SVG Version: 6.00 Build 0)  -->
<svg version="1.1"
	 id="svg8" xmlns:cc="http://creativecommons.org/ns#" xmlns:dc="http://purl.org/dc/elements/1.1/" xmlns:inkscape="http://www.inkscape.org/namespaces/inkscape" xmlns:rdf="http://www.w3.org/1999/02/22-rdf-syntax-ns#" xmlns:sodipodi="http://sodipodi.sourceforge.net/DTD/sodipodi-0.dtd" xmlns:svg="http://www.w3.org/2000/svg"
	 xmlns="http://www.w3.org/2000/svg" xmlns:xlink="http://www.w3.org/1999/xlink" x="0px" y="0px" width="363.1px" height="102.8px"
	 viewBox="0 0 363.1 102.8" style="enable-background:new 0 0 363.1 102.8;" xml:space="preserve">
<style type="text/css">
	.st0{fill:#03316C;}
	.st1{fill:#002E73;}
</style>
<sodipodi:namedview  bordercolor="#666666" borderopacity="1.0" fit-margin-bottom="0" fit-margin-left="0" fit-margin-right="0" fit-margin-top="0" id="base" inkscape:current-layer="layer1" inkscape:cx="232.13793" inkscape:cy="3.8725744" inkscape:document-units="mm" inkscape:pageopacity="0.0" inkscape:pageshadow="2" inkscape:window-height="1017" inkscape:window-maximized="1" inkscape:window-width="1920" inkscape:window-x="1912" inkscape:window-y="70" inkscape:zoom="1.1894531" pagecolor="#ffffff" showgrid="false">
	</sodipodi:namedview>
<g id="layer1" transform="translate(-5.3750828,-113.61004)" inkscape:groupmode="layer" inkscape:label="Layer 1">
	<g id="g903" transform="matrix(0.31794097,0,0,0.31465205,-1.0473248,30.447499)">
		<path id="path819" inkscape:connector-curvature="0" class="st0" d="M217.5,527.1h-20.1L173.3,505v-11.3l24.9-23.8v-37.7
			l32.6-21.3l37.1,28.1L217.5,527.1z M134.2,467.5l3.7-35.4l-12.2-31.7h72l-11.9,31.7l3.4,35.4h-27.8H134.2z M150.6,505l-24.1,22.4
			h-20.4l-50.7-88.4l37.4-27.8l32.9,21v37.7l24.9,23.8L150.6,505z M105.8,334.9h111.4l13.3,56.7H92.8L105.8,334.9z M161.6,264.3
			L20.2,345.9v163.3l141.4,81.6l141.4-81.6V345.9L161.6,264.3z"/>
		<path id="path845" inkscape:connector-curvature="0" class="st1" d="M461.8,503.3c-37.4,0-64.9-29.2-64.9-65.2s27.8-66,65.2-66
			c23.8,0,38.6,8.8,50.2,21.5l-17.9,19.3c-8.8-9.4-18.1-15.6-32.6-15.6c-21,0-36.3,18.1-36.3,40.3c0,22.7,15.6,40.8,37.7,40.8
			c13.6,0,23.5-6.5,32.6-15.6l17.3,17.3C500.7,493.3,486.2,503.3,461.8,503.3"/>
		<path id="path847" inkscape:connector-curvature="0" class="st1" d="M567.9,503.3h-28.9v-131h28.9v30.6
			c7.9-18.7,22.4-31.7,44.5-30.6v30.6h-1.7c-25.2,0-42.8,16.4-42.8,49.9L567.9,503.3z"/>
		<polygon id="polygon849" class="st1" points="763.4,371.7 699.7,538.4 670.5,538.4 684.4,503.3 629.6,371.7 660.5,371.7 
			697.7,469 733.4,371.7 		"/>
		<path id="path851" inkscape:connector-curvature="0" class="st1" d="M848.5,397c-19.6,0-36.6,15.9-36.6,40.5
			c0,24.7,17.3,40.5,36.6,40.5c19.8,0,36-15.6,36-40.5C884.5,412.6,868,397,848.5,397 M855,503c-20.7,0-33.7-10.5-42.5-22.1v57.5
			h-28.9V371.7h28.9v23.5c9.4-13,22.4-23.5,42.5-23.5c29.8,0,58.7,23.5,58.7,65.5C913.7,479.2,885.1,503,855,503"/>
		<path id="path853" inkscape:connector-curvature="0" class="st1" d="M976.9,399.2V461c0,11.1,5.7,15.6,15.6,15.6h11.3v25.8H984
			c-21,0-36-9.4-36-36.9v-66.3h-15.9v-24.7H948V340h28.9v34.6h26.9v24.7L976.9,399.2z"/>
		<path id="path855" inkscape:connector-curvature="0" class="st1" d="M1094.8,397c-23.2,0-38,18.1-38,40.3
			c0,22.4,15.9,40.8,38.3,40.8c23.2,0,38-18.1,38-40.3C1133.6,415.4,1117.5,397,1094.8,397 M1094.8,503.3
			c-38.3,0-66.6-29.2-66.6-65.2c0-36.3,28.6-66,67.2-66s66.9,29.2,66.9,65.5C1162.3,473.2,1133.9,503.3,1094.8,503.3"/>
	</g>
</g>
</svg>
