<?xml version="1.0" encoding="utf-8"?>
<!-- Generator: Adobe Illustrator 24.0.2, SVG Export Plug-In . SVG Version: 6.00 Build 0)  -->
<svg version="1.1"
	 id="svg8" xmlns:cc="http://creativecommons.org/ns#" xmlns:dc="http://purl.org/dc/elements/1.1/" xmlns:inkscape="http://www.inkscape.org/namespaces/inkscape" xmlns:rdf="http://www.w3.org/1999/02/22-rdf-syntax-ns#" xmlns:sodipodi="http://sodipodi.sourceforge.net/DTD/sodipodi-0.dtd" xmlns:svg="http://www.w3.org/2000/svg"
	 xmlns="http://www.w3.org/2000/svg" xmlns:xlink="http://www.w3.org/1999/xlink" x="0px" y="0px" width="424.5px" height="131.3px"
	 viewBox="0 0 424.5 131.3" style="enable-background:new 0 0 424.5 131.3;" xml:space="preserve">
<style type="text/css">
	.st0{fill:#E9ECEF;}
	.st1{fill:#84D6D7;}
	.st2{fill:#33BBC7;}
	.st3{fill:#11A9BC;}
</style>
<sodipodi:namedview  bordercolor="#666666" borderopacity="1.0" fit-margin-bottom="0" fit-margin-left="0" fit-margin-right="0" fit-margin-top="0" id="base" inkscape:current-layer="layer1" inkscape:cx="881.01453" inkscape:cy="102.19582" inkscape:document-units="mm" inkscape:pagecheckerboard="true" inkscape:pageopacity="0.0" inkscape:pageshadow="2" inkscape:window-height="1017" inkscape:window-maximized="1" inkscape:window-width="1920" inkscape:window-x="1912" inkscape:window-y="70" inkscape:zoom="0.42053519" pagecolor="#ffffff" showgrid="false">
	</sodipodi:namedview>
<g id="layer1" transform="translate(188.64431,-115.48607)" inkscape:groupmode="layer" inkscape:label="Layer 1">
	<g id="g10" transform="matrix(0.4160462,0,0,-0.41186696,-342.59264,291.23382)" inkscape:label="ink_ext_XXXXXX">
		<g id="g12" transform="scale(0.1)">
			<path id="path32" inkscape:connector-curvature="0" class="st0" d="M8788.9,3061v-436.5H9665v-433.7h-876.1v-680.6h-561.4v1984.8
				H9784v-434L8788.9,3061"/>
			<path id="path34" inkscape:connector-curvature="0" class="st0" d="M10597.7,3049.6h-609.6v445.3h1777.7v-445.3h-606.7V1510.1
				h-561.4V3049.6"/>
			<path id="path36" inkscape:connector-curvature="0" class="st0" d="M13257,1510.1l-411.1,615.4l-405.4-615.4h-640.8l723,1003.7
				l-691.8,981.1h632.2l397-572.9l391.2,572.9h606.8l-691.8-958.4l737.2-1026.4H13257"/>
			<path id="path38" inkscape:connector-curvature="0" class="st1" d="M4742.3,1080.4h847v846.7h-847L4742.3,1080.4"/>
			<path id="path40" inkscape:connector-curvature="0" class="st2" d="M6340.7,3097.5H4742.3v-847h1598.5l0,0h290.7v846.7h-290.7
				V3097.5"/>
			<path id="path42" inkscape:connector-curvature="0" class="st3" d="M4742.3,4267.1v-846.7H7366v846.7H4742.3"/>
			<path id="path44" inkscape:connector-curvature="0" class="st2" d="M3700.3,2250.5H4547v847h-846.7V2250.5"/>
		</g>
	</g>
</g>
</svg>
