<?xml version="1.0" encoding="utf-8"?>
<!-- Generator: Adobe Illustrator 24.0.2, SVG Export Plug-In . SVG Version: 6.00 Build 0)  -->
<svg version="1.1"
	 id="svg8" xmlns:cc="http://creativecommons.org/ns#" xmlns:dc="http://purl.org/dc/elements/1.1/" xmlns:inkscape="http://www.inkscape.org/namespaces/inkscape" xmlns:rdf="http://www.w3.org/1999/02/22-rdf-syntax-ns#" xmlns:sodipodi="http://sodipodi.sourceforge.net/DTD/sodipodi-0.dtd" xmlns:svg="http://www.w3.org/2000/svg"
	 xmlns="http://www.w3.org/2000/svg" xmlns:xlink="http://www.w3.org/1999/xlink" x="0px" y="0px" width="572.4px" height="131.3px"
	 viewBox="0 0 572.4 131.3" style="enable-background:new 0 0 572.4 131.3;" xml:space="preserve">
<style type="text/css">
	.st0{fill:#6CD0D9;}
	.st1{fill:#0AB5CC;}
	.st2{fill:#1297B2;}
	.st3{fill:#CC1423;}
	.st4{fill:#E9ECEF;}
</style>
<sodipodi:namedview  bordercolor="#666666" borderopacity="1.0" fit-margin-bottom="0" fit-margin-left="0" fit-margin-right="0" fit-margin-top="0" id="base" inkscape:current-layer="layer1" inkscape:cx="881.01453" inkscape:cy="102.19582" inkscape:document-units="mm" inkscape:pagecheckerboard="true" inkscape:pageopacity="0.0" inkscape:pageshadow="2" inkscape:window-height="1017" inkscape:window-maximized="1" inkscape:window-width="1920" inkscape:window-x="1912" inkscape:window-y="70" inkscape:zoom="0.42053519" pagecolor="#ffffff" showgrid="false">
	</sodipodi:namedview>
<g>
	<g id="layer1" transform="translate(188.64431,-115.48607)" inkscape:groupmode="layer" inkscape:label="Layer 1">
		<g id="g10" transform="matrix(0.4160462,0,0,-0.41186696,-342.59264,291.23382)" inkscape:label="ink_ext_XXXXXX">
			<g id="g12" transform="scale(0.1)">
				<path id="path38" inkscape:connector-curvature="0" class="st0" d="M4742.3,1080.4h847v846.7h-847L4742.3,1080.4"/>
				<path id="path40" inkscape:connector-curvature="0" class="st1" d="M6340.7,3097.5H4742.3v-847h1598.5l0,0h290.7v846.7h-290.7
					V3097.5"/>
				<path id="path42" inkscape:connector-curvature="0" class="st2" d="M4742.3,4267.1v-846.7H7366v846.7H4742.3"/>
				<path id="path44" inkscape:connector-curvature="0" class="st3" d="M3700.3,2250.5H4547v847h-846.7V2250.5"/>
			</g>
		</g>
	</g>
	<g>
		<path class="st4" d="M374.9,73.9c-0.6-0.9-0.5-1.5,0-2.4c7.7-12.6,15.4-25.2,23.1-37.8c0.3-0.4,0.5-0.9,0.9-1.6
			c-0.7,0-1.2,0-1.6,0c-5.4,0-10.9,0-16.3,0c-1.1,0-1.6,0.4-2.1,1.2c-5,8.4-10,16.8-15,25.2c-1,1.7-1.1,1.7-2.1,0
			c-5-8.4-9.9-16.7-14.8-25.1c-0.6-1-1.2-1.3-2.4-1.3c-5.4,0.1-10.9,0-16.3,0c-0.4,0-0.9,0-1.4,0.1c0.4,0.6,0.6,1.1,0.9,1.6
			c7.7,12.6,15.4,25.2,23.2,37.7c0.6,0.9,0.6,1.5,0,2.4c-7.9,12.6-15.8,25.2-23.7,37.8c-0.3,0.5-0.5,0.9-0.9,1.6c0.7,0,1.1,0,1.5,0
			c5.5,0,11.1,0,16.6,0c1,0,1.6-0.3,2.1-1.2c5-8.4,10.1-16.9,15.2-25.3c1-1.6,1.1-1.6,2.1,0c5.1,8.4,10.1,16.9,15.2,25.3
			c0.3,0.5,0.9,1.1,1.4,1.1c6.2,0.1,12.5,0.1,19,0.1c-0.4-0.7-0.7-1.2-1-1.7C390.6,99,382.8,86.4,374.9,73.9z"/>
		<path class="st4" d="M190.3,113.2c5.7,0,11.3,0,17.1,0c0-11.2,0-22.3,0-33.5c11,0,21.9,0,32.8,0c0-4.8,0-9.4,0-14.2
			c-11,0-21.9,0-32.8,0c0-6.5,0-12.8,0-19.3c12.2,0,24.3,0,36.4,0c0-4.8,0-9.4,0-14c-17.9,0-35.7,0-53.6,0
			C190.3,59.2,190.3,86.2,190.3,113.2z"/>
		<path class="st4" d="M252.5,46.2c8.2,0,16.4,0,24.8,0c0,22.5,0,44.7,0,66.9c5.7,0,11.2,0,17,0c0-22.3,0-44.6,0-67
			c8.4,0,16.5,0,24.7,0c0-4.7,0-9.4,0-14c-22.2,0-44.3,0-66.5,0C252.5,36.9,252.5,41.5,252.5,46.2z"/>
		<path class="st4" d="M497.2,32.2c-2.5,0-4.9,0-7.4,0c0,0.7,0,1.3,0,1.9c0,17.2,0,34.3,0,51.5c0,6.3-2.1,11.9-6.8,16.2
			c-4.4,4-9.7,5.7-15.5,5.9c-5.6,0.2-11-1-15.6-4.4c-5.9-4.3-8.7-10.4-8.7-17.6c-0.1-17.3,0-34.5,0-51.8c0-0.6,0-1.2,0-1.8
			c-2.6,0-4.9,0-7.3,0c0,0.4-0.1,0.8-0.1,1.1c0,17.7-0.2,35.4,0.1,53.1c0.2,11.7,5.7,20.3,16.3,25.3c5.8,2.7,12,3.4,18.3,2.8
			c5.7-0.6,10.9-2.3,15.5-5.7c7.8-5.7,11.2-13.7,11.3-23.1c0.1-17.3,0-34.6,0-51.9C497.3,33.2,497.2,32.7,497.2,32.2z"/>
		<path class="st4" d="M570.5,86.9c-1.5-6.3-5.7-10.4-11.3-13c-4.3-2-8.9-3.4-13.5-4.9c-4.9-1.6-10-2.7-14.5-5.4
			c-8.5-5-9.3-15.6-1.6-21.7c3.8-3.1,8.3-4.3,13.1-4.3c3,0,6.1,0.4,8.9,1.3c6.4,2,10.2,6.5,11.2,13.3c2.4,0,4.7,0,7,0
			c0-0.2,0.1-0.3,0.1-0.5c0-0.3,0-0.5,0-0.8c-0.8-6.4-3.7-11.6-9.1-15c-10.9-6.9-22.2-7-33.4-0.7c-8.1,4.5-11.6,13-9.9,21.7
			c1.2,6.2,5.4,10.2,10.7,13.1c4.5,2.5,9.5,3.8,14.5,5.2c5,1.5,10.1,2.7,14.7,5.5c3,1.8,5.4,4.2,6.1,7.9c1.1,5.9-0.7,10.8-5.4,14.5
			c-5.6,4.4-12.2,5.1-19.1,4.4c-3.1-0.3-6.1-1.2-8.9-2.8c-4.5-2.6-7-6.6-7.6-11.7c-2.5,0-5,0-7.4,0c0,0.5-0.1,1,0,1.4
			c0.9,6.5,4.1,11.7,9.6,15.4c4.8,3.2,10.2,4.5,15.9,4.7c6.8,0.3,13.4-0.7,19.4-4.1C568.6,105.7,572.8,96.3,570.5,86.9z"/>
	</g>
</g>
</svg>
