<?xml version="1.0" encoding="utf-8"?>
<!-- Generator: Adobe Illustrator 24.0.2, SVG Export Plug-In . SVG Version: 6.00 Build 0)  -->
<svg version="1.1" id="Layer_1" xmlns="http://www.w3.org/2000/svg" xmlns:xlink="http://www.w3.org/1999/xlink" x="0px" y="0px"
	 width="513px" height="512px" viewBox="0 0 513 512" style="enable-background:new 0 0 513 512;" xml:space="preserve">
<style type="text/css">
	.st0{fill:#282E5B;}
	.st1{fill:#008CD6;}
	.st2{fill-rule:evenodd;clip-rule:evenodd;fill:#282E5B;}
</style>
<g>
	<path class="st0" d="M85,217.8c0.6-29.1-15.8-54.5-24.5-60.6c0,0-0.8-0.5-0.8,0.7l0,0c-0.9,55-29.2,69.9-44.4,89.9
		c-34.1,44.8-5.7,96,31.2,105.6c0.7,0.1,2.3,0.7,5.6,1.4c1.7,0.3,2.2-1,0.9-3.2c-4.4-7.6-12.3-20.6-13.8-37.3
		C35.7,275.8,84.4,251.7,85,217.8z"/>
	<path class="st1" d="M103.6,236.4c-0.3-0.2-0.7-0.2-0.8,0.2c-0.8,7-8,21.5-17.6,35.1c-32,45.7-16,66.4-3.4,80.9
		c2.3,2.6,3.4,2.1,4.7,0.2c1.1-1.8,2.8-4.1,10.3-7.6c1.1-0.6,29.2-15.4,32.1-49.2C132.1,263.2,111,242.4,103.6,236.4z"/>
	<path class="st0" d="M270.2,228.1v120.4h-25.9v-48.7h-49.6v48.7h-26.4V228.1h26.4v48.7h49.6v-48.7L270.2,228.1L270.2,228.1z"/>
	<path class="st0" d="M389.6,228.1v23.8h-12.3h-24.7v96.5H326v-96.5h-24.2h-12.3v-23.8L389.6,228.1L389.6,228.1z"/>
	<path class="st2" d="M483.6,348.5l-30.3-41.8l-30.1,41.7h-29.4l44.7-61.4l-42.2-58.9h29.4L513,348.5H483.6z"/>
	<path class="st1" d="M461.5,255l14.6,20.3l34.5-47.2h-29.3L461.5,255z"/>
</g>
</svg>
