<?xml version="1.0" encoding="utf-8"?>
<!-- Generator: Adobe Illustrator 24.0.2, SVG Export Plug-In . SVG Version: 6.00 Build 0)  -->
<svg version="1.1" id="Слой_1" xmlns="http://www.w3.org/2000/svg" xmlns:xlink="http://www.w3.org/1999/xlink" x="0px" y="0px"
	 width="1080px" height="1080px" viewBox="0 0 1080 1080" style="enable-background:new 0 0 1080 1080;" xml:space="preserve">
<style type="text/css">
	.st0{fill:#EAEAEA;}
</style>
<g>
	<path class="st0" d="M316.8,378H7.2c-1.9,0-3.7,0.8-5.1,2.1c-1.4,1.3-2.1,3.2-2.1,5.1v309.6c0,1.9,0.8,3.7,2.1,5.1
		c1.3,1.4,3.2,2.1,5.1,2.1h309.6c1.9,0,3.7-0.8,5.1-2.1c1.4-1.3,2.1-3.2,2.1-5.1V385.2c0-1.9-0.8-3.7-2.1-5.1
		C320.5,378.8,318.7,378,316.8,378z M216,586.8c0,1.9-0.8,3.7-2.1,5.1c-1.3,1.3-3.2,2.1-5.1,2.1h-93.6c-1.9,0-3.7-0.8-5.1-2.1
		c-1.3-1.4-2.1-3.2-2.1-5.1v-93.6c0-1.9,0.8-3.7,2.1-5.1c1.4-1.4,3.2-2.1,5.1-2.1h93.6c1.9,0,3.7,0.8,5.1,2.1
		c1.4,1.3,2.1,3.2,2.1,5.1V586.8z"/>
	<path class="st0" d="M972.1,493.2c0-4-3.2-7.2-7.2-7.2h-93.6c-4,0-7.2,3.2-7.2,7.2v93.6c0,4,3.2,7.2,7.2,7.2h93.6
		c4,0,7.2-3.2,7.2-7.2V493.2z"/>
	<path class="st0" d="M856.8,378h-93.6c-4,0-7.2,3.2-7.2,7.2v93.6c0,4,3.2,7.2,7.2,7.2h93.6c4,0,7.2-3.2,7.2-7.2v-93.6
		C864,381.2,860.8,378,856.8,378z"/>
	<path class="st0" d="M1072.8,378h-93.6c-4,0-7.2,3.2-7.2,7.2v93.6c0,4,3.2,7.2,7.2,7.2h93.6c4,0,7.2-3.2,7.2-7.2v-93.6
		C1080,381.2,1076.8,378,1072.8,378z"/>
	<path class="st0" d="M856.8,594h-93.6c-4,0-7.2,3.2-7.2,7.2v93.6c0,4,3.2,7.2,7.2,7.2h93.6c4,0,7.2-3.2,7.2-7.2v-93.6
		C864,597.2,860.8,594,856.8,594z"/>
	<path class="st0" d="M1072.8,594h-93.6c-4,0-7.2,3.2-7.2,7.2v93.6c0,4,3.2,7.2,7.2,7.2h93.6c4,0,7.2-3.2,7.2-7.2v-93.6
		C1080,597.2,1076.8,594,1072.8,594z"/>
	<path class="st0" d="M694.7,378h-93.6c-4,0-7.2,3.2-7.2,7.2v93.6c0,4,3.2,7.2,7.2,7.2h93.6c4,0,7.2-3.2,7.2-7.2v-93.6
		C701.9,381.2,698.7,378,694.7,378z"/>
	<path class="st0" d="M694.7,594h-93.6c-4,0-7.2,3.2-7.2,7.2v93.6c0,4,3.2,7.2,7.2,7.2h93.6c4,0,7.2-3.2,7.2-7.2v-93.6
		C701.9,597.2,698.7,594,694.7,594z"/>
	<path class="st0" d="M593.9,493.1c0-1.9-0.8-3.7-2.1-5.1c-1.4-1.4-3.2-2.1-5.1-2.1H485.9V385.2c0-1.9-0.8-3.7-2.1-5.1
		c-1.4-1.4-3.2-2.1-5.1-2.1h-93.6c-1.9,0-3.7,0.8-5.1,2.1c-1.4,1.3-2.1,3.2-2.1,5.1v309.4c0,1.9,0.8,3.7,2.1,5.1
		c1.3,1.4,3.2,2.1,5.1,2.1h93.6c1.9,0,3.7-0.8,5.1-2.1c1.3-1.3,2.1-3.2,2.1-5.1V593.9h100.8c1.9,0,3.7-0.8,5.1-2.1
		c1.3-1.4,2.1-3.2,2.1-5.1V493.1z"/>
</g>
</svg>
