<?xml version="1.0" encoding="utf-8"?>
<!-- Generator: Adobe Illustrator 24.0.2, SVG Export Plug-In . SVG Version: 6.00 Build 0)  -->
<svg version="1.1" id="Layer_1" xmlns="http://www.w3.org/2000/svg" xmlns:xlink="http://www.w3.org/1999/xlink" x="0px" y="0px"
	 width="735px" height="170.6px" viewBox="0 0 735 170.6" style="enable-background:new 0 0 735 170.6;" xml:space="preserve">
<style type="text/css">
	.st0{fill:#41D9BF;}
	.st1{fill:#072B38;}
	.st2{fill:#144556;}
</style>
<g>
	<path class="st0" d="M221.6,121.1l0.1-71.2H253c15,0,23.3,10.3,23.3,22.4s-8.5,22.3-23.3,22.3h-18.8v26.6h-12.6V121.1z M251.2,60.9
		h-17.1v22.7h17.1c7.1,0,12.2-4.5,12.2-11.3S258.3,60.9,251.2,60.9z"/>
	<path class="st0" d="M319.8,48.8c21.4,0,36.4,15.6,36.4,36.9s-15.1,36.8-36.5,36.8c-21.4,0-36.3-15.6-36.3-36.9
		S298.5,48.7,319.8,48.8z M319.8,59.9c-14.4,0-23.6,11-23.6,25.7s9.1,25.7,23.6,25.7s23.6-11.1,23.6-25.7S334.1,59.9,319.8,59.9
		L319.8,59.9z"/>
	<path class="st0" d="M368.3,121.3l0.1-71.2h12.5l-0.1,60.2h31.4v11H368.3z"/>
	<path class="st0" d="M453.5,49c21.4,0,36.4,15.6,36.4,36.9s-15.1,36.8-36.5,36.8S417,107.1,417,85.8S432.2,48.9,453.5,49z
		 M453.5,60c-14.4,0-23.6,11-23.6,25.7s9.1,25.8,23.6,25.8c14.4,0,23.6-11.1,23.6-25.7S467.9,60.1,453.5,60L453.5,60z"/>
	<path class="st0" d="M551.7,121.5l-37.1-52v51.9h-12.5l0.1-71.2H515l36.3,50.6V50.3h12.5l-0.1,71.2H551.7z"/>
	<path class="st0" d="M578.9,121.5l0.1-71.2h12.5l-0.1,71.2H578.9z"/>
	<path class="st0" d="M606.6,121.6l0.1-71.3h48.8v11l-36.3-0.1v18.5h35.6v11h-35.6v19.7h36.3v11L606.6,121.6z"/>
	<path class="st0" d="M715.9,121.7L696,93.8l-20,27.9h-15l26.8-36.5l-25-34.8h15l18.3,26.2l18.3-26.1h15.1l-25,34.6l26.5,36.7
		L715.9,121.7z"/>
	<path class="st1" d="M147.8,42.8v42.6l-36.9-21.3L74,42.7l37-21.2l36.9-21.3L147.8,42.8z"/>
	<path class="st2" d="M73.9,85.3v42.6L37,106.6L0.1,85.2L37,64l36.9-21.3V85.3z"/>
	<path class="st0" d="M0.1,42.6V0L37,21.3l36.9,21.3L37,64L0.1,85.2L0.1,42.6z"/>
	<path class="st1" d="M0,127.8l0.1-42.6L37,106.6l36.9,21.3L37,149.2L0,170.4L0,127.8z"/>
	<path class="st0" d="M110.9,64.1L74,42.7v42.6v42.6l36.8,21.4l36.9,21.3V128l0.1-42.6L110.9,64.1z"/>
</g>
</svg>
